<svg width="117" height="117" viewBox="0 0 117 117" fill="none" xmlns="http://www.w3.org/2000/svg">
<g filter="url(#filter0_bi_452_76)">
<circle cx="58.5" cy="58.5" r="58.5" fill="url(#paint0_radial_452_76)" fill-opacity="0.98"/>
</g>
<mask id="mask0_452_76" style="mask-type:alpha" maskUnits="userSpaceOnUse" x="4" y="4" width="109" height="109">
<circle cx="58.821" cy="58.2807" r="54.0036" fill="url(#paint1_radial_452_76)"/>
</mask>
<g mask="url(#mask0_452_76)">
<path fill-rule="evenodd" clip-rule="evenodd" d="M113.306 73.4693C97.4564 101.623 59.9347 117.197 31.781 101.347C3.62735 85.4973 -4.49702 44.2252 11.3529 16.0715C12.0261 14.8758 12.735 13.7129 13.4775 12.5834C0.387262 40.1058 10.677 73.4572 37.6353 88.6342C64.5932 103.811 98.4445 95.3106 115.186 69.8444C114.606 71.0649 113.979 72.2738 113.306 73.4693Z" fill="url(#paint2_linear_452_76)" fill-opacity="0.2"/>
<path fill-rule="evenodd" clip-rule="evenodd" d="M53.2554 116.588C83.6599 114.492 107.674 89.1646 107.674 58.2279C107.674 27.2913 83.6599 1.9634 53.2554 -0.131937C54.6038 -0.224863 55.9648 -0.272095 57.3368 -0.272095C89.6454 -0.272095 115.837 25.9192 115.837 58.2279C115.837 90.5366 89.6454 116.728 57.3368 116.728C55.9648 116.728 54.6038 116.681 53.2554 116.588Z" fill="#F7FBFD" fill-opacity="0.52"/>
</g>
<path fill-rule="evenodd" clip-rule="evenodd" d="M47.8895 116.611C76.8447 113.258 99.3229 88.6534 99.3229 58.799C99.3229 28.9447 76.8447 4.34041 47.8895 0.987396C50.1097 0.730299 52.3679 0.598145 54.657 0.598145C86.8005 0.598145 112.858 26.6556 112.858 58.799C112.858 90.9425 86.8005 117 54.657 117C52.3679 117 50.1097 116.868 47.8895 116.611Z" fill="url(#paint3_linear_452_76)" fill-opacity="0.2"/>
<path d="M45.8142 29.67C45.1342 29.67 44.5062 29.586 43.9302 29.418C43.3622 29.242 42.8742 29.002 42.4662 28.698L42.9462 27.486C43.2182 27.678 43.5022 27.842 43.7982 27.978C44.0942 28.106 44.4102 28.206 44.7462 28.278C45.0822 28.342 45.4382 28.374 45.8142 28.374C46.4462 28.374 46.9022 28.27 47.1822 28.062C47.4622 27.854 47.6022 27.582 47.6022 27.246C47.6022 26.95 47.5062 26.726 47.3142 26.574C47.1222 26.414 46.7782 26.282 46.2822 26.178L44.9262 25.902C44.1502 25.742 43.5702 25.474 43.1862 25.098C42.8022 24.722 42.6102 24.218 42.6102 23.586C42.6102 23.058 42.7502 22.598 43.0302 22.206C43.3102 21.814 43.7022 21.51 44.2062 21.294C44.7102 21.078 45.2982 20.97 45.9702 20.97C46.5702 20.97 47.1262 21.058 47.6382 21.234C48.1502 21.402 48.5782 21.646 48.9222 21.966L48.4422 23.118C48.0982 22.83 47.7222 22.618 47.3142 22.482C46.9062 22.338 46.4502 22.266 45.9462 22.266C45.3782 22.266 44.9342 22.378 44.6142 22.602C44.3022 22.818 44.1462 23.118 44.1462 23.502C44.1462 23.798 44.2422 24.034 44.4342 24.21C44.6342 24.386 44.9702 24.522 45.4422 24.618L46.7862 24.882C47.5862 25.042 48.1782 25.306 48.5622 25.674C48.9462 26.034 49.1382 26.522 49.1382 27.138C49.1382 27.642 49.0022 28.086 48.7302 28.47C48.4582 28.846 48.0742 29.142 47.5782 29.358C47.0822 29.566 46.4942 29.67 45.8142 29.67ZM50.5965 29.55V21.09H54.2925C55.2205 21.09 55.9365 21.31 56.4405 21.75C56.9525 22.19 57.2085 22.802 57.2085 23.586C57.2085 24.106 57.0925 24.55 56.8605 24.918C56.6365 25.286 56.3125 25.57 55.8885 25.77C55.4645 25.962 54.9645 26.058 54.3885 26.058L54.5565 25.83H54.9645C55.3005 25.83 55.6005 25.918 55.8645 26.094C56.1285 26.27 56.3445 26.538 56.5125 26.898L57.7485 29.55H56.0445L54.7965 26.802C54.6845 26.522 54.5125 26.338 54.2805 26.25C54.0565 26.162 53.7845 26.118 53.4645 26.118H52.1445V29.55H50.5965ZM52.1445 24.978H54.0405C54.5845 24.978 54.9965 24.866 55.2765 24.642C55.5645 24.41 55.7085 24.074 55.7085 23.634C55.7085 23.194 55.5645 22.862 55.2765 22.638C54.9965 22.414 54.5845 22.302 54.0405 22.302H52.1445V24.978ZM59.0223 29.55V21.09H60.5703V29.55H59.0223ZM62.4325 29.55V21.09H63.9805V28.242H67.9645V29.55H62.4325ZM68.0238 29.55L71.8518 21.09H73.1478L77.0238 29.55H75.4518L74.4198 27.174L75.0438 27.594H69.9678L70.6158 27.174L69.5838 29.55H68.0238ZM72.4878 22.746L70.7958 26.754L70.4838 26.382H74.5158L74.2638 26.754L72.5358 22.746H72.4878ZM17.5087 44.55V36.09H21.2647C22.1927 36.09 22.9007 36.314 23.3887 36.762C23.8767 37.21 24.1207 37.826 24.1207 38.61C24.1207 39.386 23.8767 40.002 23.3887 40.458C22.9007 40.914 22.1927 41.142 21.2647 41.142H19.0567V44.55H17.5087ZM19.0567 39.918H21.0847C21.5967 39.918 21.9807 39.806 22.2367 39.582C22.4927 39.35 22.6207 39.026 22.6207 38.61C22.6207 38.194 22.4927 37.874 22.2367 37.65C21.9807 37.418 21.5967 37.302 21.0847 37.302H19.0567V39.918ZM25.5008 44.55V36.09H29.1968C30.1248 36.09 30.8408 36.31 31.3448 36.75C31.8568 37.19 32.1128 37.802 32.1128 38.586C32.1128 39.106 31.9968 39.55 31.7648 39.918C31.5408 40.286 31.2168 40.57 30.7928 40.77C30.3688 40.962 29.8688 41.058 29.2928 41.058L29.4608 40.83H29.8688C30.2048 40.83 30.5048 40.918 30.7688 41.094C31.0328 41.27 31.2488 41.538 31.4168 41.898L32.6528 44.55H30.9488L29.7008 41.802C29.5888 41.522 29.4168 41.338 29.1848 41.25C28.9608 41.162 28.6888 41.118 28.3688 41.118H27.0488V44.55H25.5008ZM27.0488 39.978H28.9448C29.4888 39.978 29.9008 39.866 30.1808 39.642C30.4688 39.41 30.6128 39.074 30.6128 38.634C30.6128 38.194 30.4688 37.862 30.1808 37.638C29.9008 37.414 29.4888 37.302 28.9448 37.302H27.0488V39.978ZM32.8383 44.55L36.6663 36.09H37.9623L41.8383 44.55H40.2663L39.2343 42.174L39.8583 42.594H34.7823L35.4303 42.174L34.3983 44.55H32.8383ZM37.3023 37.746L35.6103 41.754L35.2983 41.382H39.3303L39.0783 41.754L37.3503 37.746H37.3023ZM42.7743 44.55V36.09H46.4823C47.4023 36.09 48.1103 36.286 48.6063 36.678C49.1023 37.062 49.3503 37.598 49.3503 38.286C49.3503 38.798 49.1983 39.23 48.8943 39.582C48.5903 39.934 48.1703 40.17 47.6343 40.29V40.11C48.2503 40.198 48.7263 40.422 49.0623 40.782C49.4063 41.134 49.5783 41.602 49.5783 42.186C49.5783 42.938 49.3183 43.522 48.7983 43.938C48.2783 44.346 47.5543 44.55 46.6263 44.55H42.7743ZM44.2623 43.374H46.4463C46.9663 43.374 47.3703 43.278 47.6583 43.086C47.9463 42.886 48.0903 42.562 48.0903 42.114C48.0903 41.658 47.9463 41.334 47.6583 41.142C47.3703 40.942 46.9663 40.842 46.4463 40.842H44.2623V43.374ZM44.2623 39.678H46.2183C46.7703 39.678 47.1783 39.578 47.4423 39.378C47.7143 39.17 47.8503 38.866 47.8503 38.466C47.8503 38.066 47.7143 37.766 47.4423 37.566C47.1783 37.358 46.7703 37.254 46.2183 37.254H44.2623V39.678ZM51.0594 44.55V36.09H52.6074V39.618H56.9394V36.09H58.4874V44.55H56.9394V40.902H52.6074V44.55H51.0594ZM63.8804 44.67C62.6724 44.67 61.7724 44.37 61.1804 43.77C60.5964 43.162 60.3044 42.266 60.3044 41.082V36.09H61.8524V41.07C61.8524 41.822 62.0124 42.39 62.3324 42.774C62.6604 43.158 63.1764 43.35 63.8804 43.35C64.5524 43.35 65.0564 43.158 65.3924 42.774C65.7364 42.39 65.9084 41.822 65.9084 41.07V36.09H67.4324V41.082C67.4324 42.266 67.1324 43.162 66.5324 43.77C65.9404 44.37 65.0564 44.67 63.8804 44.67ZM69.2352 44.55V36.09H72.9912C73.9192 36.09 74.6272 36.314 75.1152 36.762C75.6032 37.21 75.8472 37.826 75.8472 38.61C75.8472 39.386 75.6032 40.002 75.1152 40.458C74.6272 40.914 73.9192 41.142 72.9912 41.142H70.7832V44.55H69.2352ZM70.7832 39.918H72.8112C73.3232 39.918 73.7072 39.806 73.9632 39.582C74.2192 39.35 74.3472 39.026 74.3472 38.61C74.3472 38.194 74.2192 37.874 73.9632 37.65C73.7072 37.418 73.3232 37.302 72.8112 37.302H70.7832V39.918ZM75.4125 44.55L79.2405 36.09H80.5365L84.4125 44.55H82.8405L81.8085 42.174L82.4325 42.594H77.3565L78.0045 42.174L76.9725 44.55H75.4125ZM79.8765 37.746L78.1845 41.754L77.8725 41.382H81.9045L81.6525 41.754L79.9245 37.746H79.8765ZM85.3485 44.55V36.09H88.4205C89.3885 36.09 90.2045 36.258 90.8685 36.594C91.5405 36.922 92.0485 37.402 92.3925 38.034C92.7365 38.658 92.9085 39.418 92.9085 40.314C92.9085 41.202 92.7365 41.962 92.3925 42.594C92.0485 43.226 91.5405 43.71 90.8685 44.046C90.2045 44.382 89.3885 44.55 88.4205 44.55H85.3485ZM86.8965 43.266H88.3245C89.3485 43.266 90.1085 43.022 90.6045 42.534C91.1005 42.046 91.3485 41.306 91.3485 40.314C91.3485 39.314 91.1005 38.574 90.6045 38.094C90.1085 37.606 89.3485 37.362 88.3245 37.362H86.8965V43.266ZM93.3773 44.55L97.2053 36.09H98.5013L102.377 44.55H100.805L99.7733 42.174L100.397 42.594H95.3213L95.9693 42.174L94.9373 44.55H93.3773ZM97.8413 37.746L96.1493 41.754L95.8373 41.382H99.8693L99.6173 41.754L97.8893 37.746H97.8413ZM43.4821 59.67C42.8021 59.67 42.1741 59.586 41.5981 59.418C41.0301 59.242 40.5421 59.002 40.1341 58.698L40.6141 57.486C40.8861 57.678 41.1701 57.842 41.4661 57.978C41.7621 58.106 42.0781 58.206 42.4141 58.278C42.7501 58.342 43.1061 58.374 43.4821 58.374C44.1141 58.374 44.5701 58.27 44.8501 58.062C45.1301 57.854 45.2701 57.582 45.2701 57.246C45.2701 56.95 45.1741 56.726 44.9821 56.574C44.7901 56.414 44.4461 56.282 43.9501 56.178L42.5941 55.902C41.8181 55.742 41.2381 55.474 40.8541 55.098C40.4701 54.722 40.2781 54.218 40.2781 53.586C40.2781 53.058 40.4181 52.598 40.6981 52.206C40.9781 51.814 41.3701 51.51 41.8741 51.294C42.3781 51.078 42.9661 50.97 43.6381 50.97C44.2381 50.97 44.7941 51.058 45.3061 51.234C45.8181 51.402 46.2461 51.646 46.5901 51.966L46.1101 53.118C45.7661 52.83 45.3901 52.618 44.9821 52.482C44.5741 52.338 44.1181 52.266 43.6141 52.266C43.0461 52.266 42.6021 52.378 42.2821 52.602C41.9701 52.818 41.8141 53.118 41.8141 53.502C41.8141 53.798 41.9101 54.034 42.1021 54.21C42.3021 54.386 42.6381 54.522 43.1101 54.618L44.4541 54.882C45.2541 55.042 45.8461 55.306 46.2301 55.674C46.6141 56.034 46.8061 56.522 46.8061 57.138C46.8061 57.642 46.6701 58.086 46.3981 58.47C46.1261 58.846 45.7421 59.142 45.2461 59.358C44.7501 59.566 44.1621 59.67 43.4821 59.67ZM48.2645 59.55V51.09H53.9645V52.302H49.7525V54.642H53.6885V55.866H49.7525V58.326H53.9645V59.55H48.2645ZM58.1021 59.55L54.3341 51.09H56.0021L59.0381 58.194H58.5341L61.5701 51.09H63.1781L59.4101 59.55H58.1021ZM62.3637 59.55L66.1917 51.09H67.4877L71.3637 59.55H69.7917L68.7597 57.174L69.3837 57.594H64.3077L64.9557 57.174L63.9237 59.55H62.3637ZM66.8277 52.746L65.1357 56.754L64.8237 56.382H68.8557L68.6037 56.754L66.8757 52.746H66.8277ZM72.2997 59.55V51.09H73.8477V54.834H73.8717L77.5557 51.09H79.4277L75.0117 55.494L75.0237 54.822L79.7157 59.55H77.7837L73.8717 55.638H73.8477V59.55H72.2997ZM24.9029 74.202V72.63L30.2429 70.59V71.634L24.9029 69.582V68.01L30.7709 70.302V71.898L24.9029 74.202ZM35.7109 74.55V72.93L38.2789 70.254C38.5909 69.934 38.8149 69.654 38.9509 69.414C39.0869 69.174 39.1549 68.93 39.1549 68.682C39.1549 68.378 39.0509 68.15 38.8429 67.998C38.6429 67.846 38.3509 67.77 37.9669 67.77C37.6469 67.77 37.3189 67.83 36.9829 67.95C36.6549 68.062 36.3229 68.246 35.9869 68.502L35.3029 66.894C35.6789 66.606 36.1309 66.378 36.6589 66.21C37.1869 66.042 37.7309 65.958 38.2909 65.958C39.2749 65.958 40.0229 66.17 40.5349 66.594C41.0549 67.018 41.3149 67.63 41.3149 68.43C41.3149 68.942 41.1949 69.434 40.9549 69.906C40.7229 70.37 40.3349 70.866 39.7909 71.394L37.8229 73.314V72.75H41.6269V74.55H35.7109ZM45.6302 74.682C45.2542 74.682 44.8782 74.642 44.5022 74.562C44.1262 74.49 43.7782 74.386 43.4582 74.25C43.1382 74.114 42.8662 73.954 42.6422 73.77L43.3142 72.138C43.6662 72.378 44.0342 72.562 44.4182 72.69C44.8022 72.81 45.1902 72.87 45.5822 72.87C45.9902 72.87 46.3062 72.782 46.5302 72.606C46.7622 72.43 46.8782 72.182 46.8782 71.862C46.8782 71.542 46.7702 71.29 46.5542 71.106C46.3382 70.922 46.0462 70.83 45.6782 70.83C45.4062 70.83 45.1542 70.878 44.9222 70.974C44.6902 71.062 44.4702 71.198 44.2622 71.382H42.8942V66.09H48.4382V67.878H44.9582V69.762H44.4662C44.6582 69.538 44.9102 69.37 45.2222 69.258C45.5342 69.138 45.8782 69.078 46.2542 69.078C46.7982 69.078 47.2742 69.194 47.6822 69.426C48.0902 69.65 48.4062 69.966 48.6302 70.374C48.8622 70.782 48.9782 71.258 48.9782 71.802C48.9782 72.378 48.8422 72.886 48.5702 73.326C48.2982 73.758 47.9102 74.094 47.4062 74.334C46.9102 74.566 46.3182 74.682 45.6302 74.682ZM53.5343 74.55V66.09H55.7543V72.714H59.3783V74.55H53.5343ZM59.3223 74.55L63.2823 66.09H65.0823L69.0663 74.55H66.8463L65.8263 72.222L66.6783 72.834H61.7103L62.5503 72.222L61.5423 74.55H59.3223ZM64.1703 68.37L62.7663 71.718L62.4303 71.154H65.9463L65.6463 71.718L64.2303 68.37H64.1703ZM69.589 74.55V66.09H71.809V69.714H71.833L75.073 66.09H77.665L73.561 70.542V69.666L77.893 74.55H75.217L71.833 70.734H71.809V74.55H69.589ZM78.0382 74.55V66.09H80.2582V69.354H83.6662V66.09H85.8862V74.55H83.6662V71.166H80.2582V74.55H78.0382ZM90.6284 74.682C89.9484 74.682 89.3004 74.602 88.6844 74.442C88.0764 74.274 87.5644 74.05 87.1484 73.77L87.7724 72.054C88.0364 72.222 88.3244 72.366 88.6364 72.486C88.9484 72.606 89.2724 72.702 89.6084 72.774C89.9524 72.838 90.3004 72.87 90.6524 72.87C91.1804 72.87 91.5444 72.802 91.7444 72.666C91.9524 72.53 92.0564 72.354 92.0564 72.138C92.0564 71.946 91.9884 71.798 91.8524 71.694C91.7164 71.582 91.4604 71.486 91.0844 71.406L89.6204 71.106C88.8444 70.946 88.2644 70.67 87.8804 70.278C87.4964 69.878 87.3044 69.358 87.3044 68.718C87.3044 68.158 87.4524 67.674 87.7484 67.266C88.0524 66.85 88.4764 66.53 89.0204 66.306C89.5644 66.074 90.2004 65.958 90.9284 65.958C91.5284 65.958 92.0924 66.042 92.6204 66.21C93.1484 66.37 93.5804 66.594 93.9164 66.882L93.2924 68.49C92.9724 68.258 92.6124 68.082 92.2124 67.962C91.8124 67.834 91.3684 67.77 90.8804 67.77C90.4164 67.77 90.0644 67.842 89.8244 67.986C89.5924 68.122 89.4764 68.318 89.4764 68.574C89.4764 68.75 89.5444 68.902 89.6804 69.03C89.8244 69.15 90.0844 69.25 90.4604 69.33L91.9004 69.618C92.6764 69.77 93.2564 70.042 93.6404 70.434C94.0324 70.826 94.2284 71.338 94.2284 71.97C94.2284 72.514 94.0764 72.99 93.7724 73.398C93.4764 73.806 93.0604 74.122 92.5244 74.346C91.9884 74.57 91.3564 74.682 90.6284 74.682Z" fill="black"/>
<path d="M32.9147 88.9V83.965H34.8887C35.4114 83.965 35.8151 84.077 36.0997 84.301C36.3844 84.525 36.5267 84.8424 36.5267 85.253C36.5267 85.561 36.4334 85.8177 36.2467 86.023C36.0647 86.2284 35.8104 86.3637 35.4837 86.429V86.331C35.8477 86.373 36.1324 86.499 36.3377 86.709C36.5477 86.9144 36.6527 87.192 36.6527 87.542C36.6527 87.9807 36.5057 88.3167 36.2117 88.55C35.9224 88.7834 35.5117 88.9 34.9797 88.9H32.9147ZM33.4817 88.431H34.9237C35.2784 88.431 35.5584 88.3634 35.7637 88.228C35.9737 88.088 36.0787 87.857 36.0787 87.535C36.0787 87.2084 35.9737 86.9774 35.7637 86.842C35.5584 86.702 35.2784 86.632 34.9237 86.632H33.4817V88.431ZM33.4817 86.17H34.8047C35.1874 86.17 35.4744 86.0954 35.6657 85.946C35.8571 85.7967 35.9527 85.582 35.9527 85.302C35.9527 85.0127 35.8571 84.7957 35.6657 84.651C35.4744 84.5017 35.1874 84.427 34.8047 84.427H33.4817V86.17ZM39.1705 88.963C38.6199 88.963 38.1859 88.8044 37.8685 88.487C37.5512 88.165 37.3925 87.7194 37.3925 87.15C37.3925 86.7814 37.4625 86.4617 37.6025 86.191C37.7425 85.9157 37.9385 85.7034 38.1905 85.554C38.4425 85.4 38.7319 85.323 39.0585 85.323C39.3805 85.323 39.6512 85.3907 39.8705 85.526C40.0899 85.6614 40.2579 85.855 40.3745 86.107C40.4912 86.3544 40.5495 86.6484 40.5495 86.989V87.199H37.8265V86.842H40.1785L40.0595 86.933C40.0595 86.5597 39.9755 86.268 39.8075 86.058C39.6395 85.848 39.3899 85.743 39.0585 85.743C38.7085 85.743 38.4355 85.8667 38.2395 86.114C38.0435 86.3567 37.9455 86.6857 37.9455 87.101V87.164C37.9455 87.6027 38.0529 87.9364 38.2675 88.165C38.4869 88.389 38.7925 88.501 39.1845 88.501C39.3945 88.501 39.5905 88.4707 39.7725 88.41C39.9592 88.3447 40.1365 88.2397 40.3045 88.095L40.5005 88.494C40.3465 88.6434 40.1505 88.76 39.9125 88.844C39.6792 88.9234 39.4319 88.963 39.1705 88.963ZM41.4172 88.9V86.198C41.4172 86.0674 41.4102 85.9344 41.3962 85.799C41.3868 85.659 41.3752 85.5214 41.3612 85.386H41.9072L41.9772 86.156H41.8932C41.9958 85.8854 42.1592 85.68 42.3832 85.54C42.6118 85.3954 42.8755 85.323 43.1742 85.323C43.5895 85.323 43.9022 85.435 44.1122 85.659C44.3268 85.8784 44.4342 86.226 44.4342 86.702V88.9H43.8672V86.737C43.8672 86.4057 43.7995 86.1654 43.6642 86.016C43.5335 85.862 43.3282 85.785 43.0482 85.785C42.7215 85.785 42.4625 85.8854 42.2712 86.086C42.0798 86.2867 41.9842 86.555 41.9842 86.891V88.9H41.4172ZM47.0797 88.963C46.5291 88.963 46.0951 88.8044 45.7777 88.487C45.4604 88.165 45.3017 87.7194 45.3017 87.15C45.3017 86.7814 45.3717 86.4617 45.5117 86.191C45.6517 85.9157 45.8477 85.7034 46.0997 85.554C46.3517 85.4 46.6411 85.323 46.9677 85.323C47.2897 85.323 47.5604 85.3907 47.7797 85.526C47.9991 85.6614 48.1671 85.855 48.2837 86.107C48.4004 86.3544 48.4587 86.6484 48.4587 86.989V87.199H45.7357V86.842H48.0877L47.9687 86.933C47.9687 86.5597 47.8847 86.268 47.7167 86.058C47.5487 85.848 47.2991 85.743 46.9677 85.743C46.6177 85.743 46.3447 85.8667 46.1487 86.114C45.9527 86.3567 45.8547 86.6857 45.8547 87.101V87.164C45.8547 87.6027 45.9621 87.9364 46.1767 88.165C46.3961 88.389 46.7017 88.501 47.0937 88.501C47.3037 88.501 47.4997 88.4707 47.6817 88.41C47.8684 88.3447 48.0457 88.2397 48.2137 88.095L48.4097 88.494C48.2557 88.6434 48.0597 88.76 47.8217 88.844C47.5884 88.9234 47.3411 88.963 47.0797 88.963ZM49.5083 88.9V85.827H48.8223V85.386H49.6623L49.5083 85.533V84.945C49.5083 84.5484 49.6063 84.245 49.8023 84.035C50.003 83.825 50.2877 83.72 50.6563 83.72C50.745 83.72 50.8383 83.7294 50.9363 83.748C51.039 83.762 51.1253 83.783 51.1953 83.811V84.28C51.1393 84.2567 51.0693 84.238 50.9853 84.224C50.906 84.2054 50.8243 84.196 50.7403 84.196C50.521 84.196 50.3553 84.2614 50.2433 84.392C50.1313 84.5227 50.0753 84.7234 50.0753 84.994V85.505L49.9843 85.386H52.2383V88.9H51.6713V85.827H50.0753V88.9H49.5083ZM51.6083 84.588V83.951H52.3083V84.588H51.6083ZM54.5919 88.963C54.2465 88.963 53.9829 88.865 53.8009 88.669C53.6189 88.4684 53.5279 88.1674 53.5279 87.766V85.827H52.8419V85.386H53.5279V84.427L54.0949 84.266V85.386H55.1029V85.827H54.0949V87.703C54.0949 87.983 54.1415 88.1837 54.2349 88.305C54.3329 88.4217 54.4775 88.48 54.6689 88.48C54.7575 88.48 54.8369 88.473 54.9069 88.459C54.9769 88.4404 55.0399 88.4194 55.0959 88.396V88.872C55.0305 88.9 54.9512 88.921 54.8579 88.935C54.7692 88.9537 54.6805 88.963 54.5919 88.963ZM56.9621 88.963C56.6821 88.963 56.4208 88.9257 56.1781 88.851C55.9355 88.7717 55.7348 88.662 55.5761 88.522L55.7721 88.123C55.9448 88.2584 56.1315 88.3587 56.3321 88.424C56.5375 88.4894 56.7498 88.522 56.9691 88.522C57.2491 88.522 57.4591 88.473 57.5991 88.375C57.7438 88.2724 57.8161 88.1324 57.8161 87.955C57.8161 87.8197 57.7695 87.7124 57.6761 87.633C57.5875 87.549 57.4405 87.4837 57.2351 87.437L56.5841 87.304C56.2855 87.2387 56.0615 87.129 55.9121 86.975C55.7628 86.8164 55.6881 86.6157 55.6881 86.373C55.6881 86.1677 55.7418 85.988 55.8491 85.834C55.9565 85.6754 56.1128 85.5517 56.3181 85.463C56.5235 85.3697 56.7638 85.323 57.0391 85.323C57.2958 85.323 57.5315 85.3627 57.7461 85.442C57.9655 85.5167 58.1475 85.6264 58.2921 85.771L58.0891 86.163C57.9491 86.0277 57.7881 85.9274 57.6061 85.862C57.4288 85.792 57.2445 85.757 57.0531 85.757C56.7778 85.757 56.5701 85.813 56.4301 85.925C56.2948 86.0324 56.2271 86.1747 56.2271 86.352C56.2271 86.4874 56.2691 86.5994 56.3531 86.688C56.4418 86.772 56.5771 86.835 56.7591 86.877L57.4101 87.01C57.7275 87.08 57.9631 87.1897 58.1171 87.339C58.2758 87.4837 58.3551 87.6797 58.3551 87.927C58.3551 88.137 58.2968 88.3214 58.1801 88.48C58.0635 88.634 57.9001 88.753 57.6901 88.837C57.4848 88.921 57.2421 88.963 56.9621 88.963ZM59.1538 86.1V85.386H59.8678V86.1H59.1538ZM59.1538 88.9V88.186H59.8678V88.9H59.1538ZM64.0908 88.9L62.3688 83.965H62.9778L64.4828 88.41H64.2378L65.8198 83.965H66.2818L67.7798 88.41H67.5558L69.1028 83.965H69.6768L67.9408 88.9H67.4228L65.9668 84.623H66.1138L64.5948 88.9H64.0908ZM71.4104 88.963C71.0977 88.963 70.8247 88.8907 70.5914 88.746C70.3581 88.5967 70.1761 88.3867 70.0454 88.116C69.9194 87.8454 69.8564 87.521 69.8564 87.143C69.8564 86.7604 69.9194 86.4337 70.0454 86.163C70.1761 85.8924 70.3581 85.6847 70.5914 85.54C70.8247 85.3954 71.0977 85.323 71.4104 85.323C71.7277 85.323 72.0007 85.4047 72.2294 85.568C72.4627 85.7267 72.6167 85.9437 72.6914 86.219H72.6074L72.6844 85.386H73.2304C73.2164 85.5214 73.2024 85.659 73.1884 85.799C73.1791 85.9344 73.1744 86.0674 73.1744 86.198V88.9H72.6074V88.074H72.6844C72.6097 88.3494 72.4557 88.5664 72.2224 88.725C71.9891 88.8837 71.7184 88.963 71.4104 88.963ZM71.5224 88.501C71.8584 88.501 72.1244 88.3867 72.3204 88.158C72.5164 87.9247 72.6144 87.5864 72.6144 87.143C72.6144 86.695 72.5164 86.3567 72.3204 86.128C72.1244 85.8947 71.8584 85.778 71.5224 85.778C71.1911 85.778 70.9251 85.8947 70.7244 86.128C70.5284 86.3567 70.4304 86.695 70.4304 87.143C70.4304 87.5864 70.5284 87.9247 70.7244 88.158C70.9251 88.3867 71.1911 88.501 71.5224 88.501ZM74.2707 88.9V83.748H74.8377V88.9H74.2707ZM75.9386 88.9V83.748H76.5056V88.9H75.9386ZM79.3128 86.429C79.3128 85.9064 79.4015 85.4584 79.5788 85.085C79.7608 84.707 80.0198 84.4154 80.3558 84.21C80.6965 84.0047 81.1048 83.902 81.5808 83.902C82.0428 83.902 82.4441 84.0047 82.7848 84.21C83.1255 84.4154 83.3868 84.707 83.5688 85.085C83.7555 85.4584 83.8488 85.904 83.8488 86.422C83.8488 86.9447 83.7555 87.395 83.5688 87.773C83.3821 88.151 83.1185 88.445 82.7778 88.655C82.4418 88.8604 82.0428 88.963 81.5808 88.963C81.1048 88.963 80.6988 88.8604 80.3628 88.655C80.0268 88.445 79.7678 88.151 79.5858 87.773C79.4038 87.395 79.3128 86.947 79.3128 86.429ZM79.9218 86.429C79.9218 87.0637 80.0618 87.5607 80.3418 87.92C80.6218 88.2747 81.0348 88.452 81.5808 88.452C82.1035 88.452 82.5095 88.2747 82.7988 87.92C83.0928 87.5607 83.2398 87.0637 83.2398 86.429C83.2398 85.7897 83.0951 85.295 82.8058 84.945C82.5165 84.5904 82.1081 84.413 81.5808 84.413C81.0348 84.413 80.6218 84.5904 80.3418 84.945C80.0618 85.295 79.9218 85.7897 79.9218 86.429ZM85.021 88.9V85.827H84.335V85.386H85.175L85.021 85.533V84.945C85.021 84.5484 85.1214 84.245 85.322 84.035C85.5227 83.825 85.8097 83.72 86.183 83.72C86.2764 83.72 86.372 83.7294 86.47 83.748C86.5727 83.762 86.6567 83.783 86.722 83.811V84.28C86.666 84.2567 86.596 84.238 86.512 84.224C86.4327 84.2054 86.351 84.196 86.267 84.196C86.1224 84.196 85.9987 84.2264 85.896 84.287C85.7934 84.343 85.7164 84.4294 85.665 84.546C85.6137 84.6627 85.588 84.812 85.588 84.994V85.505L85.497 85.386H86.568V85.827H85.588V88.9H85.021ZM51.1188 97.9V92.965H54.1988V93.441H51.6998V95.17H54.0448V95.646H51.6998V97.9H51.1188ZM56.1868 97.963C55.8741 97.963 55.6011 97.8907 55.3678 97.746C55.1344 97.5967 54.9524 97.3867 54.8218 97.116C54.6958 96.8454 54.6328 96.521 54.6328 96.143C54.6328 95.7604 54.6958 95.4337 54.8218 95.163C54.9524 94.8924 55.1344 94.6847 55.3678 94.54C55.6011 94.3954 55.8741 94.323 56.1868 94.323C56.5041 94.323 56.7771 94.4047 57.0058 94.568C57.2391 94.7267 57.3931 94.9437 57.4678 95.219H57.3838L57.4608 94.386H58.0068C57.9928 94.5214 57.9788 94.659 57.9648 94.799C57.9554 94.9344 57.9508 95.0674 57.9508 95.198V97.9H57.3838V97.074H57.4608C57.3861 97.3494 57.2321 97.5664 56.9988 97.725C56.7654 97.8837 56.4948 97.963 56.1868 97.963ZM56.2988 97.501C56.6348 97.501 56.9008 97.3867 57.0968 97.158C57.2928 96.9247 57.3908 96.5864 57.3908 96.143C57.3908 95.695 57.2928 95.3567 57.0968 95.128C56.9008 94.8947 56.6348 94.778 56.2988 94.778C55.9674 94.778 55.7014 94.8947 55.5008 95.128C55.3048 95.3567 55.2068 95.695 55.2068 96.143C55.2068 96.5864 55.3048 96.9247 55.5008 97.158C55.7014 97.3867 55.9674 97.501 56.2988 97.501ZM59.047 97.9V95.198C59.047 95.0674 59.04 94.9344 59.026 94.799C59.0167 94.659 59.005 94.5214 58.991 94.386H59.537L59.607 95.156H59.523C59.6164 94.89 59.7634 94.6847 59.964 94.54C60.1694 94.3954 60.4167 94.323 60.706 94.323C61 94.323 61.238 94.393 61.42 94.533C61.6067 94.673 61.7327 94.89 61.798 95.184H61.693C61.7817 94.918 61.938 94.708 62.162 94.554C62.386 94.4 62.6474 94.323 62.946 94.323C63.3334 94.323 63.625 94.435 63.821 94.659C64.017 94.8784 64.115 95.226 64.115 95.702V97.9H63.548V95.737C63.548 95.4057 63.4897 95.1654 63.373 95.016C63.2564 94.862 63.0697 94.785 62.813 94.785C62.519 94.785 62.2857 94.8877 62.113 95.093C61.945 95.2937 61.861 95.5644 61.861 95.905V97.9H61.294V95.737C61.294 95.4057 61.2357 95.1654 61.119 95.016C61.0024 94.862 60.8157 94.785 60.559 94.785C60.265 94.785 60.034 94.8877 59.866 95.093C59.698 95.2937 59.614 95.5644 59.614 95.905V97.9H59.047ZM66.7535 97.963C66.2029 97.963 65.7689 97.8044 65.4515 97.487C65.1342 97.165 64.9755 96.7194 64.9755 96.15C64.9755 95.7814 65.0455 95.4617 65.1855 95.191C65.3255 94.9157 65.5215 94.7034 65.7735 94.554C66.0255 94.4 66.3149 94.323 66.6415 94.323C66.9635 94.323 67.2342 94.3907 67.4535 94.526C67.6729 94.6614 67.8409 94.855 67.9575 95.107C68.0742 95.3544 68.1325 95.6484 68.1325 95.989V96.199H65.4095V95.842H67.7615L67.6425 95.933C67.6425 95.5597 67.5585 95.268 67.3905 95.058C67.2225 94.848 66.9729 94.743 66.6415 94.743C66.2915 94.743 66.0185 94.8667 65.8225 95.114C65.6265 95.3567 65.5285 95.6857 65.5285 96.101V96.164C65.5285 96.6027 65.6359 96.9364 65.8505 97.165C66.0699 97.389 66.3755 97.501 66.7675 97.501C66.9775 97.501 67.1735 97.4707 67.3555 97.41C67.5422 97.3447 67.7195 97.2397 67.8875 97.095L68.0835 97.494C67.9295 97.6434 67.7335 97.76 67.4955 97.844C67.2622 97.9234 67.0149 97.963 66.7535 97.963Z" fill="black"/>
<path d="M32.2987 89.649H60.3088V89.957H32.2987V89.649Z" fill="black"/>
<defs>
<filter id="filter0_bi_452_76" x="-61.0772" y="-61.0772" width="239.154" height="239.154" filterUnits="userSpaceOnUse" color-interpolation-filters="sRGB">
<feFlood flood-opacity="0" result="BackgroundImageFix"/>
<feGaussianBlur in="BackgroundImageFix" stdDeviation="30.5386"/>
<feComposite in2="SourceAlpha" operator="in" result="effect1_backgroundBlur_452_76"/>
<feBlend mode="normal" in="SourceGraphic" in2="effect1_backgroundBlur_452_76" result="shape"/>
<feColorMatrix in="SourceAlpha" type="matrix" values="0 0 0 0 0 0 0 0 0 0 0 0 0 0 0 0 0 0 127 0" result="hardAlpha"/>
<feOffset dx="39.0894" dy="10.9939"/>
<feGaussianBlur stdDeviation="23.2094"/>
<feComposite in2="hardAlpha" operator="arithmetic" k2="-1" k3="1"/>
<feColorMatrix type="matrix" values="0 0 0 0 1 0 0 0 0 1 0 0 0 0 1 0 0 0 0.25 0"/>
<feBlend mode="normal" in2="shape" result="effect2_innerShadow_452_76"/>
</filter>
<radialGradient id="paint0_radial_452_76" cx="0" cy="0" r="1" gradientUnits="userSpaceOnUse" gradientTransform="translate(58.5 58.5) rotate(90) scale(55.7791)">
<stop stop-color="#C6AC94"/>
<stop offset="0.983367" stop-color="#EB7C17"/>
</radialGradient>
<radialGradient id="paint1_radial_452_76" cx="0" cy="0" r="1" gradientUnits="userSpaceOnUse" gradientTransform="translate(58.821 58.2807) rotate(90) scale(51.4918)">
<stop stop-color="#F7FBFD"/>
<stop offset="0.983367" stop-color="#71A7CD"/>
</radialGradient>
<linearGradient id="paint2_linear_452_76" x1="10.919" y1="41.5273" x2="82.1792" y2="74.2039" gradientUnits="userSpaceOnUse">
<stop stop-color="#F7FBFD"/>
<stop offset="1" stop-color="#F7FBFD" stop-opacity="0"/>
</linearGradient>
<linearGradient id="paint3_linear_452_76" x1="57.6377" y1="5.16376" x2="66.2419" y2="90.4382" gradientUnits="userSpaceOnUse">
<stop stop-color="#F7FBFD"/>
<stop offset="1" stop-color="#F7FBFD" stop-opacity="0"/>
</linearGradient>
</defs>
</svg>
