<svg width="111" height="111" viewBox="0 0 111 111" fill="none" xmlns="http://www.w3.org/2000/svg">
<g filter="url(#filter0_bi_452_124)">
<circle cx="55.5" cy="55.5" r="55.5" fill="url(#paint0_radial_452_124)" fill-opacity="0.98"/>
</g>
<mask id="mask0_452_124" style="mask-type:alpha" maskUnits="userSpaceOnUse" x="4" y="4" width="104" height="103">
<circle cx="55.8045" cy="55.2919" r="51.2341" fill="url(#paint1_radial_452_124)"/>
</mask>
<g mask="url(#mask0_452_124)">
<path fill-rule="evenodd" clip-rule="evenodd" d="M107.496 69.7016C92.4586 96.4115 56.8611 111.187 30.1512 96.15C3.44132 81.1129 -4.26641 41.9572 10.7707 15.2473C11.4093 14.113 12.0819 13.0097 12.7864 11.9381C0.367391 38.0491 10.1295 69.6902 35.7052 84.0889C61.2808 98.4874 93.3961 90.4229 109.279 66.2627C108.729 67.4205 108.134 68.5675 107.496 69.7016Z" fill="url(#paint2_linear_452_124)" fill-opacity="0.2"/>
<path fill-rule="evenodd" clip-rule="evenodd" d="M50.5243 110.609C79.3696 108.621 102.152 84.592 102.152 55.2419C102.152 25.8917 79.3696 1.86273 50.5243 -0.125153C51.8036 -0.213314 53.0948 -0.258124 54.3964 -0.258124C85.0482 -0.258124 109.896 24.5901 109.896 55.2419C109.896 85.8937 85.0482 110.742 54.3964 110.742C53.0948 110.742 51.8036 110.697 50.5243 110.609Z" fill="#F7FBFD" fill-opacity="0.52"/>
</g>
<path fill-rule="evenodd" clip-rule="evenodd" d="M45.4336 110.631C72.9039 107.45 94.2294 84.1071 94.2294 55.7838C94.2294 27.4604 72.9039 4.11786 45.4336 0.9368C47.5399 0.692889 49.6824 0.567511 51.8541 0.567511C82.3492 0.567511 107.07 25.2887 107.07 55.7838C107.07 86.2788 82.3492 111 51.8541 111C49.6824 111 47.5399 110.875 45.4336 110.631Z" fill="url(#paint3_linear_452_124)" fill-opacity="0.2"/>
<path d="M23.6931 45.3L19.9251 36.84H21.5931L24.6291 43.944H24.1251L27.1611 36.84H28.7691L25.0011 45.3H23.6931ZM27.9547 45.3L31.7827 36.84H33.0787L36.9547 45.3H35.3827L34.3507 42.924L34.9747 43.344H29.8987L30.5467 42.924L29.5147 45.3H27.9547ZM32.4187 38.496L30.7267 42.504L30.4147 42.132H34.4467L34.1947 42.504L32.4667 38.496H32.4187ZM37.8907 45.3V36.84H39.4387V45.3H37.8907ZM41.3008 45.3V36.84H42.8488V40.584H42.8728L46.5568 36.84H48.4288L44.0128 41.244L44.0248 40.572L48.7168 45.3H46.7848L42.8728 41.388H42.8488V45.3H41.3008ZM52.7038 45.42C51.4958 45.42 50.5958 45.12 50.0038 44.52C49.4198 43.912 49.1278 43.016 49.1278 41.832V36.84H50.6758V41.82C50.6758 42.572 50.8358 43.14 51.1558 43.524C51.4838 43.908 51.9998 44.1 52.7038 44.1C53.3758 44.1 53.8798 43.908 54.2158 43.524C54.5598 43.14 54.7318 42.572 54.7318 41.82V36.84H56.2558V41.832C56.2558 43.016 55.9558 43.912 55.3558 44.52C54.7638 45.12 53.8798 45.42 52.7038 45.42ZM58.0587 45.3V36.84H59.2227L64.1307 43.188H63.8187V36.84H65.2587V45.3H64.0947L59.1987 38.952H59.4987V45.3H58.0587ZM69.1092 45.3V38.112H66.3132V36.84H73.4532V38.112H70.6572V45.3H69.1092ZM74.5469 45.3V36.84H76.0949V40.368H80.4269V36.84H81.9749V45.3H80.4269V41.652H76.0949V45.3H74.5469ZM82.9039 45.3L86.7319 36.84H88.0279L91.9039 45.3H90.3319L89.2999 42.924L89.9239 43.344H84.8479L85.4959 42.924L84.4639 45.3H82.9039ZM87.3679 38.496L85.6759 42.504L85.3639 42.132H89.3959L89.1439 42.504L87.4159 38.496H87.3679ZM39.9696 60.42C39.2896 60.42 38.6616 60.336 38.0856 60.168C37.5176 59.992 37.0296 59.752 36.6216 59.448L37.1016 58.236C37.3736 58.428 37.6576 58.592 37.9536 58.728C38.2496 58.856 38.5656 58.956 38.9016 59.028C39.2376 59.092 39.5936 59.124 39.9696 59.124C40.6016 59.124 41.0576 59.02 41.3376 58.812C41.6176 58.604 41.7576 58.332 41.7576 57.996C41.7576 57.7 41.6616 57.476 41.4696 57.324C41.2776 57.164 40.9336 57.032 40.4376 56.928L39.0816 56.652C38.3056 56.492 37.7256 56.224 37.3416 55.848C36.9576 55.472 36.7656 54.968 36.7656 54.336C36.7656 53.808 36.9056 53.348 37.1856 52.956C37.4656 52.564 37.8576 52.26 38.3616 52.044C38.8656 51.828 39.4536 51.72 40.1256 51.72C40.7256 51.72 41.2816 51.808 41.7936 51.984C42.3056 52.152 42.7336 52.396 43.0776 52.716L42.5976 53.868C42.2536 53.58 41.8776 53.368 41.4696 53.232C41.0616 53.088 40.6056 53.016 40.1016 53.016C39.5336 53.016 39.0896 53.128 38.7696 53.352C38.4576 53.568 38.3016 53.868 38.3016 54.252C38.3016 54.548 38.3976 54.784 38.5896 54.96C38.7896 55.136 39.1256 55.272 39.5976 55.368L40.9416 55.632C41.7416 55.792 42.3336 56.056 42.7176 56.424C43.1016 56.784 43.2936 57.272 43.2936 57.888C43.2936 58.392 43.1576 58.836 42.8856 59.22C42.6136 59.596 42.2296 59.892 41.7336 60.108C41.2376 60.316 40.6496 60.42 39.9696 60.42ZM44.752 60.3V51.84H50.452V53.052H46.24V55.392H50.176V56.616H46.24V59.076H50.452V60.3H44.752ZM54.5896 60.3L50.8216 51.84H52.4896L55.5256 58.944H55.0216L58.0576 51.84H59.6656L55.8976 60.3H54.5896ZM58.8512 60.3L62.6792 51.84H63.9752L67.8512 60.3H66.2792L65.2472 57.924L65.8712 58.344H60.7952L61.4432 57.924L60.4112 60.3H58.8512ZM63.3152 53.496L61.6232 57.504L61.3112 57.132H65.3432L65.0912 57.504L63.3632 53.496H63.3152ZM68.7872 60.3V51.84H70.3352V55.584H70.3592L74.0432 51.84H75.9152L71.4992 56.244L71.5112 55.572L76.2032 60.3H74.2712L70.3592 56.388H70.3352V60.3H68.7872ZM24.988 74.952V73.38L30.328 71.34V72.384L24.988 70.332V68.76L30.856 71.052V72.648L24.988 74.952ZM38.5201 75.432C38.1441 75.432 37.7681 75.392 37.3921 75.312C37.0161 75.24 36.6681 75.136 36.3481 75C36.0281 74.864 35.7561 74.704 35.5321 74.52L36.2041 72.888C36.5561 73.128 36.9241 73.312 37.3081 73.44C37.6921 73.56 38.0801 73.62 38.4721 73.62C38.8801 73.62 39.1961 73.532 39.4201 73.356C39.6521 73.18 39.7681 72.932 39.7681 72.612C39.7681 72.292 39.6601 72.04 39.4441 71.856C39.2281 71.672 38.9361 71.58 38.5681 71.58C38.2961 71.58 38.0441 71.628 37.8121 71.724C37.5801 71.812 37.3601 71.948 37.1521 72.132H35.7841V66.84H41.3281V68.628H37.8481V70.512H37.3561C37.5481 70.288 37.8001 70.12 38.1121 70.008C38.4241 69.888 38.7681 69.828 39.1441 69.828C39.6881 69.828 40.1641 69.944 40.5721 70.176C40.9801 70.4 41.2961 70.716 41.5201 71.124C41.7521 71.532 41.8681 72.008 41.8681 72.552C41.8681 73.128 41.7321 73.636 41.4601 74.076C41.1881 74.508 40.8001 74.844 40.2961 75.084C39.8001 75.316 39.2081 75.432 38.5201 75.432ZM46.4241 75.3V66.84H48.6441V73.464H52.2681V75.3H46.4241ZM52.2122 75.3L56.1722 66.84H57.9722L61.9562 75.3H59.7362L58.7162 72.972L59.5682 73.584H54.6002L55.4402 72.972L54.4322 75.3H52.2122ZM57.0602 69.12L55.6562 72.468L55.3202 71.904H58.8362L58.5362 72.468L57.1202 69.12H57.0602ZM62.4788 75.3V66.84H64.6988V70.464H64.7228L67.9628 66.84H70.5548L66.4508 71.292V70.416L70.7828 75.3H68.1068L64.7228 71.484H64.6988V75.3H62.4788ZM70.928 75.3V66.84H73.148V70.104H76.556V66.84H78.776V75.3H76.556V71.916H73.148V75.3H70.928ZM83.5182 75.432C82.8382 75.432 82.1902 75.352 81.5742 75.192C80.9662 75.024 80.4542 74.8 80.0382 74.52L80.6622 72.804C80.9262 72.972 81.2142 73.116 81.5262 73.236C81.8382 73.356 82.1622 73.452 82.4982 73.524C82.8422 73.588 83.1902 73.62 83.5422 73.62C84.0702 73.62 84.4342 73.552 84.6342 73.416C84.8422 73.28 84.9462 73.104 84.9462 72.888C84.9462 72.696 84.8782 72.548 84.7422 72.444C84.6062 72.332 84.3502 72.236 83.9742 72.156L82.5102 71.856C81.7342 71.696 81.1542 71.42 80.7702 71.028C80.3862 70.628 80.1942 70.108 80.1942 69.468C80.1942 68.908 80.3422 68.424 80.6382 68.016C80.9422 67.6 81.3662 67.28 81.9102 67.056C82.4542 66.824 83.0902 66.708 83.8182 66.708C84.4182 66.708 84.9822 66.792 85.5102 66.96C86.0382 67.12 86.4702 67.344 86.8062 67.632L86.1822 69.24C85.8622 69.008 85.5022 68.832 85.1022 68.712C84.7022 68.584 84.2582 68.52 83.7702 68.52C83.3062 68.52 82.9542 68.592 82.7142 68.736C82.4822 68.872 82.3662 69.068 82.3662 69.324C82.3662 69.5 82.4342 69.652 82.5702 69.78C82.7142 69.9 82.9742 70 83.3502 70.08L84.7902 70.368C85.5662 70.52 86.1462 70.792 86.5302 71.184C86.9222 71.576 87.1182 72.088 87.1182 72.72C87.1182 73.264 86.9662 73.74 86.6622 74.148C86.3662 74.556 85.9502 74.872 85.4142 75.096C84.8782 75.32 84.2462 75.432 83.5182 75.432Z" fill="black"/>
<defs>
<filter id="filter0_bi_452_124" x="-61.0772" y="-61.0772" width="233.154" height="233.154" filterUnits="userSpaceOnUse" color-interpolation-filters="sRGB">
<feFlood flood-opacity="0" result="BackgroundImageFix"/>
<feGaussianBlur in="BackgroundImageFix" stdDeviation="30.5386"/>
<feComposite in2="SourceAlpha" operator="in" result="effect1_backgroundBlur_452_124"/>
<feBlend mode="normal" in="SourceGraphic" in2="effect1_backgroundBlur_452_124" result="shape"/>
<feColorMatrix in="SourceAlpha" type="matrix" values="0 0 0 0 0 0 0 0 0 0 0 0 0 0 0 0 0 0 127 0" result="hardAlpha"/>
<feOffset dx="39.0894" dy="10.9939"/>
<feGaussianBlur stdDeviation="23.2094"/>
<feComposite in2="hardAlpha" operator="arithmetic" k2="-1" k3="1"/>
<feColorMatrix type="matrix" values="0 0 0 0 1 0 0 0 0 1 0 0 0 0 1 0 0 0 0.25 0"/>
<feBlend mode="normal" in2="shape" result="effect2_innerShadow_452_124"/>
</filter>
<radialGradient id="paint0_radial_452_124" cx="0" cy="0" r="1" gradientUnits="userSpaceOnUse" gradientTransform="translate(55.5 55.5) rotate(90) scale(52.9186)">
<stop stop-color="#C7DCE8"/>
<stop offset="0.983367" stop-color="#35A4E2"/>
</radialGradient>
<radialGradient id="paint1_radial_452_124" cx="0" cy="0" r="1" gradientUnits="userSpaceOnUse" gradientTransform="translate(55.8045 55.2919) rotate(90) scale(48.8512)">
<stop stop-color="#F7FBFD"/>
<stop offset="0.983367" stop-color="#71A7CD"/>
</radialGradient>
<linearGradient id="paint2_linear_452_124" x1="10.359" y1="39.3978" x2="77.9649" y2="70.3986" gradientUnits="userSpaceOnUse">
<stop stop-color="#F7FBFD"/>
<stop offset="1" stop-color="#F7FBFD" stop-opacity="0"/>
</linearGradient>
<linearGradient id="paint3_linear_452_124" x1="54.6819" y1="4.89898" x2="62.8449" y2="85.8004" gradientUnits="userSpaceOnUse">
<stop stop-color="#F7FBFD"/>
<stop offset="1" stop-color="#F7FBFD" stop-opacity="0"/>
</linearGradient>
</defs>
</svg>
