<svg width="120" height="120" viewBox="0 0 120 120" fill="none" xmlns="http://www.w3.org/2000/svg">
<g filter="url(#filter0_bi_452_60)">
<circle cx="60" cy="60" r="60" fill="url(#paint0_radial_452_60)" fill-opacity="0.98"/>
</g>
<mask id="mask0_452_60" style="mask-type:alpha" maskUnits="userSpaceOnUse" x="4" y="4" width="112" height="112">
<circle cx="60.3292" cy="59.775" r="55.3883" fill="url(#paint1_radial_452_60)"/>
</mask>
<g mask="url(#mask0_452_60)">
<path fill-rule="evenodd" clip-rule="evenodd" d="M116.212 75.3531C99.9553 104.229 61.4714 120.202 32.5959 103.946C3.72036 87.6896 -4.61232 45.3592 11.644 16.4836C12.3344 15.2573 13.0615 14.0646 13.8231 12.9061C0.397212 41.1342 10.9508 75.3407 38.6003 90.9069C66.2495 106.473 100.969 97.7545 118.14 71.6353C117.544 72.887 116.902 74.127 116.212 75.3531Z" fill="url(#paint2_linear_452_60)" fill-opacity="0.2"/>
<path fill-rule="evenodd" clip-rule="evenodd" d="M54.6209 119.577C85.805 117.428 110.435 91.4508 110.435 59.7209C110.435 27.9911 85.805 2.01376 54.6209 -0.135301C56.0039 -0.23061 57.3998 -0.279053 58.807 -0.279053C91.944 -0.279053 118.807 26.5839 118.807 59.7209C118.807 92.858 91.944 119.721 58.807 119.721C57.3998 119.721 56.0039 119.673 54.6209 119.577Z" fill="#F7FBFD" fill-opacity="0.52"/>
</g>
<path fill-rule="evenodd" clip-rule="evenodd" d="M49.1174 119.601C78.815 116.162 101.87 90.9266 101.87 60.3068C101.87 29.6869 78.815 4.45174 49.1174 1.01276C51.3945 0.749069 53.7107 0.613525 56.0585 0.613525C89.0262 0.613525 115.752 27.3391 115.752 60.3068C115.752 93.2744 89.0262 120 56.0585 120C53.7107 120 51.3945 119.864 49.1174 119.601Z" fill="url(#paint3_linear_452_60)" fill-opacity="0.2"/>
<path d="M41.1712 30.12C40.4912 30.12 39.8632 30.036 39.2872 29.868C38.7192 29.692 38.2312 29.452 37.8232 29.148L38.3032 27.936C38.5752 28.128 38.8592 28.292 39.1552 28.428C39.4512 28.556 39.7672 28.656 40.1032 28.728C40.4392 28.792 40.7952 28.824 41.1712 28.824C41.8032 28.824 42.2592 28.72 42.5392 28.512C42.8192 28.304 42.9592 28.032 42.9592 27.696C42.9592 27.4 42.8632 27.176 42.6712 27.024C42.4792 26.864 42.1352 26.732 41.6392 26.628L40.2832 26.352C39.5072 26.192 38.9272 25.924 38.5432 25.548C38.1592 25.172 37.9672 24.668 37.9672 24.036C37.9672 23.508 38.1072 23.048 38.3872 22.656C38.6672 22.264 39.0592 21.96 39.5632 21.744C40.0672 21.528 40.6552 21.42 41.3272 21.42C41.9272 21.42 42.4832 21.508 42.9952 21.684C43.5072 21.852 43.9352 22.096 44.2792 22.416L43.7992 23.568C43.4552 23.28 43.0792 23.068 42.6712 22.932C42.2632 22.788 41.8072 22.716 41.3032 22.716C40.7352 22.716 40.2912 22.828 39.9712 23.052C39.6592 23.268 39.5032 23.568 39.5032 23.952C39.5032 24.248 39.5992 24.484 39.7912 24.66C39.9912 24.836 40.3272 24.972 40.7992 25.068L42.1432 25.332C42.9432 25.492 43.5352 25.756 43.9192 26.124C44.3032 26.484 44.4952 26.972 44.4952 27.588C44.4952 28.092 44.3592 28.536 44.0872 28.92C43.8152 29.296 43.4312 29.592 42.9352 29.808C42.4392 30.016 41.8512 30.12 41.1712 30.12ZM45.9536 30V21.54H49.6496C50.5776 21.54 51.2936 21.76 51.7976 22.2C52.3096 22.64 52.5656 23.252 52.5656 24.036C52.5656 24.556 52.4496 25 52.2176 25.368C51.9936 25.736 51.6696 26.02 51.2456 26.22C50.8216 26.412 50.3216 26.508 49.7456 26.508L49.9136 26.28H50.3216C50.6576 26.28 50.9576 26.368 51.2216 26.544C51.4856 26.72 51.7016 26.988 51.8696 27.348L53.1056 30H51.4016L50.1536 27.252C50.0416 26.972 49.8696 26.788 49.6376 26.7C49.4136 26.612 49.1416 26.568 48.8216 26.568H47.5016V30H45.9536ZM47.5016 25.428H49.3976C49.9416 25.428 50.3536 25.316 50.6336 25.092C50.9216 24.86 51.0656 24.524 51.0656 24.084C51.0656 23.644 50.9216 23.312 50.6336 23.088C50.3536 22.864 49.9416 22.752 49.3976 22.752H47.5016V25.428ZM54.3794 30V21.54H55.9274V30H54.3794ZM64.0345 30.12C63.3545 30.12 62.7265 30.036 62.1505 29.868C61.5825 29.692 61.0945 29.452 60.6865 29.148L61.1665 27.936C61.4385 28.128 61.7225 28.292 62.0185 28.428C62.3145 28.556 62.6305 28.656 62.9665 28.728C63.3025 28.792 63.6585 28.824 64.0345 28.824C64.6665 28.824 65.1225 28.72 65.4025 28.512C65.6825 28.304 65.8225 28.032 65.8225 27.696C65.8225 27.4 65.7265 27.176 65.5345 27.024C65.3425 26.864 64.9985 26.732 64.5025 26.628L63.1465 26.352C62.3705 26.192 61.7905 25.924 61.4065 25.548C61.0225 25.172 60.8305 24.668 60.8305 24.036C60.8305 23.508 60.9705 23.048 61.2505 22.656C61.5305 22.264 61.9225 21.96 62.4265 21.744C62.9305 21.528 63.5185 21.42 64.1905 21.42C64.7905 21.42 65.3465 21.508 65.8585 21.684C66.3705 21.852 66.7985 22.096 67.1425 22.416L66.6625 23.568C66.3185 23.28 65.9425 23.068 65.5345 22.932C65.1265 22.788 64.6705 22.716 64.1665 22.716C63.5985 22.716 63.1545 22.828 62.8345 23.052C62.5225 23.268 62.3665 23.568 62.3665 23.952C62.3665 24.248 62.4625 24.484 62.6545 24.66C62.8545 24.836 63.1905 24.972 63.6625 25.068L65.0065 25.332C65.8065 25.492 66.3985 25.756 66.7825 26.124C67.1665 26.484 67.3585 26.972 67.3585 27.588C67.3585 28.092 67.2225 28.536 66.9505 28.92C66.6785 29.296 66.2945 29.592 65.7985 29.808C65.3025 30.016 64.7145 30.12 64.0345 30.12ZM68.8169 30V21.54H72.5129C73.4409 21.54 74.1569 21.76 74.6609 22.2C75.1729 22.64 75.4289 23.252 75.4289 24.036C75.4289 24.556 75.3129 25 75.0809 25.368C74.8569 25.736 74.5329 26.02 74.1089 26.22C73.6849 26.412 73.1849 26.508 72.6089 26.508L72.7769 26.28H73.1849C73.5209 26.28 73.8209 26.368 74.0849 26.544C74.3489 26.72 74.5649 26.988 74.7329 27.348L75.9689 30H74.2649L73.0169 27.252C72.9049 26.972 72.7329 26.788 72.5009 26.7C72.2769 26.612 72.0049 26.568 71.6849 26.568H70.3649V30H68.8169ZM70.3649 25.428H72.2609C72.8049 25.428 73.2169 25.316 73.4969 25.092C73.7849 24.86 73.9289 24.524 73.9289 24.084C73.9289 23.644 73.7849 23.312 73.4969 23.088C73.2169 22.864 72.8049 22.752 72.2609 22.752H70.3649V25.428ZM77.2426 30V21.54H78.7906V30H77.2426ZM28.6176 45.12C27.6656 45.12 26.8656 44.944 26.2176 44.592C25.5696 44.24 25.0816 43.74 24.7536 43.092C24.4256 42.444 24.2616 41.676 24.2616 40.788C24.2616 39.892 24.4376 39.12 24.7896 38.472C25.1416 37.816 25.6456 37.312 26.3016 36.96C26.9656 36.6 27.7616 36.42 28.6896 36.42C29.3056 36.42 29.8456 36.504 30.3096 36.672C30.7736 36.832 31.1816 37.068 31.5336 37.38L31.0176 38.58C30.7616 38.38 30.5176 38.22 30.2856 38.1C30.0536 37.98 29.8136 37.896 29.5656 37.848C29.3176 37.792 29.0296 37.764 28.7016 37.764C27.7736 37.764 27.0696 38.028 26.5896 38.556C26.1176 39.076 25.8816 39.824 25.8816 40.8C25.8816 41.776 26.1056 42.52 26.5536 43.032C27.0096 43.544 27.7216 43.8 28.6896 43.8C29.0176 43.8 29.3456 43.768 29.6736 43.704C30.0096 43.64 30.3376 43.548 30.6576 43.428L30.3696 44.076V41.544H28.3896V40.416H31.6536V44.484C31.2616 44.684 30.7936 44.84 30.2496 44.952C29.7056 45.064 29.1616 45.12 28.6176 45.12ZM32.4844 45L36.3124 36.54H37.6084L41.4844 45H39.9124L38.8804 42.624L39.5044 43.044H34.4284L35.0764 42.624L34.0444 45H32.4844ZM36.9484 38.196L35.2564 42.204L34.9444 41.832H38.9764L38.7244 42.204L36.9964 38.196H36.9484ZM45.8898 45.12C44.6818 45.12 43.7818 44.82 43.1898 44.22C42.6058 43.612 42.3138 42.716 42.3138 41.532V36.54H43.8618V41.52C43.8618 42.272 44.0218 42.84 44.3418 43.224C44.6698 43.608 45.1858 43.8 45.8898 43.8C46.5618 43.8 47.0658 43.608 47.4018 43.224C47.7458 42.84 47.9178 42.272 47.9178 41.52V36.54H49.4418V41.532C49.4418 42.716 49.1418 43.612 48.5418 44.22C47.9498 44.82 47.0658 45.12 45.8898 45.12ZM51.2446 45V36.54H54.9406C55.8686 36.54 56.5846 36.76 57.0886 37.2C57.6006 37.64 57.8566 38.252 57.8566 39.036C57.8566 39.556 57.7406 40 57.5086 40.368C57.2846 40.736 56.9606 41.02 56.5366 41.22C56.1126 41.412 55.6126 41.508 55.0366 41.508L55.2046 41.28H55.6126C55.9486 41.28 56.2486 41.368 56.5126 41.544C56.7766 41.72 56.9926 41.988 57.1606 42.348L58.3966 45H56.6926L55.4446 42.252C55.3326 41.972 55.1606 41.788 54.9286 41.7C54.7046 41.612 54.4326 41.568 54.1126 41.568H52.7926V45H51.2446ZM52.7926 40.428H54.6886C55.2326 40.428 55.6446 40.316 55.9246 40.092C56.2126 39.86 56.3566 39.524 56.3566 39.084C56.3566 38.644 56.2126 38.312 55.9246 38.088C55.6446 37.864 55.2326 37.752 54.6886 37.752H52.7926V40.428ZM62.9633 45V36.54H64.1273L69.0353 42.888H68.7233V36.54H70.1633V45H68.9993L64.1033 38.652H64.4033V45H62.9633ZM72.0219 45V36.54H73.5699V45H72.0219ZM77.4241 45V37.812H74.6281V36.54H81.7681V37.812H78.9721V45H77.4241ZM80.9883 45L84.8163 36.54H86.1123L89.9883 45H88.4163L87.3843 42.624L88.0083 43.044H82.9323L83.5803 42.624L82.5483 45H80.9883ZM85.4523 38.196L83.7603 42.204L83.4483 41.832H87.4803L87.2283 42.204L85.5003 38.196H85.4523ZM90.9243 45V36.54H92.4723V45H90.9243ZM42.5071 60.12C41.8271 60.12 41.1991 60.036 40.6231 59.868C40.0551 59.692 39.5671 59.452 39.1591 59.148L39.6391 57.936C39.9111 58.128 40.1951 58.292 40.4911 58.428C40.7871 58.556 41.1031 58.656 41.4391 58.728C41.7751 58.792 42.1311 58.824 42.5071 58.824C43.1391 58.824 43.5951 58.72 43.8751 58.512C44.1551 58.304 44.2951 58.032 44.2951 57.696C44.2951 57.4 44.1991 57.176 44.0071 57.024C43.8151 56.864 43.4711 56.732 42.9751 56.628L41.6191 56.352C40.8431 56.192 40.2631 55.924 39.8791 55.548C39.4951 55.172 39.3031 54.668 39.3031 54.036C39.3031 53.508 39.4431 53.048 39.7231 52.656C40.0031 52.264 40.3951 51.96 40.8991 51.744C41.4031 51.528 41.9911 51.42 42.6631 51.42C43.2631 51.42 43.8191 51.508 44.3311 51.684C44.8431 51.852 45.2711 52.096 45.6151 52.416L45.1351 53.568C44.7911 53.28 44.4151 53.068 44.0071 52.932C43.5991 52.788 43.1431 52.716 42.6391 52.716C42.0711 52.716 41.6271 52.828 41.3071 53.052C40.9951 53.268 40.8391 53.568 40.8391 53.952C40.8391 54.248 40.9351 54.484 41.1271 54.66C41.3271 54.836 41.6631 54.972 42.1351 55.068L43.4791 55.332C44.2791 55.492 44.8711 55.756 45.2551 56.124C45.6391 56.484 45.8311 56.972 45.8311 57.588C45.8311 58.092 45.6951 58.536 45.4231 58.92C45.1511 59.296 44.7671 59.592 44.2711 59.808C43.7751 60.016 43.1871 60.12 42.5071 60.12ZM47.2895 60V51.54H52.9895V52.752H48.7775V55.092H52.7135V56.316H48.7775V58.776H52.9895V60H47.2895ZM57.1271 60L53.3591 51.54H55.0271L58.0631 58.644H57.5591L60.5951 51.54H62.2031L58.4351 60H57.1271ZM61.3887 60L65.2167 51.54H66.5127L70.3887 60H68.8167L67.7847 57.624L68.4087 58.044H63.3327L63.9807 57.624L62.9487 60H61.3887ZM65.8527 53.196L64.1607 57.204L63.8487 56.832H67.8807L67.6287 57.204L65.9007 53.196H65.8527ZM71.3247 60V51.54H72.8727V55.284H72.8967L76.5807 51.54H78.4527L74.0367 55.944L74.0487 55.272L78.7407 60H76.8087L72.8967 56.088H72.8727V60H71.3247ZM23.9279 74.652V73.08L29.2679 71.04V72.084L23.9279 70.032V68.46L29.7959 70.752V72.348L23.9279 74.652ZM37.4599 75.132C37.0839 75.132 36.7079 75.092 36.3319 75.012C35.9559 74.94 35.6079 74.836 35.2879 74.7C34.9679 74.564 34.6959 74.404 34.4719 74.22L35.1439 72.588C35.4959 72.828 35.8639 73.012 36.2479 73.14C36.6319 73.26 37.0199 73.32 37.4119 73.32C37.8199 73.32 38.1359 73.232 38.3599 73.056C38.5919 72.88 38.7079 72.632 38.7079 72.312C38.7079 71.992 38.5999 71.74 38.3839 71.556C38.1679 71.372 37.8759 71.28 37.5079 71.28C37.2359 71.28 36.9839 71.328 36.7519 71.424C36.5199 71.512 36.2999 71.648 36.0919 71.832H34.7239V66.54H40.2679V68.328H36.7879V70.212H36.2959C36.4879 69.988 36.7399 69.82 37.0519 69.708C37.3639 69.588 37.7079 69.528 38.0839 69.528C38.6279 69.528 39.1039 69.644 39.5119 69.876C39.9199 70.1 40.2359 70.416 40.4599 70.824C40.6919 71.232 40.8079 71.708 40.8079 72.252C40.8079 72.828 40.6719 73.336 40.3999 73.776C40.1279 74.208 39.7399 74.544 39.2359 74.784C38.7399 75.016 38.1479 75.132 37.4599 75.132ZM44.7152 75.132C43.6752 75.132 42.8752 74.752 42.3152 73.992C41.7632 73.224 41.4872 72.14 41.4872 70.74C41.4872 69.324 41.7632 68.248 42.3152 67.512C42.8752 66.776 43.6752 66.408 44.7152 66.408C45.7632 66.408 46.5632 66.776 47.1152 67.512C47.6672 68.248 47.9432 69.32 47.9432 70.728C47.9432 72.136 47.6632 73.224 47.1032 73.992C46.5512 74.752 45.7552 75.132 44.7152 75.132ZM44.7152 73.368C45.0992 73.368 45.3832 73.16 45.5672 72.744C45.7592 72.328 45.8552 71.66 45.8552 70.74C45.8552 69.812 45.7592 69.152 45.5672 68.76C45.3832 68.36 45.0992 68.16 44.7152 68.16C44.3312 68.16 44.0432 68.36 43.8512 68.76C43.6672 69.152 43.5752 69.808 43.5752 70.728C43.5752 71.656 43.6672 72.328 43.8512 72.744C44.0432 73.16 44.3312 73.368 44.7152 73.368ZM52.5593 75V66.54H54.7793V73.164H58.4033V75H52.5593ZM58.3473 75L62.3073 66.54H64.1073L68.0913 75H65.8713L64.8513 72.672L65.7033 73.284H60.7353L61.5753 72.672L60.5673 75H58.3473ZM63.1953 68.82L61.7913 72.168L61.4553 71.604H64.9713L64.6713 72.168L63.2553 68.82H63.1953ZM68.614 75V66.54H70.834V70.164H70.858L74.098 66.54H76.69L72.586 70.992V70.116L76.918 75H74.242L70.858 71.184H70.834V75H68.614ZM77.0632 75V66.54H79.2832V69.804H82.6912V66.54H84.9112V75H82.6912V71.616H79.2832V75H77.0632ZM89.6534 75.132C88.9734 75.132 88.3254 75.052 87.7094 74.892C87.1014 74.724 86.5894 74.5 86.1734 74.22L86.7974 72.504C87.0614 72.672 87.3494 72.816 87.6614 72.936C87.9734 73.056 88.2974 73.152 88.6334 73.224C88.9774 73.288 89.3254 73.32 89.6774 73.32C90.2054 73.32 90.5694 73.252 90.7694 73.116C90.9774 72.98 91.0814 72.804 91.0814 72.588C91.0814 72.396 91.0134 72.248 90.8774 72.144C90.7414 72.032 90.4854 71.936 90.1094 71.856L88.6454 71.556C87.8694 71.396 87.2894 71.12 86.9054 70.728C86.5214 70.328 86.3294 69.808 86.3294 69.168C86.3294 68.608 86.4774 68.124 86.7734 67.716C87.0774 67.3 87.5014 66.98 88.0454 66.756C88.5894 66.524 89.2254 66.408 89.9534 66.408C90.5534 66.408 91.1174 66.492 91.6454 66.66C92.1734 66.82 92.6054 67.044 92.9414 67.332L92.3174 68.94C91.9974 68.708 91.6374 68.532 91.2374 68.412C90.8374 68.284 90.3934 68.22 89.9054 68.22C89.4414 68.22 89.0894 68.292 88.8494 68.436C88.6174 68.572 88.5014 68.768 88.5014 69.024C88.5014 69.2 88.5694 69.352 88.7054 69.48C88.8494 69.6 89.1094 69.7 89.4854 69.78L90.9254 70.068C91.7014 70.22 92.2814 70.492 92.6654 70.884C93.0574 71.276 93.2534 71.788 93.2534 72.42C93.2534 72.964 93.1014 73.44 92.7974 73.848C92.5014 74.256 92.0854 74.572 91.5494 74.796C91.0134 75.02 90.3814 75.132 89.6534 75.132Z" fill="black"/>
<path d="M35.2532 91V86.065H37.2272C37.7499 86.065 38.1535 86.177 38.4382 86.401C38.7229 86.625 38.8652 86.9423 38.8652 87.353C38.8652 87.661 38.7719 87.9177 38.5852 88.123C38.4032 88.3283 38.1489 88.4637 37.8222 88.529V88.431C38.1862 88.473 38.4709 88.599 38.6762 88.809C38.8862 89.0143 38.9912 89.292 38.9912 89.642C38.9912 90.0807 38.8442 90.4167 38.5502 90.65C38.2609 90.8833 37.8502 91 37.3182 91H35.2532ZM35.8202 90.531H37.2622C37.6169 90.531 37.8969 90.4633 38.1022 90.328C38.3122 90.188 38.4172 89.957 38.4172 89.635C38.4172 89.3083 38.3122 89.0773 38.1022 88.942C37.8969 88.802 37.6169 88.732 37.2622 88.732H35.8202V90.531ZM35.8202 88.27H37.1432C37.5259 88.27 37.8129 88.1953 38.0042 88.046C38.1955 87.8967 38.2912 87.682 38.2912 87.402C38.2912 87.1127 38.1955 86.8957 38.0042 86.751C37.8129 86.6017 37.5259 86.527 37.1432 86.527H35.8202V88.27ZM41.509 91.063C40.9584 91.063 40.5244 90.9043 40.207 90.587C39.8897 90.265 39.731 89.8193 39.731 89.25C39.731 88.8813 39.801 88.5617 39.941 88.291C40.081 88.0157 40.277 87.8033 40.529 87.654C40.781 87.5 41.0704 87.423 41.397 87.423C41.719 87.423 41.9897 87.4907 42.209 87.626C42.4284 87.7613 42.5964 87.955 42.713 88.207C42.8297 88.4543 42.888 88.7483 42.888 89.089V89.299H40.165V88.942H42.517L42.398 89.033C42.398 88.6597 42.314 88.368 42.146 88.158C41.978 87.948 41.7284 87.843 41.397 87.843C41.047 87.843 40.774 87.9667 40.578 88.214C40.382 88.4567 40.284 88.7857 40.284 89.201V89.264C40.284 89.7027 40.3914 90.0363 40.606 90.265C40.8254 90.489 41.131 90.601 41.523 90.601C41.733 90.601 41.929 90.5707 42.111 90.51C42.2977 90.4447 42.475 90.3397 42.643 90.195L42.839 90.594C42.685 90.7433 42.489 90.86 42.251 90.944C42.0177 91.0233 41.7704 91.063 41.509 91.063ZM43.7556 91V88.298C43.7556 88.1673 43.7486 88.0343 43.7346 87.899C43.7253 87.759 43.7136 87.6213 43.6996 87.486H44.2456L44.3156 88.256H44.2316C44.3343 87.9853 44.4976 87.78 44.7216 87.64C44.9503 87.4953 45.214 87.423 45.5126 87.423C45.928 87.423 46.2406 87.535 46.4506 87.759C46.6653 87.9783 46.7726 88.326 46.7726 88.802V91H46.2056V88.837C46.2056 88.5057 46.138 88.2653 46.0026 88.116C45.872 87.962 45.6666 87.885 45.3866 87.885C45.06 87.885 44.801 87.9853 44.6096 88.186C44.4183 88.3867 44.3226 88.655 44.3226 88.991V91H43.7556ZM49.4182 91.063C48.8675 91.063 48.4335 90.9043 48.1162 90.587C47.7989 90.265 47.6402 89.8193 47.6402 89.25C47.6402 88.8813 47.7102 88.5617 47.8502 88.291C47.9902 88.0157 48.1862 87.8033 48.4382 87.654C48.6902 87.5 48.9795 87.423 49.3062 87.423C49.6282 87.423 49.8989 87.4907 50.1182 87.626C50.3375 87.7613 50.5055 87.955 50.6222 88.207C50.7389 88.4543 50.7972 88.7483 50.7972 89.089V89.299H48.0742V88.942H50.4262L50.3072 89.033C50.3072 88.6597 50.2232 88.368 50.0552 88.158C49.8872 87.948 49.6375 87.843 49.3062 87.843C48.9562 87.843 48.6832 87.9667 48.4872 88.214C48.2912 88.4567 48.1932 88.7857 48.1932 89.201V89.264C48.1932 89.7027 48.3005 90.0363 48.5152 90.265C48.7345 90.489 49.0402 90.601 49.4322 90.601C49.6422 90.601 49.8382 90.5707 50.0202 90.51C50.2069 90.4447 50.3842 90.3397 50.5522 90.195L50.7482 90.594C50.5942 90.7433 50.3982 90.86 50.1602 90.944C49.9269 91.0233 49.6795 91.063 49.4182 91.063ZM51.8468 91V87.927H51.1608V87.486H52.0008L51.8468 87.633V87.045C51.8468 86.6483 51.9448 86.345 52.1408 86.135C52.3415 85.925 52.6261 85.82 52.9948 85.82C53.0835 85.82 53.1768 85.8293 53.2748 85.848C53.3775 85.862 53.4638 85.883 53.5338 85.911V86.38C53.4778 86.3567 53.4078 86.338 53.3238 86.324C53.2445 86.3053 53.1628 86.296 53.0788 86.296C52.8595 86.296 52.6938 86.3613 52.5818 86.492C52.4698 86.6227 52.4138 86.8233 52.4138 87.094V87.605L52.3228 87.486H54.5768V91H54.0098V87.927H52.4138V91H51.8468ZM53.9468 86.688V86.051H54.6468V86.688H53.9468ZM56.9303 91.063C56.585 91.063 56.3213 90.965 56.1393 90.769C55.9573 90.5683 55.8663 90.2673 55.8663 89.866V87.927H55.1803V87.486H55.8663V86.527L56.4333 86.366V87.486H57.4413V87.927H56.4333V89.803C56.4333 90.083 56.48 90.2837 56.5733 90.405C56.6713 90.5217 56.816 90.58 57.0073 90.58C57.096 90.58 57.1753 90.573 57.2453 90.559C57.3153 90.5403 57.3783 90.5193 57.4343 90.496V90.972C57.369 91 57.2897 91.021 57.1963 91.035C57.1077 91.0537 57.019 91.063 56.9303 91.063ZM59.3006 91.063C59.0206 91.063 58.7593 91.0257 58.5166 90.951C58.2739 90.8717 58.0733 90.762 57.9146 90.622L58.1106 90.223C58.2833 90.3583 58.4699 90.4587 58.6706 90.524C58.8759 90.5893 59.0883 90.622 59.3076 90.622C59.5876 90.622 59.7976 90.573 59.9376 90.475C60.0823 90.3723 60.1546 90.2323 60.1546 90.055C60.1546 89.9197 60.1079 89.8123 60.0146 89.733C59.9259 89.649 59.7789 89.5837 59.5736 89.537L58.9226 89.404C58.6239 89.3387 58.3999 89.229 58.2506 89.075C58.1013 88.9163 58.0266 88.7157 58.0266 88.473C58.0266 88.2677 58.0803 88.088 58.1876 87.934C58.2949 87.7753 58.4513 87.6517 58.6566 87.563C58.8619 87.4697 59.1023 87.423 59.3776 87.423C59.6343 87.423 59.8699 87.4627 60.0846 87.542C60.3039 87.6167 60.4859 87.7263 60.6306 87.871L60.4276 88.263C60.2876 88.1277 60.1266 88.0273 59.9446 87.962C59.7673 87.892 59.5829 87.857 59.3916 87.857C59.1163 87.857 58.9086 87.913 58.7686 88.025C58.6333 88.1323 58.5656 88.2747 58.5656 88.452C58.5656 88.5873 58.6076 88.6993 58.6916 88.788C58.7803 88.872 58.9156 88.935 59.0976 88.977L59.7486 89.11C60.0659 89.18 60.3016 89.2897 60.4556 89.439C60.6143 89.5837 60.6936 89.7797 60.6936 90.027C60.6936 90.237 60.6353 90.4213 60.5186 90.58C60.4019 90.734 60.2386 90.853 60.0286 90.937C59.8233 91.021 59.5806 91.063 59.3006 91.063ZM61.4923 88.2V87.486H62.2063V88.2H61.4923ZM61.4923 91V90.286H62.2063V91H61.4923ZM67.3532 91.063C66.8119 91.063 66.3592 90.9627 65.9952 90.762C65.6312 90.5613 65.3582 90.272 65.1762 89.894C64.9942 89.516 64.9032 89.0633 64.9032 88.536C64.9032 88.0133 64.9989 87.563 65.1902 87.185C65.3816 86.807 65.6569 86.5153 66.0162 86.31C66.3756 86.1047 66.8096 86.002 67.3182 86.002C67.6776 86.002 67.9879 86.0557 68.2492 86.163C68.5152 86.2657 68.7532 86.4197 68.9632 86.625L68.7462 87.08C68.5922 86.9447 68.4429 86.8373 68.2982 86.758C68.1582 86.6787 68.0112 86.6203 67.8572 86.583C67.7032 86.541 67.5236 86.52 67.3182 86.52C66.7349 86.52 66.2869 86.6973 65.9742 87.052C65.6662 87.402 65.5122 87.899 65.5122 88.543C65.5122 89.1917 65.6616 89.6887 65.9602 90.034C66.2636 90.3793 66.7326 90.552 67.3672 90.552C67.6006 90.552 67.8222 90.531 68.0322 90.489C68.2469 90.4423 68.4546 90.377 68.6552 90.293L68.5292 90.608V88.872H67.2692V88.417H69.0262V90.706C68.8256 90.8133 68.5712 90.8997 68.2632 90.965C67.9599 91.0303 67.6566 91.063 67.3532 91.063ZM71.5844 91.063C71.2484 91.063 70.9544 90.9907 70.7024 90.846C70.455 90.6967 70.2637 90.4867 70.1284 90.216C69.993 89.9407 69.9254 89.6163 69.9254 89.243C69.9254 88.865 69.993 88.5407 70.1284 88.27C70.2637 87.9993 70.455 87.7917 70.7024 87.647C70.9544 87.4977 71.2484 87.423 71.5844 87.423C71.925 87.423 72.219 87.4977 72.4664 87.647C72.7184 87.7917 72.912 87.9993 73.0474 88.27C73.1874 88.5407 73.2574 88.865 73.2574 89.243C73.2574 89.6163 73.1874 89.9407 73.0474 90.216C72.912 90.4867 72.7184 90.6967 72.4664 90.846C72.219 90.9907 71.925 91.063 71.5844 91.063ZM71.5844 90.601C71.9204 90.601 72.1864 90.4867 72.3824 90.258C72.5784 90.0247 72.6764 89.6863 72.6764 89.243C72.6764 88.795 72.576 88.4567 72.3754 88.228C72.1794 87.9947 71.9157 87.878 71.5844 87.878C71.253 87.878 70.9894 87.9947 70.7934 88.228C70.5974 88.4567 70.4994 88.795 70.4994 89.243C70.4994 89.6863 70.5974 90.0247 70.7934 90.258C70.9894 90.4867 71.253 90.601 71.5844 90.601ZM74.1414 91V85.848H74.7084V91H74.1414ZM77.1393 91.063C76.8313 91.063 76.5607 90.9907 76.3273 90.846C76.094 90.6967 75.912 90.4867 75.7813 90.216C75.6553 89.9453 75.5923 89.621 75.5923 89.243C75.5923 88.8603 75.6553 88.5337 75.7813 88.263C75.912 87.9923 76.094 87.7847 76.3273 87.64C76.5607 87.4953 76.8313 87.423 77.1393 87.423C77.4567 87.423 77.7297 87.5023 77.9583 87.661C78.1917 87.8197 78.348 88.0343 78.4273 88.305H78.3433V85.848H78.9103V91H78.3503V90.16H78.4273C78.3527 90.44 78.1987 90.6617 77.9653 90.825C77.732 90.9837 77.4567 91.063 77.1393 91.063ZM77.2583 90.601C77.5897 90.601 77.8557 90.4867 78.0563 90.258C78.257 90.0247 78.3573 89.6863 78.3573 89.243C78.3573 88.795 78.257 88.4567 78.0563 88.228C77.8557 87.9947 77.5897 87.878 77.2583 87.878C76.927 87.878 76.661 87.9947 76.4603 88.228C76.2643 88.4567 76.1663 88.795 76.1663 89.243C76.1663 89.6863 76.2643 90.0247 76.4603 90.258C76.661 90.4867 76.927 90.601 77.2583 90.601ZM81.5676 91.063C81.0169 91.063 80.5829 90.9043 80.2656 90.587C79.9483 90.265 79.7896 89.8193 79.7896 89.25C79.7896 88.8813 79.8596 88.5617 79.9996 88.291C80.1396 88.0157 80.3356 87.8033 80.5876 87.654C80.8396 87.5 81.1289 87.423 81.4556 87.423C81.7776 87.423 82.0483 87.4907 82.2676 87.626C82.4869 87.7613 82.6549 87.955 82.7716 88.207C82.8883 88.4543 82.9466 88.7483 82.9466 89.089V89.299H80.2236V88.942H82.5756L82.4566 89.033C82.4566 88.6597 82.3726 88.368 82.2046 88.158C82.0366 87.948 81.7869 87.843 81.4556 87.843C81.1056 87.843 80.8326 87.9667 80.6366 88.214C80.4406 88.4567 80.3426 88.7857 80.3426 89.201V89.264C80.3426 89.7027 80.4499 90.0363 80.6646 90.265C80.8839 90.489 81.1896 90.601 81.5816 90.601C81.7916 90.601 81.9876 90.5707 82.1696 90.51C82.3563 90.4447 82.5336 90.3397 82.7016 90.195L82.8976 90.594C82.7436 90.7433 82.5476 90.86 82.3096 90.944C82.0763 91.0233 81.8289 91.063 81.5676 91.063ZM83.8142 91V88.298C83.8142 88.1673 83.8072 88.0343 83.7932 87.899C83.7839 87.759 83.7722 87.6213 83.7582 87.486H84.3042L84.3742 88.256H84.2902C84.3929 87.9853 84.5562 87.78 84.7802 87.64C85.0089 87.4953 85.2726 87.423 85.5712 87.423C85.9866 87.423 86.2992 87.535 86.5092 87.759C86.7239 87.9783 86.8312 88.326 86.8312 88.802V91H86.2642V88.837C86.2642 88.5057 86.1966 88.2653 86.0612 88.116C85.9306 87.962 85.7252 87.885 85.4452 87.885C85.1186 87.885 84.8596 87.9853 84.6682 88.186C84.4769 88.3867 84.3812 88.655 84.3812 88.991V91H83.8142ZM29.7058 100V95.065H31.6798C32.2025 95.065 32.6062 95.177 32.8908 95.401C33.1755 95.625 33.3178 95.9423 33.3178 96.353C33.3178 96.661 33.2245 96.9177 33.0378 97.123C32.8558 97.3283 32.6015 97.4637 32.2748 97.529V97.431C32.6388 97.473 32.9235 97.599 33.1288 97.809C33.3388 98.0143 33.4438 98.292 33.4438 98.642C33.4438 99.0807 33.2968 99.4167 33.0028 99.65C32.7135 99.8833 32.3028 100 31.7708 100H29.7058ZM30.2728 99.531H31.7148C32.0695 99.531 32.3495 99.4633 32.5548 99.328C32.7648 99.188 32.8698 98.957 32.8698 98.635C32.8698 98.3083 32.7648 98.0773 32.5548 97.942C32.3495 97.802 32.0695 97.732 31.7148 97.732H30.2728V99.531ZM30.2728 97.27H31.5958C31.9785 97.27 32.2655 97.1953 32.4568 97.046C32.6482 96.8967 32.7438 96.682 32.7438 96.402C32.7438 96.1127 32.6482 95.8957 32.4568 95.751C32.2655 95.6017 31.9785 95.527 31.5958 95.527H30.2728V97.27ZM34.3867 100V97.333C34.3867 97.193 34.382 97.0507 34.3727 96.906C34.368 96.7613 34.3587 96.6213 34.3447 96.486H34.8907L34.9607 97.34L34.8627 97.347C34.9093 97.137 34.991 96.9643 35.1077 96.829C35.2243 96.6937 35.362 96.5933 35.5207 96.528C35.6793 96.458 35.845 96.423 36.0177 96.423C36.0877 96.423 36.1483 96.4253 36.1997 96.43C36.2557 96.4347 36.307 96.4463 36.3537 96.465L36.3467 96.969C36.2767 96.9457 36.2113 96.9317 36.1507 96.927C36.0947 96.9177 36.0293 96.913 35.9547 96.913C35.7493 96.913 35.5697 96.962 35.4157 97.06C35.2663 97.158 35.152 97.284 35.0727 97.438C34.998 97.592 34.9607 97.7553 34.9607 97.928V100H34.3867ZM36.9436 100V96.486H37.5106V100H36.9436ZM36.8736 95.688V95.051H37.5736V95.688H36.8736ZM40.0886 100.063C39.7433 100.063 39.4423 99.9883 39.1856 99.839C38.9336 99.6897 38.7376 99.4773 38.5976 99.202C38.4623 98.9267 38.3946 98.6 38.3946 98.222C38.3946 97.8393 38.4646 97.515 38.6046 97.249C38.7446 96.9783 38.9406 96.773 39.1926 96.633C39.4493 96.493 39.7479 96.423 40.0886 96.423C40.3126 96.423 40.5296 96.4627 40.7396 96.542C40.9543 96.6213 41.1316 96.7333 41.2716 96.878L41.0686 97.284C40.9286 97.1487 40.7746 97.0483 40.6066 96.983C40.4433 96.9177 40.2823 96.885 40.1236 96.885C39.7596 96.885 39.4773 96.9993 39.2766 97.228C39.0759 97.4567 38.9756 97.7903 38.9756 98.229C38.9756 98.663 39.0759 98.999 39.2766 99.237C39.4773 99.475 39.7596 99.594 40.1236 99.594C40.2776 99.594 40.4363 99.5637 40.5996 99.503C40.7676 99.4423 40.9239 99.342 41.0686 99.202L41.2716 99.601C41.1269 99.7503 40.9473 99.8647 40.7326 99.944C40.5179 100.023 40.3033 100.063 40.0886 100.063ZM42.0774 100V94.848H42.6444V98.047H42.6584L44.2894 96.486H45.0034L43.0784 98.32L43.0924 98.033L45.1854 100H44.4504L42.6584 98.348H42.6444V100H42.0774ZM45.9371 100.798L45.6711 100.595C45.7971 100.464 45.8788 100.341 45.9161 100.224C45.9581 100.112 45.9791 99.9977 45.9791 99.881L46.1051 100H45.6431V99.286H46.3571V99.79C46.3571 99.9767 46.3268 100.152 46.2661 100.315C46.2055 100.483 46.0958 100.644 45.9371 100.798ZM50.5801 100L48.8581 95.065H49.4671L50.9721 99.51H50.7271L52.3091 95.065H52.7711L54.2691 99.51H54.0451L55.5921 95.065H56.1661L54.4301 100H53.9121L52.4561 95.723H52.6031L51.0841 100H50.5801ZM57.8998 100.063C57.5871 100.063 57.3141 99.9907 57.0808 99.846C56.8474 99.6967 56.6654 99.4867 56.5348 99.216C56.4088 98.9453 56.3458 98.621 56.3458 98.243C56.3458 97.8603 56.4088 97.5337 56.5348 97.263C56.6654 96.9923 56.8474 96.7847 57.0808 96.64C57.3141 96.4953 57.5871 96.423 57.8998 96.423C58.2171 96.423 58.4901 96.5047 58.7188 96.668C58.9521 96.8267 59.1061 97.0437 59.1808 97.319H59.0968L59.1738 96.486H59.7198C59.7058 96.6213 59.6918 96.759 59.6778 96.899C59.6684 97.0343 59.6638 97.1673 59.6638 97.298V100H59.0968V99.174H59.1738C59.0991 99.4493 58.9451 99.6663 58.7118 99.825C58.4784 99.9837 58.2078 100.063 57.8998 100.063ZM58.0118 99.601C58.3478 99.601 58.6138 99.4867 58.8098 99.258C59.0058 99.0247 59.1038 98.6863 59.1038 98.243C59.1038 97.795 59.0058 97.4567 58.8098 97.228C58.6138 96.9947 58.3478 96.878 58.0118 96.878C57.6804 96.878 57.4144 96.9947 57.2138 97.228C57.0178 97.4567 56.9198 97.795 56.9198 98.243C56.9198 98.6863 57.0178 99.0247 57.2138 99.258C57.4144 99.4867 57.6804 99.601 58.0118 99.601ZM60.76 100V94.848H61.327V100H60.76ZM62.428 100V94.848H62.995V100H62.428ZM65.8022 97.529C65.8022 97.0063 65.8908 96.5583 66.0682 96.185C66.2502 95.807 66.5092 95.5153 66.8452 95.31C67.1858 95.1047 67.5942 95.002 68.0702 95.002C68.5322 95.002 68.9335 95.1047 69.2742 95.31C69.6148 95.5153 69.8762 95.807 70.0582 96.185C70.2448 96.5583 70.3382 97.004 70.3382 97.522C70.3382 98.0447 70.2448 98.495 70.0582 98.873C69.8715 99.251 69.6078 99.545 69.2672 99.755C68.9312 99.9603 68.5322 100.063 68.0702 100.063C67.5942 100.063 67.1882 99.9603 66.8522 99.755C66.5162 99.545 66.2572 99.251 66.0752 98.873C65.8932 98.495 65.8022 98.047 65.8022 97.529ZM66.4112 97.529C66.4112 98.1637 66.5512 98.6607 66.8312 99.02C67.1112 99.3747 67.5242 99.552 68.0702 99.552C68.5928 99.552 68.9988 99.3747 69.2882 99.02C69.5822 98.6607 69.7292 98.1637 69.7292 97.529C69.7292 96.8897 69.5845 96.395 69.2952 96.045C69.0058 95.6903 68.5975 95.513 68.0702 95.513C67.5242 95.513 67.1112 95.6903 66.8312 96.045C66.5512 96.395 66.4112 96.8897 66.4112 97.529ZM71.5104 100V96.927H70.8244V96.486H71.6644L71.5104 96.633V96.045C71.5104 95.6483 71.6107 95.345 71.8114 95.135C72.0121 94.925 72.2991 94.82 72.6724 94.82C72.7657 94.82 72.8614 94.8293 72.9594 94.848C73.0621 94.862 73.1461 94.883 73.2114 94.911V95.38C73.1554 95.3567 73.0854 95.338 73.0014 95.324C72.9221 95.3053 72.8404 95.296 72.7564 95.296C72.6117 95.296 72.4881 95.3263 72.3854 95.387C72.2827 95.443 72.2057 95.5293 72.1544 95.646C72.1031 95.7627 72.0774 95.912 72.0774 96.094V96.605L71.9864 96.486H73.0574V96.927H72.0774V100H71.5104ZM75.5818 100V95.065H78.6618V95.541H76.1628V97.27H78.5078V97.746H76.1628V100H75.5818ZM80.6498 100.063C80.3371 100.063 80.0641 99.9907 79.8308 99.846C79.5974 99.6967 79.4154 99.4867 79.2848 99.216C79.1588 98.9453 79.0958 98.621 79.0958 98.243C79.0958 97.8603 79.1588 97.5337 79.2848 97.263C79.4154 96.9923 79.5974 96.7847 79.8308 96.64C80.0641 96.4953 80.3371 96.423 80.6498 96.423C80.9671 96.423 81.2401 96.5047 81.4688 96.668C81.7021 96.8267 81.8561 97.0437 81.9308 97.319H81.8468L81.9238 96.486H82.4698C82.4558 96.6213 82.4418 96.759 82.4278 96.899C82.4184 97.0343 82.4138 97.1673 82.4138 97.298V100H81.8468V99.174H81.9238C81.8491 99.4493 81.6951 99.6663 81.4618 99.825C81.2284 99.9837 80.9578 100.063 80.6498 100.063ZM80.7618 99.601C81.0978 99.601 81.3638 99.4867 81.5598 99.258C81.7558 99.0247 81.8538 98.6863 81.8538 98.243C81.8538 97.795 81.7558 97.4567 81.5598 97.228C81.3638 96.9947 81.0978 96.878 80.7618 96.878C80.4304 96.878 80.1644 96.9947 79.9638 97.228C79.7678 97.4567 79.6698 97.795 79.6698 98.243C79.6698 98.6863 79.7678 99.0247 79.9638 99.258C80.1644 99.4867 80.4304 99.601 80.7618 99.601ZM83.51 100V97.298C83.51 97.1673 83.503 97.0343 83.489 96.899C83.4797 96.759 83.468 96.6213 83.454 96.486H84L84.07 97.256H83.986C84.0794 96.99 84.2264 96.7847 84.427 96.64C84.6324 96.4953 84.8797 96.423 85.169 96.423C85.463 96.423 85.701 96.493 85.883 96.633C86.0697 96.773 86.1957 96.99 86.261 97.284H86.156C86.2447 97.018 86.401 96.808 86.625 96.654C86.849 96.5 87.1104 96.423 87.409 96.423C87.7964 96.423 88.088 96.535 88.284 96.759C88.48 96.9783 88.578 97.326 88.578 97.802V100H88.011V97.837C88.011 97.5057 87.9527 97.2653 87.836 97.116C87.7194 96.962 87.5327 96.885 87.276 96.885C86.982 96.885 86.7487 96.9877 86.576 97.193C86.408 97.3937 86.324 97.6643 86.324 98.005V100H85.757V97.837C85.757 97.5057 85.6987 97.2653 85.582 97.116C85.4654 96.962 85.2787 96.885 85.022 96.885C84.728 96.885 84.497 96.9877 84.329 97.193C84.161 97.3937 84.077 97.6643 84.077 98.005V100H83.51ZM91.2165 100.063C90.6659 100.063 90.2319 99.9043 89.9145 99.587C89.5972 99.265 89.4385 98.8193 89.4385 98.25C89.4385 97.8813 89.5085 97.5617 89.6485 97.291C89.7885 97.0157 89.9845 96.8033 90.2365 96.654C90.4885 96.5 90.7779 96.423 91.1045 96.423C91.4265 96.423 91.6972 96.4907 91.9165 96.626C92.1359 96.7613 92.3039 96.955 92.4205 97.207C92.5372 97.4543 92.5955 97.7483 92.5955 98.089V98.299H89.8725V97.942H92.2245L92.1055 98.033C92.1055 97.6597 92.0215 97.368 91.8535 97.158C91.6855 96.948 91.4359 96.843 91.1045 96.843C90.7545 96.843 90.4815 96.9667 90.2855 97.214C90.0895 97.4567 89.9915 97.7857 89.9915 98.201V98.264C89.9915 98.7027 90.0989 99.0363 90.3135 99.265C90.5329 99.489 90.8385 99.601 91.2305 99.601C91.4405 99.601 91.6365 99.5707 91.8185 99.51C92.0052 99.4447 92.1825 99.3397 92.3505 99.195L92.5465 99.594C92.3925 99.7433 92.1965 99.86 91.9585 99.944C91.7252 100.023 91.4779 100.063 91.2165 100.063Z" fill="black"/>
<path d="M34.6372 91.749H62.6473V92.057H34.6372V91.749Z" fill="black"/>
<defs>
<filter id="filter0_bi_452_60" x="-61.0772" y="-61.0772" width="242.154" height="242.154" filterUnits="userSpaceOnUse" color-interpolation-filters="sRGB">
<feFlood flood-opacity="0" result="BackgroundImageFix"/>
<feGaussianBlur in="BackgroundImageFix" stdDeviation="30.5386"/>
<feComposite in2="SourceAlpha" operator="in" result="effect1_backgroundBlur_452_60"/>
<feBlend mode="normal" in="SourceGraphic" in2="effect1_backgroundBlur_452_60" result="shape"/>
<feColorMatrix in="SourceAlpha" type="matrix" values="0 0 0 0 0 0 0 0 0 0 0 0 0 0 0 0 0 0 127 0" result="hardAlpha"/>
<feOffset dx="39.0894" dy="10.9939"/>
<feGaussianBlur stdDeviation="23.2094"/>
<feComposite in2="hardAlpha" operator="arithmetic" k2="-1" k3="1"/>
<feColorMatrix type="matrix" values="0 0 0 0 1 0 0 0 0 1 0 0 0 0 1 0 0 0 0.25 0"/>
<feBlend mode="normal" in2="shape" result="effect2_innerShadow_452_60"/>
</filter>
<radialGradient id="paint0_radial_452_60" cx="0" cy="0" r="1" gradientUnits="userSpaceOnUse" gradientTransform="translate(60 60) rotate(90) scale(57.2093)">
<stop stop-color="white"/>
<stop offset="0.983367" stop-color="#CACACA"/>
</radialGradient>
<radialGradient id="paint1_radial_452_60" cx="0" cy="0" r="1" gradientUnits="userSpaceOnUse" gradientTransform="translate(60.3292 59.775) rotate(90) scale(52.8121)">
<stop stop-color="#F7FBFD"/>
<stop offset="0.983367" stop-color="#71A7CD"/>
</radialGradient>
<linearGradient id="paint2_linear_452_60" x1="11.199" y1="42.5922" x2="84.2864" y2="76.1066" gradientUnits="userSpaceOnUse">
<stop stop-color="#F7FBFD"/>
<stop offset="1" stop-color="#F7FBFD" stop-opacity="0"/>
</linearGradient>
<linearGradient id="paint3_linear_452_60" x1="59.1156" y1="5.2962" x2="67.9404" y2="92.7572" gradientUnits="userSpaceOnUse">
<stop stop-color="#F7FBFD"/>
<stop offset="1" stop-color="#F7FBFD" stop-opacity="0"/>
</linearGradient>
</defs>
</svg>
