<svg width="116" height="116" viewBox="0 0 116 116" fill="none" xmlns="http://www.w3.org/2000/svg">
<g filter="url(#filter0_bi_452_108)">
<circle cx="58" cy="58" r="58" fill="url(#paint0_radial_452_108)" fill-opacity="0.98"/>
</g>
<mask id="mask0_452_108" style="mask-type:alpha" maskUnits="userSpaceOnUse" x="4" y="4" width="108" height="108">
<circle cx="58.3183" cy="57.7825" r="53.542" fill="url(#paint1_radial_452_108)"/>
</mask>
<g mask="url(#mask0_452_108)">
<path fill-rule="evenodd" clip-rule="evenodd" d="M112.338 72.8414C96.6234 100.754 59.4224 116.196 31.5093 100.481C3.59632 84.7666 -4.4586 43.8472 11.2559 15.9342C11.9233 14.7487 12.6261 13.5958 13.3623 12.4759C0.383932 39.7631 10.5857 72.8294 37.3136 87.8767C64.0411 102.924 97.6031 94.496 114.202 69.2475C113.626 70.4575 113.005 71.6562 112.338 72.8414Z" fill="url(#paint2_linear_452_108)" fill-opacity="0.2"/>
<path fill-rule="evenodd" clip-rule="evenodd" d="M52.8002 115.591C82.9448 113.514 106.754 88.4025 106.754 57.7302C106.754 27.058 82.9448 1.94662 52.8002 -0.130815C54.1371 -0.222947 55.4864 -0.269775 56.8467 -0.269775C88.8792 -0.269775 114.847 25.6977 114.847 57.7302C114.847 89.7627 88.8792 115.73 56.8467 115.73C55.4864 115.73 54.1371 115.683 52.8002 115.591Z" fill="#F7FBFD" fill-opacity="0.52"/>
</g>
<path fill-rule="evenodd" clip-rule="evenodd" d="M47.4802 115.614C76.1879 112.29 98.474 87.8957 98.474 58.2965C98.474 28.6973 76.1879 4.30329 47.4802 0.978942C49.6814 0.724043 51.9203 0.593018 54.1899 0.593018C86.0586 0.593018 111.893 26.4277 111.893 58.2965C111.893 90.1652 86.0586 116 54.1899 116C51.9203 116 49.6814 115.869 47.4802 115.614Z" fill="url(#paint3_linear_452_108)" fill-opacity="0.2"/>
<path d="M30.5493 38.22C29.8693 38.22 29.2413 38.136 28.6653 37.968C28.0973 37.792 27.6093 37.552 27.2013 37.248L27.6813 36.036C27.9533 36.228 28.2373 36.392 28.5333 36.528C28.8293 36.656 29.1453 36.756 29.4813 36.828C29.8173 36.892 30.1733 36.924 30.5493 36.924C31.1813 36.924 31.6373 36.82 31.9173 36.612C32.1973 36.404 32.3373 36.132 32.3373 35.796C32.3373 35.5 32.2413 35.276 32.0493 35.124C31.8573 34.964 31.5133 34.832 31.0173 34.728L29.6613 34.452C28.8853 34.292 28.3053 34.024 27.9213 33.648C27.5373 33.272 27.3453 32.768 27.3453 32.136C27.3453 31.608 27.4853 31.148 27.7653 30.756C28.0453 30.364 28.4373 30.06 28.9413 29.844C29.4453 29.628 30.0333 29.52 30.7053 29.52C31.3053 29.52 31.8613 29.608 32.3733 29.784C32.8853 29.952 33.3133 30.196 33.6573 30.516L33.1773 31.668C32.8333 31.38 32.4573 31.168 32.0493 31.032C31.6413 30.888 31.1853 30.816 30.6813 30.816C30.1133 30.816 29.6693 30.928 29.3493 31.152C29.0373 31.368 28.8813 31.668 28.8813 32.052C28.8813 32.348 28.9773 32.584 29.1693 32.76C29.3693 32.936 29.7053 33.072 30.1773 33.168L31.5213 33.432C32.3213 33.592 32.9133 33.856 33.2973 34.224C33.6813 34.584 33.8733 35.072 33.8733 35.688C33.8733 36.192 33.7373 36.636 33.4653 37.02C33.1933 37.396 32.8093 37.692 32.3133 37.908C31.8173 38.116 31.2293 38.22 30.5493 38.22ZM35.3317 38.1V29.64H39.0877C40.0157 29.64 40.7237 29.864 41.2117 30.312C41.6997 30.76 41.9437 31.376 41.9437 32.16C41.9437 32.936 41.6997 33.552 41.2117 34.008C40.7237 34.464 40.0157 34.692 39.0877 34.692H36.8797V38.1H35.3317ZM36.8797 33.468H38.9077C39.4197 33.468 39.8037 33.356 40.0597 33.132C40.3157 32.9 40.4437 32.576 40.4437 32.16C40.4437 31.744 40.3157 31.424 40.0597 31.2C39.8037 30.968 39.4197 30.852 38.9077 30.852H36.8797V33.468ZM42.9893 33.864C42.9893 32.976 43.1493 32.208 43.4693 31.56C43.7973 30.912 44.2653 30.412 44.8733 30.06C45.4813 29.7 46.2053 29.52 47.0453 29.52C47.8773 29.52 48.5973 29.7 49.2053 30.06C49.8133 30.412 50.2813 30.912 50.6093 31.56C50.9453 32.208 51.1133 32.972 51.1133 33.852C51.1133 34.74 50.9453 35.512 50.6093 36.168C50.2813 36.816 49.8133 37.32 49.2053 37.68C48.5973 38.04 47.8773 38.22 47.0453 38.22C46.2053 38.22 45.4813 38.04 44.8733 37.68C44.2733 37.32 43.8093 36.816 43.4813 36.168C43.1533 35.512 42.9893 34.744 42.9893 33.864ZM44.6093 33.864C44.6093 34.816 44.8133 35.56 45.2213 36.096C45.6293 36.632 46.2373 36.9 47.0453 36.9C47.8293 36.9 48.4333 36.632 48.8573 36.096C49.2813 35.56 49.4933 34.816 49.4933 33.864C49.4933 32.904 49.2813 32.16 48.8573 31.632C48.4413 31.104 47.8373 30.84 47.0453 30.84C46.2373 30.84 45.6293 31.104 45.2213 31.632C44.8133 32.16 44.6093 32.904 44.6093 33.864ZM52.7106 38.1V29.64H53.8746L58.7826 35.988H58.4706V29.64H59.9106V38.1H58.7466L53.8506 31.752H54.1506V38.1H52.7106ZM64.7212 38.22C64.0412 38.22 63.4132 38.136 62.8372 37.968C62.2692 37.792 61.7812 37.552 61.3732 37.248L61.8532 36.036C62.1252 36.228 62.4092 36.392 62.7052 36.528C63.0012 36.656 63.3172 36.756 63.6532 36.828C63.9892 36.892 64.3452 36.924 64.7212 36.924C65.3532 36.924 65.8092 36.82 66.0892 36.612C66.3692 36.404 66.5092 36.132 66.5092 35.796C66.5092 35.5 66.4132 35.276 66.2212 35.124C66.0292 34.964 65.6852 34.832 65.1892 34.728L63.8332 34.452C63.0572 34.292 62.4772 34.024 62.0932 33.648C61.7092 33.272 61.5172 32.768 61.5172 32.136C61.5172 31.608 61.6572 31.148 61.9372 30.756C62.2172 30.364 62.6092 30.06 63.1132 29.844C63.6172 29.628 64.2052 29.52 64.8772 29.52C65.4772 29.52 66.0332 29.608 66.5452 29.784C67.0572 29.952 67.4852 30.196 67.8292 30.516L67.3492 31.668C67.0052 31.38 66.6292 31.168 66.2212 31.032C65.8132 30.888 65.3572 30.816 64.8532 30.816C64.2852 30.816 63.8412 30.928 63.5212 31.152C63.2092 31.368 63.0532 31.668 63.0532 32.052C63.0532 32.348 63.1492 32.584 63.3412 32.76C63.5412 32.936 63.8772 33.072 64.3492 33.168L65.6932 33.432C66.4932 33.592 67.0852 33.856 67.4692 34.224C67.8532 34.584 68.0452 35.072 68.0452 35.688C68.0452 36.192 67.9092 36.636 67.6372 37.02C67.3652 37.396 66.9812 37.692 66.4852 37.908C65.9892 38.116 65.4012 38.22 64.7212 38.22ZM69.2276 33.864C69.2276 32.976 69.3876 32.208 69.7076 31.56C70.0356 30.912 70.5036 30.412 71.1116 30.06C71.7196 29.7 72.4436 29.52 73.2836 29.52C74.1156 29.52 74.8356 29.7 75.4436 30.06C76.0516 30.412 76.5196 30.912 76.8476 31.56C77.1836 32.208 77.3516 32.972 77.3516 33.852C77.3516 34.74 77.1836 35.512 76.8476 36.168C76.5196 36.816 76.0516 37.32 75.4436 37.68C74.8356 38.04 74.1156 38.22 73.2836 38.22C72.4436 38.22 71.7196 38.04 71.1116 37.68C70.5116 37.32 70.0476 36.816 69.7196 36.168C69.3916 35.512 69.2276 34.744 69.2276 33.864ZM70.8476 33.864C70.8476 34.816 71.0516 35.56 71.4596 36.096C71.8676 36.632 72.4756 36.9 73.2836 36.9C74.0676 36.9 74.6716 36.632 75.0956 36.096C75.5196 35.56 75.7316 34.816 75.7316 33.864C75.7316 32.904 75.5196 32.16 75.0956 31.632C74.6796 31.104 74.0756 30.84 73.2836 30.84C72.4756 30.84 71.8676 31.104 71.4596 31.632C71.0516 32.16 70.8476 32.904 70.8476 33.864ZM78.9489 38.1V29.64H82.6449C83.5729 29.64 84.2889 29.86 84.7929 30.3C85.3049 30.74 85.5609 31.352 85.5609 32.136C85.5609 32.656 85.4449 33.1 85.2129 33.468C84.9889 33.836 84.6649 34.12 84.2409 34.32C83.8169 34.512 83.3169 34.608 82.7409 34.608L82.9089 34.38H83.3169C83.6529 34.38 83.9529 34.468 84.2169 34.644C84.4809 34.82 84.6969 35.088 84.8649 35.448L86.1009 38.1H84.3969L83.1489 35.352C83.0369 35.072 82.8649 34.888 82.6329 34.8C82.4089 34.712 82.1369 34.668 81.8169 34.668H80.4969V38.1H78.9489ZM80.4969 33.528H82.3929C82.9369 33.528 83.3489 33.416 83.6289 33.192C83.9169 32.96 84.0609 32.624 84.0609 32.184C84.0609 31.744 83.9169 31.412 83.6289 31.188C83.3489 30.964 82.9369 30.852 82.3929 30.852H80.4969V33.528ZM31.5539 53.1L35.3819 44.64H36.6779L40.5539 53.1H38.9819L37.9499 50.724L38.5739 51.144H33.4979L34.1459 50.724L33.1139 53.1H31.5539ZM36.0179 46.296L34.3259 50.304L34.0139 49.932H38.0459L37.7939 50.304L36.0659 46.296H36.0179ZM44.7829 53.1V44.64H48.4789C49.4069 44.64 50.1229 44.86 50.6269 45.3C51.1389 45.74 51.3949 46.352 51.3949 47.136C51.3949 47.656 51.2789 48.1 51.0469 48.468C50.8229 48.836 50.4989 49.12 50.0749 49.32C49.6509 49.512 49.1509 49.608 48.5749 49.608L48.7429 49.38H49.1509C49.4869 49.38 49.7869 49.468 50.0509 49.644C50.3149 49.82 50.5309 50.088 50.6989 50.448L51.9349 53.1H50.2309L48.9829 50.352C48.8709 50.072 48.6989 49.888 48.4669 49.8C48.2429 49.712 47.9709 49.668 47.6509 49.668H46.3309V53.1H44.7829ZM46.3309 48.528H48.2269C48.7709 48.528 49.1829 48.416 49.4629 48.192C49.7509 47.96 49.8949 47.624 49.8949 47.184C49.8949 46.744 49.7509 46.412 49.4629 46.188C49.1829 45.964 48.7709 45.852 48.2269 45.852H46.3309V48.528ZM52.8741 48.864C52.8741 47.976 53.0341 47.208 53.3541 46.56C53.6821 45.912 54.1501 45.412 54.7581 45.06C55.3661 44.7 56.0901 44.52 56.9301 44.52C57.7621 44.52 58.4821 44.7 59.0901 45.06C59.6981 45.412 60.1661 45.912 60.4941 46.56C60.8301 47.208 60.9981 47.972 60.9981 48.852C60.9981 49.74 60.8301 50.512 60.4941 51.168C60.1661 51.816 59.6981 52.32 59.0901 52.68C58.4821 53.04 57.7621 53.22 56.9301 53.22C56.0901 53.22 55.3661 53.04 54.7581 52.68C54.1581 52.32 53.6941 51.816 53.3661 51.168C53.0381 50.512 52.8741 49.744 52.8741 48.864ZM54.4941 48.864C54.4941 49.816 54.6981 50.56 55.1061 51.096C55.5141 51.632 56.1221 51.9 56.9301 51.9C57.7141 51.9 58.3181 51.632 58.7421 51.096C59.1661 50.56 59.3781 49.816 59.3781 48.864C59.3781 47.904 59.1661 47.16 58.7421 46.632C58.3261 46.104 57.7221 45.84 56.9301 45.84C56.1221 45.84 55.5141 46.104 55.1061 46.632C54.6981 47.16 54.4941 47.904 54.4941 48.864ZM62.3194 48.864C62.3194 47.976 62.4794 47.208 62.7994 46.56C63.1274 45.912 63.5954 45.412 64.2034 45.06C64.8114 44.7 65.5354 44.52 66.3754 44.52C67.2074 44.52 67.9274 44.7 68.5354 45.06C69.1434 45.412 69.6114 45.912 69.9394 46.56C70.2754 47.208 70.4434 47.972 70.4434 48.852C70.4434 49.74 70.2754 50.512 69.9394 51.168C69.6114 51.816 69.1434 52.32 68.5354 52.68C67.9274 53.04 67.2074 53.22 66.3754 53.22C65.5354 53.22 64.8114 53.04 64.2034 52.68C63.6034 52.32 63.1394 51.816 62.8114 51.168C62.4834 50.512 62.3194 49.744 62.3194 48.864ZM63.9394 48.864C63.9394 49.816 64.1434 50.56 64.5514 51.096C64.9594 51.632 65.5674 51.9 66.3754 51.9C67.1594 51.9 67.7634 51.632 68.1874 51.096C68.6114 50.56 68.8234 49.816 68.8234 48.864C68.8234 47.904 68.6114 47.16 68.1874 46.632C67.7714 46.104 67.1674 45.84 66.3754 45.84C65.5674 45.84 64.9594 46.104 64.5514 46.632C64.1434 47.16 63.9394 47.904 63.9394 48.864ZM72.0527 53.1V44.64H73.4087L76.5167 51.636H76.1447L79.2527 44.64H80.5967V53.1H79.1927V46.824H79.6247L76.7807 53.1H75.8567L73.0127 46.824H73.4567V53.1H72.0527ZM29.4643 68.1V66.3H31.3603V61.476H32.3683L29.6683 63.012V60.972L31.9963 59.64H33.5683V66.3H35.3323V68.1H29.4643ZM36.6596 68.1V66.3H38.5556V61.476H39.5636L36.8636 63.012V60.972L39.1916 59.64H40.7636V66.3H42.5276V68.1H36.6596ZM47.0116 68.1V59.64H49.2316V66.264H52.8556V68.1H47.0116ZM52.7997 68.1L56.7597 59.64H58.5597L62.5437 68.1H60.3237L59.3037 65.772L60.1557 66.384H55.1877L56.0277 65.772L55.0197 68.1H52.7997ZM57.6477 61.92L56.2437 65.268L55.9077 64.704H59.4237L59.1237 65.268L57.7077 61.92H57.6477ZM63.0663 68.1V59.64H65.2863V63.264H65.3103L68.5503 59.64H71.1423L67.0383 64.092V63.216L71.3703 68.1H68.6943L65.3103 64.284H65.2863V68.1H63.0663ZM71.5156 68.1V59.64H73.7356V62.904H77.1436V59.64H79.3636V68.1H77.1436V64.716H73.7356V68.1H71.5156ZM84.1057 68.232C83.4257 68.232 82.7777 68.152 82.1617 67.992C81.5537 67.824 81.0417 67.6 80.6257 67.32L81.2497 65.604C81.5137 65.772 81.8017 65.916 82.1137 66.036C82.4257 66.156 82.7497 66.252 83.0857 66.324C83.4297 66.388 83.7777 66.42 84.1297 66.42C84.6577 66.42 85.0217 66.352 85.2217 66.216C85.4297 66.08 85.5337 65.904 85.5337 65.688C85.5337 65.496 85.4657 65.348 85.3297 65.244C85.1937 65.132 84.9377 65.036 84.5617 64.956L83.0977 64.656C82.3217 64.496 81.7417 64.22 81.3577 63.828C80.9737 63.428 80.7817 62.908 80.7817 62.268C80.7817 61.708 80.9297 61.224 81.2257 60.816C81.5297 60.4 81.9537 60.08 82.4977 59.856C83.0417 59.624 83.6777 59.508 84.4057 59.508C85.0057 59.508 85.5697 59.592 86.0977 59.76C86.6257 59.92 87.0577 60.144 87.3937 60.432L86.7697 62.04C86.4497 61.808 86.0897 61.632 85.6897 61.512C85.2897 61.384 84.8457 61.32 84.3577 61.32C83.8937 61.32 83.5417 61.392 83.3017 61.536C83.0697 61.672 82.9537 61.868 82.9537 62.124C82.9537 62.3 83.0217 62.452 83.1577 62.58C83.3017 62.7 83.5617 62.8 83.9377 62.88L85.3777 63.168C86.1537 63.32 86.7337 63.592 87.1177 63.984C87.5097 64.376 87.7057 64.888 87.7057 65.52C87.7057 66.064 87.5537 66.54 87.2497 66.948C86.9537 67.356 86.5377 67.672 86.0017 67.896C85.4657 68.12 84.8337 68.232 84.1057 68.232Z" fill="black"/>
<path d="M34.9767 88.2V83.265H36.9507C37.4734 83.265 37.877 83.377 38.1617 83.601C38.4464 83.825 38.5887 84.1423 38.5887 84.553C38.5887 84.861 38.4954 85.1176 38.3087 85.323C38.1267 85.5283 37.8724 85.6636 37.5457 85.729V85.631C37.9097 85.673 38.1944 85.799 38.3997 86.009C38.6097 86.2143 38.7147 86.492 38.7147 86.842C38.7147 87.2806 38.5677 87.6166 38.2737 87.85C37.9844 88.0833 37.5737 88.2 37.0417 88.2H34.9767ZM35.5437 87.731H36.9857C37.3404 87.731 37.6204 87.6633 37.8257 87.528C38.0357 87.388 38.1407 87.157 38.1407 86.835C38.1407 86.5083 38.0357 86.2773 37.8257 86.142C37.6204 86.002 37.3404 85.932 36.9857 85.932H35.5437V87.731ZM35.5437 85.47H36.8667C37.2494 85.47 37.5364 85.3953 37.7277 85.246C37.919 85.0966 38.0147 84.882 38.0147 84.602C38.0147 84.3126 37.919 84.0956 37.7277 83.951C37.5364 83.8016 37.2494 83.727 36.8667 83.727H35.5437V85.47ZM41.2325 88.263C40.6818 88.263 40.2478 88.1043 39.9305 87.787C39.6132 87.465 39.4545 87.0193 39.4545 86.45C39.4545 86.0813 39.5245 85.7616 39.6645 85.491C39.8045 85.2156 40.0005 85.0033 40.2525 84.854C40.5045 84.7 40.7938 84.623 41.1205 84.623C41.4425 84.623 41.7132 84.6906 41.9325 84.826C42.1518 84.9613 42.3198 85.155 42.4365 85.407C42.5532 85.6543 42.6115 85.9483 42.6115 86.289V86.499H39.8885V86.142H42.2405L42.1215 86.233C42.1215 85.8596 42.0375 85.568 41.8695 85.358C41.7015 85.148 41.4518 85.043 41.1205 85.043C40.7705 85.043 40.4975 85.1666 40.3015 85.414C40.1055 85.6566 40.0075 85.9856 40.0075 86.401V86.464C40.0075 86.9026 40.1148 87.2363 40.3295 87.465C40.5488 87.689 40.8545 87.801 41.2465 87.801C41.4565 87.801 41.6525 87.7706 41.8345 87.71C42.0212 87.6446 42.1985 87.5396 42.3665 87.395L42.5625 87.794C42.4085 87.9433 42.2125 88.06 41.9745 88.144C41.7412 88.2233 41.4938 88.263 41.2325 88.263ZM43.4791 88.2V85.498C43.4791 85.3673 43.4721 85.2343 43.4581 85.099C43.4488 84.959 43.4371 84.8213 43.4231 84.686H43.9691L44.0391 85.456H43.9551C44.0578 85.1853 44.2211 84.98 44.4451 84.84C44.6738 84.6953 44.9375 84.623 45.2361 84.623C45.6515 84.623 45.9641 84.735 46.1741 84.959C46.3888 85.1783 46.4961 85.526 46.4961 86.002V88.2H45.9291V86.037C45.9291 85.7056 45.8615 85.4653 45.7261 85.316C45.5955 85.162 45.3901 85.085 45.1101 85.085C44.7835 85.085 44.5245 85.1853 44.3331 85.386C44.1418 85.5866 44.0461 85.855 44.0461 86.191V88.2H43.4791ZM49.1417 88.263C48.591 88.263 48.157 88.1043 47.8397 87.787C47.5224 87.465 47.3637 87.0193 47.3637 86.45C47.3637 86.0813 47.4337 85.7616 47.5737 85.491C47.7137 85.2156 47.9097 85.0033 48.1617 84.854C48.4137 84.7 48.703 84.623 49.0297 84.623C49.3517 84.623 49.6224 84.6906 49.8417 84.826C50.061 84.9613 50.229 85.155 50.3457 85.407C50.4624 85.6543 50.5207 85.9483 50.5207 86.289V86.499H47.7977V86.142H50.1497L50.0307 86.233C50.0307 85.8596 49.9467 85.568 49.7787 85.358C49.6107 85.148 49.361 85.043 49.0297 85.043C48.6797 85.043 48.4067 85.1666 48.2107 85.414C48.0147 85.6566 47.9167 85.9856 47.9167 86.401V86.464C47.9167 86.9026 48.024 87.2363 48.2387 87.465C48.458 87.689 48.7637 87.801 49.1557 87.801C49.3657 87.801 49.5617 87.7706 49.7437 87.71C49.9304 87.6446 50.1077 87.5396 50.2757 87.395L50.4717 87.794C50.3177 87.9433 50.1217 88.06 49.8837 88.144C49.6504 88.2233 49.403 88.263 49.1417 88.263ZM51.5703 88.2V85.127H50.8843V84.686H51.7243L51.5703 84.833V84.245C51.5703 83.8483 51.6683 83.545 51.8643 83.335C52.065 83.125 52.3496 83.02 52.7183 83.02C52.807 83.02 52.9003 83.0293 52.9983 83.048C53.101 83.062 53.1873 83.083 53.2573 83.111V83.58C53.2013 83.5566 53.1313 83.538 53.0473 83.524C52.968 83.5053 52.8863 83.496 52.8023 83.496C52.583 83.496 52.4173 83.5613 52.3053 83.692C52.1933 83.8226 52.1373 84.0233 52.1373 84.294V84.805L52.0463 84.686H54.3003V88.2H53.7333V85.127H52.1373V88.2H51.5703ZM53.6703 83.888V83.251H54.3703V83.888H53.6703ZM56.6538 88.263C56.3085 88.263 56.0448 88.165 55.8628 87.969C55.6808 87.7683 55.5898 87.4673 55.5898 87.066V85.127H54.9038V84.686H55.5898V83.727L56.1568 83.566V84.686H57.1648V85.127H56.1568V87.003C56.1568 87.283 56.2035 87.4836 56.2968 87.605C56.3948 87.7216 56.5395 87.78 56.7308 87.78C56.8195 87.78 56.8988 87.773 56.9688 87.759C57.0388 87.7403 57.1018 87.7193 57.1578 87.696V88.172C57.0925 88.2 57.0132 88.221 56.9198 88.235C56.8312 88.2536 56.7425 88.263 56.6538 88.263ZM59.0241 88.263C58.7441 88.263 58.4828 88.2256 58.2401 88.151C57.9974 88.0716 57.7968 87.962 57.6381 87.822L57.8341 87.423C58.0068 87.5583 58.1934 87.6586 58.3941 87.724C58.5994 87.7893 58.8118 87.822 59.0311 87.822C59.3111 87.822 59.5211 87.773 59.6611 87.675C59.8058 87.5723 59.8781 87.4323 59.8781 87.255C59.8781 87.1196 59.8314 87.0123 59.7381 86.933C59.6494 86.849 59.5024 86.7836 59.2971 86.737L58.6461 86.604C58.3474 86.5386 58.1234 86.429 57.9741 86.275C57.8248 86.1163 57.7501 85.9156 57.7501 85.673C57.7501 85.4676 57.8038 85.288 57.9111 85.134C58.0184 84.9753 58.1748 84.8516 58.3801 84.763C58.5854 84.6696 58.8258 84.623 59.1011 84.623C59.3578 84.623 59.5934 84.6626 59.8081 84.742C60.0274 84.8166 60.2094 84.9263 60.3541 85.071L60.1511 85.463C60.0111 85.3276 59.8501 85.2273 59.6681 85.162C59.4908 85.092 59.3064 85.057 59.1151 85.057C58.8398 85.057 58.6321 85.113 58.4921 85.225C58.3568 85.3323 58.2891 85.4746 58.2891 85.652C58.2891 85.7873 58.3311 85.8993 58.4151 85.988C58.5038 86.072 58.6391 86.135 58.8211 86.177L59.4721 86.31C59.7894 86.38 60.0251 86.4896 60.1791 86.639C60.3378 86.7836 60.4171 86.9796 60.4171 87.227C60.4171 87.437 60.3588 87.6213 60.2421 87.78C60.1254 87.934 59.9621 88.053 59.7521 88.137C59.5468 88.221 59.3041 88.263 59.0241 88.263ZM61.2158 85.4V84.686H61.9298V85.4H61.2158ZM61.2158 88.2V87.486H61.9298V88.2H61.2158ZM64.8087 88.2V83.265H65.2637L68.4277 87.465H68.2667V83.265H68.8057V88.2H68.3577L65.1937 84H65.3477V88.2H64.8087ZM71.3122 88.263C70.9996 88.263 70.7266 88.1906 70.4932 88.046C70.2599 87.8966 70.0779 87.6866 69.9472 87.416C69.8212 87.1453 69.7582 86.821 69.7582 86.443C69.7582 86.0603 69.8212 85.7336 69.9472 85.463C70.0779 85.1923 70.2599 84.9846 70.4932 84.84C70.7266 84.6953 70.9996 84.623 71.3122 84.623C71.6296 84.623 71.9026 84.7046 72.1312 84.868C72.3646 85.0266 72.5186 85.2436 72.5932 85.519H72.5092L72.5862 84.686H73.1322C73.1182 84.8213 73.1042 84.959 73.0902 85.099C73.0809 85.2343 73.0762 85.3673 73.0762 85.498V88.2H72.5092V87.374H72.5862C72.5116 87.6493 72.3576 87.8663 72.1242 88.025C71.8909 88.1836 71.6202 88.263 71.3122 88.263ZM71.4242 87.801C71.7602 87.801 72.0262 87.6866 72.2222 87.458C72.4182 87.2246 72.5162 86.8863 72.5162 86.443C72.5162 85.995 72.4182 85.6566 72.2222 85.428C72.0262 85.1946 71.7602 85.078 71.4242 85.078C71.0929 85.078 70.8269 85.1946 70.6262 85.428C70.4302 85.6566 70.3322 85.995 70.3322 86.443C70.3322 86.8863 70.4302 87.2246 70.6262 87.458C70.8269 87.6866 71.0929 87.801 71.4242 87.801ZM74.1725 88.2V85.498C74.1725 85.3673 74.1655 85.2343 74.1515 85.099C74.1422 84.959 74.1305 84.8213 74.1165 84.686H74.6625L74.7325 85.456H74.6485C74.7418 85.19 74.8888 84.9846 75.0895 84.84C75.2948 84.6953 75.5422 84.623 75.8315 84.623C76.1255 84.623 76.3635 84.693 76.5455 84.833C76.7322 84.973 76.8582 85.19 76.9235 85.484H76.8185C76.9072 85.218 77.0635 85.008 77.2875 84.854C77.5115 84.7 77.7728 84.623 78.0715 84.623C78.4588 84.623 78.7505 84.735 78.9465 84.959C79.1425 85.1783 79.2405 85.526 79.2405 86.002V88.2H78.6735V86.037C78.6735 85.7056 78.6152 85.4653 78.4985 85.316C78.3818 85.162 78.1952 85.085 77.9385 85.085C77.6445 85.085 77.4112 85.1876 77.2385 85.393C77.0705 85.5936 76.9865 85.8643 76.9865 86.205V88.2H76.4195V86.037C76.4195 85.7056 76.3612 85.4653 76.2445 85.316C76.1278 85.162 75.9412 85.085 75.6845 85.085C75.3905 85.085 75.1595 85.1876 74.9915 85.393C74.8235 85.5936 74.7395 85.8643 74.7395 86.205V88.2H74.1725ZM81.879 88.263C81.3283 88.263 80.8943 88.1043 80.577 87.787C80.2597 87.465 80.101 87.0193 80.101 86.45C80.101 86.0813 80.171 85.7616 80.311 85.491C80.451 85.2156 80.647 85.0033 80.899 84.854C81.151 84.7 81.4403 84.623 81.767 84.623C82.089 84.623 82.3597 84.6906 82.579 84.826C82.7983 84.9613 82.9663 85.155 83.083 85.407C83.1997 85.6543 83.258 85.9483 83.258 86.289V86.499H80.535V86.142H82.887L82.768 86.233C82.768 85.8596 82.684 85.568 82.516 85.358C82.348 85.148 82.0983 85.043 81.767 85.043C81.417 85.043 81.144 85.1666 80.948 85.414C80.752 85.6566 80.654 85.9856 80.654 86.401V86.464C80.654 86.9026 80.7613 87.2363 80.976 87.465C81.1953 87.689 81.501 87.801 81.893 87.801C82.103 87.801 82.299 87.7706 82.481 87.71C82.6677 87.6446 82.845 87.5396 83.013 87.395L83.209 87.794C83.055 87.9433 82.859 88.06 82.621 88.144C82.3877 88.2233 82.1403 88.263 81.879 88.263ZM30.7521 97.2V92.265H31.3331V97.2H30.7521ZM32.5006 97.2V94.498C32.5006 94.3673 32.4936 94.2343 32.4796 94.099C32.4703 93.959 32.4586 93.8213 32.4446 93.686H32.9906L33.0606 94.456H32.9766C33.0793 94.1853 33.2426 93.98 33.4666 93.84C33.6953 93.6953 33.9589 93.623 34.2576 93.623C34.6729 93.623 34.9856 93.735 35.1956 93.959C35.4103 94.1783 35.5176 94.526 35.5176 95.002V97.2H34.9506V95.037C34.9506 94.7056 34.8829 94.4653 34.7476 94.316C34.6169 94.162 34.4116 94.085 34.1316 94.085C33.8049 94.085 33.5459 94.1853 33.3546 94.386C33.1633 94.5866 33.0676 94.855 33.0676 95.191V97.2H32.5006ZM37.7712 97.263C37.4912 97.263 37.2298 97.2256 36.9872 97.151C36.7445 97.0716 36.5438 96.962 36.3852 96.822L36.5812 96.423C36.7538 96.5583 36.9405 96.6586 37.1412 96.724C37.3465 96.7893 37.5588 96.822 37.7782 96.822C38.0582 96.822 38.2682 96.773 38.4082 96.675C38.5528 96.5723 38.6252 96.4323 38.6252 96.255C38.6252 96.1196 38.5785 96.0123 38.4852 95.933C38.3965 95.849 38.2495 95.7836 38.0442 95.737L37.3932 95.604C37.0945 95.5386 36.8705 95.429 36.7212 95.275C36.5718 95.1163 36.4972 94.9156 36.4972 94.673C36.4972 94.4676 36.5508 94.288 36.6582 94.134C36.7655 93.9753 36.9218 93.8516 37.1272 93.763C37.3325 93.6696 37.5728 93.623 37.8482 93.623C38.1048 93.623 38.3405 93.6626 38.5552 93.742C38.7745 93.8166 38.9565 93.9263 39.1012 94.071L38.8982 94.463C38.7582 94.3276 38.5972 94.2273 38.4152 94.162C38.2378 94.092 38.0535 94.057 37.8622 94.057C37.5868 94.057 37.3792 94.113 37.2392 94.225C37.1038 94.3323 37.0362 94.4746 37.0362 94.652C37.0362 94.7873 37.0782 94.8993 37.1622 94.988C37.2508 95.072 37.3862 95.135 37.5682 95.177L38.2192 95.31C38.5365 95.38 38.7722 95.4896 38.9262 95.639C39.0848 95.7836 39.1642 95.9796 39.1642 96.227C39.1642 96.437 39.1058 96.6213 38.9892 96.78C38.8725 96.934 38.7092 97.053 38.4992 97.137C38.2938 97.221 38.0512 97.263 37.7712 97.263ZM41.5518 97.263C41.2065 97.263 40.9055 97.1883 40.6488 97.039C40.3968 96.8896 40.2008 96.6773 40.0608 96.402C39.9255 96.1266 39.8578 95.8 39.8578 95.422C39.8578 95.0393 39.9278 94.715 40.0678 94.449C40.2078 94.1783 40.4038 93.973 40.6558 93.833C40.9125 93.693 41.2112 93.623 41.5518 93.623C41.7758 93.623 41.9928 93.6626 42.2028 93.742C42.4175 93.8213 42.5948 93.9333 42.7348 94.078L42.5318 94.484C42.3918 94.3486 42.2378 94.2483 42.0698 94.183C41.9065 94.1176 41.7455 94.085 41.5868 94.085C41.2228 94.085 40.9405 94.1993 40.7398 94.428C40.5392 94.6566 40.4388 94.9903 40.4388 95.429C40.4388 95.863 40.5392 96.199 40.7398 96.437C40.9405 96.675 41.2228 96.794 41.5868 96.794C41.7408 96.794 41.8995 96.7636 42.0628 96.703C42.2308 96.6423 42.3872 96.542 42.5318 96.402L42.7348 96.801C42.5902 96.9503 42.4105 97.0646 42.1958 97.144C41.9812 97.2233 41.7665 97.263 41.5518 97.263ZM43.5267 97.2V94.533C43.5267 94.393 43.522 94.2506 43.5127 94.106C43.508 93.9613 43.4987 93.8213 43.4847 93.686H44.0307L44.1007 94.54L44.0027 94.547C44.0493 94.337 44.131 94.1643 44.2477 94.029C44.3643 93.8936 44.502 93.7933 44.6607 93.728C44.8193 93.658 44.985 93.623 45.1577 93.623C45.2277 93.623 45.2883 93.6253 45.3397 93.63C45.3957 93.6346 45.447 93.6463 45.4937 93.665L45.4867 94.169C45.4167 94.1456 45.3513 94.1316 45.2907 94.127C45.2347 94.1176 45.1693 94.113 45.0947 94.113C44.8893 94.113 44.7097 94.162 44.5557 94.26C44.4063 94.358 44.292 94.484 44.2127 94.638C44.138 94.792 44.1007 94.9553 44.1007 95.128V97.2H43.5267ZM46.0836 97.2V93.686H46.6506V97.2H46.0836ZM46.0136 92.888V92.251H46.7136V92.888H46.0136ZM49.5156 97.263C49.1983 97.263 48.9253 97.1836 48.6966 97.025C48.4679 96.8616 48.3139 96.64 48.2346 96.36H48.3116V97.2H47.7516V92.048H48.3186V94.505H48.2346C48.3139 94.2343 48.4679 94.0196 48.6966 93.861C48.9253 93.7023 49.1983 93.623 49.5156 93.623C49.8329 93.623 50.1059 93.6976 50.3346 93.847C50.5679 93.9916 50.7476 94.1993 50.8736 94.47C51.0043 94.7406 51.0696 95.065 51.0696 95.443C51.0696 95.821 51.0043 96.1453 50.8736 96.416C50.7429 96.6866 50.5609 96.8966 50.3276 97.046C50.0989 97.1906 49.8283 97.263 49.5156 97.263ZM49.3966 96.801C49.7279 96.801 49.9939 96.6866 50.1946 96.458C50.3953 96.2293 50.4956 95.891 50.4956 95.443C50.4956 94.995 50.3953 94.6566 50.1946 94.428C49.9939 94.1946 49.7279 94.078 49.3966 94.078C49.0653 94.078 48.7993 94.1946 48.5986 94.428C48.4026 94.6566 48.3046 94.995 48.3046 95.443C48.3046 95.8863 48.4026 96.2246 48.5986 96.458C48.7993 96.6866 49.0653 96.801 49.3966 96.801ZM53.5099 97.263C52.9592 97.263 52.5252 97.1043 52.2079 96.787C51.8905 96.465 51.7319 96.0193 51.7319 95.45C51.7319 95.0813 51.8019 94.7616 51.9419 94.491C52.0819 94.2156 52.2779 94.0033 52.5299 93.854C52.7819 93.7 53.0712 93.623 53.3979 93.623C53.7199 93.623 53.9905 93.6906 54.2099 93.826C54.4292 93.9613 54.5972 94.155 54.7139 94.407C54.8305 94.6543 54.8889 94.9483 54.8889 95.289V95.499H52.1659V95.142H54.5179L54.3989 95.233C54.3989 94.8596 54.3149 94.568 54.1469 94.358C53.9789 94.148 53.7292 94.043 53.3979 94.043C53.0479 94.043 52.7749 94.1666 52.5789 94.414C52.3829 94.6566 52.2849 94.9856 52.2849 95.401V95.464C52.2849 95.9026 52.3922 96.2363 52.6069 96.465C52.8262 96.689 53.1319 96.801 53.5239 96.801C53.7339 96.801 53.9299 96.7706 54.1119 96.71C54.2985 96.6446 54.4759 96.5396 54.6439 96.395L54.8399 96.794C54.6859 96.9433 54.4899 97.06 54.2519 97.144C54.0185 97.2233 53.7712 97.263 53.5099 97.263ZM57.0865 97.263C56.7785 97.263 56.5078 97.1906 56.2745 97.046C56.0411 96.8966 55.8591 96.6866 55.7285 96.416C55.6025 96.1453 55.5395 95.821 55.5395 95.443C55.5395 95.0603 55.6025 94.7336 55.7285 94.463C55.8591 94.1923 56.0411 93.9846 56.2745 93.84C56.5078 93.6953 56.7785 93.623 57.0865 93.623C57.4038 93.623 57.6768 93.7023 57.9055 93.861C58.1388 94.0196 58.2951 94.2343 58.3745 94.505H58.2905V92.048H58.8575V97.2H58.2975V96.36H58.3745C58.2998 96.64 58.1458 96.8616 57.9125 97.025C57.6791 97.1836 57.4038 97.263 57.0865 97.263ZM57.2055 96.801C57.5368 96.801 57.8028 96.6866 58.0035 96.458C58.2041 96.2246 58.3045 95.8863 58.3045 95.443C58.3045 94.995 58.2041 94.6566 58.0035 94.428C57.8028 94.1946 57.5368 94.078 57.2055 94.078C56.8741 94.078 56.6081 94.1946 56.4075 94.428C56.2115 94.6566 56.1135 94.995 56.1135 95.443C56.1135 95.8863 56.2115 96.2246 56.4075 96.458C56.6081 96.6866 56.8741 96.801 57.2055 96.801ZM63.2209 97.263C62.8849 97.263 62.5909 97.1906 62.3389 97.046C62.0916 96.8966 61.9003 96.6866 61.7649 96.416C61.6296 96.1406 61.5619 95.8163 61.5619 95.443C61.5619 95.065 61.6296 94.7406 61.7649 94.47C61.9003 94.1993 62.0916 93.9916 62.3389 93.847C62.5909 93.6976 62.8849 93.623 63.2209 93.623C63.5616 93.623 63.8556 93.6976 64.1029 93.847C64.3549 93.9916 64.5486 94.1993 64.6839 94.47C64.8239 94.7406 64.8939 95.065 64.8939 95.443C64.8939 95.8163 64.8239 96.1406 64.6839 96.416C64.5486 96.6866 64.3549 96.8966 64.1029 97.046C63.8556 97.1906 63.5616 97.263 63.2209 97.263ZM63.2209 96.801C63.5569 96.801 63.8229 96.6866 64.0189 96.458C64.2149 96.2246 64.3129 95.8863 64.3129 95.443C64.3129 94.995 64.2126 94.6566 64.0119 94.428C63.8159 94.1946 63.5523 94.078 63.2209 94.078C62.8896 94.078 62.6259 94.1946 62.4299 94.428C62.2339 94.6566 62.1359 94.995 62.1359 95.443C62.1359 95.8863 62.2339 96.2246 62.4299 96.458C62.6259 96.6866 62.8896 96.801 63.2209 96.801ZM65.778 97.2V94.498C65.778 94.3673 65.771 94.2343 65.757 94.099C65.7476 93.959 65.736 93.8213 65.722 93.686H66.268L66.338 94.456H66.254C66.3566 94.1853 66.52 93.98 66.744 93.84C66.9726 93.6953 67.2363 93.623 67.535 93.623C67.9503 93.623 68.263 93.735 68.473 93.959C68.6876 94.1783 68.795 94.526 68.795 95.002V97.2H68.228V95.037C68.228 94.7056 68.1603 94.4653 68.025 94.316C67.8943 94.162 67.689 94.085 67.409 94.085C67.0823 94.085 66.8233 94.1853 66.632 94.386C66.4406 94.5866 66.345 94.855 66.345 95.191V97.2H65.778ZM71.6907 97.2V94.533C71.6907 94.393 71.686 94.2506 71.6767 94.106C71.672 93.9613 71.6627 93.8213 71.6487 93.686H72.1947L72.2647 94.54L72.1667 94.547C72.2134 94.337 72.295 94.1643 72.4117 94.029C72.5284 93.8936 72.666 93.7933 72.8247 93.728C72.9834 93.658 73.149 93.623 73.3217 93.623C73.3917 93.623 73.4524 93.6253 73.5037 93.63C73.5597 93.6346 73.611 93.6463 73.6577 93.665L73.6507 94.169C73.5807 94.1456 73.5154 94.1316 73.4547 94.127C73.3987 94.1176 73.3334 94.113 73.2587 94.113C73.0534 94.113 72.8737 94.162 72.7197 94.26C72.5704 94.358 72.456 94.484 72.3767 94.638C72.302 94.792 72.2647 94.9553 72.2647 95.128V97.2H71.6907ZM75.6487 97.263C75.3127 97.263 75.0187 97.1906 74.7667 97.046C74.5193 96.8966 74.328 96.6866 74.1927 96.416C74.0573 96.1406 73.9897 95.8163 73.9897 95.443C73.9897 95.065 74.0573 94.7406 74.1927 94.47C74.328 94.1993 74.5193 93.9916 74.7667 93.847C75.0187 93.6976 75.3127 93.623 75.6487 93.623C75.9893 93.623 76.2833 93.6976 76.5307 93.847C76.7827 93.9916 76.9763 94.1993 77.1117 94.47C77.2517 94.7406 77.3217 95.065 77.3217 95.443C77.3217 95.8163 77.2517 96.1406 77.1117 96.416C76.9763 96.6866 76.7827 96.8966 76.5307 97.046C76.2833 97.1906 75.9893 97.263 75.6487 97.263ZM75.6487 96.801C75.9847 96.801 76.2507 96.6866 76.4467 96.458C76.6427 96.2246 76.7407 95.8863 76.7407 95.443C76.7407 94.995 76.6403 94.6566 76.4397 94.428C76.2437 94.1946 75.98 94.078 75.6487 94.078C75.3173 94.078 75.0537 94.1946 74.8577 94.428C74.6617 94.6566 74.5637 94.995 74.5637 95.443C74.5637 95.8863 74.6617 96.2246 74.8577 96.458C75.0537 96.6866 75.3173 96.801 75.6487 96.801ZM79.6477 97.263C79.3117 97.263 79.0177 97.1906 78.7657 97.046C78.5184 96.8966 78.327 96.6866 78.1917 96.416C78.0564 96.1406 77.9887 95.8163 77.9887 95.443C77.9887 95.065 78.0564 94.7406 78.1917 94.47C78.327 94.1993 78.5184 93.9916 78.7657 93.847C79.0177 93.6976 79.3117 93.623 79.6477 93.623C79.9884 93.623 80.2824 93.6976 80.5297 93.847C80.7817 93.9916 80.9754 94.1993 81.1107 94.47C81.2507 94.7406 81.3207 95.065 81.3207 95.443C81.3207 95.8163 81.2507 96.1406 81.1107 96.416C80.9754 96.6866 80.7817 96.8966 80.5297 97.046C80.2824 97.1906 79.9884 97.263 79.6477 97.263ZM79.6477 96.801C79.9837 96.801 80.2497 96.6866 80.4457 96.458C80.6417 96.2246 80.7397 95.8863 80.7397 95.443C80.7397 94.995 80.6394 94.6566 80.4387 94.428C80.2427 94.1946 79.979 94.078 79.6477 94.078C79.3164 94.078 79.0527 94.1946 78.8567 94.428C78.6607 94.6566 78.5627 94.995 78.5627 95.443C78.5627 95.8863 78.6607 96.2246 78.8567 96.458C79.0527 96.6866 79.3164 96.801 79.6477 96.801ZM82.2047 97.2V94.498C82.2047 94.3673 82.1977 94.2343 82.1837 94.099C82.1744 93.959 82.1627 93.8213 82.1487 93.686H82.6947L82.7647 94.456H82.6807C82.774 94.19 82.921 93.9846 83.1217 93.84C83.327 93.6953 83.5744 93.623 83.8637 93.623C84.1577 93.623 84.3957 93.693 84.5777 93.833C84.7644 93.973 84.8904 94.19 84.9557 94.484H84.8507C84.9394 94.218 85.0957 94.008 85.3197 93.854C85.5437 93.7 85.805 93.623 86.1037 93.623C86.491 93.623 86.7827 93.735 86.9787 93.959C87.1747 94.1783 87.2727 94.526 87.2727 95.002V97.2H86.7057V95.037C86.7057 94.7056 86.6474 94.4653 86.5307 94.316C86.414 94.162 86.2274 94.085 85.9707 94.085C85.6767 94.085 85.4434 94.1876 85.2707 94.393C85.1027 94.5936 85.0187 94.8643 85.0187 95.205V97.2H84.4517V95.037C84.4517 94.7056 84.3934 94.4653 84.2767 94.316C84.16 94.162 83.9734 94.085 83.7167 94.085C83.4227 94.085 83.1917 94.1876 83.0237 94.393C82.8557 94.5936 82.7717 94.8643 82.7717 95.205V97.2H82.2047Z" fill="black"/>
<path d="M34.3607 88.949H62.3708V89.257H34.3607V88.949Z" fill="black"/>
<defs>
<filter id="filter0_bi_452_108" x="-61.0772" y="-61.0772" width="238.154" height="238.154" filterUnits="userSpaceOnUse" color-interpolation-filters="sRGB">
<feFlood flood-opacity="0" result="BackgroundImageFix"/>
<feGaussianBlur in="BackgroundImageFix" stdDeviation="30.5386"/>
<feComposite in2="SourceAlpha" operator="in" result="effect1_backgroundBlur_452_108"/>
<feBlend mode="normal" in="SourceGraphic" in2="effect1_backgroundBlur_452_108" result="shape"/>
<feColorMatrix in="SourceAlpha" type="matrix" values="0 0 0 0 0 0 0 0 0 0 0 0 0 0 0 0 0 0 127 0" result="hardAlpha"/>
<feOffset dx="39.0894" dy="10.9939"/>
<feGaussianBlur stdDeviation="23.2094"/>
<feComposite in2="hardAlpha" operator="arithmetic" k2="-1" k3="1"/>
<feColorMatrix type="matrix" values="0 0 0 0 1 0 0 0 0 1 0 0 0 0 1 0 0 0 0.25 0"/>
<feBlend mode="normal" in2="shape" result="effect2_innerShadow_452_108"/>
</filter>
<radialGradient id="paint0_radial_452_108" cx="0" cy="0" r="1" gradientUnits="userSpaceOnUse" gradientTransform="translate(58 58) rotate(90) scale(55.3023)">
<stop stop-color="#D6E2DF"/>
<stop offset="0.983367" stop-color="#23F2B4"/>
</radialGradient>
<radialGradient id="paint1_radial_452_108" cx="0" cy="0" r="1" gradientUnits="userSpaceOnUse" gradientTransform="translate(58.3183 57.7825) rotate(90) scale(51.0517)">
<stop stop-color="#F7FBFD"/>
<stop offset="0.983367" stop-color="#71A7CD"/>
</radialGradient>
<linearGradient id="paint2_linear_452_108" x1="10.8257" y1="41.1724" x2="81.4768" y2="73.5697" gradientUnits="userSpaceOnUse">
<stop stop-color="#F7FBFD"/>
<stop offset="1" stop-color="#F7FBFD" stop-opacity="0"/>
</linearGradient>
<linearGradient id="paint3_linear_452_108" x1="57.1451" y1="5.11961" x2="65.6757" y2="89.6652" gradientUnits="userSpaceOnUse">
<stop stop-color="#F7FBFD"/>
<stop offset="1" stop-color="#F7FBFD" stop-opacity="0"/>
</linearGradient>
</defs>
</svg>
