<svg width="106" height="106" viewBox="0 0 106 106" fill="none" xmlns="http://www.w3.org/2000/svg">
<g filter="url(#filter0_bi_452_188)">
<circle cx="53" cy="53" r="53" fill="url(#paint0_radial_452_188)" fill-opacity="0.98"/>
</g>
<mask id="mask0_452_188" style="mask-type:alpha" maskUnits="userSpaceOnUse" x="4" y="3" width="99" height="99">
<circle cx="53.2908" cy="52.8013" r="48.9263" fill="url(#paint1_radial_452_188)"/>
</mask>
<g mask="url(#mask0_452_188)">
<path fill-rule="evenodd" clip-rule="evenodd" d="M102.654 66.5619C88.2939 92.0686 54.2998 106.179 28.7931 91.8189C3.28635 77.4591 -4.07418 40.0672 10.2856 14.5605C10.8954 13.4773 11.5377 12.4237 12.2104 11.4004C0.350919 36.3352 9.67326 66.551 34.0969 80.301C58.5204 94.051 89.1891 86.3498 104.357 63.2778C103.831 64.3835 103.263 65.4788 102.654 66.5619Z" fill="url(#paint2_linear_452_188)" fill-opacity="0.2"/>
<path fill-rule="evenodd" clip-rule="evenodd" d="M48.2485 105.626C75.7944 103.728 97.5508 80.7815 97.5508 52.7534C97.5508 24.7253 75.7944 1.77874 48.2485 -0.119601C49.4701 -0.203791 50.7031 -0.246582 51.9461 -0.246582C81.2172 -0.246582 104.946 23.4823 104.946 52.7534C104.946 82.0245 81.2172 105.753 51.9461 105.753C50.7031 105.753 49.4701 105.711 48.2485 105.626Z" fill="#F7FBFD" fill-opacity="0.52"/>
</g>
<path fill-rule="evenodd" clip-rule="evenodd" d="M43.3871 105.647C69.62 102.61 89.9848 80.3185 89.9848 53.271C89.9848 26.2235 69.62 3.93242 43.3871 0.894647C45.3985 0.661722 47.4444 0.541992 49.5183 0.541992C78.6398 0.541992 102.247 24.1496 102.247 53.271C102.247 82.3925 78.6398 106 49.5183 106C47.4444 106 45.3985 105.88 43.3871 105.647Z" fill="url(#paint3_linear_452_188)" fill-opacity="0.2"/>
<path d="M30.318 43.92C29.638 43.92 29.01 43.836 28.434 43.668C27.866 43.492 27.378 43.252 26.97 42.948L27.45 41.736C27.722 41.928 28.006 42.092 28.302 42.228C28.598 42.356 28.914 42.456 29.25 42.528C29.586 42.592 29.942 42.624 30.318 42.624C30.95 42.624 31.406 42.52 31.686 42.312C31.966 42.104 32.106 41.832 32.106 41.496C32.106 41.2 32.01 40.976 31.818 40.824C31.626 40.664 31.282 40.532 30.786 40.428L29.43 40.152C28.654 39.992 28.074 39.724 27.69 39.348C27.306 38.972 27.114 38.468 27.114 37.836C27.114 37.308 27.254 36.848 27.534 36.456C27.814 36.064 28.206 35.76 28.71 35.544C29.214 35.328 29.802 35.22 30.474 35.22C31.074 35.22 31.63 35.308 32.142 35.484C32.654 35.652 33.082 35.896 33.426 36.216L32.946 37.368C32.602 37.08 32.226 36.868 31.818 36.732C31.41 36.588 30.954 36.516 30.45 36.516C29.882 36.516 29.438 36.628 29.118 36.852C28.806 37.068 28.65 37.368 28.65 37.752C28.65 38.048 28.746 38.284 28.938 38.46C29.138 38.636 29.474 38.772 29.946 38.868L31.29 39.132C32.09 39.292 32.682 39.556 33.066 39.924C33.45 40.284 33.642 40.772 33.642 41.388C33.642 41.892 33.506 42.336 33.234 42.72C32.962 43.096 32.578 43.392 32.082 43.608C31.586 43.816 30.998 43.92 30.318 43.92ZM38.6283 43.92C37.4203 43.92 36.5203 43.62 35.9283 43.02C35.3443 42.412 35.0523 41.516 35.0523 40.332V35.34H36.6003V40.32C36.6003 41.072 36.7603 41.64 37.0803 42.024C37.4083 42.408 37.9243 42.6 38.6283 42.6C39.3003 42.6 39.8043 42.408 40.1403 42.024C40.4843 41.64 40.6563 41.072 40.6563 40.32V35.34H42.1803V40.332C42.1803 41.516 41.8803 42.412 41.2803 43.02C40.6883 43.62 39.8043 43.92 38.6283 43.92ZM43.9831 43.8V35.34H47.0551C48.0231 35.34 48.8391 35.508 49.5031 35.844C50.1751 36.172 50.6831 36.652 51.0271 37.284C51.3711 37.908 51.5431 38.668 51.5431 39.564C51.5431 40.452 51.3711 41.212 51.0271 41.844C50.6831 42.476 50.1751 42.96 49.5031 43.296C48.8391 43.632 48.0231 43.8 47.0551 43.8H43.9831ZM45.5311 42.516H46.9591C47.9831 42.516 48.7431 42.272 49.2391 41.784C49.7351 41.296 49.9831 40.556 49.9831 39.564C49.9831 38.564 49.7351 37.824 49.2391 37.344C48.7431 36.856 47.9831 36.612 46.9591 36.612H45.5311V42.516ZM52.012 43.8L55.84 35.34H57.136L61.012 43.8H59.44L58.408 41.424L59.032 41.844H53.956L54.604 41.424L53.572 43.8H52.012ZM56.476 36.996L54.784 41.004L54.472 40.632H58.504L58.252 41.004L56.524 36.996H56.476ZM61.96 43.8V35.34H63.316L66.424 42.336H66.052L69.16 35.34H70.504V43.8H69.1V37.524H69.532L66.688 43.8H65.764L62.92 37.524H63.364V43.8H61.96ZM71.4534 43.8L75.2814 35.34H76.5774L80.4534 43.8H78.8814L77.8494 41.424L78.4734 41.844H73.3974L74.0454 41.424L73.0134 43.8H71.4534ZM75.9174 36.996L74.2254 41.004L73.9134 40.632H77.9454L77.6934 41.004L75.9654 36.996H75.9174ZM37.4488 58.92C36.7688 58.92 36.1408 58.836 35.5648 58.668C34.9968 58.492 34.5088 58.252 34.1008 57.948L34.5808 56.736C34.8528 56.928 35.1368 57.092 35.4328 57.228C35.7288 57.356 36.0448 57.456 36.3808 57.528C36.7168 57.592 37.0728 57.624 37.4488 57.624C38.0808 57.624 38.5368 57.52 38.8168 57.312C39.0968 57.104 39.2368 56.832 39.2368 56.496C39.2368 56.2 39.1408 55.976 38.9488 55.824C38.7568 55.664 38.4128 55.532 37.9168 55.428L36.5608 55.152C35.7848 54.992 35.2048 54.724 34.8208 54.348C34.4368 53.972 34.2448 53.468 34.2448 52.836C34.2448 52.308 34.3848 51.848 34.6648 51.456C34.9448 51.064 35.3368 50.76 35.8408 50.544C36.3448 50.328 36.9328 50.22 37.6048 50.22C38.2048 50.22 38.7608 50.308 39.2728 50.484C39.7848 50.652 40.2128 50.896 40.5568 51.216L40.0768 52.368C39.7328 52.08 39.3568 51.868 38.9488 51.732C38.5408 51.588 38.0848 51.516 37.5808 51.516C37.0128 51.516 36.5688 51.628 36.2488 51.852C35.9368 52.068 35.7808 52.368 35.7808 52.752C35.7808 53.048 35.8768 53.284 36.0688 53.46C36.2688 53.636 36.6048 53.772 37.0768 53.868L38.4208 54.132C39.2208 54.292 39.8128 54.556 40.1968 54.924C40.5808 55.284 40.7728 55.772 40.7728 56.388C40.7728 56.892 40.6368 57.336 40.3648 57.72C40.0928 58.096 39.7088 58.392 39.2128 58.608C38.7168 58.816 38.1288 58.92 37.4488 58.92ZM42.2312 58.8V50.34H47.9312V51.552H43.7192V53.892H47.6552V55.116H43.7192V57.576H47.9312V58.8H42.2312ZM52.0687 58.8L48.3007 50.34H49.9687L53.0047 57.444H52.5007L55.5367 50.34H57.1447L53.3767 58.8H52.0687ZM56.3303 58.8L60.1583 50.34H61.4543L65.3303 58.8H63.7583L62.7263 56.424L63.3503 56.844H58.2743L58.9223 56.424L57.8903 58.8H56.3303ZM60.7943 51.996L59.1023 56.004L58.7903 55.632H62.8223L62.5703 56.004L60.8423 51.996H60.7943ZM66.2663 58.8V50.34H67.8143V54.084H67.8383L71.5223 50.34H73.3943L68.9783 54.744L68.9903 54.072L73.6823 58.8H71.7503L67.8383 54.888H67.8143V58.8H66.2663ZM22.4672 73.452V71.88L27.8072 69.84V70.884L22.4672 68.832V67.26L28.3352 69.552V71.148L22.4672 73.452ZM33.5512 73.8V72H35.4472V67.176H36.4552L33.7552 68.712V66.672L36.0832 65.34H37.6552V72H39.4192V73.8H33.5512ZM43.9033 73.8V65.34H46.1233V71.964H49.7473V73.8H43.9033ZM49.6913 73.8L53.6513 65.34H55.4513L59.4353 73.8H57.2153L56.1953 71.472L57.0473 72.084H52.0793L52.9193 71.472L51.9113 73.8H49.6913ZM54.5393 67.62L53.1353 70.968L52.7993 70.404H56.3153L56.0153 70.968L54.5993 67.62H54.5393ZM59.958 73.8V65.34H62.178V68.964H62.202L65.442 65.34H68.034L63.93 69.792V68.916L68.262 73.8H65.586L62.202 69.984H62.178V73.8H59.958ZM68.4072 73.8V65.34H70.6272V68.604H74.0352V65.34H76.2552V73.8H74.0352V70.416H70.6272V73.8H68.4072ZM80.9974 73.932C80.3174 73.932 79.6694 73.852 79.0534 73.692C78.4454 73.524 77.9334 73.3 77.5174 73.02L78.1414 71.304C78.4054 71.472 78.6934 71.616 79.0054 71.736C79.3174 71.856 79.6414 71.952 79.9774 72.024C80.3214 72.088 80.6694 72.12 81.0214 72.12C81.5494 72.12 81.9134 72.052 82.1134 71.916C82.3214 71.78 82.4254 71.604 82.4254 71.388C82.4254 71.196 82.3574 71.048 82.2214 70.944C82.0854 70.832 81.8294 70.736 81.4534 70.656L79.9894 70.356C79.2134 70.196 78.6334 69.92 78.2494 69.528C77.8654 69.128 77.6734 68.608 77.6734 67.968C77.6734 67.408 77.8214 66.924 78.1174 66.516C78.4214 66.1 78.8454 65.78 79.3894 65.556C79.9334 65.324 80.5694 65.208 81.2974 65.208C81.8974 65.208 82.4614 65.292 82.9894 65.46C83.5174 65.62 83.9494 65.844 84.2854 66.132L83.6614 67.74C83.3414 67.508 82.9814 67.332 82.5814 67.212C82.1814 67.084 81.7374 67.02 81.2494 67.02C80.7854 67.02 80.4334 67.092 80.1934 67.236C79.9614 67.372 79.8454 67.568 79.8454 67.824C79.8454 68 79.9134 68.152 80.0494 68.28C80.1934 68.4 80.4534 68.5 80.8294 68.58L82.2694 68.868C83.0454 69.02 83.6254 69.292 84.0094 69.684C84.4014 70.076 84.5974 70.588 84.5974 71.22C84.5974 71.764 84.4454 72.24 84.1414 72.648C83.8454 73.056 83.4294 73.372 82.8934 73.596C82.3574 73.82 81.7254 73.932 80.9974 73.932Z" fill="black"/>
<defs>
<filter id="filter0_bi_452_188" x="-61.0772" y="-61.0772" width="228.154" height="228.154" filterUnits="userSpaceOnUse" color-interpolation-filters="sRGB">
<feFlood flood-opacity="0" result="BackgroundImageFix"/>
<feGaussianBlur in="BackgroundImageFix" stdDeviation="30.5386"/>
<feComposite in2="SourceAlpha" operator="in" result="effect1_backgroundBlur_452_188"/>
<feBlend mode="normal" in="SourceGraphic" in2="effect1_backgroundBlur_452_188" result="shape"/>
<feColorMatrix in="SourceAlpha" type="matrix" values="0 0 0 0 0 0 0 0 0 0 0 0 0 0 0 0 0 0 127 0" result="hardAlpha"/>
<feOffset dx="39.0894" dy="10.9939"/>
<feGaussianBlur stdDeviation="23.2094"/>
<feComposite in2="hardAlpha" operator="arithmetic" k2="-1" k3="1"/>
<feColorMatrix type="matrix" values="0 0 0 0 1 0 0 0 0 1 0 0 0 0 1 0 0 0 0.25 0"/>
<feBlend mode="normal" in2="shape" result="effect2_innerShadow_452_188"/>
</filter>
<radialGradient id="paint0_radial_452_188" cx="0" cy="0" r="1" gradientUnits="userSpaceOnUse" gradientTransform="translate(53 53) rotate(90) scale(50.5349)">
<stop stop-color="#C7DCE8"/>
<stop offset="0.983367" stop-color="#35A4E2"/>
</radialGradient>
<radialGradient id="paint1_radial_452_188" cx="0" cy="0" r="1" gradientUnits="userSpaceOnUse" gradientTransform="translate(53.2908 52.8013) rotate(90) scale(46.6507)">
<stop stop-color="#F7FBFD"/>
<stop offset="0.983367" stop-color="#71A7CD"/>
</radialGradient>
<linearGradient id="paint2_linear_452_188" x1="9.89242" y1="37.6231" x2="74.453" y2="67.2275" gradientUnits="userSpaceOnUse">
<stop stop-color="#F7FBFD"/>
<stop offset="1" stop-color="#F7FBFD" stop-opacity="0"/>
</linearGradient>
<linearGradient id="paint3_linear_452_188" x1="52.2188" y1="4.67836" x2="60.014" y2="81.9356" gradientUnits="userSpaceOnUse">
<stop stop-color="#F7FBFD"/>
<stop offset="1" stop-color="#F7FBFD" stop-opacity="0"/>
</linearGradient>
</defs>
</svg>
