<svg width="110" height="110" viewBox="0 0 110 110" fill="none" xmlns="http://www.w3.org/2000/svg">
<g filter="url(#filter0_bi_452_92)">
<circle cx="55" cy="55" r="55" fill="url(#paint0_radial_452_92)" fill-opacity="0.98"/>
</g>
<mask id="mask0_452_92" style="mask-type:alpha" maskUnits="userSpaceOnUse" x="4" y="4" width="103" height="102">
<circle cx="55.3018" cy="54.7937" r="50.7726" fill="url(#paint1_radial_452_92)"/>
</mask>
<g mask="url(#mask0_452_92)">
<path fill-rule="evenodd" clip-rule="evenodd" d="M106.527 69.0738C91.6256 95.543 56.3488 110.186 29.8796 95.2838C3.41031 80.3822 -4.22798 41.5793 10.6737 15.1101C11.3066 13.9859 11.973 12.8926 12.6712 11.8306C0.364081 37.7064 10.0382 69.0624 35.3836 83.3314C60.7287 97.6002 92.5546 89.6084 108.295 65.6658C107.749 66.8132 107.16 67.9499 106.527 69.0738Z" fill="url(#paint2_linear_452_92)" fill-opacity="0.2"/>
<path fill-rule="evenodd" clip-rule="evenodd" d="M50.0692 109.612C78.6546 107.642 101.232 83.8299 101.232 54.7441C101.232 25.6584 78.6546 1.84589 50.0692 -0.124087C51.3369 -0.211453 52.6165 -0.255859 53.9064 -0.255859C84.282 -0.255859 108.906 24.3685 108.906 54.7441C108.906 85.1198 84.282 109.744 53.9064 109.744C52.6165 109.744 51.3369 109.7 50.0692 109.612Z" fill="#F7FBFD" fill-opacity="0.52"/>
</g>
<path fill-rule="evenodd" clip-rule="evenodd" d="M45.0243 109.634C72.2471 106.482 93.3805 83.3494 93.3805 55.2812C93.3805 27.213 72.2471 4.08074 45.0243 0.92834C47.1116 0.686626 49.2348 0.562378 51.387 0.562378C81.6073 0.562378 106.106 25.0608 106.106 55.2812C106.106 85.5015 81.6073 110 51.387 110C49.2348 110 47.1117 109.876 45.0243 109.634Z" fill="url(#paint3_linear_452_92)" fill-opacity="0.2"/>
<path d="M35.115 36.87C34.163 36.87 33.363 36.694 32.715 36.342C32.067 35.99 31.579 35.49 31.251 34.842C30.923 34.194 30.759 33.426 30.759 32.538C30.759 31.642 30.935 30.87 31.287 30.222C31.639 29.566 32.143 29.062 32.799 28.71C33.463 28.35 34.259 28.17 35.187 28.17C35.803 28.17 36.343 28.254 36.807 28.422C37.271 28.582 37.679 28.818 38.031 29.13L37.515 30.33C37.259 30.13 37.015 29.97 36.783 29.85C36.551 29.73 36.311 29.646 36.063 29.598C35.815 29.542 35.527 29.514 35.199 29.514C34.271 29.514 33.567 29.778 33.087 30.306C32.615 30.826 32.379 31.574 32.379 32.55C32.379 33.526 32.603 34.27 33.051 34.782C33.507 35.294 34.219 35.55 35.187 35.55C35.515 35.55 35.843 35.518 36.171 35.454C36.507 35.39 36.835 35.298 37.155 35.178L36.867 35.826V33.294H34.887V32.166H38.151V36.234C37.759 36.434 37.291 36.59 36.747 36.702C36.203 36.814 35.659 36.87 35.115 36.87ZM39.6418 32.514C39.6418 31.626 39.8018 30.858 40.1218 30.21C40.4498 29.562 40.9178 29.062 41.5258 28.71C42.1338 28.35 42.8578 28.17 43.6978 28.17C44.5298 28.17 45.2498 28.35 45.8578 28.71C46.4658 29.062 46.9338 29.562 47.2618 30.21C47.5978 30.858 47.7658 31.622 47.7658 32.502C47.7658 33.39 47.5978 34.162 47.2618 34.818C46.9338 35.466 46.4658 35.97 45.8578 36.33C45.2498 36.69 44.5298 36.87 43.6978 36.87C42.8578 36.87 42.1338 36.69 41.5258 36.33C40.9258 35.97 40.4618 35.466 40.1338 34.818C39.8058 34.162 39.6418 33.394 39.6418 32.514ZM41.2618 32.514C41.2618 33.466 41.4658 34.21 41.8738 34.746C42.2818 35.282 42.8898 35.55 43.6978 35.55C44.4818 35.55 45.0858 35.282 45.5098 34.746C45.9338 34.21 46.1458 33.466 46.1458 32.514C46.1458 31.554 45.9338 30.81 45.5098 30.282C45.0938 29.754 44.4898 29.49 43.6978 29.49C42.8898 29.49 42.2818 29.754 41.8738 30.282C41.4658 30.81 41.2618 31.554 41.2618 32.514ZM49.3631 36.75V28.29H50.9111V35.442H54.8951V36.75H49.3631ZM55.3449 32.514C55.3449 31.626 55.5049 30.858 55.8249 30.21C56.1529 29.562 56.6209 29.062 57.2289 28.71C57.8369 28.35 58.5609 28.17 59.4009 28.17C60.2329 28.17 60.9529 28.35 61.5609 28.71C62.1689 29.062 62.6369 29.562 62.9649 30.21C63.3009 30.858 63.4689 31.622 63.4689 32.502C63.4689 33.39 63.3009 34.162 62.9649 34.818C62.6369 35.466 62.1689 35.97 61.5609 36.33C60.9529 36.69 60.2329 36.87 59.4009 36.87C58.5609 36.87 57.8369 36.69 57.2289 36.33C56.6289 35.97 56.1649 35.466 55.8369 34.818C55.5089 34.162 55.3449 33.394 55.3449 32.514ZM56.9649 32.514C56.9649 33.466 57.1689 34.21 57.5769 34.746C57.9849 35.282 58.5929 35.55 59.4009 35.55C60.1849 35.55 60.7889 35.282 61.2129 34.746C61.6369 34.21 61.8489 33.466 61.8489 32.514C61.8489 31.554 61.6369 30.81 61.2129 30.282C60.7969 29.754 60.1929 29.49 59.4009 29.49C58.5929 29.49 57.9849 29.754 57.5769 30.282C57.1689 30.81 56.9649 31.554 56.9649 32.514ZM65.0662 36.75V28.29H66.6142V32.034H66.6382L70.3222 28.29H72.1942L67.7782 32.694L67.7902 32.022L72.4822 36.75H70.5502L66.6382 32.838H66.6142V36.75H65.0662ZM71.8177 36.75L75.6457 28.29H76.9417L80.8177 36.75H79.2457L78.2137 34.374L78.8377 34.794H73.7617L74.4097 34.374L73.3777 36.75H71.8177ZM76.2817 29.946L74.5897 33.954L74.2777 33.582H78.3097L78.0577 33.954L76.3297 29.946H76.2817ZM39.4655 51.87C38.7855 51.87 38.1575 51.786 37.5815 51.618C37.0135 51.442 36.5255 51.202 36.1175 50.898L36.5975 49.686C36.8695 49.878 37.1535 50.042 37.4495 50.178C37.7455 50.306 38.0615 50.406 38.3975 50.478C38.7335 50.542 39.0895 50.574 39.4655 50.574C40.0975 50.574 40.5535 50.47 40.8335 50.262C41.1135 50.054 41.2535 49.782 41.2535 49.446C41.2535 49.15 41.1575 48.926 40.9655 48.774C40.7735 48.614 40.4295 48.482 39.9335 48.378L38.5775 48.102C37.8015 47.942 37.2215 47.674 36.8375 47.298C36.4535 46.922 36.2615 46.418 36.2615 45.786C36.2615 45.258 36.4015 44.798 36.6815 44.406C36.9615 44.014 37.3535 43.71 37.8575 43.494C38.3615 43.278 38.9495 43.17 39.6215 43.17C40.2215 43.17 40.7775 43.258 41.2895 43.434C41.8015 43.602 42.2295 43.846 42.5735 44.166L42.0935 45.318C41.7495 45.03 41.3735 44.818 40.9655 44.682C40.5575 44.538 40.1015 44.466 39.5975 44.466C39.0295 44.466 38.5855 44.578 38.2655 44.802C37.9535 45.018 37.7975 45.318 37.7975 45.702C37.7975 45.998 37.8935 46.234 38.0855 46.41C38.2855 46.586 38.6215 46.722 39.0935 46.818L40.4375 47.082C41.2375 47.242 41.8295 47.506 42.2135 47.874C42.5975 48.234 42.7895 48.722 42.7895 49.338C42.7895 49.842 42.6535 50.286 42.3815 50.67C42.1095 51.046 41.7255 51.342 41.2295 51.558C40.7335 51.766 40.1455 51.87 39.4655 51.87ZM44.2478 51.75V43.29H49.9478V44.502H45.7358V46.842H49.6718V48.066H45.7358V50.526H49.9478V51.75H44.2478ZM54.0854 51.75L50.3174 43.29H51.9854L55.0214 50.394H54.5174L57.5534 43.29H59.1614L55.3934 51.75H54.0854ZM58.347 51.75L62.175 43.29H63.471L67.347 51.75H65.775L64.743 49.374L65.367 49.794H60.291L60.939 49.374L59.907 51.75H58.347ZM62.811 44.946L61.119 48.954L60.807 48.582H64.839L64.587 48.954L62.859 44.946H62.811ZM68.283 51.75V43.29H69.831V47.034H69.855L73.539 43.29H75.411L70.995 47.694L71.007 47.022L75.699 51.75H73.767L69.855 47.838H69.831V51.75H68.283ZM20.8862 66.402V64.83L26.2262 62.79V63.834L20.8862 61.782V60.21L26.7542 62.502V64.098L20.8862 66.402ZM31.9703 66.75V64.95H33.8663V60.126H34.8743L32.1743 61.662V59.622L34.5023 58.29H36.0743V64.95H37.8383V66.75H31.9703ZM41.6736 66.882C40.6336 66.882 39.8336 66.502 39.2736 65.742C38.7216 64.974 38.4456 63.89 38.4456 62.49C38.4456 61.074 38.7216 59.998 39.2736 59.262C39.8336 58.526 40.6336 58.158 41.6736 58.158C42.7216 58.158 43.5216 58.526 44.0736 59.262C44.6256 59.998 44.9016 61.07 44.9016 62.478C44.9016 63.886 44.6216 64.974 44.0616 65.742C43.5096 66.502 42.7136 66.882 41.6736 66.882ZM41.6736 65.118C42.0576 65.118 42.3416 64.91 42.5256 64.494C42.7176 64.078 42.8136 63.41 42.8136 62.49C42.8136 61.562 42.7176 60.902 42.5256 60.51C42.3416 60.11 42.0576 59.91 41.6736 59.91C41.2896 59.91 41.0016 60.11 40.8096 60.51C40.6256 60.902 40.5336 61.558 40.5336 62.478C40.5336 63.406 40.6256 64.078 40.8096 64.494C41.0016 64.91 41.2896 65.118 41.6736 65.118ZM49.5176 66.75V58.29H51.7376V64.914H55.3616V66.75H49.5176ZM55.3057 66.75L59.2657 58.29H61.0657L65.0497 66.75H62.8297L61.8097 64.422L62.6617 65.034H57.6937L58.5337 64.422L57.5257 66.75H55.3057ZM60.1537 60.57L58.7497 63.918L58.4137 63.354H61.9297L61.6297 63.918L60.2137 60.57H60.1537ZM65.5723 66.75V58.29H67.7923V61.914H67.8163L71.0563 58.29H73.6483L69.5443 62.742V61.866L73.8763 66.75H71.2003L67.8163 62.934H67.7923V66.75H65.5723ZM74.0215 66.75V58.29H76.2415V61.554H79.6495V58.29H81.8695V66.75H79.6495V63.366H76.2415V66.75H74.0215ZM86.6117 66.882C85.9317 66.882 85.2837 66.802 84.6677 66.642C84.0597 66.474 83.5477 66.25 83.1317 65.97L83.7557 64.254C84.0197 64.422 84.3077 64.566 84.6197 64.686C84.9317 64.806 85.2557 64.902 85.5917 64.974C85.9357 65.038 86.2837 65.07 86.6357 65.07C87.1637 65.07 87.5277 65.002 87.7277 64.866C87.9357 64.73 88.0397 64.554 88.0397 64.338C88.0397 64.146 87.9717 63.998 87.8357 63.894C87.6997 63.782 87.4437 63.686 87.0677 63.606L85.6037 63.306C84.8277 63.146 84.2477 62.87 83.8637 62.478C83.4797 62.078 83.2877 61.558 83.2877 60.918C83.2877 60.358 83.4357 59.874 83.7317 59.466C84.0357 59.05 84.4597 58.73 85.0037 58.506C85.5477 58.274 86.1837 58.158 86.9117 58.158C87.5117 58.158 88.0757 58.242 88.6037 58.41C89.1317 58.57 89.5637 58.794 89.8997 59.082L89.2757 60.69C88.9557 60.458 88.5957 60.282 88.1957 60.162C87.7957 60.034 87.3517 59.97 86.8637 59.97C86.3997 59.97 86.0477 60.042 85.8077 60.186C85.5757 60.322 85.4597 60.518 85.4597 60.774C85.4597 60.95 85.5277 61.102 85.6637 61.23C85.8077 61.35 86.0677 61.45 86.4437 61.53L87.8837 61.818C88.6597 61.97 89.2397 62.242 89.6237 62.634C90.0157 63.026 90.2117 63.538 90.2117 64.17C90.2117 64.714 90.0597 65.19 89.7557 65.598C89.4597 66.006 89.0437 66.322 88.5077 66.546C87.9717 66.77 87.3397 66.882 86.6117 66.882Z" fill="black"/>
<path d="M29.3564 82.1666V77.2316H31.3304C31.8531 77.2316 32.2567 77.3436 32.5414 77.5676C32.8261 77.7916 32.9684 78.109 32.9684 78.5196C32.9684 78.8276 32.8751 79.0843 32.6884 79.2896C32.5064 79.495 32.2521 79.6303 31.9254 79.6956V79.5976C32.2894 79.6396 32.5741 79.7656 32.7794 79.9756C32.9894 80.181 33.0944 80.4586 33.0944 80.8086C33.0944 81.2473 32.9474 81.5833 32.6534 81.8166C32.3641 82.05 31.9534 82.1666 31.4214 82.1666H29.3564ZM29.9234 81.6976H31.3654C31.7201 81.6976 32.0001 81.63 32.2054 81.4946C32.4154 81.3546 32.5204 81.1236 32.5204 80.8016C32.5204 80.475 32.4154 80.244 32.2054 80.1086C32.0001 79.9686 31.7201 79.8986 31.3654 79.8986H29.9234V81.6976ZM29.9234 79.4366H31.2464C31.6291 79.4366 31.9161 79.362 32.1074 79.2126C32.2987 79.0633 32.3944 78.8486 32.3944 78.5686C32.3944 78.2793 32.2987 78.0623 32.1074 77.9176C31.9161 77.7683 31.6291 77.6936 31.2464 77.6936H29.9234V79.4366ZM35.6122 82.2296C35.0615 82.2296 34.6275 82.071 34.3102 81.7536C33.9929 81.4316 33.8342 80.986 33.8342 80.4166C33.8342 80.048 33.9042 79.7283 34.0442 79.4576C34.1842 79.1823 34.3802 78.97 34.6322 78.8206C34.8842 78.6666 35.1735 78.5896 35.5002 78.5896C35.8222 78.5896 36.0929 78.6573 36.3122 78.7926C36.5315 78.928 36.6995 79.1216 36.8162 79.3736C36.9329 79.621 36.9912 79.915 36.9912 80.2556V80.4656H34.2682V80.1086H36.6202L36.5012 80.1996C36.5012 79.8263 36.4172 79.5346 36.2492 79.3246C36.0812 79.1146 35.8315 79.0096 35.5002 79.0096C35.1502 79.0096 34.8772 79.1333 34.6812 79.3806C34.4852 79.6233 34.3872 79.9523 34.3872 80.3676V80.4306C34.3872 80.8693 34.4945 81.203 34.7092 81.4316C34.9285 81.6556 35.2342 81.7676 35.6262 81.7676C35.8362 81.7676 36.0322 81.7373 36.2142 81.6766C36.4009 81.6113 36.5782 81.5063 36.7462 81.3616L36.9422 81.7606C36.7882 81.91 36.5922 82.0266 36.3542 82.1106C36.1209 82.19 35.8735 82.2296 35.6122 82.2296ZM37.8588 82.1666V79.4646C37.8588 79.334 37.8518 79.201 37.8378 79.0656C37.8285 78.9256 37.8168 78.788 37.8028 78.6526H38.3488L38.4188 79.4226H38.3348C38.4375 79.152 38.6008 78.9466 38.8248 78.8066C39.0535 78.662 39.3172 78.5896 39.6158 78.5896C40.0312 78.5896 40.3438 78.7016 40.5538 78.9256C40.7685 79.145 40.8758 79.4926 40.8758 79.9686V82.1666H40.3088V80.0036C40.3088 79.6723 40.2412 79.432 40.1058 79.2826C39.9752 79.1286 39.7698 79.0516 39.4898 79.0516C39.1632 79.0516 38.9042 79.152 38.7128 79.3526C38.5215 79.5533 38.4258 79.8216 38.4258 80.1576V82.1666H37.8588ZM43.5214 82.2296C42.9707 82.2296 42.5367 82.071 42.2194 81.7536C41.9021 81.4316 41.7434 80.986 41.7434 80.4166C41.7434 80.048 41.8134 79.7283 41.9534 79.4576C42.0934 79.1823 42.2894 78.97 42.5414 78.8206C42.7934 78.6666 43.0827 78.5896 43.4094 78.5896C43.7314 78.5896 44.0021 78.6573 44.2214 78.7926C44.4407 78.928 44.6087 79.1216 44.7254 79.3736C44.8421 79.621 44.9004 79.915 44.9004 80.2556V80.4656H42.1774V80.1086H44.5294L44.4104 80.1996C44.4104 79.8263 44.3264 79.5346 44.1584 79.3246C43.9904 79.1146 43.7407 79.0096 43.4094 79.0096C43.0594 79.0096 42.7864 79.1333 42.5904 79.3806C42.3944 79.6233 42.2964 79.9523 42.2964 80.3676V80.4306C42.2964 80.8693 42.4037 81.203 42.6184 81.4316C42.8377 81.6556 43.1434 81.7676 43.5354 81.7676C43.7454 81.7676 43.9414 81.7373 44.1234 81.6766C44.3101 81.6113 44.4874 81.5063 44.6554 81.3616L44.8514 81.7606C44.6974 81.91 44.5014 82.0266 44.2634 82.1106C44.0301 82.19 43.7827 82.2296 43.5214 82.2296ZM45.95 82.1666V79.0936H45.264V78.6526H46.104L45.95 78.7996V78.2116C45.95 77.815 46.048 77.5116 46.244 77.3016C46.4447 77.0916 46.7293 76.9866 47.098 76.9866C47.1867 76.9866 47.28 76.996 47.378 77.0146C47.4807 77.0286 47.567 77.0496 47.637 77.0776V77.5466C47.581 77.5233 47.511 77.5046 47.427 77.4906C47.3477 77.472 47.266 77.4626 47.182 77.4626C46.9627 77.4626 46.797 77.528 46.685 77.6586C46.573 77.7893 46.517 77.99 46.517 78.2606V78.7716L46.426 78.6526H48.68V82.1666H48.113V79.0936H46.517V82.1666H45.95ZM48.05 77.8546V77.2176H48.75V77.8546H48.05ZM51.0335 82.2296C50.6882 82.2296 50.4245 82.1316 50.2425 81.9356C50.0605 81.735 49.9695 81.434 49.9695 81.0326V79.0936H49.2835V78.6526H49.9695V77.6936L50.5365 77.5326V78.6526H51.5445V79.0936H50.5365V80.9696C50.5365 81.2496 50.5832 81.4503 50.6765 81.5716C50.7745 81.6883 50.9192 81.7466 51.1105 81.7466C51.1992 81.7466 51.2785 81.7396 51.3485 81.7256C51.4185 81.707 51.4815 81.686 51.5375 81.6626V82.1386C51.4722 82.1666 51.3929 82.1876 51.2995 82.2016C51.2109 82.2203 51.1222 82.2296 51.0335 82.2296ZM53.4038 82.2296C53.1238 82.2296 52.8625 82.1923 52.6198 82.1176C52.3771 82.0383 52.1765 81.9286 52.0178 81.7886L52.2138 81.3896C52.3865 81.525 52.5731 81.6253 52.7738 81.6906C52.9791 81.756 53.1915 81.7886 53.4108 81.7886C53.6908 81.7886 53.9008 81.7396 54.0408 81.6416C54.1855 81.539 54.2578 81.399 54.2578 81.2216C54.2578 81.0863 54.2111 80.979 54.1178 80.8996C54.0291 80.8156 53.8821 80.7503 53.6768 80.7036L53.0258 80.5706C52.7271 80.5053 52.5031 80.3956 52.3538 80.2416C52.2045 80.083 52.1298 79.8823 52.1298 79.6396C52.1298 79.4343 52.1835 79.2546 52.2908 79.1006C52.3981 78.942 52.5545 78.8183 52.7598 78.7296C52.9651 78.6363 53.2055 78.5896 53.4808 78.5896C53.7375 78.5896 53.9731 78.6293 54.1878 78.7086C54.4071 78.7833 54.5891 78.893 54.7338 79.0376L54.5308 79.4296C54.3908 79.2943 54.2298 79.194 54.0478 79.1286C53.8705 79.0586 53.6861 79.0236 53.4948 79.0236C53.2195 79.0236 53.0118 79.0796 52.8718 79.1916C52.7365 79.299 52.6688 79.4413 52.6688 79.6186C52.6688 79.754 52.7108 79.866 52.7948 79.9546C52.8835 80.0386 53.0188 80.1016 53.2008 80.1436L53.8518 80.2766C54.1691 80.3466 54.4048 80.4563 54.5588 80.6056C54.7175 80.7503 54.7968 80.9463 54.7968 81.1936C54.7968 81.4036 54.7385 81.588 54.6218 81.7466C54.5051 81.9006 54.3418 82.0196 54.1318 82.1036C53.9265 82.1876 53.6838 82.2296 53.4038 82.2296ZM55.5955 79.3666V78.6526H56.3095V79.3666H55.5955ZM55.5955 82.1666V81.4526H56.3095V82.1666H55.5955ZM60.5324 82.1666L58.8104 77.2316H59.4194L60.9244 81.6766H60.6794L62.2614 77.2316H62.7234L64.2214 81.6766H63.9974L65.5444 77.2316H66.1184L64.3824 82.1666H63.8644L62.4084 77.8896H62.5554L61.0364 82.1666H60.5324ZM67.8521 82.2296C67.5394 82.2296 67.2664 82.1573 67.0331 82.0126C66.7997 81.8633 66.6177 81.6533 66.4871 81.3826C66.3611 81.112 66.2981 80.7876 66.2981 80.4096C66.2981 80.027 66.3611 79.7003 66.4871 79.4296C66.6177 79.159 66.7997 78.9513 67.0331 78.8066C67.2664 78.662 67.5394 78.5896 67.8521 78.5896C68.1694 78.5896 68.4424 78.6713 68.6711 78.8346C68.9044 78.9933 69.0584 79.2103 69.1331 79.4856H69.0491L69.1261 78.6526H69.6721C69.6581 78.788 69.6441 78.9256 69.6301 79.0656C69.6207 79.201 69.6161 79.334 69.6161 79.4646V82.1666H69.0491V81.3406H69.1261C69.0514 81.616 68.8974 81.833 68.6641 81.9916C68.4307 82.1503 68.1601 82.2296 67.8521 82.2296ZM67.9641 81.7676C68.3001 81.7676 68.5661 81.6533 68.7621 81.4246C68.9581 81.1913 69.0561 80.853 69.0561 80.4096C69.0561 79.9616 68.9581 79.6233 68.7621 79.3946C68.5661 79.1613 68.3001 79.0446 67.9641 79.0446C67.6327 79.0446 67.3667 79.1613 67.1661 79.3946C66.9701 79.6233 66.8721 79.9616 66.8721 80.4096C66.8721 80.853 66.9701 81.1913 67.1661 81.4246C67.3667 81.6533 67.6327 81.7676 67.9641 81.7676ZM70.7123 82.1666V77.0146H71.2793V82.1666H70.7123ZM72.3803 82.1666V77.0146H72.9473V82.1666H72.3803ZM75.7545 79.6956C75.7545 79.173 75.8431 78.725 76.0205 78.3516C76.2025 77.9736 76.4615 77.682 76.7975 77.4766C77.1381 77.2713 77.5465 77.1686 78.0225 77.1686C78.4845 77.1686 78.8858 77.2713 79.2265 77.4766C79.5671 77.682 79.8285 77.9736 80.0105 78.3516C80.1971 78.725 80.2905 79.1706 80.2905 79.6886C80.2905 80.2113 80.1971 80.6616 80.0105 81.0396C79.8238 81.4176 79.5601 81.7116 79.2195 81.9216C78.8835 82.127 78.4845 82.2296 78.0225 82.2296C77.5465 82.2296 77.1405 82.127 76.8045 81.9216C76.4685 81.7116 76.2095 81.4176 76.0275 81.0396C75.8455 80.6616 75.7545 80.2136 75.7545 79.6956ZM76.3635 79.6956C76.3635 80.3303 76.5035 80.8273 76.7835 81.1866C77.0635 81.5413 77.4765 81.7186 78.0225 81.7186C78.5451 81.7186 78.9511 81.5413 79.2405 81.1866C79.5345 80.8273 79.6815 80.3303 79.6815 79.6956C79.6815 79.0563 79.5368 78.5616 79.2475 78.2116C78.9581 77.857 78.5498 77.6796 78.0225 77.6796C77.4765 77.6796 77.0635 77.857 76.7835 78.2116C76.5035 78.5616 76.3635 79.0563 76.3635 79.6956ZM81.4627 82.1666V79.0936H80.7767V78.6526H81.6167L81.4627 78.7996V78.2116C81.4627 77.815 81.563 77.5116 81.7637 77.3016C81.9644 77.0916 82.2514 76.9866 82.6247 76.9866C82.718 76.9866 82.8137 76.996 82.9117 77.0146C83.0144 77.0286 83.0984 77.0496 83.1637 77.0776V77.5466C83.1077 77.5233 83.0377 77.5046 82.9537 77.4906C82.8744 77.472 82.7927 77.4626 82.7087 77.4626C82.564 77.4626 82.4404 77.493 82.3377 77.5536C82.235 77.6096 82.158 77.696 82.1067 77.8126C82.0554 77.9293 82.0297 78.0786 82.0297 78.2606V78.7716L81.9387 78.6526H83.0097V79.0936H82.0297V82.1666H81.4627ZM47.5605 91.1666V86.2316H50.6405V86.7076H48.1415V88.4366H50.4865V88.9126H48.1415V91.1666H47.5605ZM52.6284 91.2296C52.3158 91.2296 52.0428 91.1573 51.8094 91.0126C51.5761 90.8633 51.3941 90.6533 51.2634 90.3826C51.1374 90.112 51.0744 89.7876 51.0744 89.4096C51.0744 89.027 51.1374 88.7003 51.2634 88.4296C51.3941 88.159 51.5761 87.9513 51.8094 87.8066C52.0428 87.662 52.3158 87.5896 52.6284 87.5896C52.9458 87.5896 53.2188 87.6713 53.4474 87.8346C53.6808 87.9933 53.8348 88.2103 53.9094 88.4856H53.8254L53.9024 87.6526H54.4484C54.4344 87.788 54.4204 87.9256 54.4064 88.0656C54.3971 88.201 54.3924 88.334 54.3924 88.4646V91.1666H53.8254V90.3406H53.9024C53.8278 90.616 53.6738 90.833 53.4404 90.9916C53.2071 91.1503 52.9364 91.2296 52.6284 91.2296ZM52.7404 90.7676C53.0764 90.7676 53.3424 90.6533 53.5384 90.4246C53.7344 90.1913 53.8324 89.853 53.8324 89.4096C53.8324 88.9616 53.7344 88.6233 53.5384 88.3946C53.3424 88.1613 53.0764 88.0446 52.7404 88.0446C52.4091 88.0446 52.1431 88.1613 51.9424 88.3946C51.7464 88.6233 51.6484 88.9616 51.6484 89.4096C51.6484 89.853 51.7464 90.1913 51.9424 90.4246C52.1431 90.6533 52.4091 90.7676 52.7404 90.7676ZM55.4887 91.1666V88.4646C55.4887 88.334 55.4817 88.201 55.4677 88.0656C55.4584 87.9256 55.4467 87.788 55.4327 87.6526H55.9787L56.0487 88.4226H55.9647C56.058 88.1566 56.205 87.9513 56.4057 87.8066C56.611 87.662 56.8584 87.5896 57.1477 87.5896C57.4417 87.5896 57.6797 87.6596 57.8617 87.7996C58.0484 87.9396 58.1744 88.1566 58.2397 88.4506H58.1347C58.2234 88.1846 58.3797 87.9746 58.6037 87.8206C58.8277 87.6666 59.089 87.5896 59.3877 87.5896C59.775 87.5896 60.0667 87.7016 60.2627 87.9256C60.4587 88.145 60.5567 88.4926 60.5567 88.9686V91.1666H59.9897V89.0036C59.9897 88.6723 59.9314 88.432 59.8147 88.2826C59.698 88.1286 59.5114 88.0516 59.2547 88.0516C58.9607 88.0516 58.7274 88.1543 58.5547 88.3596C58.3867 88.5603 58.3027 88.831 58.3027 89.1716V91.1666H57.7357V89.0036C57.7357 88.6723 57.6774 88.432 57.5607 88.2826C57.444 88.1286 57.2574 88.0516 57.0007 88.0516C56.7067 88.0516 56.4757 88.1543 56.3077 88.3596C56.1397 88.5603 56.0557 88.831 56.0557 89.1716V91.1666H55.4887ZM63.1952 91.2296C62.6445 91.2296 62.2105 91.071 61.8932 90.7536C61.5759 90.4316 61.4172 89.986 61.4172 89.4166C61.4172 89.048 61.4872 88.7283 61.6272 88.4576C61.7672 88.1823 61.9632 87.97 62.2152 87.8206C62.4672 87.6666 62.7565 87.5896 63.0832 87.5896C63.4052 87.5896 63.6759 87.6573 63.8952 87.7926C64.1145 87.928 64.2825 88.1216 64.3992 88.3736C64.5159 88.621 64.5742 88.915 64.5742 89.2556V89.4656H61.8512V89.1086H64.2032L64.0842 89.1996C64.0842 88.8263 64.0002 88.5346 63.8322 88.3246C63.6642 88.1146 63.4145 88.0096 63.0832 88.0096C62.7332 88.0096 62.4602 88.1333 62.2642 88.3806C62.0682 88.6233 61.9702 88.9523 61.9702 89.3676V89.4306C61.9702 89.8693 62.0775 90.203 62.2922 90.4316C62.5115 90.6556 62.8172 90.7676 63.2092 90.7676C63.4192 90.7676 63.6152 90.7373 63.7972 90.6766C63.9839 90.6113 64.1612 90.5063 64.3292 90.3616L64.5252 90.7606C64.3712 90.91 64.1752 91.0266 63.9372 91.1106C63.7039 91.19 63.4565 91.2296 63.1952 91.2296Z" fill="black"/>
<path d="M28.7404 82.9156H58.5742V83.2236H28.7404V82.9156Z" fill="black"/>
<defs>
<filter id="filter0_bi_452_92" x="-61.0772" y="-61.0772" width="232.154" height="232.154" filterUnits="userSpaceOnUse" color-interpolation-filters="sRGB">
<feFlood flood-opacity="0" result="BackgroundImageFix"/>
<feGaussianBlur in="BackgroundImageFix" stdDeviation="30.5386"/>
<feComposite in2="SourceAlpha" operator="in" result="effect1_backgroundBlur_452_92"/>
<feBlend mode="normal" in="SourceGraphic" in2="effect1_backgroundBlur_452_92" result="shape"/>
<feColorMatrix in="SourceAlpha" type="matrix" values="0 0 0 0 0 0 0 0 0 0 0 0 0 0 0 0 0 0 127 0" result="hardAlpha"/>
<feOffset dx="39.0894" dy="10.9939"/>
<feGaussianBlur stdDeviation="23.2094"/>
<feComposite in2="hardAlpha" operator="arithmetic" k2="-1" k3="1"/>
<feColorMatrix type="matrix" values="0 0 0 0 1 0 0 0 0 1 0 0 0 0 1 0 0 0 0.25 0"/>
<feBlend mode="normal" in2="shape" result="effect2_innerShadow_452_92"/>
</filter>
<radialGradient id="paint0_radial_452_92" cx="0" cy="0" r="1" gradientUnits="userSpaceOnUse" gradientTransform="translate(55 55) rotate(90) scale(52.4419)">
<stop stop-color="#CEFFBD"/>
<stop offset="0.983367" stop-color="#79FF4A"/>
</radialGradient>
<radialGradient id="paint1_radial_452_92" cx="0" cy="0" r="1" gradientUnits="userSpaceOnUse" gradientTransform="translate(55.3018 54.7937) rotate(90) scale(48.4111)">
<stop stop-color="#F7FBFD"/>
<stop offset="0.983367" stop-color="#71A7CD"/>
</radialGradient>
<linearGradient id="paint2_linear_452_92" x1="10.2657" y1="39.0429" x2="77.2625" y2="69.7644" gradientUnits="userSpaceOnUse">
<stop stop-color="#F7FBFD"/>
<stop offset="1" stop-color="#F7FBFD" stop-opacity="0"/>
</linearGradient>
<linearGradient id="paint3_linear_452_92" x1="54.1893" y1="4.85483" x2="62.2787" y2="85.0274" gradientUnits="userSpaceOnUse">
<stop stop-color="#F7FBFD"/>
<stop offset="1" stop-color="#F7FBFD" stop-opacity="0"/>
</linearGradient>
</defs>
</svg>
