<svg width="129" height="129" viewBox="0 0 129 129" fill="none" xmlns="http://www.w3.org/2000/svg">
<g filter="url(#filter0_bi_452_59)">
<circle cx="64.5" cy="64.5" r="64.5" fill="url(#paint0_radial_452_59)" fill-opacity="0.98"/>
</g>
<mask id="mask0_452_59" style="mask-type:alpha" maskUnits="userSpaceOnUse" x="5" y="4" width="120" height="120">
<circle cx="64.8539" cy="64.2581" r="59.5424" fill="url(#paint1_radial_452_59)"/>
</mask>
<g mask="url(#mask0_452_59)">
<path fill-rule="evenodd" clip-rule="evenodd" d="M124.927 81.0046C107.452 112.046 66.0818 129.217 35.0406 111.742C3.99937 94.2663 -4.95825 48.7611 12.5173 17.7199C13.2595 16.4016 14.0411 15.1194 14.8598 13.874C0.426978 44.2192 11.7721 80.9913 41.4953 97.7249C71.2182 114.458 108.541 105.086 127 77.008C126.36 78.3536 125.669 79.6866 124.927 81.0046Z" fill="url(#paint2_linear_452_59)" fill-opacity="0.2"/>
<path fill-rule="evenodd" clip-rule="evenodd" d="M58.7175 128.546C92.2404 126.235 118.717 98.3097 118.717 64.2001C118.717 30.0904 92.2404 2.16486 58.7175 -0.145393C60.2042 -0.247851 61.7047 -0.299927 63.2175 -0.299927C98.8398 -0.299927 127.717 28.5777 127.717 64.2001C127.717 99.8224 98.8398 128.7 63.2175 128.7C61.7047 128.7 60.2042 128.648 58.7175 128.546Z" fill="#F7FBFD" fill-opacity="0.52"/>
</g>
<path fill-rule="evenodd" clip-rule="evenodd" d="M52.8012 128.571C84.7262 124.874 109.51 97.7461 109.51 64.8298C109.51 31.9134 84.7262 4.78563 52.8012 1.08872C55.2491 0.805255 57.739 0.659546 60.2629 0.659546C95.7031 0.659546 124.433 29.3895 124.433 64.8298C124.433 100.27 95.7031 129 60.2629 129C57.739 129 55.2491 128.854 52.8012 128.571Z" fill="url(#paint3_linear_452_59)" fill-opacity="0.2"/>
<path d="M46.6712 34.12C45.9912 34.12 45.3632 34.036 44.7872 33.868C44.2192 33.692 43.7312 33.452 43.3232 33.148L43.8032 31.936C44.0752 32.128 44.3592 32.292 44.6552 32.428C44.9512 32.556 45.2672 32.656 45.6032 32.728C45.9392 32.792 46.2952 32.824 46.6712 32.824C47.3032 32.824 47.7592 32.72 48.0392 32.512C48.3192 32.304 48.4592 32.032 48.4592 31.696C48.4592 31.4 48.3632 31.176 48.1712 31.024C47.9792 30.864 47.6352 30.732 47.1392 30.628L45.7832 30.352C45.0072 30.192 44.4272 29.924 44.0432 29.548C43.6592 29.172 43.4672 28.668 43.4672 28.036C43.4672 27.508 43.6072 27.048 43.8872 26.656C44.1672 26.264 44.5592 25.96 45.0632 25.744C45.5672 25.528 46.1552 25.42 46.8272 25.42C47.4272 25.42 47.9832 25.508 48.4952 25.684C49.0072 25.852 49.4352 26.096 49.7792 26.416L49.2992 27.568C48.9552 27.28 48.5792 27.068 48.1712 26.932C47.7632 26.788 47.3072 26.716 46.8032 26.716C46.2352 26.716 45.7912 26.828 45.4712 27.052C45.1592 27.268 45.0032 27.568 45.0032 27.952C45.0032 28.248 45.0992 28.484 45.2912 28.66C45.4912 28.836 45.8272 28.972 46.2992 29.068L47.6432 29.332C48.4432 29.492 49.0352 29.756 49.4192 30.124C49.8032 30.484 49.9952 30.972 49.9952 31.588C49.9952 32.092 49.8592 32.536 49.5872 32.92C49.3152 33.296 48.9312 33.592 48.4352 33.808C47.9392 34.016 47.3512 34.12 46.6712 34.12ZM51.4536 34V25.54H55.1496C56.0776 25.54 56.7936 25.76 57.2976 26.2C57.8096 26.64 58.0656 27.252 58.0656 28.036C58.0656 28.556 57.9496 29 57.7176 29.368C57.4936 29.736 57.1696 30.02 56.7456 30.22C56.3216 30.412 55.8216 30.508 55.2456 30.508L55.4136 30.28H55.8216C56.1576 30.28 56.4576 30.368 56.7216 30.544C56.9856 30.72 57.2016 30.988 57.3696 31.348L58.6056 34H56.9016L55.6536 31.252C55.5416 30.972 55.3696 30.788 55.1376 30.7C54.9136 30.612 54.6416 30.568 54.3216 30.568H53.0016V34H51.4536ZM53.0016 29.428H54.8976C55.4416 29.428 55.8536 29.316 56.1336 29.092C56.4216 28.86 56.5656 28.524 56.5656 28.084C56.5656 27.644 56.4216 27.312 56.1336 27.088C55.8536 26.864 55.4416 26.752 54.8976 26.752H53.0016V29.428ZM59.8794 34V25.54H61.4274V34H59.8794ZM69.5345 34.12C68.8545 34.12 68.2265 34.036 67.6505 33.868C67.0825 33.692 66.5945 33.452 66.1865 33.148L66.6665 31.936C66.9385 32.128 67.2225 32.292 67.5185 32.428C67.8145 32.556 68.1305 32.656 68.4665 32.728C68.8025 32.792 69.1585 32.824 69.5345 32.824C70.1665 32.824 70.6225 32.72 70.9025 32.512C71.1825 32.304 71.3225 32.032 71.3225 31.696C71.3225 31.4 71.2265 31.176 71.0345 31.024C70.8425 30.864 70.4985 30.732 70.0025 30.628L68.6465 30.352C67.8705 30.192 67.2905 29.924 66.9065 29.548C66.5225 29.172 66.3305 28.668 66.3305 28.036C66.3305 27.508 66.4705 27.048 66.7505 26.656C67.0305 26.264 67.4225 25.96 67.9265 25.744C68.4305 25.528 69.0185 25.42 69.6905 25.42C70.2905 25.42 70.8465 25.508 71.3585 25.684C71.8705 25.852 72.2985 26.096 72.6425 26.416L72.1625 27.568C71.8185 27.28 71.4425 27.068 71.0345 26.932C70.6265 26.788 70.1705 26.716 69.6665 26.716C69.0985 26.716 68.6545 26.828 68.3345 27.052C68.0225 27.268 67.8665 27.568 67.8665 27.952C67.8665 28.248 67.9625 28.484 68.1545 28.66C68.3545 28.836 68.6905 28.972 69.1625 29.068L70.5065 29.332C71.3065 29.492 71.8985 29.756 72.2825 30.124C72.6665 30.484 72.8585 30.972 72.8585 31.588C72.8585 32.092 72.7225 32.536 72.4505 32.92C72.1785 33.296 71.7945 33.592 71.2985 33.808C70.8025 34.016 70.2145 34.12 69.5345 34.12ZM74.3169 34V25.54H78.0129C78.9409 25.54 79.6569 25.76 80.1609 26.2C80.6729 26.64 80.9289 27.252 80.9289 28.036C80.9289 28.556 80.8129 29 80.5809 29.368C80.3569 29.736 80.0329 30.02 79.6089 30.22C79.1849 30.412 78.6849 30.508 78.1089 30.508L78.2769 30.28H78.6849C79.0209 30.28 79.3209 30.368 79.5849 30.544C79.8489 30.72 80.0649 30.988 80.2329 31.348L81.4689 34H79.7649L78.5169 31.252C78.4049 30.972 78.2329 30.788 78.0009 30.7C77.7769 30.612 77.5049 30.568 77.1849 30.568H75.8649V34H74.3169ZM75.8649 29.428H77.7609C78.3049 29.428 78.7169 29.316 78.9969 29.092C79.2849 28.86 79.4289 28.524 79.4289 28.084C79.4289 27.644 79.2849 27.312 78.9969 27.088C78.7169 26.864 78.3049 26.752 77.7609 26.752H75.8649V29.428ZM82.7426 34V25.54H84.2906V34H82.7426ZM20.3579 49V40.54H24.0539C24.9819 40.54 25.6979 40.76 26.2019 41.2C26.7139 41.64 26.9699 42.252 26.9699 43.036C26.9699 43.556 26.8539 44 26.6219 44.368C26.3979 44.736 26.0739 45.02 25.6499 45.22C25.2259 45.412 24.7259 45.508 24.1499 45.508L24.3179 45.28H24.7259C25.0619 45.28 25.3619 45.368 25.6259 45.544C25.8899 45.72 26.1059 45.988 26.2739 46.348L27.5099 49H25.8059L24.5579 46.252C24.4459 45.972 24.2739 45.788 24.0419 45.7C23.8179 45.612 23.5459 45.568 23.2259 45.568H21.9059V49H20.3579ZM21.9059 44.428H23.8019C24.3459 44.428 24.7579 44.316 25.0379 44.092C25.3259 43.86 25.4699 43.524 25.4699 43.084C25.4699 42.644 25.3259 42.312 25.0379 42.088C24.7579 41.864 24.3459 41.752 23.8019 41.752H21.9059V44.428ZM27.6953 49L31.5233 40.54H32.8193L36.6953 49H35.1233L34.0913 46.624L34.7153 47.044H29.6393L30.2873 46.624L29.2553 49H27.6953ZM32.1593 42.196L30.4673 46.204L30.1553 45.832H34.1873L33.9353 46.204L32.2073 42.196H32.1593ZM37.6313 49V40.54H40.7033C41.6713 40.54 42.4873 40.708 43.1513 41.044C43.8233 41.372 44.3313 41.852 44.6753 42.484C45.0193 43.108 45.1913 43.868 45.1913 44.764C45.1913 45.652 45.0193 46.412 44.6753 47.044C44.3313 47.676 43.8233 48.16 43.1513 48.496C42.4873 48.832 41.6713 49 40.7033 49H37.6313ZM39.1793 47.716H40.6073C41.6313 47.716 42.3913 47.472 42.8873 46.984C43.3833 46.496 43.6313 45.756 43.6313 44.764C43.6313 43.764 43.3833 43.024 42.8873 42.544C42.3913 42.056 41.6313 41.812 40.6073 41.812H39.1793V47.716ZM46.7719 49V40.54H48.3199V44.068H52.6519V40.54H54.1999V49H52.6519V45.352H48.3199V49H46.7719ZM55.1289 49L58.9569 40.54H60.2529L64.1289 49H62.5569L61.5249 46.624L62.1489 47.044H57.0729L57.7209 46.624L56.6889 49H55.1289ZM59.5929 42.196L57.9009 46.204L57.5889 45.832H61.6209L61.3689 46.204L59.6409 42.196H59.5929ZM72.4379 49.12C71.4859 49.12 70.6859 48.944 70.0379 48.592C69.3899 48.24 68.9019 47.74 68.5739 47.092C68.2459 46.444 68.0819 45.676 68.0819 44.788C68.0819 43.892 68.2579 43.12 68.6099 42.472C68.9619 41.816 69.4659 41.312 70.1219 40.96C70.7859 40.6 71.5819 40.42 72.5099 40.42C73.1259 40.42 73.6659 40.504 74.1299 40.672C74.5939 40.832 75.0019 41.068 75.3539 41.38L74.8379 42.58C74.5819 42.38 74.3379 42.22 74.1059 42.1C73.8739 41.98 73.6339 41.896 73.3859 41.848C73.1379 41.792 72.8499 41.764 72.5219 41.764C71.5939 41.764 70.8899 42.028 70.4099 42.556C69.9379 43.076 69.7019 43.824 69.7019 44.8C69.7019 45.776 69.9259 46.52 70.3739 47.032C70.8299 47.544 71.5419 47.8 72.5099 47.8C72.8379 47.8 73.1659 47.768 73.4939 47.704C73.8299 47.64 74.1579 47.548 74.4779 47.428L74.1899 48.076V45.544H72.2099V44.416H75.4739V48.484C75.0819 48.684 74.6139 48.84 74.0699 48.952C73.5259 49.064 72.9819 49.12 72.4379 49.12ZM76.9647 44.764C76.9647 43.876 77.1247 43.108 77.4447 42.46C77.7727 41.812 78.2407 41.312 78.8487 40.96C79.4567 40.6 80.1807 40.42 81.0207 40.42C81.8527 40.42 82.5727 40.6 83.1807 40.96C83.7887 41.312 84.2567 41.812 84.5847 42.46C84.9207 43.108 85.0887 43.872 85.0887 44.752C85.0887 45.64 84.9207 46.412 84.5847 47.068C84.2567 47.716 83.7887 48.22 83.1807 48.58C82.5727 48.94 81.8527 49.12 81.0207 49.12C80.1807 49.12 79.4567 48.94 78.8487 48.58C78.2487 48.22 77.7847 47.716 77.4567 47.068C77.1287 46.412 76.9647 45.644 76.9647 44.764ZM78.5847 44.764C78.5847 45.716 78.7887 46.46 79.1967 46.996C79.6047 47.532 80.2127 47.8 81.0207 47.8C81.8047 47.8 82.4087 47.532 82.8327 46.996C83.2567 46.46 83.4687 45.716 83.4687 44.764C83.4687 43.804 83.2567 43.06 82.8327 42.532C82.4167 42.004 81.8127 41.74 81.0207 41.74C80.2127 41.74 79.6047 42.004 79.1967 42.532C78.7887 43.06 78.5847 43.804 78.5847 44.764ZM86.686 49V40.54H90.442C91.37 40.54 92.078 40.764 92.566 41.212C93.054 41.66 93.298 42.276 93.298 43.06C93.298 43.836 93.054 44.452 92.566 44.908C92.078 45.364 91.37 45.592 90.442 45.592H88.234V49H86.686ZM88.234 44.368H90.262C90.774 44.368 91.158 44.256 91.414 44.032C91.67 43.8 91.798 43.476 91.798 43.06C91.798 42.644 91.67 42.324 91.414 42.1C91.158 41.868 90.774 41.752 90.262 41.752H88.234V44.368ZM92.8633 49L96.6913 40.54H97.9873L101.863 49H100.291L99.2593 46.624L99.8833 47.044H94.8073L95.4553 46.624L94.4233 49H92.8633ZM97.3273 42.196L95.6353 46.204L95.3233 45.832H99.3553L99.1033 46.204L97.3753 42.196H97.3273ZM102.799 49V40.54H104.347V47.692H108.331V49H102.799ZM48.0071 64.12C47.3271 64.12 46.6991 64.036 46.1231 63.868C45.5551 63.692 45.0671 63.452 44.6591 63.148L45.1391 61.936C45.4111 62.128 45.6951 62.292 45.9911 62.428C46.2871 62.556 46.6031 62.656 46.9391 62.728C47.2751 62.792 47.6311 62.824 48.0071 62.824C48.6391 62.824 49.0951 62.72 49.3751 62.512C49.6551 62.304 49.7951 62.032 49.7951 61.696C49.7951 61.4 49.6991 61.176 49.5071 61.024C49.3151 60.864 48.9711 60.732 48.4751 60.628L47.1191 60.352C46.3431 60.192 45.7631 59.924 45.3791 59.548C44.9951 59.172 44.8031 58.668 44.8031 58.036C44.8031 57.508 44.9431 57.048 45.2231 56.656C45.5031 56.264 45.8951 55.96 46.3991 55.744C46.9031 55.528 47.4911 55.42 48.1631 55.42C48.7631 55.42 49.3191 55.508 49.8311 55.684C50.3431 55.852 50.7711 56.096 51.1151 56.416L50.6351 57.568C50.2911 57.28 49.9151 57.068 49.5071 56.932C49.0991 56.788 48.6431 56.716 48.1391 56.716C47.5711 56.716 47.1271 56.828 46.8071 57.052C46.4951 57.268 46.3391 57.568 46.3391 57.952C46.3391 58.248 46.4351 58.484 46.6271 58.66C46.8271 58.836 47.1631 58.972 47.6351 59.068L48.9791 59.332C49.7791 59.492 50.3711 59.756 50.7551 60.124C51.1391 60.484 51.3311 60.972 51.3311 61.588C51.3311 62.092 51.1951 62.536 50.9231 62.92C50.6511 63.296 50.2671 63.592 49.7711 63.808C49.2751 64.016 48.6871 64.12 48.0071 64.12ZM52.7895 64V55.54H58.4895V56.752H54.2775V59.092H58.2135V60.316H54.2775V62.776H58.4895V64H52.7895ZM62.6271 64L58.8591 55.54H60.5271L63.5631 62.644H63.0591L66.0951 55.54H67.7031L63.9351 64H62.6271ZM66.8887 64L70.7167 55.54H72.0127L75.8887 64H74.3167L73.2847 61.624L73.9087 62.044H68.8327L69.4807 61.624L68.4487 64H66.8887ZM71.3527 57.196L69.6607 61.204L69.3487 60.832H73.3807L73.1287 61.204L71.4007 57.196H71.3527ZM76.8247 64V55.54H78.3727V59.284H78.3967L82.0807 55.54H83.9527L79.5367 59.944L79.5487 59.272L84.2407 64H82.3087L78.3967 60.088H78.3727V64H76.8247ZM32.9376 78.652V77.08L38.2776 75.04V76.084L32.9376 74.032V72.46L38.8056 74.752V76.348L32.9376 78.652ZM44.0217 79V77.2H45.9177V72.376H46.9257L44.2257 73.912V71.872L46.5537 70.54H48.1257V77.2H49.8897V79H44.0217ZM58.6218 79.132C57.7018 79.132 56.9058 78.952 56.2338 78.592C55.5698 78.232 55.0538 77.724 54.6858 77.068C54.3258 76.412 54.1458 75.644 54.1458 74.764C54.1458 73.884 54.3258 73.12 54.6858 72.472C55.0538 71.816 55.5698 71.308 56.2338 70.948C56.9058 70.588 57.7018 70.408 58.6218 70.408C59.2058 70.408 59.7378 70.488 60.2178 70.648C60.6978 70.8 61.1018 71.02 61.4298 71.308L60.7698 73.048C60.4018 72.784 60.0618 72.6 59.7498 72.496C59.4458 72.384 59.0978 72.328 58.7058 72.328C57.9858 72.328 57.4298 72.54 57.0378 72.964C56.6538 73.38 56.4618 73.98 56.4618 74.764C56.4618 75.556 56.6538 76.164 57.0378 76.588C57.4298 77.004 57.9858 77.212 58.7058 77.212C59.0978 77.212 59.4458 77.16 59.7498 77.056C60.0618 76.944 60.4018 76.756 60.7698 76.492L61.4298 78.232C61.1018 78.52 60.6978 78.744 60.2178 78.904C59.7378 79.056 59.2058 79.132 58.6218 79.132ZM62.5886 79V70.54H66.5846C67.5606 70.54 68.3126 70.772 68.8406 71.236C69.3766 71.7 69.6446 72.344 69.6446 73.168C69.6446 73.72 69.5246 74.192 69.2846 74.584C69.0446 74.968 68.6966 75.268 68.2406 75.484C67.7846 75.692 67.2406 75.796 66.6086 75.796L66.7166 75.496H67.3166C67.6686 75.496 67.9806 75.592 68.2526 75.784C68.5246 75.976 68.7486 76.244 68.9246 76.588L70.2086 79H67.7846L66.4046 76.3C66.3166 76.124 66.1846 76.004 66.0086 75.94C65.8406 75.876 65.6486 75.844 65.4326 75.844H64.8086V79H62.5886ZM64.8086 74.272H66.2006C66.6326 74.272 66.9606 74.188 67.1846 74.02C67.4086 73.844 67.5206 73.584 67.5206 73.24C67.5206 72.904 67.4086 72.652 67.1846 72.484C66.9606 72.316 66.6326 72.232 66.2006 72.232H64.8086V74.272ZM70.8567 74.764C70.8567 73.884 71.0287 73.12 71.3727 72.472C71.7167 71.816 72.2087 71.308 72.8487 70.948C73.4887 70.588 74.2447 70.408 75.1167 70.408C75.9967 70.408 76.7567 70.588 77.3967 70.948C78.0367 71.308 78.5287 71.816 78.8727 72.472C79.2247 73.12 79.4007 73.884 79.4007 74.764C79.4007 75.636 79.2247 76.4 78.8727 77.056C78.5287 77.712 78.0367 78.224 77.3967 78.592C76.7567 78.952 75.9967 79.132 75.1167 79.132C74.2447 79.132 73.4887 78.952 72.8487 78.592C72.2167 78.224 71.7247 77.712 71.3727 77.056C71.0287 76.4 70.8567 75.636 70.8567 74.764ZM73.1727 74.764C73.1727 75.556 73.3327 76.176 73.6527 76.624C73.9727 77.064 74.4607 77.284 75.1167 77.284C75.7727 77.284 76.2647 77.064 76.5927 76.624C76.9207 76.176 77.0847 75.556 77.0847 74.764C77.0847 73.972 76.9207 73.356 76.5927 72.916C76.2647 72.476 75.7727 72.256 75.1167 72.256C74.4607 72.256 73.9727 72.476 73.6527 72.916C73.3327 73.348 73.1727 73.964 73.1727 74.764ZM80.7292 79V70.54H84.7252C85.7012 70.54 86.4532 70.772 86.9812 71.236C87.5172 71.7 87.7852 72.344 87.7852 73.168C87.7852 73.72 87.6652 74.192 87.4252 74.584C87.1852 74.968 86.8372 75.268 86.3812 75.484C85.9252 75.692 85.3812 75.796 84.7492 75.796L84.8572 75.496H85.4572C85.8092 75.496 86.1212 75.592 86.3932 75.784C86.6652 75.976 86.8892 76.244 87.0652 76.588L88.3492 79H85.9252L84.5452 76.3C84.4572 76.124 84.3252 76.004 84.1492 75.94C83.9812 75.876 83.7892 75.844 83.5732 75.844H82.9492V79H80.7292ZM82.9492 74.272H84.3412C84.7732 74.272 85.1012 74.188 85.3252 74.02C85.5492 73.844 85.6612 73.584 85.6612 73.24C85.6612 72.904 85.5492 72.652 85.3252 72.484C85.1012 72.316 84.7732 72.232 84.3412 72.232H82.9492V74.272ZM89.2839 79V70.54H95.3559V72.232H91.4079V73.852H95.0679V75.556H91.4079V77.296H95.3559V79H89.2839Z" fill="black"/>
<path d="M30.0631 97.3V92.365H32.0371C32.5597 92.365 32.9634 92.477 33.2481 92.701C33.5327 92.925 33.6751 93.2424 33.6751 93.653C33.6751 93.961 33.5817 94.2177 33.3951 94.423C33.2131 94.6284 32.9587 94.7637 32.6321 94.829V94.731C32.9961 94.773 33.2807 94.899 33.4861 95.109C33.6961 95.3144 33.8011 95.592 33.8011 95.942C33.8011 96.3807 33.6541 96.7167 33.3601 96.95C33.0707 97.1834 32.6601 97.3 32.1281 97.3H30.0631ZM30.6301 96.831H32.0721C32.4267 96.831 32.7067 96.7634 32.9121 96.628C33.1221 96.488 33.2271 96.257 33.2271 95.935C33.2271 95.6084 33.1221 95.3774 32.9121 95.242C32.7067 95.102 32.4267 95.032 32.0721 95.032H30.6301V96.831ZM30.6301 94.57H31.9531C32.3357 94.57 32.6227 94.4954 32.8141 94.346C33.0054 94.1967 33.1011 93.982 33.1011 93.702C33.1011 93.4127 33.0054 93.1957 32.8141 93.051C32.6227 92.9017 32.3357 92.827 31.9531 92.827H30.6301V94.57ZM36.3189 97.363C35.7682 97.363 35.3342 97.2044 35.0169 96.887C34.6996 96.565 34.5409 96.1194 34.5409 95.55C34.5409 95.1814 34.6109 94.8617 34.7509 94.591C34.8909 94.3157 35.0869 94.1034 35.3389 93.954C35.5909 93.8 35.8802 93.723 36.2069 93.723C36.5289 93.723 36.7996 93.7907 37.0189 93.926C37.2382 94.0614 37.4062 94.255 37.5229 94.507C37.6396 94.7544 37.6979 95.0484 37.6979 95.389V95.599H34.9749V95.242H37.3269L37.2079 95.333C37.2079 94.9597 37.1239 94.668 36.9559 94.458C36.7879 94.248 36.5382 94.143 36.2069 94.143C35.8569 94.143 35.5839 94.2667 35.3879 94.514C35.1919 94.7567 35.0939 95.0857 35.0939 95.501V95.564C35.0939 96.0027 35.2012 96.3364 35.4159 96.565C35.6352 96.789 35.9409 96.901 36.3329 96.901C36.5429 96.901 36.7389 96.8707 36.9209 96.81C37.1076 96.7447 37.2849 96.6397 37.4529 96.495L37.6489 96.894C37.4949 97.0434 37.2989 97.16 37.0609 97.244C36.8276 97.3234 36.5802 97.363 36.3189 97.363ZM38.5655 97.3V94.598C38.5655 94.4674 38.5585 94.3344 38.5445 94.199C38.5352 94.059 38.5235 93.9214 38.5095 93.786H39.0555L39.1255 94.556H39.0415C39.1442 94.2854 39.3075 94.08 39.5315 93.94C39.7602 93.7954 40.0238 93.723 40.3225 93.723C40.7378 93.723 41.0505 93.835 41.2605 94.059C41.4752 94.2784 41.5825 94.626 41.5825 95.102V97.3H41.0155V95.137C41.0155 94.8057 40.9478 94.5654 40.8125 94.416C40.6818 94.262 40.4765 94.185 40.1965 94.185C39.8698 94.185 39.6108 94.2854 39.4195 94.486C39.2282 94.6867 39.1325 94.955 39.1325 95.291V97.3H38.5655ZM44.2281 97.363C43.6774 97.363 43.2434 97.2044 42.9261 96.887C42.6087 96.565 42.4501 96.1194 42.4501 95.55C42.4501 95.1814 42.5201 94.8617 42.6601 94.591C42.8001 94.3157 42.9961 94.1034 43.2481 93.954C43.5001 93.8 43.7894 93.723 44.1161 93.723C44.4381 93.723 44.7087 93.7907 44.9281 93.926C45.1474 94.0614 45.3154 94.255 45.4321 94.507C45.5487 94.7544 45.6071 95.0484 45.6071 95.389V95.599H42.8841V95.242H45.2361L45.1171 95.333C45.1171 94.9597 45.0331 94.668 44.8651 94.458C44.6971 94.248 44.4474 94.143 44.1161 94.143C43.7661 94.143 43.4931 94.2667 43.2971 94.514C43.1011 94.7567 43.0031 95.0857 43.0031 95.501V95.564C43.0031 96.0027 43.1104 96.3364 43.3251 96.565C43.5444 96.789 43.8501 96.901 44.2421 96.901C44.4521 96.901 44.6481 96.8707 44.8301 96.81C45.0167 96.7447 45.1941 96.6397 45.3621 96.495L45.5581 96.894C45.4041 97.0434 45.2081 97.16 44.9701 97.244C44.7367 97.3234 44.4894 97.363 44.2281 97.363ZM46.6567 97.3V94.227H45.9707V93.786H46.8107L46.6567 93.933V93.345C46.6567 92.9484 46.7547 92.645 46.9507 92.435C47.1513 92.225 47.436 92.12 47.8047 92.12C47.8933 92.12 47.9867 92.1294 48.0847 92.148C48.1873 92.162 48.2737 92.183 48.3437 92.211V92.68C48.2877 92.6567 48.2177 92.638 48.1337 92.624C48.0543 92.6054 47.9727 92.596 47.8887 92.596C47.6693 92.596 47.5037 92.6614 47.3917 92.792C47.2797 92.9227 47.2237 93.1234 47.2237 93.394V93.905L47.1327 93.786H49.3867V97.3H48.8197V94.227H47.2237V97.3H46.6567ZM48.7567 92.988V92.351H49.4567V92.988H48.7567ZM51.7402 97.363C51.3949 97.363 51.1312 97.265 50.9492 97.069C50.7672 96.8684 50.6762 96.5674 50.6762 96.166V94.227H49.9902V93.786H50.6762V92.827L51.2432 92.666V93.786H52.2512V94.227H51.2432V96.103C51.2432 96.383 51.2899 96.5837 51.3832 96.705C51.4812 96.8217 51.6259 96.88 51.8172 96.88C51.9059 96.88 51.9852 96.873 52.0552 96.859C52.1252 96.8404 52.1882 96.8194 52.2442 96.796V97.272C52.1789 97.3 52.0995 97.321 52.0062 97.335C51.9175 97.3537 51.8289 97.363 51.7402 97.363ZM54.1105 97.363C53.8305 97.363 53.5691 97.3257 53.3265 97.251C53.0838 97.1717 52.8831 97.062 52.7245 96.922L52.9205 96.523C53.0931 96.6584 53.2798 96.7587 53.4805 96.824C53.6858 96.8894 53.8981 96.922 54.1175 96.922C54.3975 96.922 54.6075 96.873 54.7475 96.775C54.8921 96.6724 54.9645 96.5324 54.9645 96.355C54.9645 96.2197 54.9178 96.1124 54.8245 96.033C54.7358 95.949 54.5888 95.8837 54.3835 95.837L53.7325 95.704C53.4338 95.6387 53.2098 95.529 53.0605 95.375C52.9111 95.2164 52.8365 95.0157 52.8365 94.773C52.8365 94.5677 52.8901 94.388 52.9975 94.234C53.1048 94.0754 53.2611 93.9517 53.4665 93.863C53.6718 93.7697 53.9121 93.723 54.1875 93.723C54.4441 93.723 54.6798 93.7627 54.8945 93.842C55.1138 93.9167 55.2958 94.0264 55.4405 94.171L55.2375 94.563C55.0975 94.4277 54.9365 94.3274 54.7545 94.262C54.5771 94.192 54.3928 94.157 54.2015 94.157C53.9261 94.157 53.7185 94.213 53.5785 94.325C53.4431 94.4324 53.3755 94.5747 53.3755 94.752C53.3755 94.8874 53.4175 94.9994 53.5015 95.088C53.5901 95.172 53.7255 95.235 53.9075 95.277L54.5585 95.41C54.8758 95.48 55.1115 95.5897 55.2655 95.739C55.4241 95.8837 55.5035 96.0797 55.5035 96.327C55.5035 96.537 55.4451 96.7214 55.3285 96.88C55.2118 97.034 55.0485 97.153 54.8385 97.237C54.6331 97.321 54.3905 97.363 54.1105 97.363ZM56.3021 94.5V93.786H57.0161V94.5H56.3021ZM56.3021 97.3V96.586H57.0161V97.3H56.3021ZM62.1631 97.363C61.6218 97.363 61.1691 97.2627 60.8051 97.062C60.4411 96.8614 60.1681 96.572 59.9861 96.194C59.8041 95.816 59.7131 95.3634 59.7131 94.836C59.7131 94.3134 59.8088 93.863 60.0001 93.485C60.1914 93.107 60.4668 92.8154 60.8261 92.61C61.1854 92.4047 61.6194 92.302 62.1281 92.302C62.4874 92.302 62.7978 92.3557 63.0591 92.463C63.3251 92.5657 63.5631 92.7197 63.7731 92.925L63.5561 93.38C63.4021 93.2447 63.2528 93.1374 63.1081 93.058C62.9681 92.9787 62.8211 92.9204 62.6671 92.883C62.5131 92.841 62.3334 92.82 62.1281 92.82C61.5448 92.82 61.0968 92.9974 60.7841 93.352C60.4761 93.702 60.3221 94.199 60.3221 94.843C60.3221 95.4917 60.4714 95.9887 60.7701 96.334C61.0734 96.6794 61.5424 96.852 62.1771 96.852C62.4104 96.852 62.6321 96.831 62.8421 96.789C63.0568 96.7424 63.2644 96.677 63.4651 96.593L63.3391 96.908V95.172H62.0791V94.717H63.8361V97.006C63.6354 97.1134 63.3811 97.1997 63.0731 97.265C62.7698 97.3304 62.4664 97.363 62.1631 97.363ZM66.3942 97.363C66.0582 97.363 65.7642 97.2907 65.5122 97.146C65.2649 96.9967 65.0736 96.7867 64.9382 96.516C64.8029 96.2407 64.7352 95.9164 64.7352 95.543C64.7352 95.165 64.8029 94.8407 64.9382 94.57C65.0736 94.2994 65.2649 94.0917 65.5122 93.947C65.7642 93.7977 66.0582 93.723 66.3942 93.723C66.7349 93.723 67.0289 93.7977 67.2762 93.947C67.5282 94.0917 67.7219 94.2994 67.8572 94.57C67.9972 94.8407 68.0672 95.165 68.0672 95.543C68.0672 95.9164 67.9972 96.2407 67.8572 96.516C67.7219 96.7867 67.5282 96.9967 67.2762 97.146C67.0289 97.2907 66.7349 97.363 66.3942 97.363ZM66.3942 96.901C66.7302 96.901 66.9962 96.7867 67.1922 96.558C67.3882 96.3247 67.4862 95.9864 67.4862 95.543C67.4862 95.095 67.3859 94.7567 67.1852 94.528C66.9892 94.2947 66.7256 94.178 66.3942 94.178C66.0629 94.178 65.7992 94.2947 65.6032 94.528C65.4072 94.7567 65.3092 95.095 65.3092 95.543C65.3092 95.9864 65.4072 96.3247 65.6032 96.558C65.7992 96.7867 66.0629 96.901 66.3942 96.901ZM68.9512 97.3V92.148H69.5182V97.3H68.9512ZM71.9492 97.363C71.6412 97.363 71.3705 97.2907 71.1372 97.146C70.9039 96.9967 70.7219 96.7867 70.5912 96.516C70.4652 96.2454 70.4022 95.921 70.4022 95.543C70.4022 95.1604 70.4652 94.8337 70.5912 94.563C70.7219 94.2924 70.9039 94.0847 71.1372 93.94C71.3705 93.7954 71.6412 93.723 71.9492 93.723C72.2665 93.723 72.5395 93.8024 72.7682 93.961C73.0015 94.1197 73.1579 94.3344 73.2372 94.605H73.1532V92.148H73.7202V97.3H73.1602V96.46H73.2372C73.1625 96.74 73.0085 96.9617 72.7752 97.125C72.5419 97.2837 72.2665 97.363 71.9492 97.363ZM72.0682 96.901C72.3995 96.901 72.6655 96.7867 72.8662 96.558C73.0669 96.3247 73.1672 95.9864 73.1672 95.543C73.1672 95.095 73.0669 94.7567 72.8662 94.528C72.6655 94.2947 72.3995 94.178 72.0682 94.178C71.7369 94.178 71.4709 94.2947 71.2702 94.528C71.0742 94.7567 70.9762 95.095 70.9762 95.543C70.9762 95.9864 71.0742 96.3247 71.2702 96.558C71.4709 96.7867 71.7369 96.901 72.0682 96.901ZM76.3775 97.363C75.8268 97.363 75.3928 97.2044 75.0755 96.887C74.7581 96.565 74.5995 96.1194 74.5995 95.55C74.5995 95.1814 74.6695 94.8617 74.8095 94.591C74.9495 94.3157 75.1455 94.1034 75.3975 93.954C75.6495 93.8 75.9388 93.723 76.2655 93.723C76.5875 93.723 76.8581 93.7907 77.0775 93.926C77.2968 94.0614 77.4648 94.255 77.5815 94.507C77.6981 94.7544 77.7565 95.0484 77.7565 95.389V95.599H75.0335V95.242H77.3855L77.2665 95.333C77.2665 94.9597 77.1825 94.668 77.0145 94.458C76.8465 94.248 76.5968 94.143 76.2655 94.143C75.9155 94.143 75.6425 94.2667 75.4465 94.514C75.2505 94.7567 75.1525 95.0857 75.1525 95.501V95.564C75.1525 96.0027 75.2598 96.3364 75.4745 96.565C75.6938 96.789 75.9995 96.901 76.3915 96.901C76.6015 96.901 76.7975 96.8707 76.9795 96.81C77.1661 96.7447 77.3435 96.6397 77.5115 96.495L77.7075 96.894C77.5535 97.0434 77.3575 97.16 77.1195 97.244C76.8861 97.3234 76.6388 97.363 76.3775 97.363ZM78.6241 97.3V94.598C78.6241 94.4674 78.6171 94.3344 78.6031 94.199C78.5938 94.059 78.5821 93.9214 78.5681 93.786H79.1141L79.1841 94.556H79.1001C79.2028 94.2854 79.3661 94.08 79.5901 93.94C79.8188 93.7954 80.0824 93.723 80.3811 93.723C80.7964 93.723 81.1091 93.835 81.3191 94.059C81.5338 94.2784 81.6411 94.626 81.6411 95.102V97.3H81.0741V95.137C81.0741 94.8057 81.0064 94.5654 80.8711 94.416C80.7404 94.262 80.5351 94.185 80.2551 94.185C79.9284 94.185 79.6694 94.2854 79.4781 94.486C79.2868 94.6867 79.1911 94.955 79.1911 95.291V97.3H78.6241ZM84.6139 97.3V92.365H86.5879C87.1105 92.365 87.5142 92.477 87.7989 92.701C88.0835 92.925 88.2259 93.2424 88.2259 93.653C88.2259 93.961 88.1325 94.2177 87.9459 94.423C87.7639 94.6284 87.5095 94.7637 87.1829 94.829V94.731C87.5469 94.773 87.8315 94.899 88.0369 95.109C88.2469 95.3144 88.3519 95.592 88.3519 95.942C88.3519 96.3807 88.2049 96.7167 87.9109 96.95C87.6215 97.1834 87.2109 97.3 86.6789 97.3H84.6139ZM85.1809 96.831H86.6229C86.9775 96.831 87.2575 96.7634 87.4629 96.628C87.6729 96.488 87.7779 96.257 87.7779 95.935C87.7779 95.6084 87.6729 95.3774 87.4629 95.242C87.2575 95.102 86.9775 95.032 86.6229 95.032H85.1809V96.831ZM85.1809 94.57H86.5039C86.8865 94.57 87.1735 94.4954 87.3649 94.346C87.5562 94.1967 87.6519 93.982 87.6519 93.702C87.6519 93.4127 87.5562 93.1957 87.3649 93.051C87.1735 92.9017 86.8865 92.827 86.5039 92.827H85.1809V94.57ZM89.2947 97.3V94.633C89.2947 94.493 89.29 94.3507 89.2807 94.206C89.276 94.0614 89.2667 93.9214 89.2527 93.786H89.7987L89.8687 94.64L89.7707 94.647C89.8173 94.437 89.899 94.2644 90.0157 94.129C90.1323 93.9937 90.27 93.8934 90.4287 93.828C90.5873 93.758 90.753 93.723 90.9257 93.723C90.9957 93.723 91.0563 93.7254 91.1077 93.73C91.1637 93.7347 91.215 93.7464 91.2617 93.765L91.2547 94.269C91.1847 94.2457 91.1193 94.2317 91.0587 94.227C91.0027 94.2177 90.9373 94.213 90.8627 94.213C90.6573 94.213 90.4777 94.262 90.3237 94.36C90.1743 94.458 90.06 94.584 89.9807 94.738C89.906 94.892 89.8687 95.0554 89.8687 95.228V97.3H89.2947ZM91.8516 97.3V93.786H92.4186V97.3H91.8516ZM91.7816 92.988V92.351H92.4816V92.988H91.7816ZM94.9966 97.363C94.6513 97.363 94.3503 97.2884 94.0936 97.139C93.8416 96.9897 93.6456 96.7774 93.5056 96.502C93.3703 96.2267 93.3026 95.9 93.3026 95.522C93.3026 95.1394 93.3726 94.815 93.5126 94.549C93.6526 94.2784 93.8486 94.073 94.1006 93.933C94.3573 93.793 94.6559 93.723 94.9966 93.723C95.2206 93.723 95.4376 93.7627 95.6476 93.842C95.8623 93.9214 96.0396 94.0334 96.1796 94.178L95.9766 94.584C95.8366 94.4487 95.6826 94.3484 95.5146 94.283C95.3513 94.2177 95.1903 94.185 95.0316 94.185C94.6676 94.185 94.3853 94.2994 94.1846 94.528C93.9839 94.7567 93.8836 95.0904 93.8836 95.529C93.8836 95.963 93.9839 96.299 94.1846 96.537C94.3853 96.775 94.6676 96.894 95.0316 96.894C95.1856 96.894 95.3443 96.8637 95.5076 96.803C95.6756 96.7424 95.8319 96.642 95.9766 96.502L96.1796 96.901C96.0349 97.0504 95.8553 97.1647 95.6406 97.244C95.4259 97.3234 95.2113 97.363 94.9966 97.363ZM96.9854 97.3V92.148H97.5524V95.347H97.5664L99.1974 93.786H99.9114L97.9864 95.62L98.0004 95.333L100.093 97.3H99.3584L97.5664 95.648H97.5524V97.3H96.9854ZM100.845 98.098L100.579 97.895C100.705 97.7644 100.787 97.6407 100.824 97.524C100.866 97.412 100.887 97.2977 100.887 97.181L101.013 97.3H100.551V96.586H101.265V97.09C101.265 97.2767 101.235 97.4517 101.174 97.615C101.113 97.783 101.004 97.944 100.845 98.098ZM45.39 106.3L43.668 101.365H44.277L45.782 105.81H45.537L47.119 101.365H47.581L49.079 105.81H48.855L50.402 101.365H50.976L49.24 106.3H48.722L47.266 102.023H47.413L45.894 106.3H45.39ZM52.7096 106.363C52.397 106.363 52.124 106.291 51.8906 106.146C51.6573 105.997 51.4753 105.787 51.3446 105.516C51.2186 105.245 51.1556 104.921 51.1556 104.543C51.1556 104.16 51.2186 103.834 51.3446 103.563C51.4753 103.292 51.6573 103.085 51.8906 102.94C52.124 102.795 52.397 102.723 52.7096 102.723C53.027 102.723 53.3 102.805 53.5286 102.968C53.762 103.127 53.916 103.344 53.9906 103.619H53.9066L53.9836 102.786H54.5296C54.5156 102.921 54.5016 103.059 54.4876 103.199C54.4783 103.334 54.4736 103.467 54.4736 103.598V106.3H53.9066V105.474H53.9836C53.909 105.749 53.755 105.966 53.5216 106.125C53.2883 106.284 53.0176 106.363 52.7096 106.363ZM52.8216 105.901C53.1576 105.901 53.4236 105.787 53.6196 105.558C53.8156 105.325 53.9136 104.986 53.9136 104.543C53.9136 104.095 53.8156 103.757 53.6196 103.528C53.4236 103.295 53.1576 103.178 52.8216 103.178C52.4903 103.178 52.2243 103.295 52.0236 103.528C51.8276 103.757 51.7296 104.095 51.7296 104.543C51.7296 104.986 51.8276 105.325 52.0236 105.558C52.2243 105.787 52.4903 105.901 52.8216 105.901ZM55.5699 106.3V101.148H56.1369V106.3H55.5699ZM57.2379 106.3V101.148H57.8049V106.3H57.2379ZM60.612 103.829C60.612 103.306 60.7007 102.858 60.878 102.485C61.06 102.107 61.319 101.815 61.655 101.61C61.9957 101.405 62.404 101.302 62.88 101.302C63.342 101.302 63.7434 101.405 64.084 101.61C64.4247 101.815 64.686 102.107 64.868 102.485C65.0547 102.858 65.148 103.304 65.148 103.822C65.148 104.345 65.0547 104.795 64.868 105.173C64.6814 105.551 64.4177 105.845 64.077 106.055C63.741 106.26 63.342 106.363 62.88 106.363C62.404 106.363 61.998 106.26 61.662 106.055C61.326 105.845 61.067 105.551 60.885 105.173C60.703 104.795 60.612 104.347 60.612 103.829ZM61.221 103.829C61.221 104.464 61.361 104.961 61.641 105.32C61.921 105.675 62.334 105.852 62.88 105.852C63.4027 105.852 63.8087 105.675 64.098 105.32C64.392 104.961 64.539 104.464 64.539 103.829C64.539 103.19 64.3944 102.695 64.105 102.345C63.8157 101.99 63.4074 101.813 62.88 101.813C62.334 101.813 61.921 101.99 61.641 102.345C61.361 102.695 61.221 103.19 61.221 103.829ZM66.3203 106.3V103.227H65.6343V102.786H66.4743L66.3203 102.933V102.345C66.3203 101.948 66.4206 101.645 66.6213 101.435C66.8219 101.225 67.1089 101.12 67.4823 101.12C67.5756 101.12 67.6713 101.129 67.7693 101.148C67.8719 101.162 67.9559 101.183 68.0213 101.211V101.68C67.9653 101.657 67.8953 101.638 67.8113 101.624C67.7319 101.605 67.6503 101.596 67.5663 101.596C67.4216 101.596 67.2979 101.626 67.1953 101.687C67.0926 101.743 67.0156 101.829 66.9643 101.946C66.9129 102.063 66.8873 102.212 66.8873 102.394V102.905L66.7963 102.786H67.8673V103.227H66.8873V106.3H66.3203ZM70.3917 106.3V101.365H73.4717V101.841H70.9727V103.57H73.3177V104.046H70.9727V106.3H70.3917ZM75.4596 106.363C75.147 106.363 74.874 106.291 74.6406 106.146C74.4073 105.997 74.2253 105.787 74.0946 105.516C73.9686 105.245 73.9056 104.921 73.9056 104.543C73.9056 104.16 73.9686 103.834 74.0946 103.563C74.2253 103.292 74.4073 103.085 74.6406 102.94C74.874 102.795 75.147 102.723 75.4596 102.723C75.777 102.723 76.05 102.805 76.2786 102.968C76.512 103.127 76.666 103.344 76.7406 103.619H76.6566L76.7336 102.786H77.2796C77.2656 102.921 77.2516 103.059 77.2376 103.199C77.2283 103.334 77.2236 103.467 77.2236 103.598V106.3H76.6566V105.474H76.7336C76.659 105.749 76.505 105.966 76.2716 106.125C76.0383 106.284 75.7676 106.363 75.4596 106.363ZM75.5716 105.901C75.9076 105.901 76.1736 105.787 76.3696 105.558C76.5656 105.325 76.6636 104.986 76.6636 104.543C76.6636 104.095 76.5656 103.757 76.3696 103.528C76.1736 103.295 75.9076 103.178 75.5716 103.178C75.2403 103.178 74.9743 103.295 74.7736 103.528C74.5776 103.757 74.4796 104.095 74.4796 104.543C74.4796 104.986 74.5776 105.325 74.7736 105.558C74.9743 105.787 75.2403 105.901 75.5716 105.901ZM78.3199 106.3V103.598C78.3199 103.467 78.3129 103.334 78.2989 103.199C78.2896 103.059 78.2779 102.921 78.2639 102.786H78.8099L78.8799 103.556H78.7959C78.8892 103.29 79.0362 103.085 79.2369 102.94C79.4422 102.795 79.6896 102.723 79.9789 102.723C80.2729 102.723 80.5109 102.793 80.6929 102.933C80.8796 103.073 81.0056 103.29 81.0709 103.584H80.9659C81.0546 103.318 81.2109 103.108 81.4349 102.954C81.6589 102.8 81.9202 102.723 82.2189 102.723C82.6062 102.723 82.8979 102.835 83.0939 103.059C83.2899 103.278 83.3879 103.626 83.3879 104.102V106.3H82.8209V104.137C82.8209 103.806 82.7626 103.565 82.6459 103.416C82.5292 103.262 82.3426 103.185 82.0859 103.185C81.7919 103.185 81.5586 103.288 81.3859 103.493C81.2179 103.694 81.1339 103.964 81.1339 104.305V106.3H80.5669V104.137C80.5669 103.806 80.5086 103.565 80.3919 103.416C80.2752 103.262 80.0886 103.185 79.8319 103.185C79.5379 103.185 79.3069 103.288 79.1389 103.493C78.9709 103.694 78.8869 103.964 78.8869 104.305V106.3H78.3199ZM86.0264 106.363C85.4757 106.363 85.0417 106.204 84.7244 105.887C84.4071 105.565 84.2484 105.119 84.2484 104.55C84.2484 104.181 84.3184 103.862 84.4584 103.591C84.5984 103.316 84.7944 103.103 85.0464 102.954C85.2984 102.8 85.5877 102.723 85.9144 102.723C86.2364 102.723 86.5071 102.791 86.7264 102.926C86.9457 103.061 87.1137 103.255 87.2304 103.507C87.3471 103.754 87.4054 104.048 87.4054 104.389V104.599H84.6824V104.242H87.0344L86.9154 104.333C86.9154 103.96 86.8314 103.668 86.6634 103.458C86.4954 103.248 86.2457 103.143 85.9144 103.143C85.5644 103.143 85.2914 103.267 85.0954 103.514C84.8994 103.757 84.8014 104.086 84.8014 104.501V104.564C84.8014 105.003 84.9087 105.336 85.1234 105.565C85.3427 105.789 85.6484 105.901 86.0404 105.901C86.2504 105.901 86.4464 105.871 86.6284 105.81C86.8151 105.745 86.9924 105.64 87.1604 105.495L87.3564 105.894C87.2024 106.043 87.0064 106.16 86.7684 106.244C86.5351 106.323 86.2877 106.363 86.0264 106.363Z" fill="black"/>
<path d="M29.4471 98.049H57.4571V98.357H29.4471V98.049Z" fill="black"/>
<defs>
<filter id="filter0_bi_452_59" x="-61.0772" y="-61.0772" width="251.154" height="251.154" filterUnits="userSpaceOnUse" color-interpolation-filters="sRGB">
<feFlood flood-opacity="0" result="BackgroundImageFix"/>
<feGaussianBlur in="BackgroundImageFix" stdDeviation="30.5386"/>
<feComposite in2="SourceAlpha" operator="in" result="effect1_backgroundBlur_452_59"/>
<feBlend mode="normal" in="SourceGraphic" in2="effect1_backgroundBlur_452_59" result="shape"/>
<feColorMatrix in="SourceAlpha" type="matrix" values="0 0 0 0 0 0 0 0 0 0 0 0 0 0 0 0 0 0 127 0" result="hardAlpha"/>
<feOffset dx="39.0894" dy="10.9939"/>
<feGaussianBlur stdDeviation="23.2094"/>
<feComposite in2="hardAlpha" operator="arithmetic" k2="-1" k3="1"/>
<feColorMatrix type="matrix" values="0 0 0 0 1 0 0 0 0 1 0 0 0 0 1 0 0 0 0.25 0"/>
<feBlend mode="normal" in2="shape" result="effect2_innerShadow_452_59"/>
</filter>
<radialGradient id="paint0_radial_452_59" cx="0" cy="0" r="1" gradientUnits="userSpaceOnUse" gradientTransform="translate(64.5 64.5) rotate(90) scale(61.5)">
<stop stop-color="#FFF384" stop-opacity="0.7"/>
<stop offset="0.983367" stop-color="#FFE600"/>
</radialGradient>
<radialGradient id="paint1_radial_452_59" cx="0" cy="0" r="1" gradientUnits="userSpaceOnUse" gradientTransform="translate(64.8539 64.2581) rotate(90) scale(56.773)">
<stop stop-color="#F7FBFD"/>
<stop offset="0.983367" stop-color="#71A7CD"/>
</radialGradient>
<linearGradient id="paint2_linear_452_59" x1="12.0389" y1="45.7866" x2="90.6079" y2="81.8146" gradientUnits="userSpaceOnUse">
<stop stop-color="#F7FBFD"/>
<stop offset="1" stop-color="#F7FBFD" stop-opacity="0"/>
</linearGradient>
<linearGradient id="paint3_linear_452_59" x1="63.5492" y1="5.69343" x2="73.0359" y2="99.714" gradientUnits="userSpaceOnUse">
<stop stop-color="#F7FBFD"/>
<stop offset="1" stop-color="#F7FBFD" stop-opacity="0"/>
</linearGradient>
</defs>
</svg>
