<svg width="353" height="232" viewBox="0 0 353 232" fill="none" xmlns="http://www.w3.org/2000/svg">
<path d="M352.022 168.13C352.022 247.486 278.193 229.604 176.484 229.604C74.7748 229.604 -5.25818 244.417 0.270088 168.13C0.270088 88.773 101.852 0 197.906 0C299.615 0 352.022 88.773 352.022 168.13Z" fill="#FFE8D6"/>
<path d="M302.146 79.5785C302.146 88.9589 295 96.5625 286.185 96.5625C277.371 96.5625 270.225 88.9589 270.225 79.5785H302.146Z" fill="#E63946"/>
<path d="M302.482 79.9668H269.888C269.634 79.9668 269.427 79.7461 269.427 79.4757C269.427 79.2053 269.634 78.9846 269.888 78.9846H302.482C302.736 78.9846 302.942 79.2053 302.942 79.4757C302.942 79.7461 302.736 79.9668 302.482 79.9668Z" fill="#8E252D"/>
<path d="M283.01 27.5217C279.658 41.2804 274.43 62.6775 271.577 73.3769V73.4018C271.554 73.4532 271.554 73.503 271.53 73.5544C271.245 74.6411 270.96 75.6283 270.746 76.4628C270.626 76.8411 270.531 77.1447 270.436 77.4748V77.4997C270.27 78.0804 270.127 78.5864 270.008 78.9912C269.842 79.4475 269.746 79.7511 269.676 79.8772L269.771 79.9518L269.937 80.053C269.962 80.0282 269.962 80.0033 269.985 79.9784C270.08 79.776 270.199 79.4475 270.341 78.9912C270.461 78.5864 270.602 78.1318 270.769 77.5495C270.864 77.1712 271.006 76.7399 271.125 76.2604C271.34 75.4757 271.577 74.6163 271.839 73.6556C271.839 73.6042 271.862 73.5793 271.886 73.5279V73.503C274.714 62.8053 279.943 41.5094 283.319 27.7241L283.01 27.5217Z" fill="black"/>
<path d="M291.21 34.0983L302.309 78.9912L302.548 79.927L302.334 79.9784L302.239 80.0033V79.9784L302.144 79.6234V79.5736L301.977 78.9912L290.783 33.7449L291.21 34.0983Z" fill="black"/>
<path d="M278.376 113.795C278.356 113.732 276.343 107.579 278.38 102.791C280.341 98.1785 279.53 91.0312 278.604 85.3206C277.941 81.2293 278.67 75.0294 280.774 72.6735C281.451 71.917 282.227 71.5885 283.087 71.6996C287.016 72.2056 287.257 78.9149 287.259 78.983L287.097 78.9879C287.094 78.9216 286.858 72.3599 283.068 71.8705C282.265 71.7676 281.532 72.0779 280.893 72.7929C279.229 74.6528 277.946 80.2439 278.765 85.2908C279.694 91.0262 280.506 98.2067 278.528 102.862C276.518 107.587 278.509 113.676 278.529 113.737L278.376 113.795Z" fill="#23411C"/>
<path d="M278.264 113.138C278.264 113.138 280.23 114.472 280.196 116.871C280.196 116.871 278.45 116.226 278.264 113.138Z" fill="#23411C"/>
<path d="M278.38 115.503C278.38 115.503 279.479 117.691 278.345 119.763C278.345 119.763 277.12 118.291 278.38 115.503Z" fill="#23411C"/>
<path d="M278.247 113.143C278.247 113.143 278.172 115.624 276.215 116.815C276.215 116.815 275.846 114.887 278.247 113.143Z" fill="#23411C"/>
<path d="M277.673 109.862C277.673 109.862 280.17 110.719 280.773 113.339C280.773 113.339 278.699 113.165 277.673 109.862Z" fill="#23411C"/>
<path d="M277.673 109.862C277.673 109.862 277.545 112.649 275.325 113.951C275.325 113.951 274.943 111.776 277.673 109.862Z" fill="#23411C"/>
<path d="M277.612 106.033C277.612 106.033 280.4 107.577 280.618 110.801C280.618 110.801 278.203 110.154 277.612 106.033Z" fill="#23411C"/>
<path d="M277.612 106.032C277.612 106.032 276.936 109.299 274.067 110.363C274.067 110.363 274.026 107.711 277.612 106.032Z" fill="#23411C"/>
<path d="M278.688 102.099C278.688 102.099 281.816 104.445 281.587 108.373C281.587 108.373 278.769 107.176 278.688 102.099Z" fill="#23411C"/>
<path d="M278.688 102.099C278.688 102.099 277.372 105.923 273.747 106.711C273.747 106.711 274.103 103.504 278.688 102.099Z" fill="#23411C"/>
<path d="M279.628 97.1763C279.628 97.1763 282.268 99.9835 281.437 103.72C281.437 103.72 278.916 102.071 279.628 97.1763Z" fill="#23411C"/>
<path d="M279.628 97.1763C279.628 97.1763 277.768 100.621 274.162 100.738C274.162 100.738 275.002 97.7188 279.628 97.1763Z" fill="#23411C"/>
<path d="M259.077 111.927L258.92 111.886C260.304 106.077 259.163 97.5696 258.407 91.9403C258.196 90.3692 258.014 89.012 257.941 88.078C257.738 85.4848 259.055 79.9568 262.055 76.3218C263.822 74.1799 265.858 73.0384 268.105 72.9273C275.09 72.5839 276.633 78.9 276.649 78.9647L276.49 79.0062C276.476 78.9431 274.956 72.7597 268.113 73.0998C265.911 73.2093 263.914 74.3309 262.177 76.4362C259.207 80.0348 257.903 85.5014 258.103 88.0647C258.176 88.9921 258.357 90.3476 258.567 91.9154C259.325 97.5579 260.47 106.087 259.077 111.927Z" fill="#23411C"/>
<path d="M259.269 97.7985C259.269 97.7985 262.035 98.0872 263.215 100.655C263.215 100.655 261.032 100.972 259.269 97.7985Z" fill="#23411C"/>
<path d="M259.55 101.191C259.55 101.191 262.218 102.016 262.935 104.77C262.935 104.77 260.735 104.655 259.55 101.191Z" fill="#23411C"/>
<path d="M259.66 105.545C259.66 105.545 261.668 106.804 261.714 109.201C261.714 109.201 259.947 108.622 259.66 105.545Z" fill="#23411C"/>
<path d="M259.586 108.745C259.586 108.745 261.202 110.532 260.639 112.855C260.639 112.855 259.085 111.793 259.586 108.745Z" fill="#23411C"/>
<path d="M259.175 111.073C259.175 111.073 259.763 113.473 258.206 115.206C258.206 115.206 257.337 113.468 259.175 111.073Z" fill="#23411C"/>
<path d="M259.567 108.745C259.567 108.745 258.948 111.137 256.784 111.808C256.784 111.808 256.849 109.842 259.567 108.745Z" fill="#23411C"/>
<path d="M259.66 105.545C259.66 105.545 259.04 107.937 256.877 108.607C256.877 108.607 256.943 106.641 259.66 105.545Z" fill="#23411C"/>
<path d="M259.486 101.123C259.486 101.123 259.243 103.592 257.211 104.629C257.211 104.629 256.974 102.68 259.486 101.123Z" fill="#23411C"/>
<path d="M259.269 97.8085C259.269 97.8085 258.987 100.674 256.628 101.878C256.628 101.878 256.352 99.6136 259.269 97.8085Z" fill="#23411C"/>
<path d="M258.63 93.3041C258.63 93.3041 261.402 93.0801 262.98 95.3929C262.98 95.3929 260.881 96.1063 258.63 93.3041Z" fill="#23411C"/>
<path d="M258.631 93.314C258.631 93.314 258.818 96.1875 256.69 97.8085C256.69 97.8085 256.051 95.6284 258.631 93.314Z" fill="#23411C"/>
<path d="M258.009 87.8789C258.009 87.8789 260.783 88.0464 262.06 90.5616C262.06 90.5616 259.891 90.9731 258.009 87.8789Z" fill="#23411C"/>
<path d="M258.009 87.8872C258.009 87.8872 257.836 90.7624 255.524 92.0681C255.524 92.0681 255.162 89.8167 258.009 87.8872Z" fill="#23411C"/>
<path d="M258.822 82.7374C258.822 82.7374 261.324 84.0232 261.598 86.8669C261.598 86.8669 259.447 86.3625 258.822 82.7374Z" fill="#23411C"/>
<path d="M258.818 82.7458C258.818 82.7458 257.624 85.3306 255.019 85.5943C255.019 85.5943 255.494 83.3679 258.818 82.7458Z" fill="#23411C"/>
<path d="M260.82 78.0721C260.82 78.0721 263.471 80.3965 263.019 83.8955C263.019 83.8955 260.574 82.6213 260.82 78.0721Z" fill="#23411C"/>
<path d="M260.814 78.082C260.814 78.082 258.669 80.8129 255.468 80.3201C255.468 80.3201 256.651 77.795 260.814 78.082Z" fill="#23411C"/>
<path d="M264.174 74.316C264.174 74.316 266.778 77.3504 265.752 81.1696C265.752 81.1696 263.222 79.3363 264.174 74.316Z" fill="#23411C"/>
<path d="M264.166 74.3259C264.166 74.3259 261.371 77.0037 257.881 75.9137C257.881 75.9137 259.576 73.3023 264.166 74.3259Z" fill="#23411C"/>
<path d="M268.708 72.9887C268.708 72.9887 270.035 76.8477 267.726 79.9668C267.726 79.9668 266.036 77.2492 268.708 72.9887Z" fill="#23411C"/>
<path d="M268.697 72.9937C268.697 72.9937 265.156 74.3442 262.316 71.9269C262.316 71.9269 264.815 70.1948 268.697 72.9937Z" fill="#23411C"/>
<path d="M275.197 76.2173C275.197 76.2173 272.74 78.4819 269.803 77.2791C269.803 77.2791 271.321 75.0078 275.197 76.2173Z" fill="#23411C"/>
<path d="M275.191 76.209C275.191 76.209 273.203 73.4101 274.178 70.1915C274.178 70.1915 276.151 71.9484 275.191 76.209Z" fill="#23411C"/>
<path d="M294.763 105.77L294.649 105.78C294.3 101.551 291.667 96.1428 289.923 92.5625C289.439 91.5637 289.018 90.701 288.763 90.0954C288.059 88.4098 287.725 84.3832 288.933 81.2045C289.646 79.333 290.758 78.0622 292.236 77.4284C296.835 75.4607 299.255 79.3048 299.278 79.343L299.182 79.411C299.158 79.3712 296.782 75.6134 292.279 77.5429C290.831 78.1634 289.741 79.411 289.041 81.2509C287.843 84.3982 288.172 88.38 288.869 90.0457C289.122 90.6479 289.541 91.509 290.026 92.5061C291.773 96.0947 294.412 101.515 294.763 105.77Z" fill="#23411C"/>
<path d="M291.788 96.2689C291.788 96.2689 293.703 95.7745 295.056 97.1979C295.056 97.1979 293.665 97.9544 291.788 96.2689Z" fill="#23411C"/>
<path d="M292.721 98.4688C292.721 98.4688 294.688 98.356 295.772 100.022C295.772 100.022 294.275 100.493 292.721 98.4688Z" fill="#23411C"/>
<path d="M293.751 101.354C293.751 101.354 295.373 101.697 295.929 103.29C295.929 103.29 294.621 103.343 293.751 101.354Z" fill="#23411C"/>
<path d="M294.404 103.514C294.404 103.514 295.879 104.309 296.014 106.001C296.014 106.001 294.74 105.677 294.404 103.514Z" fill="#23411C"/>
<path d="M294.641 105.173C294.641 105.173 295.563 106.633 294.9 108.179C294.9 108.179 293.938 107.234 294.641 105.173Z" fill="#23411C"/>
<path d="M294.392 103.519C294.392 103.519 294.503 105.273 293.202 106.26C293.202 106.26 292.814 104.929 294.392 103.519Z" fill="#23411C"/>
<path d="M293.751 101.354C293.751 101.354 293.862 103.109 292.562 104.096C292.562 104.096 292.173 102.764 293.751 101.354Z" fill="#23411C"/>
<path d="M292.664 98.4406C292.664 98.4406 293.043 100.151 291.911 101.351C291.911 101.351 291.324 100.105 292.664 98.4406Z" fill="#23411C"/>
<path d="M291.79 96.2755C291.79 96.2755 292.231 98.263 290.917 99.655C290.917 99.655 290.235 98.2083 291.79 96.2755Z" fill="#23411C"/>
<path d="M290.374 93.4202C290.374 93.4202 292.178 92.5808 293.743 93.7355C293.743 93.7355 292.496 94.7358 290.374 93.4202Z" fill="#23411C"/>
<path d="M290.377 93.4252C290.377 93.4252 291.133 95.3033 290.065 96.9159C290.065 96.9159 289.158 95.6168 290.377 93.4252Z" fill="#23411C"/>
<path d="M288.765 89.9444C288.765 89.9444 290.659 89.367 292.066 90.7325C292.066 90.7325 290.705 91.5471 288.765 89.9444Z" fill="#23411C"/>
<path d="M288.768 89.9494C288.768 89.9494 289.282 91.9171 288.024 93.3655C288.024 93.3655 287.287 91.9503 288.768 89.9494Z" fill="#23411C"/>
<path d="M288.18 86.3012C288.18 86.3012 290.137 86.5401 290.945 88.375C290.945 88.375 289.395 88.5724 288.18 86.3012Z" fill="#23411C"/>
<path d="M288.18 86.3078C288.18 86.3078 287.948 88.3352 286.263 89.1597C286.263 89.1597 286.093 87.5521 288.18 86.3078Z" fill="#23411C"/>
<path d="M288.492 82.6827C288.492 82.6827 290.776 83.5786 291.242 86.0323C291.242 86.0323 289.326 85.7885 288.492 82.6827Z" fill="#23411C"/>
<path d="M288.491 82.6909C288.491 82.6909 287.655 85.0535 285.405 85.5197C285.405 85.5197 285.642 83.5354 288.491 82.6909Z" fill="#23411C"/>
<path d="M289.911 79.3363C289.911 79.3363 292.32 80.7183 292.473 83.5288C292.473 83.5288 290.376 82.9332 289.911 79.3363Z" fill="#23411C"/>
<path d="M289.908 79.3446C289.908 79.3446 288.626 81.8316 286.052 81.9693C286.052 81.9693 286.612 79.8008 289.908 79.3446Z" fill="#23411C"/>
<path d="M292.654 77.3206C292.654 77.3206 294.389 79.5719 293.528 82.2331C293.528 82.2331 291.802 80.8361 292.654 77.3206Z" fill="#23411C"/>
<path d="M292.647 77.3255C292.647 77.3255 290.574 79.1107 288.143 78.1998C288.143 78.1998 289.434 76.4197 292.647 77.3255Z" fill="#23411C"/>
<path d="M297.705 77.8664C297.705 77.8664 296.558 79.9916 294.328 79.917C294.328 79.917 294.844 78.0207 297.705 77.8664Z" fill="#23411C"/>
<path d="M297.697 77.863C297.697 77.863 295.755 76.4827 295.698 74.087C295.698 74.087 297.404 74.7739 297.697 77.863Z" fill="#23411C"/>
<path d="M286.67 75.8639C286.67 75.8639 283.86 77.294 281.329 75.5586C281.329 75.5586 283.25 73.9078 286.67 75.8639Z" fill="#23411C"/>
<path d="M286.665 75.8556C286.665 75.8556 285.374 72.9323 286.98 70.3209C286.98 70.3209 288.478 72.3234 286.665 75.8556Z" fill="#23411C"/>
<path d="M284 72.0663C284 72.0663 283.098 74.4553 280.53 74.827C280.53 74.827 280.754 72.7979 284 72.0663Z" fill="#23411C"/>
<path d="M282.907 71.7593C282.907 71.7593 280.238 72.1392 278.592 69.9957C278.592 69.9957 280.584 69.1811 282.907 71.7593Z" fill="#23411C"/>
<path d="M279.086 88.5741C279.086 88.5741 282.527 90.1137 283.083 93.9063C283.083 93.9063 280.163 93.392 279.086 88.5741Z" fill="#23411C"/>
<path d="M279.086 88.5741C279.086 88.5741 278.585 92.511 275.288 94.0689C275.288 94.0689 274.995 90.9349 279.086 88.5741Z" fill="#23411C"/>
<path d="M278.412 83.7909C278.412 83.7909 282.36 84.9307 283.481 88.9656C283.481 88.9656 280.24 88.8577 278.412 83.7909Z" fill="#23411C"/>
<path d="M278.412 83.7909C278.412 83.7909 278.406 88.1427 275.035 90.3443C275.035 90.3443 274.291 86.9863 278.412 83.7909Z" fill="#23411C"/>
<path d="M278.592 78.6959C278.592 78.6959 282.363 80.3815 282.974 84.5375C282.974 84.5375 279.775 83.9751 278.592 78.6959Z" fill="#23411C"/>
<path d="M278.592 78.6959C278.592 78.6959 278.044 83.0112 274.432 84.72C274.432 84.72 274.109 81.2857 278.592 78.6959Z" fill="#23411C"/>
<path d="M279.63 74.827C279.63 74.827 282.912 77.4251 282.567 81.6175C282.567 81.6175 279.588 80.2538 279.63 74.827Z" fill="#23411C"/>
<path d="M279.63 74.8269C279.63 74.8269 278.127 78.8751 274.234 79.6117C274.234 79.6117 274.695 76.1957 279.63 74.8269Z" fill="#23411C"/>
<path d="M146.399 51.3792C146.399 60.9952 153.724 68.7895 162.761 68.7895C171.798 68.7895 179.123 60.9952 179.123 51.3792H146.399Z" fill="#E63946"/>
<path d="M146.055 51.7757H179.467C179.728 51.7757 179.94 51.5501 179.94 51.2731C179.94 50.9943 179.728 50.7704 179.467 50.7704H146.055C145.794 50.7704 145.582 50.9943 145.582 51.2731C145.582 51.5501 145.794 51.7757 146.055 51.7757Z" fill="#D67934"/>
<path d="M167.374 3.59617C170.727 17.4047 175.195 35.4139 177.738 45.0249C177.762 45.0747 177.761 45.151 177.786 45.2008C178.095 46.314 178.356 47.3261 178.594 48.1855C178.713 48.5654 178.808 48.8939 178.903 49.2224V49.2489C179.07 49.8545 179.236 50.3605 179.355 50.7653C179.497 51.2465 179.615 51.5501 179.687 51.6762L179.569 51.7525L179.402 51.8786C179.402 51.8537 179.378 51.8023 179.355 51.7774C179.283 51.5999 179.165 51.2465 179.021 50.7653C178.879 50.3854 178.736 49.881 178.571 49.2987C178.451 48.8939 178.332 48.4642 178.19 47.9831C177.977 47.1734 177.738 46.2892 177.476 45.302C177.453 45.2522 177.453 45.2008 177.429 45.151V45.1261C174.863 35.4637 170.418 17.481 167.042 3.67249V3.64595L167.374 3.59617Z" fill="black"/>
<path d="M157.274 6.12463L146.221 50.7654L145.983 51.726L146.15 51.7774L146.292 51.8272L146.317 51.7774L146.387 51.4223L146.412 51.3726L146.554 50.7654L157.653 5.99852L157.274 6.12463Z" fill="black"/>
<path d="M157.185 69.2276H168.336V67.7245H157.185V69.2276Z" fill="#D67934"/>
<path d="M170.766 86.4538C170.787 86.3907 172.85 80.0813 170.763 75.1737C168.753 70.4453 169.584 63.1189 170.532 57.264C171.212 53.0698 170.465 46.7139 168.307 44.3C167.613 43.5235 166.818 43.1867 165.937 43.3012C161.91 43.8205 161.662 50.6973 161.66 50.767L161.827 50.772C161.829 50.704 162.072 43.9781 165.957 43.4771C166.78 43.3709 167.532 43.6878 168.187 44.4211C169.891 46.329 171.207 52.0595 170.368 57.2341C169.415 63.1139 168.581 70.4752 170.611 75.2467C172.671 80.0912 170.63 86.331 170.608 86.394L170.766 86.4538Z" fill="#23411C"/>
<path d="M170.879 85.7818C170.879 85.7818 168.865 87.1489 168.901 89.6077C168.901 89.6077 170.691 88.9457 170.879 85.7818Z" fill="#23411C"/>
<path d="M170.764 88.2058C170.764 88.2058 169.635 90.4472 170.797 92.5724C170.797 92.5724 172.053 91.0627 170.764 88.2058Z" fill="#23411C"/>
<path d="M170.898 85.7851C170.898 85.7851 170.976 88.3285 172.981 89.5496C172.981 89.5496 173.359 87.5736 170.898 85.7851Z" fill="#23411C"/>
<path d="M171.486 82.4222C171.486 82.4222 168.927 83.3015 168.31 85.9859C168.31 85.9859 170.435 85.8084 171.486 82.4222Z" fill="#23411C"/>
<path d="M171.486 82.4222C171.486 82.4222 171.618 85.2791 173.893 86.613C173.893 86.613 174.285 84.3849 171.486 82.4222Z" fill="#23411C"/>
<path d="M171.548 78.4968C171.548 78.4968 168.692 80.0796 168.467 83.3844C168.467 83.3844 170.943 82.7225 171.548 78.4968Z" fill="#23411C"/>
<path d="M171.548 78.4968C171.548 78.4968 172.242 81.8448 175.183 82.9348C175.183 82.9348 175.226 80.2173 171.548 78.4968Z" fill="#23411C"/>
<path d="M170.446 74.4636C170.446 74.4636 167.24 76.8693 167.474 80.8975C167.474 80.8975 170.362 79.6681 170.446 74.4636Z" fill="#23411C"/>
<path d="M170.446 74.4636C170.446 74.4636 171.795 78.384 175.512 79.192C175.512 79.192 175.147 75.9054 170.446 74.4636Z" fill="#23411C"/>
<path d="M169.482 69.4183C169.482 69.4183 166.776 72.2952 167.629 76.126C167.629 76.126 170.212 74.4337 169.482 69.4183Z" fill="#23411C"/>
<path d="M169.482 69.4184C169.482 69.4184 171.389 72.9489 175.086 73.07C175.086 73.07 174.225 69.9741 169.482 69.4184Z" fill="#23411C"/>
<path d="M190.55 84.5392L190.712 84.496C189.291 78.5433 190.462 69.8215 191.237 64.0496C191.452 62.4386 191.64 61.0483 191.714 60.091C191.923 57.4332 190.573 51.7658 187.497 48.0395C185.685 45.8445 183.599 44.6732 181.295 44.5588C174.135 44.207 172.552 50.6824 172.537 50.7488L172.699 50.7903C172.715 50.7272 174.274 44.3879 181.287 44.7363C183.544 44.8474 185.592 45.9988 187.372 48.1556C190.417 51.8454 191.753 57.4498 191.549 60.0761C191.474 61.0284 191.287 62.4171 191.072 64.0247C190.296 69.8099 189.122 78.5532 190.55 84.5392Z" fill="#23411C"/>
<path d="M190.353 70.0554C190.353 70.0554 187.517 70.3524 186.309 72.9837C186.309 72.9837 188.546 73.3105 190.353 70.0554Z" fill="#23411C"/>
<path d="M190.066 73.5345C190.066 73.5345 187.33 74.379 186.596 77.2027C186.596 77.2027 188.852 77.0849 190.066 73.5345Z" fill="#23411C"/>
<path d="M189.953 77.9974C189.953 77.9974 187.893 79.2882 187.846 81.7453C187.846 81.7453 189.658 81.153 189.953 77.9974Z" fill="#23411C"/>
<path d="M190.029 81.2775C190.029 81.2775 188.371 83.1091 188.947 85.4898C188.947 85.4898 190.542 84.4015 190.029 81.2775Z" fill="#23411C"/>
<path d="M190.45 83.6633C190.45 83.6633 189.846 86.1236 191.443 87.9005C191.443 87.9005 192.333 86.1203 190.45 83.6633Z" fill="#23411C"/>
<path d="M190.048 81.2774C190.048 81.2774 190.684 83.7296 192.901 84.4164C192.901 84.4164 192.834 82.4023 190.048 81.2774Z" fill="#23411C"/>
<path d="M189.952 77.9975C189.952 77.9975 190.587 80.4496 192.806 81.1364C192.806 81.1364 192.739 79.1207 189.952 77.9975Z" fill="#23411C"/>
<path d="M190.13 73.4648C190.13 73.4648 190.381 75.9949 192.463 77.0584C192.463 77.0584 192.706 75.0592 190.13 73.4648Z" fill="#23411C"/>
<path d="M190.353 70.0654C190.353 70.0654 190.643 73.002 193.061 74.238C193.061 74.238 193.344 71.9169 190.353 70.0654Z" fill="#23411C"/>
<path d="M191.008 65.4482C191.008 65.4482 188.167 65.2192 186.549 67.5901C186.549 67.5901 188.7 68.3217 191.008 65.4482Z" fill="#23411C"/>
<path d="M191.006 65.4582C191.006 65.4582 190.815 68.4047 192.996 70.0654C192.996 70.0654 193.652 67.8307 191.006 65.4582Z" fill="#23411C"/>
<path d="M191.646 59.887C191.646 59.887 188.8 60.0595 187.492 62.6377C187.492 62.6377 189.715 63.0591 191.646 59.887Z" fill="#23411C"/>
<path d="M191.644 59.8953C191.644 59.8953 191.822 62.8435 194.192 64.1824C194.192 64.1824 194.563 61.8746 191.644 59.8953Z" fill="#23411C"/>
<path d="M190.812 54.6161C190.812 54.6161 188.247 55.935 187.966 58.8501C187.966 58.8501 190.171 58.3324 190.812 54.6161Z" fill="#23411C"/>
<path d="M190.815 54.6244C190.815 54.6244 192.04 57.2739 194.709 57.546C194.709 57.546 194.221 55.2631 190.815 54.6244Z" fill="#23411C"/>
<path d="M188.763 49.833C188.763 49.833 186.045 52.2154 186.51 55.804C186.51 55.804 189.015 54.4966 188.763 49.833Z" fill="#23411C"/>
<path d="M188.769 49.8429C188.769 49.8429 190.969 52.6434 194.249 52.1391C194.249 52.1391 193.036 49.5493 188.769 49.8429Z" fill="#23411C"/>
<path d="M185.323 45.9822C185.323 45.9822 182.656 49.0947 183.708 53.0085C183.708 53.0085 186.302 51.1304 185.323 45.9822Z" fill="#23411C"/>
<path d="M185.333 45.9922C185.333 45.9922 188.198 48.738 191.775 47.6198C191.775 47.6198 190.038 44.9437 185.333 45.9922Z" fill="#23411C"/>
<path d="M180.677 44.6218C180.677 44.6218 179.316 48.577 181.684 51.7757C181.684 51.7757 183.417 48.9902 180.677 44.6218Z" fill="#23411C"/>
<path d="M180.688 44.6284C180.688 44.6284 184.319 46.0121 187.23 43.5351C187.23 43.5351 184.669 41.7582 180.688 44.6284Z" fill="#23411C"/>
<path d="M174.024 47.9333C174.024 47.9333 176.542 50.2544 179.554 49.02C179.554 49.02 177.998 46.6923 174.024 47.9333Z" fill="#23411C"/>
<path d="M174.032 47.925C174.032 47.925 176.068 45.0549 175.07 41.755C175.07 41.755 173.047 43.5567 174.032 47.925Z" fill="#23411C"/>
<path d="M153.967 78.2281L154.084 78.238C154.443 73.9029 157.142 68.3582 158.929 64.6884C159.426 63.6647 159.856 62.7804 160.117 62.1583C160.84 60.4312 161.182 56.3034 159.944 53.045C159.212 51.1254 158.074 49.823 156.557 49.1743C151.844 47.1569 149.363 51.0972 149.338 51.137L149.436 51.205C149.461 51.1669 151.897 47.3128 156.513 49.2905C157.999 49.9275 159.116 51.2067 159.833 53.0931C161.06 56.3183 160.723 60.4013 160.009 62.1068C159.75 62.7257 159.32 63.6083 158.823 64.6303C157.033 68.3085 154.328 73.8664 153.967 78.2281Z" fill="#23411C"/>
<path d="M157.017 68.4876C157.017 68.4876 155.054 67.9799 153.668 69.4399C153.668 69.4399 155.093 70.2147 157.017 68.4876Z" fill="#23411C"/>
<path d="M156.061 70.7439C156.061 70.7439 154.045 70.6278 152.932 72.335C152.932 72.335 154.468 72.8178 156.061 70.7439Z" fill="#23411C"/>
<path d="M155.004 73.7005C155.004 73.7005 153.342 74.0522 152.771 75.6863C152.771 75.6863 154.114 75.7395 155.004 73.7005Z" fill="#23411C"/>
<path d="M154.335 75.9153C154.335 75.9153 152.823 76.7283 152.686 78.4653C152.686 78.4653 153.992 78.1335 154.335 75.9153Z" fill="#23411C"/>
<path d="M154.092 77.6159C154.092 77.6159 153.147 79.1123 153.827 80.6984C153.827 80.6984 154.812 79.7279 154.092 77.6159Z" fill="#23411C"/>
<path d="M154.348 75.9203C154.348 75.9203 154.234 77.7187 155.567 78.7307C155.567 78.7307 155.965 77.3653 154.348 75.9203Z" fill="#23411C"/>
<path d="M155.004 73.7004C155.004 73.7004 154.89 75.5005 156.223 76.5109C156.223 76.5109 156.621 75.1472 155.004 73.7004Z" fill="#23411C"/>
<path d="M156.119 70.7125C156.119 70.7125 155.731 72.4678 156.891 73.6971C156.891 73.6971 157.493 72.4196 156.119 70.7125Z" fill="#23411C"/>
<path d="M157.014 68.4942C157.014 68.4942 156.563 70.5316 157.91 71.9601C157.91 71.9601 158.609 70.4768 157.014 68.4942Z" fill="#23411C"/>
<path d="M158.467 65.5676C158.467 65.5676 156.616 64.7066 155.014 65.8912C155.014 65.8912 156.292 66.9149 158.467 65.5676Z" fill="#23411C"/>
<path d="M158.464 65.5727C158.464 65.5727 157.689 67.4972 158.784 69.1513C158.784 69.1513 159.713 67.819 158.464 65.5727Z" fill="#23411C"/>
<path d="M160.115 62.0039C160.115 62.0039 158.174 61.4116 156.733 62.8119C156.733 62.8119 158.127 63.6464 160.115 62.0039Z" fill="#23411C"/>
<path d="M160.113 62.0106C160.113 62.0106 159.585 64.0263 160.876 65.5112C160.876 65.5112 161.631 64.0595 160.113 62.0106Z" fill="#23411C"/>
<path d="M160.715 58.2694C160.715 58.2694 158.71 58.515 157.881 60.3947C157.881 60.3947 159.471 60.5987 160.715 58.2694Z" fill="#23411C"/>
<path d="M160.715 58.2777C160.715 58.2777 160.954 60.3548 162.68 61.201C162.68 61.201 162.856 59.5518 160.715 58.2777Z" fill="#23411C"/>
<path d="M160.396 54.5613C160.396 54.5613 158.054 55.4788 157.577 57.9939C157.577 57.9939 159.541 57.7434 160.396 54.5613Z" fill="#23411C"/>
<path d="M160.397 54.5679C160.397 54.5679 161.255 56.9902 163.561 57.468C163.561 57.468 163.317 55.434 160.397 54.5679Z" fill="#23411C"/>
<path d="M158.941 51.1287C158.941 51.1287 156.471 52.5472 156.315 55.4274C156.315 55.4274 158.464 54.8168 158.941 51.1287Z" fill="#23411C"/>
<path d="M158.944 51.137C158.944 51.137 160.259 53.687 162.898 53.8297C162.898 53.8297 162.323 51.6065 158.944 51.137Z" fill="#23411C"/>
<path d="M156.13 49.0631C156.13 49.0631 154.351 51.3709 155.233 54.0984C155.233 54.0984 157.003 52.6667 156.13 49.0631Z" fill="#23411C"/>
<path d="M156.136 49.0698C156.136 49.0698 158.261 50.8981 160.754 49.964C160.754 49.964 159.431 48.1391 156.136 49.0698Z" fill="#23411C"/>
<path d="M150.952 49.6222C150.952 49.6222 152.128 51.8023 154.413 51.726C154.413 51.726 153.883 49.7815 150.952 49.6222Z" fill="#23411C"/>
<path d="M150.958 49.619C150.958 49.619 152.951 48.2054 153.008 45.7484C153.008 45.7484 151.259 46.4518 150.958 49.619Z" fill="#23411C"/>
<path d="M162.264 47.57C162.264 47.57 165.145 49.0366 167.739 47.2581C167.739 47.2581 165.77 45.5658 162.264 47.57Z" fill="#23411C"/>
<path d="M162.27 47.5617C162.27 47.5617 163.592 44.5654 161.945 41.8876C161.945 41.8876 160.41 43.9399 162.27 47.5617Z" fill="#23411C"/>
<path d="M165.001 43.6762C165.001 43.6762 165.926 46.1249 168.559 46.5065C168.559 46.5065 168.329 44.4277 165.001 43.6762Z" fill="#23411C"/>
<path d="M166.121 43.3625C166.121 43.3625 168.857 43.7507 170.546 41.5541C170.546 41.5541 168.502 40.7196 166.121 43.3625Z" fill="#23411C"/>
<path d="M170.039 60.6004C170.039 60.6004 166.511 62.1765 165.942 66.0654C165.942 66.0654 168.934 65.5378 170.039 60.6004Z" fill="#23411C"/>
<path d="M170.039 60.6004C170.039 60.6004 170.552 64.6352 173.932 66.2329C173.932 66.2329 174.232 63.021 170.039 60.6004Z" fill="#23411C"/>
<path d="M170.728 55.6962C170.728 55.6962 166.681 56.8641 165.533 61.0018C165.533 61.0018 168.856 60.889 170.728 55.6962Z" fill="#23411C"/>
<path d="M170.728 55.6961C170.728 55.6961 170.736 60.1574 174.191 62.4154C174.191 62.4154 174.953 58.9712 170.728 55.6961Z" fill="#23411C"/>
<path d="M170.546 50.4733C170.546 50.4733 166.678 52.2005 166.052 56.4626C166.052 56.4626 169.333 55.8853 170.546 50.4733Z" fill="#23411C"/>
<path d="M170.546 50.4733C170.546 50.4733 171.105 54.8964 174.81 56.6484C174.81 56.6484 175.139 53.1279 170.546 50.4733Z" fill="#23411C"/>
<path d="M169.481 46.5065C169.481 46.5065 166.116 49.171 166.47 53.468C166.47 53.468 169.525 52.071 169.481 46.5065Z" fill="#23411C"/>
<path d="M169.481 46.5065C169.481 46.5065 171.023 50.6575 175.013 51.4124C175.013 51.4124 174.54 47.9101 169.481 46.5065Z" fill="#23411C"/>
<path d="M231.703 71.7062C231.716 71.3263 236.031 74.2064 237.626 77.2658C240.208 82.2198 238.152 88.0481 236.178 87.4973C234.914 87.1456 234.555 89.4434 234.555 89.4434L222.26 78.8502C222.26 78.8502 226.775 68.9073 231.703 71.7062Z" fill="#2C3A64"/>
<path d="M201.534 130.046C201.534 130.046 199.097 129.54 198.54 130.046C197.982 130.552 195.341 133.409 195.907 134.346C196.471 135.284 199.184 133.57 199.749 133.409C200.313 133.246 201.889 132.591 201.889 132.591L201.534 130.046Z" fill="#FFB27D"/>
<path d="M227.422 221.703L230.033 222.737C230.033 222.737 241.378 205.995 242.775 191.266C243.024 188.636 242.94 186.09 242.401 183.735C242.401 183.735 242.513 183.062 242.706 181.871C242.795 181.315 242.906 180.646 243.032 179.878C243.402 177.63 243.908 174.554 244.488 171.05C245.823 162.989 247.552 152.684 248.896 145.109L248.193 144.868L240.578 142.253L239.005 136.936L233.334 135.347C233.334 135.347 232.068 137.983 230.936 150.438C230.727 152.072 230.537 153.872 230.395 155.826C229.954 161.789 229.921 169.185 230.935 177.642C231.193 179.807 231.522 182.041 231.929 184.338C232.229 186.022 232.272 188.314 232.148 190.949C231.575 202.989 227.422 221.703 227.422 221.703Z" fill="#233862"/>
<path d="M230.395 155.826L242.706 181.871C242.795 181.315 242.906 180.646 243.032 179.878C243.402 177.63 243.908 174.554 244.488 171.05C245.823 162.989 247.552 152.684 248.896 145.109L248.193 144.868L240.578 142.254L239.005 136.936L233.334 135.347C233.334 135.347 232.068 137.983 230.936 150.438C230.727 152.072 230.537 153.872 230.395 155.826Z" fill="#142443"/>
<path d="M235.81 138.69L236.095 136.088C240.871 137.439 253.628 132.317 253.628 132.317C253.628 132.317 258.254 136.644 257.647 147.017C257.35 152.078 256.809 173.588 256.243 179.954C256.038 182.262 255.859 183.903 255.787 184.558L255.786 184.565C255.762 184.766 255.828 184.955 255.925 185.129C256.757 186.632 257.446 188.198 258.011 189.801C263.563 205.54 257.156 224.923 257.156 224.923L255.494 224.21C255.494 224.21 251.849 202.639 248.887 193.109C248.385 191.493 247.903 190.222 247.46 189.464C246.172 187.252 244.978 183.637 243.893 179.34C241.842 171.214 240.193 160.643 239.094 152.483C238.942 152.49 235.81 138.69 235.81 138.69Z" fill="#233862"/>
<path d="M201.534 130.046L201.889 132.591C201.889 132.591 202.047 132.591 202.324 132.571C203.194 132.506 205.308 132.38 207.7 132.107C211.297 131.728 215.566 131.056 217.266 129.941C219.855 128.259 224.104 123.106 226.872 117.953C226.951 117.827 227.01 117.701 227.07 117.575C228.512 114.841 229.52 112.128 229.598 109.961C229.658 108.637 229.52 107.501 229.263 106.512C228.926 105.208 228.373 104.178 227.801 103.4C227.721 103.273 227.642 103.147 227.523 103.043C226.575 101.843 225.646 101.339 225.646 101.339C225.172 101.128 224.658 101.38 224.124 101.991V102.013C223.689 102.495 223.215 103.232 222.76 104.158C222.741 104.178 222.721 104.199 222.721 104.221C222.623 104.41 222.523 104.619 222.405 104.851C222.366 104.893 222.345 104.956 222.325 104.999C222.108 105.482 221.892 105.986 221.673 106.512C219.243 112.15 216.653 120.687 214.5 123.232C213.57 124.325 209.32 126.471 205.942 128.07C203.509 129.205 201.534 130.046 201.534 130.046Z" fill="#FFB27D"/>
<path d="M226.689 107.146C228.187 107.884 229.998 108.388 232.188 108.516C240.397 108.994 242.26 101.337 242.6 96.2539C241.417 95.7977 240.38 95.8408 239.783 95.8756C239.201 95.9088 238.593 95.9735 238.093 96.0382C237.087 95.4808 235.283 92.7698 234.242 88.2339L233.888 88.4081L227.964 91.3712C227.964 91.3712 228.593 93.4219 229.057 95.3846C229.421 96.9209 229.681 98.4057 229.463 98.8205C228.997 99.0229 228.716 99.149 228.716 99.149L228.714 99.1556C228.655 99.3166 227.367 102.809 226.689 107.146Z" fill="#FFB27D"/>
<path d="M224.636 112.876C224.698 113.05 224.765 113.221 224.84 113.396C226.92 118.16 230.768 137.897 230.768 137.897C230.221 141.446 255.83 137.202 255.897 133.97C256.798 130.544 252.696 125.041 250.382 122.278C250.092 121.931 249.832 121.56 249.605 121.167C249.035 120.183 248.671 119.07 248.558 117.908C248.102 113.329 248.275 109.035 248.238 106.426H248.237C247.786 106.069 247.348 105.741 246.941 105.427C246.319 104.944 245.768 104.493 245.363 104.035C244.917 103.536 244.638 103.025 244.607 102.449C244.582 102.013 244.596 101.566 244.638 101.118C244.657 100.908 244.683 100.697 244.713 100.486C245.032 98.2697 245.902 96.2589 245.902 96.2589C243.699 95.3099 239.783 95.8756 239.783 95.8756C239.783 95.8756 239.787 96.1062 239.789 96.4862C239.802 98.0075 239.789 101.918 239.331 102.658C238.757 103.579 228.264 107.615 227.71 106.364C227.165 105.135 228.658 99.3746 228.714 99.1556L228.716 99.149C225.203 100.617 223.947 101.85 223.947 101.85C226.064 103.31 222.999 108.254 224.636 112.876Z" fill="#E5E5E5"/>
<path d="M227.963 91.3729C227.963 91.3729 228.593 93.4219 229.057 95.3862C232.52 94.3593 233.571 90.4853 233.888 88.4098L227.963 91.3729Z" fill="#ED985F"/>
<path d="M227.235 93.543C227.235 93.543 235.519 91.5023 234.245 86.0323C232.971 80.564 233.183 76.617 227.841 77.6871C222.498 78.7589 221.96 81.1165 221.968 83.051C221.976 84.9871 225.047 93.9329 227.235 93.543Z" fill="#FFB27D"/>
<path d="M221.502 79.9469C222.392 77.9643 223.441 78.0688 224.096 78.4205C227.988 74.5897 231.806 77.7204 231.806 77.7204C233.275 81.4964 236.46 83.041 236.46 83.041C236.46 83.041 235.188 84.4264 231.499 84.3965C230.373 84.3865 229.24 83.8357 228.209 83.0775C230.197 85.2094 232.528 86.5052 232.528 86.5052C227.911 85.5661 224.815 79.8788 224.498 79.2733C224.107 79.8888 223.359 81.1961 223.296 82.3011C223.211 83.8025 223.696 86.7192 222.888 86.8287C222.888 86.8287 220.167 82.9199 221.502 79.9469Z" fill="#2C3A64"/>
<path d="M223.947 101.848C223.947 101.848 221.951 105.551 221.653 106.504C221.653 106.504 224.24 106.398 225.284 108.515C225.284 108.515 225.534 102.348 223.947 101.848Z" fill="#BFBEBE"/>
<path d="M237.664 131.265C242.714 131.209 246.992 125.628 249.605 121.167C249.035 120.183 248.671 119.07 248.558 117.908C248.102 113.329 248.275 109.035 248.238 106.426H248.236C247.786 106.069 247.348 105.741 246.941 105.427C246.319 104.944 245.768 104.493 245.363 104.035C241.227 111.474 230.815 131.343 237.664 131.265Z" fill="#BFBEBE"/>
<path d="M218.571 134.19L219.263 136.881C219.263 136.881 220.131 136.714 221.516 136.44C221.931 136.355 222.168 136.292 222.168 136.292C223.275 136.062 224.598 135.747 226.042 135.41H226.061C228.532 134.778 231.3 134.021 233.63 133.18C235.271 132.571 236.694 131.919 237.662 131.267C237.762 131.204 237.84 131.139 237.94 131.056C240.252 129.268 242.999 124.01 245.134 118.374C245.43 117.596 245.708 116.818 245.984 116.06C246.972 113.243 247.763 110.466 248.236 108.068C248.533 106.638 248.731 105.334 248.771 104.262C248.79 103.884 248.81 103.526 248.79 103.189C248.751 97.0901 245.904 96.249 245.904 96.249C245.845 96.2274 245.786 96.2075 245.708 96.1859C245.213 96.1013 244.699 96.4597 244.166 97.1532C243.494 98.0159 242.781 99.4244 242.051 101.128C240.924 103.841 239.738 107.353 238.631 110.846C238.019 112.758 237.425 114.673 236.833 116.44C236.496 117.512 236.161 118.522 235.844 119.446C235.232 121.213 234.678 122.643 234.184 123.547C233.867 124.136 232.958 124.958 231.753 125.882C229.658 127.501 226.596 129.457 223.926 131.056C222.819 131.728 221.772 132.339 220.903 132.843C219.5 133.664 218.571 134.19 218.571 134.19Z" fill="#FFB27D"/>
<path d="M242.058 101.137C245.862 100.022 248.798 103.182 248.798 103.182C248.749 97.0934 245.901 96.2589 245.901 96.2589C244.755 95.7545 243.428 97.8665 242.058 101.137Z" fill="#BFBEBE"/>
<path d="M247.493 226.369H260.646C260.646 226.369 260.962 224.235 260.275 222.617C259.617 221.065 258.585 220.358 258.832 218.478C257.997 219.394 256.634 220.421 254.732 220.149C254.5 220.55 253.227 222.7 252.449 223.296C251.59 223.953 247.756 223.719 247.493 226.369Z" fill="#233862"/>
<path d="M219.249 226.369H232.403C232.403 226.369 232.895 224.136 232.031 222.618C231.267 221.272 231.56 220.507 232.126 219.396C231.53 219.654 230.759 219.89 229.91 219.839C229.256 219.799 228.562 219.482 227.954 219.107C227.388 219.794 224.963 222.717 224.207 223.296C223.346 223.953 219.514 223.719 219.249 226.369Z" fill="#233862"/>
<path d="M200.863 140.085L197.309 141.636C196.342 142.058 195.834 143.176 196.083 144.226L195.701 144.392C194.256 139.045 196.019 133.654 199.989 131.922C200.545 131.68 201.119 131.519 201.698 131.443C203.526 131.186 205.43 131.71 207.142 132.847C208.768 133.923 210.22 135.556 211.264 137.603L210.741 137.832C210.226 136.901 209.127 136.483 208.162 136.903L204.604 138.454C204.326 137.732 203.665 137.294 202.973 137.294C202.753 137.294 202.529 137.341 202.315 137.434L201.822 137.648C200.929 138.039 200.497 139.134 200.863 140.085ZM217.788 146.662L214.662 138.547C214.255 137.489 213.164 136.939 212.15 137.236C211.115 135.166 209.688 133.482 208.071 132.301C206.369 131.053 204.456 130.365 202.568 130.373C201.571 130.378 200.578 130.579 199.63 130.992C195.185 132.929 193.194 138.905 194.825 144.774L194.582 144.88C194.582 144.88 193.822 144.823 192.547 144.823C188.521 144.823 179.371 145.392 172.95 150.137C172.95 150.137 172.548 150.594 172.532 151.292C172.523 151.523 172.56 151.782 172.668 152.057C172.668 152.057 182.972 144.956 192.505 152.254C193.089 152.701 193.657 153.114 194.211 153.497L195.065 155.719C196.484 159.4 200.472 161.177 203.933 159.667L212.663 155.861L214.483 155.067C217.563 153.724 219.052 149.94 217.788 146.662Z" fill="#233862"/>
<path d="M194.211 153.497C193.657 153.114 193.09 152.701 192.505 152.254C182.972 144.956 172.668 152.057 172.668 152.057C172.56 151.781 172.523 151.523 172.532 151.292C173.974 150.282 179.381 146.919 186.081 148.067C193.931 149.414 195.352 150.577 194.211 153.497Z" fill="#142443"/>
<path d="M214.483 155.067L212.663 155.861C215.39 154.277 212.013 147.582 210.037 143.163C208.062 138.745 205.073 140.764 205.073 140.764C204.389 139.282 202.921 139.362 202.921 139.362C202.845 137.935 201.822 137.648 201.822 137.648L202.315 137.434C202.529 137.341 202.753 137.295 202.973 137.295C203.665 137.295 204.326 137.733 204.604 138.454L208.162 136.903C209.127 136.483 210.226 136.901 210.741 137.832L211.265 137.603C210.22 135.556 208.768 133.923 207.142 132.847C205.43 131.71 203.526 131.186 201.698 131.443C201.984 131.197 202.292 130.854 202.568 130.373C204.456 130.365 206.369 131.053 208.071 132.301C209.688 133.482 211.115 135.166 212.15 137.236C213.164 136.939 214.255 137.489 214.662 138.547L217.788 146.662C219.052 149.94 217.563 153.724 214.483 155.067Z" fill="#142443"/>
<path d="M210.388 136.797C211.653 137.366 213.432 139.342 216.277 138.144C218.313 137.303 220.468 136.714 221.516 136.44C221.931 136.355 222.168 136.292 222.168 136.292L221.04 132.802C221.04 132.802 221.001 132.823 220.903 132.843C220.172 133.012 216.456 133.854 214.716 133.432C212.76 132.949 209.479 135.451 209.479 135.451C209.479 135.451 209.122 136.251 210.388 136.797Z" fill="#FFB27D"/>
<path d="M173.241 154.823C173.241 154.406 172.531 153.117 172.531 153.117C172.531 153.117 171.82 154.406 171.82 154.823C171.82 155.241 172.138 155.579 172.531 155.579C172.923 155.579 173.241 155.241 173.241 154.823Z" fill="#AFCDFB"/>
<path d="M173.241 159.753C173.241 159.335 172.531 158.046 172.531 158.046C172.531 158.046 171.82 159.335 171.82 159.753C171.82 160.17 172.138 160.508 172.531 160.508C172.923 160.508 173.241 160.17 173.241 159.753Z" fill="#AFCDFB"/>
<path d="M143.544 204.739C142.916 204.739 142.405 204.197 142.405 203.528C142.405 202.858 142.916 202.315 143.544 202.315H210.117C210.745 202.315 211.257 202.858 211.257 203.528C211.257 204.197 210.745 204.739 210.117 204.739H143.544Z" fill="black"/>
<path d="M149.711 226.369H148.779L152.114 204.739H154.338L149.711 226.369Z" fill="black"/>
<path d="M203.618 226.369H204.551L201.216 204.739H198.991L203.618 226.369Z" fill="black"/>
<path d="M201.771 212.341H151.558V210.821H201.771V212.341Z" fill="black"/>
<path d="M189.334 186.005C189.334 194.793 182.64 201.915 174.383 201.915C166.126 201.915 159.431 194.793 159.431 186.005H189.334Z" fill="#E63946"/>
<path d="M189.648 186.368H159.116C158.877 186.368 158.684 186.163 158.684 185.909C158.684 185.655 158.877 185.449 159.116 185.449H189.648C189.887 185.449 190.08 185.655 190.08 185.909C190.08 186.163 189.887 186.368 189.648 186.368Z" fill="#8E252D"/>
<path d="M179.79 202.315H168.948L169.288 200.942H179.478L179.79 202.315Z" fill="#8E252D"/>
<path d="M167.388 185.449C167.388 185.449 162.299 171.354 160.346 170.347C158.394 169.34 153.896 167.624 150.225 169.93C146.557 172.236 144.368 177.819 144.368 177.819C144.368 177.819 147.031 178.962 153.066 177.331C159.103 175.7 160.109 171.858 160.642 172.236C161.175 172.615 166.501 185.448 166.501 185.448L167.388 185.449Z" fill="#51724A"/>
<path d="M182.302 185.449C182.302 185.449 183.328 165.167 188.852 162.425C194.374 159.684 198.952 163.453 199.819 167.11C200.687 170.766 200.45 179.068 201.713 181.635C201.713 181.635 193.507 181 192.718 174.833C191.929 168.668 188.93 164.074 188.22 164.482C187.509 164.89 183.485 170.994 183.328 185.448L182.302 185.449Z" fill="#23411C"/>
<path d="M172.202 185.448C172.202 185.448 169.046 160.993 163.759 157.5C158.472 154.008 149.555 154.008 149.24 154.008C148.923 154.008 151.923 159.203 157.209 162.844C162.496 166.484 167.083 165.849 167.388 166.652C170.279 174.254 170.939 185.449 170.939 185.449L172.202 185.448Z" fill="#51724A"/>
<path d="M174.383 185.447C174.383 185.447 174.253 169.72 170.624 168.606C166.994 167.493 161.685 171.805 160.709 177.331C160.709 177.331 159.844 180.999 158.684 182.307C158.684 182.307 161.312 183.53 164.074 182.942C166.837 182.353 169.164 179.037 169.322 176.183C169.479 173.328 170.505 169.489 170.979 169.729C171.452 169.97 172.124 171.397 172.596 173.706C173.07 176.014 173.425 185.447 173.425 185.447H174.383Z" fill="#23411C"/>
<path d="M176.383 185.449C176.383 185.449 174.253 167.241 175.359 163.294C176.463 159.347 181.829 155.989 185.774 155.821C185.774 155.821 185.379 160.858 184.354 164.05C183.328 167.241 176.383 167.972 176.226 169.454C176.068 170.934 177.213 185.448 177.213 185.448L176.383 185.449Z" fill="#51724A"/>
<path d="M178.87 185.447C178.87 185.447 177.833 179.163 177.981 177.651C178.129 176.14 179.698 173.622 180.911 172.867C180.911 172.867 180.822 176.361 181.385 177.778C181.946 179.194 178.84 182.249 178.9 182.69C178.959 183.131 179.372 185.447 179.372 185.447H178.87Z" fill="#23411C"/>
<path d="M231.703 71.7062C231.703 71.7062 232.767 68.3881 237.224 69.0484C241.682 69.7087 242.591 74.1666 245.427 75.8838C248.511 77.7519 250.201 81.1148 249.605 85.533C249.145 88.959 242.795 91.3082 240.481 89.8598C237.67 88.0996 238.495 86.6114 239.48 83.6383C241.456 77.6872 236.039 72.1061 233.161 73.279C230.284 74.452 231.703 71.7062 231.703 71.7062Z" fill="#2C3A64"/>
<path d="M299.882 196.379V220.859C299.882 223.797 297.621 226.203 294.86 226.203H279.842C277.079 226.203 274.818 223.797 274.818 220.859V196.379H299.882Z" fill="#E63946"/>
<path d="M282.887 196.406C282.865 196.215 280.484 177.232 271.223 167.815L271.472 167.536C280.829 177.049 283.224 196.165 283.247 196.358L282.887 196.406Z" fill="#51724A"/>
<path d="M287.168 196.387C286.782 184.318 289.764 159.071 289.794 158.818L290.153 158.866C290.123 159.12 287.145 184.336 287.532 196.376L287.168 196.387Z" fill="#51724A"/>
<path d="M292.805 196.399L292.445 196.364C292.956 190.521 296.462 187.117 299.316 185.288C302.395 183.316 305.396 182.708 305.428 182.703L305.493 183.082C305.463 183.088 302.517 183.686 299.492 185.625C296.715 187.407 293.302 190.722 292.805 196.399Z" fill="#51724A"/>
<path d="M272.527 168.966C272.527 168.966 271.767 161.774 268.314 161.663C264.86 161.552 261.443 162.33 261.443 162.33C261.443 162.33 263.953 163.758 265.139 165.308C266.326 166.859 272.527 168.966 272.527 168.966Z" fill="#51724A"/>
<path d="M274.767 171.976C274.767 171.976 270.442 171.312 268.836 172.649C267.232 173.985 267.79 178.068 267.79 178.068C267.79 178.068 269.884 177.474 271.348 176.434C272.813 175.395 273.51 174.805 274.138 173.391C274.767 171.976 274.767 171.976 274.767 171.976Z" fill="#51724A"/>
<path d="M283.068 195.873C283.068 195.873 277.254 192.391 274.277 193.351C271.301 194.314 269.98 200.452 269.98 200.452C269.98 200.452 273.267 200.835 275.891 200.215C278.515 199.594 279.814 199.163 281.442 197.519C283.068 195.873 283.068 195.873 283.068 195.873Z" fill="#23411C"/>
<path d="M289.973 158.994C290.097 159.098 288.09 155.262 285.945 155.709C283.801 156.153 281.236 158.325 281.236 158.325C281.236 158.325 284.272 158.771 285.605 159.216C286.939 159.661 289.189 158.325 289.973 158.994Z" fill="#23411C"/>
<path d="M304.71 183.146C304.713 183.297 303.193 179.09 304.699 178.31C306.207 177.529 309.137 177.935 309.137 177.935C309.137 177.935 307.748 179.92 307.308 180.996C306.868 182.073 304.689 182.181 304.71 183.146Z" fill="#51724A"/>
<path d="M289.973 158.955C289.973 158.955 289.939 157.303 291.718 156.412C291.718 156.412 292.101 157.489 291.718 158.268C291.334 159.048 289.973 158.955 289.973 158.955Z" fill="#23411C"/>
<path d="M295.973 188.25C295.973 188.25 294.467 187.845 294.135 185.783C294.135 185.783 295.212 185.676 295.815 186.277C296.42 186.879 295.973 188.25 295.973 188.25Z" fill="#51724A"/>
<path d="M289.835 160.301C289.835 160.301 291.403 159.632 292.415 159.78C293.427 159.929 294.439 162.675 294.439 162.675C294.439 162.675 292.345 162.639 291.648 162.342C290.951 162.045 290.461 160.226 289.835 160.301Z" fill="#23411C"/>
<path d="M299.559 185.506C299.559 185.506 300.964 184.505 301.982 184.425C303 184.346 304.526 186.808 304.526 186.808C304.526 186.808 302.473 187.236 301.732 187.1C300.992 186.964 300.158 185.295 299.559 185.506Z" fill="#51724A"/>
<path d="M289.347 164.523C289.347 164.523 286.626 162.352 284.463 162.675C282.301 162.999 280.207 165.968 280.207 165.968C280.207 165.968 282.648 166.785 284.01 166.562C285.369 166.34 287.148 165.393 287.619 164.892C288.09 164.391 289.347 164.523 289.347 164.523Z" fill="#51724A"/>
<path d="M288.919 163.957C288.919 163.957 289.35 162.658 288.542 161.821C287.734 160.984 287.488 160.734 287.488 160.734C287.488 160.734 287.256 161.703 287.496 162.484C287.736 163.266 288.919 163.957 288.919 163.957Z" fill="#23411C"/>
<path d="M288.876 169.444C288.876 169.444 293.269 166.989 296.148 168.714C299.024 170.441 299.966 174.504 299.966 174.504C299.966 174.504 294.891 174.393 293.218 173.001C291.543 171.609 291.679 169.605 290.931 169.494C290.182 169.383 288.876 169.444 288.876 169.444Z" fill="#51724A"/>
<path d="M288.026 179.447C288.026 179.447 289.334 176.221 291.5 175.835C293.667 175.447 295.75 177.131 295.75 177.131C295.75 177.131 293.082 179.331 291.67 179.355C290.257 179.38 289.54 178.284 289.108 178.557C288.678 178.833 288.026 179.447 288.026 179.447Z" fill="#51724A"/>
<path d="M294.135 190.707C294.135 190.707 299.966 187.448 303.784 189.738C307.603 192.029 308.851 197.421 308.851 197.421C308.851 197.421 302.119 197.273 299.897 195.427C297.675 193.58 297.856 190.921 296.863 190.773C295.87 190.626 294.135 190.707 294.135 190.707Z" fill="#51724A"/>
<path d="M303.419 183.372C303.419 183.372 307.815 180.918 310.693 182.644C313.57 184.369 314.511 188.434 314.511 188.434C314.511 188.434 309.436 188.323 307.762 186.931C306.089 185.539 306.224 183.535 305.476 183.423C304.728 183.311 303.419 183.372 303.419 183.372Z" fill="#51724A"/>
<path d="M288.489 171.812C288.489 171.812 288.077 169.291 285.887 168.966C283.695 168.641 281.515 171.812 281.515 171.812C281.515 171.812 283.556 172.537 284.707 172.537C285.857 172.537 287.028 170.624 287.594 171.042C288.16 171.462 288.489 171.812 288.489 171.812Z" fill="#23411C"/>
<path d="M288.16 182.579C288.16 182.579 284.766 178.26 280.254 180.21C275.741 182.159 274.871 190.758 274.871 190.758C274.871 190.758 279.51 189.748 281.704 188.397C283.897 187.049 284.145 182.03 285.656 182.164C287.168 182.299 288.16 182.579 288.16 182.579Z" fill="#51724A"/>
<path d="M294.442 190.826C294.442 190.826 294.8 188.11 293.037 187.204C291.275 186.3 288.542 189.018 288.542 189.018C288.542 189.018 290.065 190.299 291.038 190.596C292.013 190.894 293.539 189.217 293.899 189.798C294.261 190.377 294.442 190.826 294.442 190.826Z" fill="#23411C"/>
<path d="M65.908 198.317C65.908 198.317 70.427 192.708 66.1866 189.144C66.1866 189.144 63.0892 187.149 60.5637 187.311C60.5637 187.311 64.1422 193.697 62.9846 194.331C61.8267 194.966 59.479 186.91 59.479 186.91C59.479 186.91 52.4302 186.183 50.1628 187.343C50.1628 187.343 56.1885 192.59 54.9194 192.902C53.6503 193.214 47.1418 188.064 47.1418 188.064C47.1418 188.064 40.5815 189.252 40.9312 193.511C41.2811 197.77 43.5415 199.084 44.535 198.971C45.5287 198.858 51.3402 196.497 51.467 197.363C51.5936 198.23 48.0952 201.06 45.6454 201.193C45.6454 201.193 50.2705 206.621 53.3444 205.053C56.4184 203.487 56.6808 201.005 58.5968 200.073C60.513 199.142 62.1487 199.144 61.3577 200.094C60.5665 201.043 57.0988 201.967 56.0029 204.03C54.9071 206.092 53.9239 207.484 57.1042 206.975C60.2846 206.465 65.4541 203.988 65.6811 201.153C65.908 198.317 65.908 198.317 65.908 198.317Z" fill="#23411C"/>
<path d="M44.1547 193.625C44.1547 193.625 61.973 192.895 65.908 198.317C65.908 198.317 66.7783 201.091 69.4561 203.616L69.8735 204.826C69.8735 204.826 66.7859 201.362 65.6811 201.153C65.6811 201.153 67.4088 194.435 44.1547 193.625Z" fill="#23411C"/>
<path d="M69.4561 203.616C69.4561 203.616 73.2807 206.626 73.5464 212.003L72.8522 212.069C72.8522 212.069 71.6306 206.51 69.4229 204.335C67.215 202.16 69.4561 203.616 69.4561 203.616Z" fill="#23411C"/>
<path d="M80.3862 196.457C80.3862 196.457 75.2086 193.372 77.6249 189.184C77.6249 189.184 79.5578 186.612 81.6288 185.952C81.6288 185.952 80.5243 192.195 81.6288 192.343C82.7333 192.491 82.3881 185.29 82.3881 185.29C82.3881 185.29 87.8419 182.5 89.9818 182.72C89.9818 182.72 86.5992 188.817 87.7037 188.67C88.8084 188.524 92.6052 182.352 92.6052 182.352C92.6052 182.352 98.197 181.25 99.0944 184.778C99.9919 188.303 98.5422 190.065 97.7136 190.286C96.8853 190.506 91.5697 190.433 91.7078 191.168C91.8458 191.902 95.4356 193.078 97.4377 192.416C97.4377 192.416 95.2285 198.219 92.3291 197.926C89.4296 197.632 88.5323 195.722 86.7374 195.575C84.9425 195.429 83.6308 195.943 84.5282 196.457C85.4257 196.972 88.4632 196.625 89.9129 197.937C91.3626 199.248 92.5362 200.056 89.8438 200.643C87.1515 201.231 82.3191 200.864 81.3527 198.661C80.3862 196.457 80.3862 196.457 80.3862 196.457Z" fill="#51724A"/>
<path d="M96.54 185.879C96.54 185.879 82.0429 190.875 80.3862 196.458C80.3862 196.458 80.4553 198.954 79.0054 201.82V202.921C79.0054 202.921 80.5243 199.175 81.3527 198.661C81.3527 198.661 78.1081 193.813 96.54 185.879Z" fill="#23411C"/>
<path d="M79.0054 201.82C79.0054 201.82 76.7699 205.431 78.0444 209.83L78.6196 209.665C78.6196 209.665 78.0612 204.821 79.2309 202.385C80.4006 199.95 79.0054 201.82 79.0054 201.82Z" fill="#23411C"/>
<path d="M70.2716 185.355C70.2716 185.355 79.7478 179.707 75.3255 172.044C75.3255 172.044 71.7878 167.339 67.9974 166.128C67.9974 166.128 70.019 177.556 67.9974 177.824C65.9758 178.095 66.6076 164.918 66.6076 164.918C66.6076 164.918 56.6259 159.808 52.7092 160.213C52.7092 160.213 58.9002 171.372 56.8786 171.103C54.857 170.833 47.9079 159.54 47.9079 159.54C47.9079 159.54 37.6737 157.524 36.0311 163.978C34.3885 170.43 37.0419 173.657 38.558 174.06C40.0743 174.463 49.8031 174.33 49.5505 175.674C49.2977 177.018 42.7275 179.17 39.0635 177.96C39.0635 177.96 43.1065 188.58 48.4132 188.043C53.72 187.505 55.3625 184.009 58.6475 183.741C61.9326 183.472 64.3332 184.413 62.6907 185.355C61.0481 186.296 55.4888 185.662 52.8355 188.063C50.1821 190.463 48.0342 191.941 52.9617 193.018C57.8894 194.093 66.7339 193.421 68.5027 189.388C70.2716 185.355 70.2716 185.355 70.2716 185.355Z" fill="#51724A"/>
<path d="M40.7059 165.994C40.7059 165.994 67.2393 175.137 70.2715 185.355C70.2715 185.355 70.1453 189.926 72.7986 195.168V197.186C72.7986 197.186 70.019 190.329 68.5027 189.388C68.5027 189.388 74.4412 180.514 40.7059 165.994Z" fill="#23411C"/>
<path d="M72.7986 195.168C72.7986 195.168 76.8906 201.781 74.5578 209.83L73.5051 209.528C73.5051 209.528 74.5268 200.663 72.3861 196.205C70.2452 191.746 72.7986 195.168 72.7986 195.168Z" fill="#23411C"/>
<path d="M52.0289 207.532C52.0289 218.44 60.3396 227.283 70.591 227.283C72.7314 227.283 74.7868 226.898 76.6996 226.188C83.9504 223.5 89.1531 216.162 89.1531 207.532H52.0289Z" fill="#8E252D"/>
<path d="M64.2472 207.532C64.2472 214.931 65.9131 222.469 71.5741 225.851C72.5152 226.414 75.6662 225.805 76.6996 226.188C83.9504 223.5 89.1531 216.162 89.1531 207.532H64.2472Z" fill="#E63946"/>
<path d="M51.7723 228.289H89.4096C89.4096 227.615 89.1531 227.006 88.7389 226.565C88.3246 226.123 87.7516 225.851 87.1191 225.851H54.062C52.7977 225.851 51.7723 226.943 51.7723 228.289Z" fill="#8E252D"/>
<path d="M69.4068 228.289H89.4096C89.4096 227.615 89.1531 227.006 88.7389 226.565C88.3246 226.123 87.7516 225.851 87.1191 225.851H71.6966C70.4324 225.851 69.4068 226.943 69.4068 228.289Z" fill="#E63946"/>
<path d="M140.559 117.626C140.559 117.626 139.597 108.549 143.289 100.898C143.68 100.088 144.651 100.292 144.812 101.22C145.386 104.548 145.958 111.197 143.312 118.26C139.547 128.311 140.559 117.626 140.559 117.626Z" fill="#51724A"/>
<path d="M144.966 119.421C144.966 119.421 145.57 110.308 150.504 103.497C151.027 102.776 151.948 103.164 151.947 104.108C151.944 107.493 151.373 114.14 147.567 120.576C142.151 129.734 144.966 119.421 144.966 119.421Z" fill="#51724A"/>
<path d="M142.511 117.606C142.511 117.606 142.528 108.471 147.015 101.319C147.491 100.559 148.434 100.881 148.493 101.822C148.708 105.198 148.565 111.872 145.18 118.57C140.362 128.098 142.511 117.606 142.511 117.606Z" fill="#23411C"/>
<path d="M145.411 118.067C145.411 118.067 147.106 111.167 151.813 106.696C152.312 106.222 152.965 106.661 152.837 107.385C152.377 109.981 151.041 114.996 147.251 119.352C141.857 125.55 145.411 118.067 145.411 118.067Z" fill="#23411C"/>
<path d="M101.346 215.125C101.346 215.125 99.0199 217.383 99.4736 218.989C99.9288 220.593 102.027 221.663 102.311 223.626C102.595 225.587 103.73 226.657 104.751 226.657C105.771 226.657 109.619 226.657 109.619 226.657C109.619 226.657 110.37 225.277 108.556 224.86C106.739 224.444 106.055 222.14 106.169 219.999C106.282 217.859 105.999 215.006 105.999 215.006L102.141 214.055L101.346 215.125Z" fill="#233862"/>
<path d="M121.035 216.316C121.035 216.316 120.198 225.886 121.219 226.422L134.288 226.393C134.288 226.393 134.288 224.787 132.189 224.431C130.089 224.074 126.402 222.767 125.778 219.853C125.154 216.942 121.035 216.316 121.035 216.316Z" fill="#233862"/>
<path d="M131.706 137.552C131.706 137.552 135.474 150.033 135.716 154.282C135.958 158.531 128.513 214.641 128.213 216.598C127.931 218.445 125.778 219.621 125.778 219.621C125.778 219.621 124.788 220.243 123.374 219.819C121.412 219.228 120.792 218.523 120.792 218.523C120.792 218.523 117.859 178.504 119.674 164.21C121.489 149.915 121.511 137.552 121.511 137.552H131.706Z" fill="#142443"/>
<path d="M115.742 137.18C115.742 137.18 109.995 145.386 109.458 150.934C108.922 156.48 108.618 175.966 107.477 181.373C106.335 186.781 102.141 197.187 102.141 214.055C102.141 214.055 102.576 215.022 103.923 215.537C104.354 215.701 104.931 215.862 105.49 215.998C106.6 216.268 107.739 215.691 108.245 214.606C111.081 208.53 120.114 188.937 120.577 184.87C120.904 181.992 123.756 162.942 129.977 151.763C131.47 149.081 129.06 138.408 129.06 138.408L115.742 137.18Z" fill="#233862"/>
<path d="M114.897 77.7934C114.759 77.4383 113.147 73.6573 107.678 75.7212C107.678 75.7212 110.453 74.953 111.359 76.0414C111.359 76.0414 109 75.2185 107.704 76.345C106.41 77.4715 106.532 80.6636 106.848 81.5976C107.165 82.5317 109.03 85.1879 110.052 85.0502C110.441 84.9987 110.838 84.8013 111.184 84.5773C111.084 85.1066 111.005 85.679 110.955 86.3011C110.494 92.0548 114.37 95.8624 116.011 94.5733C117.064 93.7471 118.158 95.796 118.158 95.796L126.001 80.9357C126.001 80.9357 118.522 73.216 114.897 77.7934Z" fill="#2C3A64"/>
<path d="M129.61 112.795C122.181 116.435 116.596 103.584 117.081 103.453C117.825 102.53 118.59 99.2485 118.046 94.5235L118.431 94.5517L124.891 95.076C124.891 95.076 124.992 97.2742 125.215 99.3249C125.362 100.672 125.564 101.956 125.826 102.517C125.904 102.683 127.304 102.905 127.308 102.908C127.417 103.04 131.592 111.824 129.61 112.795Z" fill="#FFB27D"/>
<path d="M134.876 116.788C135.357 118.72 135.752 120.45 135.947 121.616C136.84 126.992 136.391 154.318 136.391 154.318C123.283 159.637 107.589 152.79 107.589 152.79C107.101 147.695 108.967 136.364 110.101 126.282C110.378 123.81 110.611 121.416 110.757 119.206C110.883 117.279 111.089 115.567 111.354 114.046C113.239 103.27 118.085 102.087 118.085 102.087C120.351 106.912 127.499 108.211 127.499 108.211C127.588 105.495 126.787 102.036 126.787 102.036C127.691 102.155 130.744 102.565 131.569 103.003C134.017 104.302 139.82 115.191 139.82 115.191C139.82 115.191 141.323 114.464 134.876 116.788Z" fill="#E5E5E5"/>
<path d="M124.892 95.0776C124.892 95.0776 124.991 97.2743 125.215 99.3249C121.674 99.6899 119.414 96.4082 118.431 94.5533L124.892 95.0776Z" fill="#ED985F"/>
<path d="M126.288 96.8611C126.288 96.8611 117.953 98.132 117.312 92.4281C116.669 86.7242 115.162 83.0461 120.457 81.9942C125.75 80.9407 127.032 82.978 127.668 84.8246C128.304 86.6711 128.438 96.385 126.288 96.8611Z" fill="#FFB27D"/>
<path d="M127.066 81.6856C125.583 80.1426 124.649 80.6503 124.161 81.2393C119.289 79.0991 116.802 83.562 116.802 83.562C116.699 87.7312 114.268 90.4372 114.268 90.4372C114.268 90.4372 115.905 91.2634 119.304 89.8034C120.343 89.3571 121.207 88.3932 121.907 87.2717C120.778 90.0722 119.055 92.2124 119.055 92.2124C123.009 89.5264 123.98 82.9067 124.072 82.2082C124.638 82.6412 125.765 83.5968 126.19 84.6255C126.768 86.0224 127.289 88.9888 128.073 88.7798C128.073 88.7798 129.288 84 127.066 81.6856Z" fill="#2C3A64"/>
<path d="M118.049 100.392C118.049 100.392 117.072 101.273 117.069 102.58C117.069 102.58 118.595 107.151 127.499 108.211C127.499 108.211 118.989 103.791 118.049 100.392Z" fill="#EAC3A2"/>
<path d="M125.614 102.251C125.614 102.251 127.563 106.006 127.499 108.211C127.499 108.211 127.652 103.2 127.334 102.036C127.016 100.873 125.281 99.8956 125.281 99.8956L125.614 102.251Z" fill="#EAC3A2"/>
<path d="M123.665 93.8681C123.742 93.8681 124.454 94.5666 125.396 94.3709C126.338 94.1751 126.328 93.3671 126.328 93.3671C126.328 93.3671 125.686 93.2543 125.122 93.3671C124.556 93.4783 123.665 93.8681 123.665 93.8681Z" fill="white"/>
<path d="M139.078 118.691C139.078 118.691 140.038 109.613 136.347 101.963C135.956 101.152 134.985 101.356 134.824 102.285C134.25 105.613 133.678 112.261 136.324 119.325C140.088 129.376 139.078 118.691 139.078 118.691Z" fill="#51724A"/>
<path d="M134.67 120.486C134.67 120.486 134.066 111.373 129.132 104.563C128.608 103.841 127.688 104.229 127.688 105.173C127.691 108.556 128.262 115.206 132.069 121.641C137.486 130.798 134.67 120.486 134.67 120.486Z" fill="#51724A"/>
<path d="M137.124 118.671C137.124 118.671 137.107 109.535 132.621 102.383C132.146 101.624 131.202 101.944 131.141 102.887C130.928 106.263 131.071 112.938 134.456 119.634C139.272 129.163 137.124 118.671 137.124 118.671Z" fill="#23411C"/>
<path d="M142.122 119.162C142.122 119.162 143.741 110.19 140.618 102.26C140.286 101.419 139.302 101.541 139.076 102.454C138.26 105.726 137.206 112.307 139.33 119.567C142.352 129.898 142.122 119.162 142.122 119.162Z" fill="#23411C"/>
<path d="M134.224 119.133C134.224 119.133 132.531 112.231 127.824 107.761C127.325 107.287 126.67 107.725 126.799 108.45C127.258 111.046 128.595 116.06 132.386 120.417C137.779 126.615 134.224 119.133 134.224 119.133Z" fill="#23411C"/>
<path d="M144.6 134.169H135.345C131.502 134.169 128.357 130.822 128.357 126.733V117.752C128.357 117.538 128.521 117.362 128.723 117.362H151.588V126.733C151.588 130.822 148.443 134.169 144.6 134.169Z" fill="#233862"/>
<path d="M116.479 113.009C113.838 111.756 111.962 114.341 112.457 117.374C113.824 125.79 117.076 137.867 119.739 138.728C123.74 140.019 138.126 130.217 138.126 130.217L136.477 127.67C136.477 127.67 124.169 131.554 123.952 130.95C123.735 130.346 119.357 114.373 119.357 114.373L116.479 113.009Z" fill="#FFB27D"/>
<path d="M136.477 127.67C136.477 127.67 136.455 126.894 137.313 126.467C138.172 126.041 139.017 125.865 139.715 125.339C140.414 124.815 140.429 125.474 140.127 125.991C139.824 126.509 139.193 126.705 139.62 126.856C140.047 127.006 141.759 125.912 143.102 125.43C143.824 125.173 143.577 128.138 142.865 128.722C142.246 129.228 140.584 130.169 139.201 130.316C137.481 130.501 136.232 131.463 136.232 131.463L136.477 127.67Z" fill="#FFB27D"/>
<path d="M117.672 106.568C117.672 106.568 114.131 108.005 112.896 109.971C111.66 111.937 111.509 118.217 113.422 126.379C113.422 126.379 120.729 123.916 124.501 119.736C124.501 119.736 121.562 105.387 117.672 106.568Z" fill="#BFBEBE"/>
<path d="M207.111 36.5006C207.111 33.5325 209.372 31.1269 212.161 31.1269C214.949 31.1269 217.21 33.5325 217.21 36.5006C217.21 39.4687 214.949 41.8727 212.161 41.8727C209.372 41.8727 207.111 39.4687 207.111 36.5006Z" fill="#F9DDBF"/>
<path d="M211.727 1.57208V20.7178C211.727 21.5789 211.751 22.3885 211.774 23.1467C211.774 23.1716 211.774 23.1716 211.774 23.1965C211.774 23.3989 211.799 23.6013 211.799 23.8037C211.941 26.4101 212.226 28.2301 212.56 28.2301H212.679C213.059 28.2301 213.368 26.1314 213.486 23.223C213.51 22.4383 213.535 21.6038 213.535 20.7178V1.77448L211.727 1.57208Z" fill="black"/>
<path d="M212.161 23.1235C205.594 23.1235 200.271 29.1128 200.271 36.5007H224.049C224.049 29.1128 218.727 23.1235 212.161 23.1235Z" fill="#142443"/>
<path d="M213.107 23.2861C212.766 23.2065 212.418 23.165 212.063 23.165C207.786 23.165 204.317 29.136 204.317 36.5007H206.406C206.406 29.7449 209.323 24.1638 213.107 23.2861Z" fill="white"/>
</svg>
