<svg width="722" height="79" viewBox="0 0 722 79" fill="none" xmlns="http://www.w3.org/2000/svg">
<g clip-path="url(#clip0)">
<rect width="722" height="79" fill="white"/>
<path d="M0 47.8906L20.0806 50.1224C40.086 52.4007 80.2473 56.8643 120.333 63.5597C160.419 70.2086 200.581 79.0427 240.667 76.4855C280.753 73.9282 320.914 59.9795 361 56.7248C401.086 53.4701 441.247 60.9094 481.333 67.8838C521.419 74.8581 561.581 81.3675 601.667 78.9033C641.753 76.3925 681.914 64.9545 701.919 59.1891L722 53.4701V0H701.919C681.914 0 641.753 0 601.667 0C561.581 0 521.419 0 481.333 0C441.247 0 401.086 0 361 0C320.914 0 280.753 0 240.667 0C200.581 0 160.419 0 120.333 0C80.2473 0 40.086 0 20.0806 0H0V47.8906Z" fill="#012346"/>
<path d="M0 68.8137L20.0806 65.6985C40.086 62.6298 80.2473 56.3993 120.333 51.0058C160.419 45.5658 200.581 40.9162 240.667 43.613C280.753 46.3562 320.914 56.3993 361 55.7019C401.086 55.0045 441.247 43.5665 481.333 44.078C521.419 44.6359 561.581 57.1898 601.667 57.1898C641.753 57.1898 681.914 44.6359 701.919 38.359L722 32.0821V0H701.919C681.914 0 641.753 0 601.667 0C561.581 0 521.419 0 481.333 0C441.247 0 401.086 0 361 0C320.914 0 280.753 0 240.667 0C200.581 0 160.419 0 120.333 0C80.2473 0 40.086 0 20.0806 0H0V68.8137Z" fill="#083B71"/>
<path d="M0 26.5026L20.0806 29.6178C40.086 32.6865 80.2473 38.9169 120.333 41.9391C160.419 44.9614 200.581 44.7754 240.667 46.4957C280.753 48.2161 320.914 51.7497 361 54.1675C401.086 56.5853 441.247 57.7942 481.333 53.3771C521.419 48.96 561.581 38.9169 601.667 35.1973C641.753 31.4776 681.914 34.0814 701.919 35.4297L722 36.7316V0H701.919C681.914 0 641.753 0 601.667 0C561.581 0 521.419 0 481.333 0C441.247 0 401.086 0 361 0C320.914 0 280.753 0 240.667 0C200.581 0 160.419 0 120.333 0C80.2473 0 40.086 0 20.0806 0H0V26.5026Z" fill="#0E4E91"/>
<path d="M0 24.6427L20.0806 23.8058C40.086 22.9224 80.2473 21.2485 120.333 19.3887C160.419 17.5289 200.581 15.4831 240.667 14.5532C280.753 13.6232 320.914 13.8092 361 17.9938C401.086 22.1785 441.247 30.3617 481.333 34.1744C521.419 37.987 561.581 37.3361 601.667 34.4068C641.753 31.4776 681.914 26.1771 701.919 23.5733L722 20.9231V0H701.919C681.914 0 641.753 0 601.667 0C561.581 0 521.419 0 481.333 0C441.247 0 401.086 0 361 0C320.914 0 280.753 0 240.667 0C200.581 0 160.419 0 120.333 0C80.2473 0 40.086 0 20.0806 0H0V24.6427Z" fill="#135EAD"/>
</g>
<defs>
<clipPath id="clip0">
<rect width="722" height="79" fill="white"/>
</clipPath>
</defs>
</svg>
