<svg width="733" height="541" viewBox="0 0 733 541" fill="none" xmlns="http://www.w3.org/2000/svg">
<path d="M733 368.93C733 570.816 578.67 536.468 328.026 536.468C50.2406 549.064 -11.8765 548.464 1.74697 354.385C46.4938 118.352 255.606 -48.5297 483.706 12.764C604.453 45.2105 707.983 150.009 733 368.93Z" fill="#FFE8D6"/>
<path d="M392.755 537.051C412.759 537.051 428.975 521.302 428.975 501.875C428.975 482.448 412.759 466.7 392.755 466.7C372.751 466.7 356.535 482.448 356.535 501.875C356.535 521.302 372.751 537.051 392.755 537.051Z" fill="#E63946"/>
<path d="M388.875 134.83C332.269 135.218 285.92 179.893 285.115 234.863C285.108 235.371 285.105 238.939 285.105 243.607C285.105 250.45 287.905 257.013 292.887 261.852C297.87 266.692 304.628 269.411 311.675 269.412H311.675C315.168 269.411 318.626 268.742 321.853 267.442C325.08 266.143 328.011 264.239 330.48 261.838C332.949 259.438 334.906 256.589 336.241 253.454C337.575 250.319 338.261 246.959 338.258 243.567C338.255 240.392 338.253 238.194 338.253 238.06C338.251 229.564 340.527 221.214 344.856 213.832C349.185 206.449 355.418 200.288 362.942 195.955C370.466 191.621 379.022 189.265 387.769 189.117C396.515 188.969 405.151 191.035 412.826 195.111C420.501 199.187 426.951 205.134 431.542 212.366C436.133 219.597 438.706 227.865 439.009 236.355C439.312 244.846 437.334 253.267 433.269 260.79C429.204 268.312 423.193 274.678 415.827 279.26L415.836 279.271C415.836 279.271 378.019 302.915 366.49 335.349L366.5 335.352C364.472 341.996 363.445 348.891 363.45 355.821C363.45 358.669 363.622 383.595 363.956 403.826C364.072 410.806 367.01 417.462 372.135 422.358C377.259 427.254 384.16 429.997 391.349 429.995H391.349C394.961 429.995 398.537 429.301 401.872 427.953C405.207 426.606 408.235 424.631 410.781 422.143C413.327 419.655 415.342 416.702 416.709 413.455C418.075 410.208 418.768 406.731 418.745 403.223C418.629 384.695 418.567 363.122 418.567 361.556C418.567 341.64 438.35 321.796 454.601 308.856C473.313 293.955 486.779 273.648 492.188 250.741C493.385 246.025 494.045 241.195 494.156 236.339C494.156 222.947 491.427 209.687 486.127 197.323C480.827 184.959 473.06 173.736 463.274 164.301C453.487 154.865 441.875 147.403 429.107 142.345C416.338 137.287 402.665 134.733 388.875 134.83V134.83Z" fill="#E63946"/>
<path d="M547.914 291.584C560.96 291.584 571.536 281.313 571.536 268.644C571.536 255.974 560.96 245.703 547.914 245.703C534.868 245.703 524.293 255.974 524.293 268.644C524.293 281.313 534.868 291.584 547.914 291.584Z" fill="#142443"/>
<path d="M504.264 527.973H494.611L490.019 491.813H504.266L504.264 527.973Z" fill="#A0616A"/>
<path d="M487.716 525.294H506.333V536.678H475.994C475.994 535.183 476.297 533.702 476.887 532.321C477.476 530.94 478.339 529.685 479.427 528.628C480.516 527.571 481.808 526.733 483.23 526.161C484.652 525.588 486.177 525.294 487.716 525.294Z" fill="#142443"/>
<path d="M579.066 527.973H569.413L564.82 491.813H579.068L579.066 527.973Z" fill="#A0616A"/>
<path d="M562.518 525.294H581.135V536.678H550.796C550.796 535.183 551.099 533.702 551.688 532.321C552.277 530.94 553.141 529.685 554.229 528.628C555.318 527.571 556.61 526.733 558.032 526.161C559.454 525.588 560.978 525.294 562.518 525.294V525.294Z" fill="#142443"/>
<path d="M544.325 291.718C555.005 291.718 563.664 283.309 563.664 272.937C563.664 262.564 555.005 254.155 544.325 254.155C533.644 254.155 524.986 262.564 524.986 272.937C524.986 283.309 533.644 291.718 544.325 291.718Z" fill="#FFB27D"/>
<path d="M555.851 352.308L564.504 332.999C566.606 328.47 567.208 323.419 566.228 318.543C565.248 313.666 562.734 309.206 559.032 305.777C558.272 305.047 557.465 304.365 556.615 303.735C552.345 300.491 547.083 298.723 541.663 298.711C538.018 298.725 534.419 299.502 531.112 300.99C530.828 301.112 530.553 301.242 530.269 301.372C529.726 301.624 529.191 301.9 528.671 302.183C525.281 304.073 522.396 306.71 520.249 309.882C518.101 313.054 516.752 316.672 516.309 320.443L512.49 351.52C511.529 353.959 477.262 442.051 489.246 509.305C489.374 510.023 489.735 510.683 490.276 511.188C490.817 511.692 491.51 512.016 492.254 512.111L504.404 513.717C505.291 513.835 506.191 513.622 506.923 513.121C507.655 512.62 508.164 511.868 508.348 511.017L528.734 416.648C528.861 416.062 529.187 415.534 529.659 415.148C530.131 414.763 530.723 414.542 531.34 414.522C531.956 414.502 532.562 414.683 533.06 415.037C533.559 415.39 533.92 415.895 534.088 416.472L562.89 515.713C563.096 516.434 563.539 517.07 564.152 517.523C564.765 517.976 565.514 518.221 566.284 518.221C566.514 518.219 566.743 518.199 566.969 518.16L581.811 515.384C582.674 515.227 583.446 514.763 583.974 514.083C584.503 513.402 584.751 512.555 584.67 511.706C582.489 488.085 570.898 369.765 555.851 352.308Z" fill="#142443"/>
<path d="M469.168 288.567C469.034 289.683 469.154 290.815 469.518 291.882C469.883 292.949 470.484 293.925 471.28 294.742C472.075 295.558 473.045 296.196 474.121 296.609C475.198 297.022 476.355 297.202 477.51 297.134L488.32 322.362L496.497 310.591L484.978 288.438C484.732 286.56 483.786 284.836 482.318 283.591C480.85 282.346 478.963 281.667 477.014 281.682C475.065 281.698 473.19 282.408 471.744 283.677C470.298 284.946 469.382 286.685 469.168 288.567L469.168 288.567Z" fill="#FFB27D"/>
<path d="M543.252 377.711C544.402 377.577 545.507 377.201 546.49 376.608C547.473 376.015 548.311 375.219 548.943 374.278C549.576 373.336 549.988 372.272 550.151 371.159C550.314 370.046 550.224 368.912 549.887 367.836L572.631 351.748L558.938 346.769L539.439 362.809C537.617 363.479 536.11 364.775 535.205 366.451C534.301 368.128 534.061 370.068 534.531 371.905C535.001 373.742 536.148 375.347 537.755 376.417C539.363 377.487 541.319 377.947 543.252 377.711V377.711Z" fill="#FFB27D"/>
<path d="M506.176 339.182C505.304 339.181 504.434 339.098 503.579 338.933C501.51 338.551 499.57 337.68 497.929 336.398C496.289 335.115 494.998 333.461 494.171 331.58L479.026 313.646C478.706 313.267 478.473 312.825 478.343 312.352C478.212 311.878 478.188 311.382 478.271 310.899C478.354 310.415 478.542 309.954 478.823 309.547C479.104 309.139 479.472 308.795 479.901 308.537L490.676 302.06C491.074 301.821 491.517 301.66 491.978 301.588C492.44 301.516 492.912 301.533 493.367 301.639C493.822 301.745 494.251 301.938 494.629 302.205C495.007 302.473 495.327 302.811 495.57 303.199L506.244 320.278L526.686 305.606C528.313 304.777 530.194 304.545 531.983 304.951C533.772 305.358 535.352 306.376 536.432 307.819C537.513 309.263 538.022 311.036 537.868 312.815C537.713 314.593 536.905 316.258 535.591 317.506L515.188 335.58C512.791 337.888 509.551 339.183 506.176 339.182Z" fill="#142443"/>
<path d="M561.411 366.154C561.383 366.154 561.355 366.154 561.328 366.153C560.831 366.142 560.342 366.029 559.893 365.822C559.444 365.615 559.045 365.319 558.721 364.953L549.141 354.099C548.815 353.73 548.573 353.297 548.432 352.83C548.29 352.363 548.253 351.872 548.321 351.39C548.39 350.907 548.563 350.445 548.829 350.032C549.095 349.62 549.449 349.267 549.866 348.997L567.804 337.383L551.553 318.409C550.608 316.879 550.261 315.069 550.576 313.311C550.892 311.552 551.848 309.963 553.27 308.833C554.692 307.702 556.485 307.107 558.323 307.155C560.16 307.203 561.918 307.891 563.275 309.093L583.026 327.838C584.58 329.217 585.767 330.942 586.484 332.864C587.201 334.787 587.427 336.849 587.142 338.875C586.857 340.901 586.071 342.83 584.85 344.496C583.629 346.161 582.01 347.514 580.132 348.439L563.99 365.074C563.658 365.415 563.258 365.686 562.815 365.872C562.372 366.058 561.894 366.154 561.411 366.154Z" fill="#142443"/>
<path d="M539.407 326.162C539.254 326.162 539.1 326.152 538.948 326.134C538.28 326.055 537.651 325.792 537.133 325.376C536.615 324.96 536.231 324.408 536.026 323.787L528.827 302.353C528.647 301.812 528.675 301.225 528.906 300.701C529.136 300.177 529.554 299.753 530.083 299.505L530.316 299.398C530.528 299.3 530.738 299.204 530.952 299.111C534.309 297.599 537.962 296.811 541.663 296.799C546.466 296.808 551.162 298.178 555.175 300.743C555.713 301.09 556.089 301.629 556.222 302.244C556.355 302.858 556.234 303.498 555.885 304.026L542.381 324.572C542.065 325.06 541.626 325.461 541.106 325.739C540.585 326.018 540.001 326.163 539.407 326.162V326.162Z" fill="#E6E6E6"/>
<path d="M566.538 258.402C570.807 258.402 574.267 255.041 574.267 250.896C574.267 246.75 570.807 243.389 566.538 243.389C562.269 243.389 558.808 246.75 558.808 250.896C558.808 255.041 562.269 258.402 566.538 258.402Z" fill="#142443"/>
<path d="M540.041 242.645C534.611 242.645 529.404 244.739 525.565 248.468C521.725 252.196 519.568 257.253 519.568 262.526V270.938H530.221L535.316 262.526L536.845 270.938H569.174L560.513 262.526C560.513 257.253 558.356 252.196 554.516 248.468C550.677 244.739 545.47 242.645 540.041 242.645V242.645Z" fill="#142443"/>
<path d="M570.51 245.754C571.365 243.158 573.135 240.938 575.508 239.484C577.882 238.03 580.707 237.436 583.487 237.804C588.413 238.604 592.308 242.45 594.628 246.744C596.949 251.039 598.02 255.846 599.581 260.454C601.141 265.061 603.353 269.694 607.291 272.676C611.23 275.659 617.273 276.468 621.141 273.4C620.699 276.597 619.234 279.579 616.951 281.923C614.669 284.267 611.685 285.855 608.422 286.463C605.16 287.07 601.783 286.665 598.77 285.307C595.757 283.948 593.26 281.704 591.632 278.891C589.591 275.365 589.064 271.231 588.459 267.229C587.854 263.226 587.068 259.085 584.631 255.804C582.194 252.523 577.633 250.38 573.762 251.875L570.51 245.754Z" fill="#142443"/>
<path d="M319.177 257.206C312.13 257.205 305.372 254.486 300.389 249.647C295.407 244.808 292.607 238.244 292.607 231.401C292.607 226.734 292.61 223.165 292.617 222.657C292.841 206.67 296.987 190.966 304.711 176.846C292.021 193.717 285.043 214.001 284.743 234.892C284.736 235.4 284.733 238.968 284.733 243.636C284.733 250.479 287.533 257.043 292.516 261.882C297.498 266.721 304.256 269.44 311.303 269.441V269.441C317.093 269.439 322.725 267.601 327.342 264.207C331.959 260.813 335.309 256.049 336.883 250.637C332.018 254.874 325.711 257.214 319.177 257.206V257.206Z" fill="#8E252D"/>
<path d="M390.676 189.203C398.823 189.581 406.753 191.874 413.786 195.884C420.82 199.894 426.746 205.501 431.056 212.226C435.366 218.95 437.931 226.589 438.531 234.489C439.131 242.388 437.749 250.31 434.501 257.576C439.198 252.219 442.65 245.942 444.622 239.172C446.595 232.402 447.04 225.298 445.929 218.346C444.819 211.393 442.177 204.755 438.185 198.884C434.193 193.013 428.945 188.046 422.797 184.324C416.65 180.601 409.748 178.209 402.563 177.312C395.377 176.415 388.077 177.032 381.16 179.123C374.242 181.214 367.871 184.729 362.479 189.428C357.087 194.127 352.802 199.9 349.916 206.354C354.904 200.655 361.174 196.145 368.241 193.171C375.308 190.198 382.984 188.84 390.676 189.203V189.203Z" fill="#8E252D"/>
<path d="M398.851 417.789C391.662 417.791 384.761 415.048 379.636 410.152C374.512 405.256 371.574 398.6 371.458 391.62C371.124 371.389 370.952 346.464 370.952 343.615C370.947 336.685 371.974 329.791 374.002 323.146L373.992 323.144C375.189 319.809 376.635 316.563 378.318 313.432C373.151 320.118 369.04 327.515 366.118 335.379L366.128 335.381C364.1 342.026 363.073 348.92 363.078 355.85C363.078 358.699 363.25 383.624 363.584 403.855C363.7 410.835 366.638 417.491 371.763 422.387C376.887 427.283 383.788 430.026 390.977 430.024V430.024C396.904 430.023 402.671 428.156 407.413 424.702C412.155 421.249 415.616 416.396 417.277 410.87C412.24 415.33 405.667 417.799 398.851 417.789V417.789Z" fill="#8E252D"/>
<path d="M152.719 528.322L162.371 528.321L166.964 492.161L152.716 492.161L152.719 528.322Z" fill="#FFB8B8"/>
<path d="M180.989 537.026L150.65 537.027L150.65 525.643L169.267 525.642C172.375 525.642 175.357 526.841 177.555 528.976C179.754 531.111 180.989 534.006 180.989 537.026V537.026L180.989 537.026Z" fill="#142443"/>
<path d="M118.074 528.322L127.726 528.321L132.319 492.161L118.071 492.161L118.074 528.322Z" fill="#FFB8B8"/>
<path d="M146.344 537.026L116.005 537.027L116.005 525.643L134.622 525.642C137.73 525.642 140.712 526.841 142.91 528.976C145.109 531.111 146.344 534.006 146.344 537.026V537.026L146.344 537.026Z" fill="#142443"/>
<path d="M126.509 517.2L117.08 516.719C116.594 516.694 116.118 516.576 115.679 516.371C115.24 516.166 114.848 515.878 114.524 515.525C114.2 515.172 113.952 514.76 113.794 514.313C113.635 513.866 113.57 513.392 113.601 512.921L124.871 391.744L176.768 405.345L181.768 404.02L166.132 511.293C165.999 512.1 165.586 512.839 164.962 513.387C164.339 513.936 163.541 514.261 162.701 514.31L152.536 514.77C152.028 514.797 151.519 514.722 151.043 514.549C150.566 514.375 150.131 514.108 149.766 513.763C149.402 513.419 149.114 513.004 148.923 512.546C148.731 512.088 148.639 511.597 148.653 511.103L150.495 446.719C150.504 446.421 150.397 446.131 150.196 445.906C149.996 445.681 149.716 445.537 149.411 445.502C149.106 445.468 148.799 445.545 148.551 445.719C148.302 445.894 148.13 446.152 148.067 446.444L130.306 514.357C130.139 515.163 129.688 515.887 129.032 516.407C128.376 516.926 127.555 517.209 126.709 517.206C126.643 517.206 126.576 517.204 126.509 517.2Z" fill="#142443"/>
<path d="M154.452 292.597C165.132 292.597 173.791 284.188 173.791 273.815C173.791 263.443 165.132 255.034 154.452 255.034C143.771 255.034 135.113 263.443 135.113 273.815C135.113 284.188 143.771 292.597 154.452 292.597Z" fill="#FFB27D"/>
<path d="M122.254 328.994L124.38 373.55L125.149 389.76C125.179 390.466 125.426 391.147 125.857 391.715C126.288 392.284 126.885 392.715 127.569 392.953L177.439 410.497C177.842 410.643 178.269 410.716 178.699 410.712C179.19 410.714 179.677 410.62 180.13 410.436C180.583 410.251 180.993 409.98 181.336 409.639C181.678 409.297 181.947 408.892 182.125 408.447C182.302 408.002 182.386 407.527 182.371 407.05L180.326 326.937C180.192 320.364 177.701 314.042 173.282 309.062C168.863 304.082 162.793 300.755 156.119 299.655C155.637 299.584 155.146 299.512 154.655 299.449C150.517 298.95 146.316 299.338 142.349 300.585C138.381 301.832 134.743 303.909 131.691 306.668C128.531 309.491 126.047 312.954 124.416 316.812C122.786 320.67 122.047 324.828 122.254 328.994L122.254 328.994Z" fill="#CCCCCC"/>
<path d="M201.262 401.607C200.083 401.251 199.005 400.633 198.115 399.801C197.225 398.969 196.548 397.947 196.138 396.816C195.727 395.685 195.594 394.476 195.75 393.286C195.906 392.097 196.346 390.959 197.035 389.963L180.123 368.124L194.717 367.247L208.539 388.12C210.019 389.231 211.048 390.813 211.447 392.588C211.846 394.362 211.589 396.217 210.721 397.826C209.853 399.435 208.429 400.695 206.7 401.387C204.97 402.078 203.045 402.156 201.262 401.607H201.262Z" fill="#FFB27D"/>
<path d="M189.372 386.011C188.924 385.834 188.516 385.573 188.173 385.243C187.829 384.912 187.557 384.519 187.371 384.085L161.892 325.133C161.392 323.978 161.132 322.74 161.125 321.488C161.118 320.235 161.365 318.994 161.853 317.835C162.34 316.676 163.058 315.621 163.965 314.731C164.872 313.841 165.951 313.134 167.14 312.649C168.329 312.165 169.605 311.912 170.894 311.907C172.183 311.901 173.461 312.142 174.655 312.617C175.848 313.091 176.933 313.789 177.849 314.671C178.764 315.552 179.492 316.601 179.99 317.756L205.468 376.709C205.845 377.583 205.849 378.567 205.48 379.444C205.111 380.321 204.399 381.02 203.499 381.388L192.188 385.998C191.743 386.181 191.265 386.276 190.781 386.279C190.298 386.281 189.819 386.19 189.372 386.011L189.372 386.011Z" fill="#CCCCCC"/>
<path d="M148.234 383.932L172.706 338.426C173.177 337.551 173.988 336.894 174.958 336.598C175.929 336.302 176.98 336.392 177.883 336.848L213.403 354.864C214.304 355.323 214.981 356.11 215.286 357.052C215.59 357.995 215.497 359.016 215.027 359.892L190.556 405.398C190.084 406.273 189.274 406.93 188.303 407.226C187.333 407.522 186.281 407.432 185.379 406.975L149.859 388.959C148.958 388.501 148.281 387.714 147.976 386.772C147.671 385.829 147.764 384.808 148.234 383.932Z" fill="#233862"/>
<path d="M164.645 363.141C164.21 362.019 163.511 361.011 162.604 360.197C161.696 359.384 160.605 358.788 159.419 358.456C158.232 358.125 156.981 358.068 155.768 358.289C154.554 358.51 153.41 359.004 152.428 359.731L128.98 344.625L128.941 358.825L151.213 370.993C152.442 372.362 154.128 373.266 155.976 373.548C157.824 373.83 159.715 373.472 161.317 372.535C162.92 371.598 164.132 370.144 164.74 368.426C165.349 366.708 165.315 364.837 164.645 363.141V363.141Z" fill="#FFB27D"/>
<path d="M135 366.335L115.838 351.593C113.765 350.917 111.892 349.763 110.379 348.229C108.867 346.695 107.76 344.828 107.154 342.787C106.549 340.747 106.462 338.594 106.901 336.514C107.341 334.433 108.294 332.488 109.678 330.844L127.077 308.699C128.286 307.264 129.986 306.299 131.867 305.982C133.748 305.664 135.684 306.015 137.321 306.969C138.958 307.923 140.186 309.418 140.782 311.18C141.377 312.941 141.3 314.852 140.564 316.563L126.798 338.433L147.029 347.752C147.5 347.969 147.917 348.28 148.255 348.665C148.592 349.05 148.842 349.5 148.987 349.986C149.132 350.472 149.169 350.982 149.096 351.482C149.023 351.983 148.841 352.463 148.563 352.89L140.396 365.442C140.12 365.866 139.756 366.228 139.326 366.506C138.897 366.784 138.412 366.972 137.903 367.056C137.883 367.06 137.862 367.063 137.842 367.066C137.342 367.139 136.832 367.112 136.343 366.986C135.854 366.861 135.397 366.639 135 366.335V366.335Z" fill="#CCCCCC"/>
<path d="M139.839 286.391C139.756 286.156 139.729 285.905 139.762 285.658C139.794 285.41 139.884 285.174 140.025 284.966C140.166 284.758 140.355 284.584 140.576 284.457C140.797 284.331 141.045 284.255 141.3 284.236C141.824 284.263 142.337 284.394 142.807 284.619C143.278 284.845 143.696 285.16 144.037 285.547C144.737 286.331 145.552 287.01 146.456 287.564C147.391 288.022 148.66 287.956 149.193 287.083C149.694 286.263 149.351 285.165 149.048 284.213C148.276 281.79 147.845 279.277 147.764 276.742C147.677 273.913 148.088 270.96 149.701 268.753C151.783 265.904 155.505 264.823 159.028 264.902C162.551 264.98 166.016 266.036 169.506 266.704C170.711 266.934 172.126 267.052 172.932 266.145C173.789 265.181 173.474 263.621 173.11 262.319C172.164 258.941 171.161 255.449 168.964 252.72C166.589 249.886 163.195 248.03 159.468 247.528C155.889 247.098 152.256 247.498 148.867 248.697C143.347 250.387 138.489 253.673 134.944 258.117C131.29 262.842 129.711 268.781 130.552 274.634C131.374 279.732 134.156 284.337 138.336 287.522L139.839 286.391Z" fill="#142443"/>
<path d="M384.775 528.471C379.63 526.294 375.076 522.987 371.472 518.808C367.869 514.63 365.315 509.695 364.011 504.394C362.708 499.093 362.691 493.57 363.962 488.262C365.233 482.953 367.756 478.004 371.334 473.805C367.186 476.746 363.73 480.51 361.194 484.848C358.659 489.186 357.102 493.998 356.628 498.964C356.154 503.931 356.773 508.939 358.444 513.655C360.115 518.372 362.8 522.689 366.32 526.321C369.841 529.953 374.116 532.816 378.863 534.72C383.61 536.625 388.72 537.527 393.853 537.367C398.987 537.207 404.026 535.988 408.638 533.792C413.249 531.596 417.327 528.472 420.6 524.628C415.495 528.252 409.501 530.514 403.215 531.188C396.93 531.862 390.572 530.925 384.775 528.471V528.471Z" fill="#8E252D"/>
<path d="M280.689 484.145C280.689 484.145 289.112 474.096 281.208 467.712C281.208 467.712 275.435 464.137 270.728 464.428C270.728 464.428 277.398 475.868 275.24 477.003C273.082 478.141 268.706 463.709 268.706 463.709C268.706 463.709 255.569 462.407 251.342 464.485C251.342 464.485 262.574 473.885 260.208 474.444C257.843 475.003 245.712 465.777 245.712 465.777C245.712 465.777 233.484 467.905 234.136 475.535C234.788 483.164 239.001 485.518 240.853 485.316C242.705 485.114 253.537 480.884 253.773 482.436C254.009 483.987 247.489 489.058 242.923 489.295C242.923 489.295 251.543 499.02 257.272 496.211C263.002 493.406 263.491 488.96 267.062 487.289C270.634 485.622 273.682 485.625 272.208 487.328C270.733 489.028 264.27 490.683 262.228 494.378C260.185 498.072 258.353 500.565 264.28 499.653C270.208 498.741 279.843 494.303 280.266 489.224C280.689 484.145 280.689 484.145 280.689 484.145" fill="#23411C"/>
<path d="M240.144 475.739C240.144 475.739 273.355 474.432 280.689 484.144C280.689 484.144 282.311 489.114 287.302 493.637L288.08 495.804C288.08 495.804 282.325 489.598 280.266 489.224C280.266 489.224 283.486 477.19 240.144 475.739Z" fill="#23411C"/>
<path d="M287.302 493.637C287.302 493.637 294.431 499.029 294.926 508.661L293.632 508.78C293.632 508.78 291.355 498.821 287.24 494.924C283.125 491.028 287.302 493.637 287.302 493.637Z" fill="#23411C"/>
<path d="M307.674 480.813C307.674 480.813 298.024 475.285 302.528 467.783C302.528 467.783 306.13 463.177 309.99 461.994C309.99 461.994 307.932 473.178 309.99 473.442C312.049 473.707 311.406 460.808 311.406 460.808C311.406 460.808 321.571 455.809 325.559 456.204C325.559 456.204 319.255 467.126 321.313 466.862C323.372 466.6 330.449 455.544 330.449 455.544C330.449 455.544 340.871 453.571 342.544 459.89C344.216 466.205 341.514 469.361 339.97 469.757C338.426 470.152 328.519 470.021 328.776 471.338C329.033 472.652 335.724 474.759 339.456 473.573C339.456 473.573 335.338 483.969 329.934 483.443C324.53 482.917 322.857 479.496 319.512 479.232C316.167 478.97 313.722 479.891 315.395 480.813C317.067 481.734 322.729 481.113 325.431 483.464C328.133 485.812 330.32 487.259 325.302 488.311C320.284 489.363 311.277 488.707 309.476 484.76C307.674 480.813 307.674 480.813 307.674 480.813" fill="#51724A"/>
<path d="M337.783 461.863C337.783 461.863 310.762 470.812 307.674 480.813C307.674 480.813 307.803 485.286 305.101 490.419V492.392C305.101 492.392 307.932 485.681 309.476 484.76C309.476 484.76 303.428 476.076 337.783 461.863Z" fill="#23411C"/>
<path d="M305.101 490.419C305.101 490.419 300.934 496.889 303.309 504.768L304.382 504.473C304.382 504.473 303.341 495.795 305.521 491.432C307.701 487.069 305.101 490.419 305.101 490.419Z" fill="#23411C"/>
<path d="M288.822 460.924C288.822 460.924 306.484 450.807 298.242 437.079C298.242 437.079 291.648 428.65 284.584 426.481C284.584 426.481 288.351 446.952 284.584 447.434C280.816 447.918 281.993 424.314 281.993 424.314C281.993 424.314 263.389 415.16 256.089 415.885C256.089 415.885 267.628 435.875 263.86 435.394C260.092 434.909 247.14 414.679 247.14 414.679C247.14 414.679 228.065 411.068 225.003 422.629C221.942 434.187 226.887 439.968 229.713 440.69C232.539 441.412 250.672 441.175 250.201 443.582C249.73 445.989 237.484 449.844 230.655 447.677C230.655 447.677 238.191 466.702 248.082 465.739C257.973 464.776 261.034 458.514 267.157 458.032C273.28 457.551 277.754 459.236 274.693 460.924C271.631 462.609 261.269 461.474 256.324 465.774C251.378 470.075 247.375 472.723 256.559 474.652C265.744 476.578 282.228 475.374 285.525 468.149C288.822 460.924 288.822 460.924 288.822 460.924" fill="#51724A"/>
<path d="M233.716 426.24C233.716 426.24 283.171 442.619 288.822 460.924C288.822 460.924 288.587 469.112 293.532 478.504V482.118C293.532 482.118 288.351 469.834 285.525 468.149C285.525 468.149 296.594 452.251 233.716 426.24" fill="#23411C"/>
<path d="M293.532 478.504C293.532 478.504 301.159 490.35 296.811 504.768L294.849 504.227C294.849 504.227 296.753 488.347 292.763 480.361C288.773 472.372 293.532 478.504 293.532 478.504" fill="#23411C"/>
<path d="M254.821 500.651C254.821 520.192 270.311 536.034 289.418 536.034C293.407 536.034 297.238 535.344 300.803 534.072C314.318 529.257 324.015 516.112 324.015 500.651H254.821Z" fill="#8E252D"/>
<path d="M277.594 500.651C277.594 513.907 280.699 527.409 291.25 533.469C293.004 534.476 298.877 533.386 300.803 534.072C314.317 529.257 324.015 516.112 324.015 500.651H277.594Z" fill="#E63946"/>
<path d="M254.342 537.835H324.493C324.493 536.628 324.015 535.537 323.243 534.747C322.47 533.956 321.402 533.469 320.223 533.469H258.61C256.254 533.469 254.342 535.424 254.342 537.835" fill="#8E252D"/>
<path d="M287.211 537.835H324.493C324.493 536.628 324.015 535.537 323.242 534.747C322.47 533.956 321.402 533.469 320.223 533.469H291.478C289.122 533.469 287.211 535.424 287.211 537.835Z" fill="#E63946"/>
<path d="M505.974 20.1476V63.0953C505.974 65.0268 506.03 66.8429 506.086 68.5437C506.086 68.5995 506.086 68.5995 506.086 68.6554C506.086 69.1094 506.146 69.5635 506.146 70.0175C506.486 75.8642 507.17 79.9468 507.97 79.9468H508.254C509.165 79.9468 509.905 75.239 510.189 68.7149C510.245 66.9546 510.305 65.0826 510.305 63.0953V20.6016L505.974 20.1476" fill="black"/>
<path d="M507.013 68.4917C491.275 68.4917 478.519 81.9268 478.519 98.4993H535.504C535.504 81.9268 522.747 68.4917 507.013 68.4917Z" fill="#142443"/>
<path d="M509.281 68.8565C508.463 68.6778 507.63 68.5848 506.778 68.5848C496.528 68.5848 488.214 81.979 488.214 98.4993H493.221C493.221 83.3448 500.213 70.8252 509.281 68.8565Z" fill="white"/>
<path d="M199.917 144.513C199.917 165.997 217.54 183.411 239.283 183.411C261.025 183.411 278.648 165.997 278.648 144.513H199.917" fill="#E63946"/>
<path d="M199.087 145.399H279.478C280.104 145.399 280.614 144.895 280.614 144.276C280.614 143.653 280.104 143.153 279.478 143.153H199.087C198.461 143.153 197.951 143.653 197.951 144.276C197.951 144.895 198.461 145.399 199.087 145.399Z" fill="#D67934"/>
<path d="M250.382 37.7552C258.448 68.6064 269.199 108.843 275.317 130.316C275.374 130.427 275.374 130.598 275.434 130.709C276.176 133.196 276.803 135.457 277.377 137.377C277.662 138.226 277.891 138.96 278.119 139.694V139.753C278.521 141.106 278.922 142.237 279.207 143.141C279.549 144.216 279.834 144.895 280.006 145.176L279.721 145.347L279.32 145.629C279.32 145.573 279.264 145.458 279.207 145.403C279.035 145.006 278.75 144.216 278.405 143.141C278.063 142.293 277.718 141.166 277.32 139.865C277.032 138.96 276.747 138 276.405 136.925C275.891 135.116 275.317 133.141 274.687 130.935C274.631 130.824 274.631 130.709 274.574 130.598V130.542C268.4 108.954 257.705 68.7769 249.583 37.9257V37.8664L250.382 37.7552" fill="black"/>
<path d="M226.081 43.4044L199.489 143.141L198.915 145.288L199.316 145.403L199.658 145.514L199.718 145.403L199.886 144.609L199.946 144.498L200.288 143.141L226.993 43.1226L226.081 43.4044" fill="black"/>
<path d="M225.868 184.39H252.697V181.032H225.868V184.39Z" fill="#D67934"/>
<path d="M258.542 222.877C258.594 222.736 263.557 208.64 258.534 197.675C253.699 187.111 255.698 170.742 257.979 157.661C259.615 148.29 257.818 134.09 252.626 128.696C250.957 126.962 249.043 126.209 246.924 126.465C237.234 127.625 236.638 142.99 236.634 143.145L237.035 143.156C237.039 143.004 237.624 127.977 246.973 126.858C248.953 126.621 250.761 127.329 252.337 128.967C256.437 133.23 259.603 146.033 257.585 157.594C255.293 170.731 253.286 187.178 258.17 197.838C263.126 208.662 258.215 222.603 258.163 222.744L258.542 222.877" fill="#23411C"/>
<path d="M258.816 221.376C258.816 221.376 253.969 224.43 254.055 229.924C254.055 229.924 258.362 228.445 258.816 221.376Z" fill="#23411C"/>
<path d="M258.538 226.791C258.538 226.791 255.822 231.799 258.617 236.548C258.617 236.548 261.64 233.174 258.538 226.791Z" fill="#23411C"/>
<path d="M258.86 221.383C258.86 221.383 259.048 227.066 263.872 229.794C263.872 229.794 264.78 225.379 258.86 221.383Z" fill="#23411C"/>
<path d="M260.275 213.87C260.275 213.87 254.119 215.834 252.633 221.832C252.633 221.832 257.746 221.435 260.275 213.87Z" fill="#23411C"/>
<path d="M260.275 213.87C260.275 213.87 260.594 220.253 266.067 223.233C266.067 223.233 267.008 218.255 260.275 213.87Z" fill="#23411C"/>
<path d="M260.425 205.1C260.425 205.1 253.552 208.636 253.012 216.02C253.012 216.02 258.969 214.541 260.425 205.1Z" fill="#23411C"/>
<path d="M260.425 205.1C260.425 205.1 262.094 212.58 269.169 215.015C269.169 215.015 269.274 208.944 260.425 205.1Z" fill="#23411C"/>
<path d="M257.772 196.089C257.772 196.089 250.06 201.463 250.623 210.463C250.623 210.463 257.57 207.717 257.772 196.089Z" fill="#23411C"/>
<path d="M257.773 196.089C257.773 196.089 261.017 204.848 269.961 206.653C269.961 206.653 269.083 199.31 257.773 196.089Z" fill="#23411C"/>
<path d="M255.454 184.816C255.454 184.816 248.942 191.244 250.994 199.803C250.994 199.803 257.21 196.022 255.454 184.816Z" fill="#23411C"/>
<path d="M255.454 184.816C255.454 184.816 260.042 192.704 268.936 192.975C268.936 192.975 266.866 186.058 255.454 184.816Z" fill="#23411C"/>
<path d="M306.142 218.6L306.532 218.503C303.115 205.203 305.932 185.717 307.796 172.821C308.314 169.222 308.764 166.116 308.944 163.977C309.447 158.039 306.198 145.377 298.797 137.051C294.438 132.147 289.419 129.53 283.874 129.275C266.648 128.489 262.841 142.956 262.803 143.104L263.193 143.197C263.231 143.056 266.982 128.893 283.855 129.671C289.287 129.92 294.213 132.492 298.497 137.311C305.823 145.555 309.038 158.076 308.547 163.944C308.366 166.071 307.916 169.174 307.399 172.766C305.53 185.691 302.706 205.226 306.142 218.6" fill="#23411C"/>
<path d="M305.669 186.24C305.669 186.24 298.845 186.903 295.938 192.782C295.938 192.782 301.321 193.512 305.669 186.24Z" fill="#23411C"/>
<path d="M304.979 194.013C304.979 194.013 298.395 195.899 296.628 202.208C296.628 202.208 302.056 201.945 304.979 194.013Z" fill="#23411C"/>
<path d="M304.705 203.984C304.705 203.984 299.75 206.868 299.637 212.357C299.637 212.357 303.996 211.034 304.705 203.984Z" fill="#23411C"/>
<path d="M304.889 211.312C304.889 211.312 300.901 215.404 302.285 220.724C302.285 220.724 306.123 218.292 304.889 211.312Z" fill="#23411C"/>
<path d="M305.902 216.643C305.902 216.643 304.45 222.14 308.291 226.109C308.291 226.109 310.433 222.132 305.902 216.643Z" fill="#23411C"/>
<path d="M304.934 211.312C304.934 211.312 306.464 216.791 311.799 218.325C311.799 218.325 311.637 213.825 304.934 211.312Z" fill="#23411C"/>
<path d="M304.705 203.984C304.705 203.984 306.232 209.462 311.57 210.997C311.57 210.997 311.409 206.493 304.705 203.984Z" fill="#23411C"/>
<path d="M305.133 193.857C305.133 193.857 305.737 199.51 310.745 201.886C310.745 201.886 311.33 197.419 305.133 193.857Z" fill="#23411C"/>
<path d="M305.669 186.262C305.669 186.262 306.367 192.823 312.185 195.584C312.185 195.584 312.864 190.399 305.669 186.262Z" fill="#23411C"/>
<path d="M307.245 175.946C307.245 175.946 300.41 175.435 296.516 180.732C296.516 180.732 301.693 182.366 307.245 175.946Z" fill="#23411C"/>
<path d="M307.241 175.968C307.241 175.968 306.779 182.552 312.027 186.262C312.027 186.262 313.606 181.269 307.241 175.968Z" fill="#23411C"/>
<path d="M308.779 163.521C308.779 163.521 301.933 163.907 298.785 169.667C298.785 169.667 304.135 170.608 308.779 163.521Z" fill="#23411C"/>
<path d="M308.775 163.54C308.775 163.54 309.203 170.127 314.904 173.118C314.904 173.118 315.797 167.962 308.775 163.54Z" fill="#23411C"/>
<path d="M306.772 151.745C306.772 151.745 300.601 154.692 299.926 161.204C299.926 161.204 305.23 160.048 306.772 151.745Z" fill="#23411C"/>
<path d="M306.779 151.763C306.779 151.763 309.728 157.683 316.15 158.291C316.15 158.291 314.976 153.19 306.779 151.763Z" fill="#23411C"/>
<path d="M301.843 141.058C301.843 141.058 295.304 146.381 296.422 154.399C296.422 154.399 302.45 151.478 301.843 141.058Z" fill="#23411C"/>
<path d="M301.858 141.081C301.858 141.081 307.151 147.337 315.043 146.211C315.043 146.211 312.125 140.424 301.858 141.081Z" fill="#23411C"/>
<path d="M293.567 132.455C293.567 132.455 287.149 139.409 289.681 148.153C289.681 148.153 295.923 143.957 293.567 132.455Z" fill="#23411C"/>
<path d="M293.59 132.477C293.59 132.477 300.485 138.612 309.09 136.114C309.09 136.114 304.911 130.135 293.59 132.477Z" fill="#23411C"/>
<path d="M282.388 129.415C282.388 129.415 279.114 138.252 284.812 145.399C284.812 145.399 288.979 139.175 282.388 129.415Z" fill="#23411C"/>
<path d="M282.415 129.43C282.415 129.43 291.152 132.522 298.155 126.987C298.155 126.987 291.992 123.017 282.415 129.43Z" fill="#23411C"/>
<path d="M266.382 136.814C266.382 136.814 272.44 142 279.688 139.242C279.688 139.242 275.944 134.041 266.382 136.814Z" fill="#23411C"/>
<path d="M266.4 136.796C266.4 136.796 271.299 130.383 268.899 123.01C268.899 123.01 264.03 127.036 266.4 136.796Z" fill="#23411C"/>
<path d="M218.125 204.499L218.407 204.521C219.27 194.836 225.763 182.448 230.062 174.248C231.259 171.961 232.294 169.986 232.921 168.596C234.661 164.737 235.483 155.515 232.504 148.235C230.745 143.946 228.006 141.036 224.356 139.587C213.016 135.079 207.048 143.883 206.988 143.972L207.224 144.124C207.284 144.039 213.144 135.428 224.251 139.846C227.826 141.27 230.512 144.127 232.238 148.342C235.19 155.548 234.38 164.67 232.662 168.481C232.039 169.863 231.004 171.835 229.807 174.119C225.5 182.337 218.992 194.754 218.125 204.499" fill="#23411C"/>
<path d="M225.463 182.737C225.463 182.737 220.74 181.603 217.405 184.865C217.405 184.865 220.834 186.596 225.463 182.737Z" fill="#23411C"/>
<path d="M223.163 187.778C223.163 187.778 218.313 187.518 215.634 191.333C215.634 191.333 219.33 192.411 223.163 187.778Z" fill="#23411C"/>
<path d="M220.62 194.383C220.62 194.383 216.621 195.169 215.248 198.82C215.248 198.82 218.478 198.939 220.62 194.383Z" fill="#23411C"/>
<path d="M219.011 199.332C219.011 199.332 215.372 201.148 215.042 205.029C215.042 205.029 218.185 204.288 219.011 199.332Z" fill="#23411C"/>
<path d="M218.425 203.131C218.425 203.131 216.152 206.475 217.788 210.018C217.788 210.018 220.158 207.85 218.425 203.131Z" fill="#23411C"/>
<path d="M219.041 199.343C219.041 199.343 218.767 203.361 221.974 205.622C221.974 205.622 222.931 202.572 219.041 199.343Z" fill="#23411C"/>
<path d="M220.62 194.383C220.62 194.383 220.346 198.405 223.553 200.663C223.553 200.663 224.51 197.616 220.62 194.383Z" fill="#23411C"/>
<path d="M223.302 187.708C223.302 187.708 222.368 191.629 225.159 194.376C225.159 194.376 226.607 191.522 223.302 187.708Z" fill="#23411C"/>
<path d="M225.455 182.752C225.455 182.752 224.371 187.304 227.612 190.495C227.612 190.495 229.293 187.181 225.455 182.752Z" fill="#23411C"/>
<path d="M228.951 176.213C228.951 176.213 224.499 174.289 220.642 176.936C220.642 176.936 223.718 179.223 228.951 176.213Z" fill="#23411C"/>
<path d="M228.944 176.224C228.944 176.224 227.079 180.524 229.713 184.22C229.713 184.22 231.949 181.243 228.944 176.224Z" fill="#23411C"/>
<path d="M232.917 168.251C232.917 168.251 228.246 166.927 224.78 170.056C224.78 170.056 228.134 171.921 232.917 168.251Z" fill="#23411C"/>
<path d="M232.913 168.266C232.913 168.266 231.641 172.769 234.747 176.087C234.747 176.087 236.563 172.844 232.913 168.266Z" fill="#23411C"/>
<path d="M234.361 159.907C234.361 159.907 229.537 160.456 227.541 164.655C227.541 164.655 231.367 165.111 234.361 159.907Z" fill="#23411C"/>
<path d="M234.361 159.926C234.361 159.926 234.935 164.566 239.087 166.457C239.087 166.457 239.511 162.772 234.361 159.926Z" fill="#23411C"/>
<path d="M233.592 151.622C233.592 151.622 227.957 153.672 226.81 159.292C226.81 159.292 231.536 158.732 233.592 151.622Z" fill="#23411C"/>
<path d="M233.596 151.637C233.596 151.637 235.659 157.049 241.207 158.117C241.207 158.117 240.622 153.572 233.596 151.637Z" fill="#23411C"/>
<path d="M230.092 143.953C230.092 143.953 224.15 147.123 223.775 153.557C223.775 153.557 228.944 152.193 230.092 143.953Z" fill="#23411C"/>
<path d="M230.099 143.972C230.099 143.972 233.262 149.669 239.613 149.988C239.613 149.988 238.228 145.021 230.099 143.972Z" fill="#23411C"/>
<path d="M223.328 139.338C223.328 139.338 219.048 144.494 221.171 150.588C221.171 150.588 225.429 147.389 223.328 139.338Z" fill="#23411C"/>
<path d="M223.343 139.353C223.343 139.353 228.456 143.438 234.454 141.351C234.454 141.351 231.27 137.274 223.343 139.353Z" fill="#23411C"/>
<path d="M210.87 140.587C210.87 140.587 213.699 145.458 219.198 145.288C219.198 145.288 217.923 140.943 210.87 140.587Z" fill="#23411C"/>
<path d="M210.885 140.58C210.885 140.58 215.679 137.422 215.818 131.932C215.818 131.932 211.609 133.504 210.885 140.58Z" fill="#23411C"/>
<path d="M238.086 136.002C238.086 136.002 245.018 139.279 251.26 135.305C251.26 135.305 246.523 131.525 238.086 136.002Z" fill="#23411C"/>
<path d="M238.101 135.984C238.101 135.984 241.281 129.289 237.32 123.307C237.32 123.307 233.626 127.892 238.101 135.984Z" fill="#23411C"/>
<path d="M244.673 127.303C244.673 127.303 246.898 132.774 253.234 133.626C253.234 133.626 252.678 128.982 244.673 127.303Z" fill="#23411C"/>
<path d="M247.366 126.602C247.366 126.602 253.95 127.469 258.012 122.562C258.012 122.562 253.095 120.697 247.366 126.602Z" fill="#23411C"/>
<path d="M256.793 165.115C256.793 165.115 248.304 168.637 246.935 177.325C246.935 177.325 254.134 176.146 256.793 165.115Z" fill="#23411C"/>
<path d="M256.793 165.115C256.793 165.115 258.028 174.13 266.16 177.699C266.16 177.699 266.881 170.523 256.793 165.115Z" fill="#23411C"/>
<path d="M258.452 154.158C258.452 154.158 248.713 156.767 245.952 166.012C245.952 166.012 253.946 165.76 258.452 154.158Z" fill="#23411C"/>
<path d="M258.452 154.158C258.452 154.158 258.47 164.125 266.783 169.17C266.783 169.17 268.618 161.475 258.452 154.158Z" fill="#23411C"/>
<path d="M258.012 142.489C258.012 142.489 248.706 146.348 247.202 155.87C247.202 155.87 255.094 154.58 258.012 142.489Z" fill="#23411C"/>
<path d="M258.013 142.489C258.013 142.489 259.359 152.371 268.273 156.285C268.273 156.285 269.064 148.42 258.013 142.489Z" fill="#23411C"/>
<path d="M255.451 133.626C255.451 133.626 247.355 139.579 248.207 149.18C248.207 149.18 255.556 146.059 255.451 133.626Z" fill="#23411C"/>
<path d="M255.451 155.968C255.451 155.968 259.161 203.051 268.76 211.614C268.76 211.614 267.624 171.889 255.451 155.968Z" fill="#23411C"/>
</svg>
