<svg width="102" height="102" viewBox="0 0 102 102" fill="none" xmlns="http://www.w3.org/2000/svg">
<g filter="url(#filter0_bi_452_203)">
<circle cx="51" cy="51" r="51" fill="url(#paint0_radial_452_203)" fill-opacity="0.98"/>
</g>
<mask id="mask0_452_203" style="mask-type:alpha" maskUnits="userSpaceOnUse" x="4" y="3" width="95" height="95">
<circle cx="51.2799" cy="50.8088" r="47.08" fill="url(#paint1_radial_452_203)"/>
</mask>
<g mask="url(#mask0_452_203)">
<path fill-rule="evenodd" clip-rule="evenodd" d="M98.7799 64.0501C84.962 88.5943 52.2508 102.172 27.7065 88.354C3.16234 74.5361 -3.92044 38.5553 9.89747 14.0111C10.4843 12.9687 11.1023 11.9549 11.7496 10.9702C0.337674 34.9641 9.30823 64.0396 32.8103 77.2708C56.3121 90.5019 85.8235 83.0913 100.419 60.89C99.9128 61.9539 99.3666 63.0079 98.7799 64.0501Z" fill="url(#paint2_linear_452_203)" fill-opacity="0.2"/>
<path fill-rule="evenodd" clip-rule="evenodd" d="M46.4278 101.641C72.9343 99.8138 93.8696 77.7331 93.8696 50.7627C93.8696 23.7923 72.9343 1.71159 46.4278 -0.115116C47.6033 -0.196128 48.7898 -0.237305 49.9859 -0.237305C78.1524 -0.237305 100.986 22.5962 100.986 50.7627C100.986 78.9292 78.1524 101.763 49.9859 101.763C48.7898 101.763 47.6033 101.722 46.4278 101.641Z" fill="#F7FBFD" fill-opacity="0.52"/>
</g>
<path fill-rule="evenodd" clip-rule="evenodd" d="M41.7498 101.661C66.9928 98.7375 86.5892 77.2876 86.5892 51.2607C86.5892 25.2339 66.9928 3.78397 41.7498 0.860831C43.6854 0.636696 45.6541 0.521484 47.6497 0.521484C75.6722 0.521484 98.389 23.2382 98.389 51.2607C98.389 79.2832 75.6722 102 47.6497 102C45.6541 102 43.6854 101.885 41.7498 101.661Z" fill="url(#paint3_linear_452_203)" fill-opacity="0.2"/>
<path d="M19.2778 42.7201C18.5978 42.7201 17.9698 42.6361 17.3938 42.4681C16.8258 42.2921 16.3378 42.0521 15.9298 41.7481L16.4098 40.5361C16.6818 40.7281 16.9658 40.8921 17.2618 41.0281C17.5578 41.1561 17.8738 41.2561 18.2098 41.3281C18.5458 41.3921 18.9018 41.4241 19.2778 41.4241C19.9098 41.4241 20.3658 41.3201 20.6458 41.1121C20.9258 40.9041 21.0658 40.6321 21.0658 40.2961C21.0658 40.0001 20.9698 39.7761 20.7778 39.6241C20.5858 39.4641 20.2418 39.3321 19.7458 39.2281L18.3898 38.9521C17.6138 38.7921 17.0338 38.5241 16.6498 38.1481C16.2658 37.7721 16.0738 37.2681 16.0738 36.6361C16.0738 36.1081 16.2138 35.6481 16.4938 35.2561C16.7738 34.8641 17.1658 34.5601 17.6698 34.3441C18.1738 34.1281 18.7618 34.0201 19.4338 34.0201C20.0338 34.0201 20.5898 34.1081 21.1018 34.2841C21.6138 34.4521 22.0418 34.6961 22.3858 35.0161L21.9058 36.1681C21.5618 35.8801 21.1858 35.6681 20.7778 35.5321C20.3698 35.3881 19.9138 35.3161 19.4098 35.3161C18.8418 35.3161 18.3978 35.4281 18.0778 35.6521C17.7658 35.8681 17.6098 36.1681 17.6098 36.5521C17.6098 36.8481 17.7058 37.0841 17.8978 37.2601C18.0978 37.4361 18.4338 37.5721 18.9058 37.6681L20.2498 37.9321C21.0498 38.0921 21.6418 38.3561 22.0258 38.7241C22.4098 39.0841 22.6018 39.5721 22.6018 40.1881C22.6018 40.6921 22.4658 41.1361 22.1938 41.5201C21.9218 41.8961 21.5378 42.1921 21.0418 42.4081C20.5458 42.6161 19.9578 42.7201 19.2778 42.7201ZM24.0602 42.6001V34.1401H27.8162C28.7442 34.1401 29.4522 34.3641 29.9402 34.8121C30.4282 35.2601 30.6722 35.8761 30.6722 36.6601C30.6722 37.4361 30.4282 38.0521 29.9402 38.5081C29.4522 38.9641 28.7442 39.1921 27.8162 39.1921H25.6082V42.6001H24.0602ZM25.6082 37.9681H27.6362C28.1482 37.9681 28.5322 37.8561 28.7882 37.6321C29.0442 37.4001 29.1722 37.0761 29.1722 36.6601C29.1722 36.2441 29.0442 35.9241 28.7882 35.7001C28.5322 35.4681 28.1482 35.3521 27.6362 35.3521H25.6082V37.9681ZM31.7178 38.3641C31.7178 37.4761 31.8778 36.7081 32.1978 36.0601C32.5258 35.4121 32.9938 34.9121 33.6018 34.5601C34.2098 34.2001 34.9338 34.0201 35.7738 34.0201C36.6058 34.0201 37.3258 34.2001 37.9338 34.5601C38.5418 34.9121 39.0098 35.4121 39.3378 36.0601C39.6738 36.7081 39.8418 37.4721 39.8418 38.3521C39.8418 39.2401 39.6738 40.0121 39.3378 40.6681C39.0098 41.3161 38.5418 41.8201 37.9338 42.1801C37.3258 42.5401 36.6058 42.7201 35.7738 42.7201C34.9338 42.7201 34.2098 42.5401 33.6018 42.1801C33.0018 41.8201 32.5378 41.3161 32.2098 40.6681C31.8818 40.0121 31.7178 39.2441 31.7178 38.3641ZM33.3378 38.3641C33.3378 39.3161 33.5418 40.0601 33.9498 40.5961C34.3578 41.1321 34.9658 41.4001 35.7738 41.4001C36.5578 41.4001 37.1618 41.1321 37.5858 40.5961C38.0098 40.0601 38.2218 39.3161 38.2218 38.3641C38.2218 37.4041 38.0098 36.6601 37.5858 36.1321C37.1698 35.6041 36.5658 35.3401 35.7738 35.3401C34.9658 35.3401 34.3578 35.6041 33.9498 36.1321C33.5418 36.6601 33.3378 37.4041 33.3378 38.3641ZM41.4391 42.6001V34.1401H42.6031L47.5111 40.4881H47.1991V34.1401H48.6391V42.6001H47.4751L42.5791 36.2521H42.8791V42.6001H41.4391ZM53.4497 42.7201C52.7697 42.7201 52.1417 42.6361 51.5657 42.4681C50.9977 42.2921 50.5097 42.0521 50.1017 41.7481L50.5817 40.5361C50.8537 40.7281 51.1377 40.8921 51.4337 41.0281C51.7297 41.1561 52.0457 41.2561 52.3817 41.3281C52.7177 41.3921 53.0737 41.4241 53.4497 41.4241C54.0817 41.4241 54.5377 41.3201 54.8177 41.1121C55.0977 40.9041 55.2377 40.6321 55.2377 40.2961C55.2377 40.0001 55.1417 39.7761 54.9497 39.6241C54.7577 39.4641 54.4137 39.3321 53.9177 39.2281L52.5617 38.9521C51.7857 38.7921 51.2057 38.5241 50.8217 38.1481C50.4377 37.7721 50.2457 37.2681 50.2457 36.6361C50.2457 36.1081 50.3857 35.6481 50.6657 35.2561C50.9457 34.8641 51.3377 34.5601 51.8417 34.3441C52.3457 34.1281 52.9337 34.0201 53.6057 34.0201C54.2057 34.0201 54.7617 34.1081 55.2737 34.2841C55.7857 34.4521 56.2137 34.6961 56.5577 35.0161L56.0777 36.1681C55.7337 35.8801 55.3577 35.6681 54.9497 35.5321C54.5417 35.3881 54.0857 35.3161 53.5817 35.3161C53.0137 35.3161 52.5697 35.4281 52.2497 35.6521C51.9377 35.8681 51.7817 36.1681 51.7817 36.5521C51.7817 36.8481 51.8777 37.0841 52.0697 37.2601C52.2697 37.4361 52.6057 37.5721 53.0777 37.6681L54.4217 37.9321C55.2217 38.0921 55.8137 38.3561 56.1977 38.7241C56.5817 39.0841 56.7737 39.5721 56.7737 40.1881C56.7737 40.6921 56.6377 41.1361 56.3657 41.5201C56.0937 41.8961 55.7097 42.1921 55.2137 42.4081C54.7177 42.6161 54.1297 42.7201 53.4497 42.7201ZM57.9561 38.3641C57.9561 37.4761 58.1161 36.7081 58.4361 36.0601C58.7641 35.4121 59.2321 34.9121 59.8401 34.5601C60.4481 34.2001 61.1721 34.0201 62.0121 34.0201C62.8441 34.0201 63.5641 34.2001 64.1721 34.5601C64.7801 34.9121 65.2481 35.4121 65.5761 36.0601C65.9121 36.7081 66.0801 37.4721 66.0801 38.3521C66.0801 39.2401 65.9121 40.0121 65.5761 40.6681C65.2481 41.3161 64.7801 41.8201 64.1721 42.1801C63.5641 42.5401 62.8441 42.7201 62.0121 42.7201C61.1721 42.7201 60.4481 42.5401 59.8401 42.1801C59.2401 41.8201 58.7761 41.3161 58.4481 40.6681C58.1201 40.0121 57.9561 39.2441 57.9561 38.3641ZM59.5761 38.3641C59.5761 39.3161 59.7801 40.0601 60.1881 40.5961C60.5961 41.1321 61.2041 41.4001 62.0121 41.4001C62.7961 41.4001 63.4001 41.1321 63.8241 40.5961C64.2481 40.0601 64.4601 39.3161 64.4601 38.3641C64.4601 37.4041 64.2481 36.6601 63.8241 36.1321C63.4081 35.6041 62.8041 35.3401 62.0121 35.3401C61.2041 35.3401 60.5961 35.6041 60.1881 36.1321C59.7801 36.6601 59.5761 37.4041 59.5761 38.3641ZM67.6774 42.6001V34.1401H71.3734C72.3014 34.1401 73.0174 34.3601 73.5214 34.8001C74.0334 35.2401 74.2894 35.8521 74.2894 36.6361C74.2894 37.1561 74.1734 37.6001 73.9414 37.9681C73.7174 38.3361 73.3934 38.6201 72.9694 38.8201C72.5454 39.0121 72.0454 39.1081 71.4694 39.1081L71.6374 38.8801H72.0454C72.3814 38.8801 72.6814 38.9681 72.9454 39.1441C73.2094 39.3201 73.4254 39.5881 73.5934 39.9481L74.8294 42.6001H73.1254L71.8774 39.8521C71.7654 39.5721 71.5934 39.3881 71.3614 39.3001C71.1374 39.2121 70.8654 39.1681 70.5454 39.1681H69.2254V42.6001H67.6774ZM69.2254 38.0281H71.1214C71.6654 38.0281 72.0774 37.9161 72.3574 37.6921C72.6454 37.4601 72.7894 37.1241 72.7894 36.6841C72.7894 36.2441 72.6454 35.9121 72.3574 35.6881C72.0774 35.4641 71.6654 35.3521 71.1214 35.3521H69.2254V38.0281ZM78.4602 42.6001L82.2882 34.1401H83.5842L87.4602 42.6001H85.8882L84.8562 40.2241L85.4802 40.6441H80.4042L81.0522 40.2241L80.0202 42.6001H78.4602ZM82.9242 35.7961L81.2322 39.8041L80.9202 39.4321H84.9522L84.7002 39.8041L82.9722 35.7961H82.9242ZM29.561 57.7201C28.881 57.7201 28.2531 57.6361 27.6771 57.4681C27.109 57.2921 26.621 57.0521 26.213 56.7481L26.693 55.5361C26.965 55.7281 27.249 55.8921 27.545 56.0281C27.841 56.1561 28.1571 56.2561 28.4931 56.3281C28.8291 56.3921 29.1851 56.4241 29.561 56.4241C30.1931 56.4241 30.6491 56.3201 30.9291 56.1121C31.2091 55.9041 31.3491 55.6321 31.3491 55.2961C31.3491 55.0001 31.2531 54.7761 31.0611 54.6241C30.8691 54.4641 30.5251 54.3321 30.029 54.2281L28.673 53.9521C27.8971 53.7921 27.3171 53.5241 26.933 53.1481C26.549 52.7721 26.357 52.2681 26.357 51.6361C26.357 51.1081 26.497 50.6481 26.7771 50.2561C27.057 49.8641 27.4491 49.5601 27.9531 49.3441C28.4571 49.1281 29.0451 49.0201 29.7171 49.0201C30.3171 49.0201 30.8731 49.1081 31.3851 49.2841C31.8971 49.4521 32.3251 49.6961 32.669 50.0161L32.1891 51.1681C31.8451 50.8801 31.4691 50.6681 31.0611 50.5321C30.6531 50.3881 30.1971 50.3161 29.6931 50.3161C29.125 50.3161 28.681 50.4281 28.3611 50.6521C28.049 50.8681 27.893 51.1681 27.893 51.5521C27.893 51.8481 27.989 52.0841 28.1811 52.2601C28.3811 52.4361 28.7171 52.5721 29.1891 52.6681L30.5331 52.9321C31.3331 53.0921 31.9251 53.3561 32.3091 53.7241C32.6931 54.0841 32.8851 54.5721 32.8851 55.1881C32.8851 55.6921 32.7491 56.1361 32.4771 56.5201C32.2051 56.8961 31.8211 57.1921 31.3251 57.4081C30.8291 57.6161 30.2411 57.7201 29.561 57.7201ZM40.3914 59.9041C40.1354 59.7601 39.8754 59.5681 39.6114 59.3281C39.3554 59.0961 39.1154 58.8321 38.8914 58.5361C38.6674 58.2401 38.4754 57.9401 38.3154 57.6361L39.5514 57.1081C39.7514 57.5241 40.0234 57.9001 40.3674 58.2361C40.7114 58.5721 41.0674 58.8561 41.4354 59.0881L40.3914 59.9041ZM34.0674 53.3641C34.0674 52.4761 34.2274 51.7081 34.5474 51.0601C34.8754 50.4121 35.3434 49.9121 35.9514 49.5601C36.5594 49.2001 37.2834 49.0201 38.1234 49.0201C38.9554 49.0201 39.6754 49.2001 40.2834 49.5601C40.8914 49.9121 41.3594 50.4121 41.6874 51.0601C42.0234 51.7081 42.1914 52.4721 42.1914 53.3521C42.1914 54.2401 42.0234 55.0121 41.6874 55.6681C41.3594 56.3161 40.8914 56.8201 40.2834 57.1801C39.6754 57.5401 38.9554 57.7201 38.1234 57.7201C37.2834 57.7201 36.5594 57.5401 35.9514 57.1801C35.3514 56.8201 34.8874 56.3161 34.5594 55.6681C34.2314 55.0121 34.0674 54.2441 34.0674 53.3641ZM35.6874 53.3641C35.6874 54.3161 35.8914 55.0601 36.2994 55.5961C36.7074 56.1321 37.3154 56.4001 38.1234 56.4001C38.9074 56.4001 39.5114 56.1321 39.9354 55.5961C40.3594 55.0601 40.5714 54.3161 40.5714 53.3641C40.5714 52.4041 40.3594 51.6601 39.9354 51.1321C39.5194 50.6041 38.9154 50.3401 38.1234 50.3401C37.3154 50.3401 36.7074 50.6041 36.2994 51.1321C35.8914 51.6601 35.6874 52.4041 35.6874 53.3641ZM43.0437 57.6001V55.9321H44.7237V57.6001H43.0437ZM49.6012 57.6001V49.1401H55.1812V50.3521H51.1492V52.7521H54.9052V53.9641H51.1492V57.6001H49.6012ZM56.4684 57.6001V49.1401H62.1684V50.3521H57.9564V52.6921H61.8924V53.9161H57.9564V56.3761H62.1684V57.6001H56.4684ZM63.6051 57.6001V49.1401H69.3051V50.3521H65.0931V52.6921H69.0291V53.9161H65.0931V56.3761H69.3051V57.6001H63.6051ZM72.6753 57.6001V50.4121H69.8793V49.1401H77.0193V50.4121H74.2233V57.6001H72.6753ZM36.2263 72.6001L34.4383 69.9241C34.3743 69.8201 34.3023 69.7361 34.2223 69.6721C34.1423 69.6001 34.0543 69.5481 33.9583 69.5161C33.8623 69.4761 33.7543 69.4561 33.6343 69.4561H31.9543V68.0281H34.1863C34.6023 68.0281 34.9183 67.9481 35.1343 67.7881C35.3583 67.6201 35.5303 67.3921 35.6503 67.1041L35.9023 67.2361H31.9543V66.0601H35.9023L35.6263 66.2401C35.5543 65.9441 35.4103 65.7161 35.1943 65.5561C34.9783 65.3961 34.6503 65.3161 34.2103 65.3161H31.9543V64.1401H38.6743V65.3161H36.9343L37.0903 65.1241C37.2903 65.2521 37.4423 65.4241 37.5463 65.6401C37.6503 65.8481 37.7143 66.0841 37.7383 66.3481L37.3783 66.0601H38.6743V67.2361H37.4143L37.7623 66.8641C37.7463 67.3681 37.6183 67.8121 37.3783 68.1961C37.1383 68.5721 36.8023 68.8641 36.3703 69.0721C35.9463 69.2721 35.4423 69.3721 34.8583 69.3721V69.2281H35.3623C35.7863 69.2281 36.1383 69.3001 36.4183 69.4441C36.6983 69.5801 36.9543 69.8121 37.1863 70.1401L38.8903 72.6001H36.2263ZM45.9064 72.7321C45.5304 72.7321 45.1544 72.6921 44.7784 72.6121C44.4024 72.5401 44.0544 72.4361 43.7344 72.3001C43.4144 72.1641 43.1424 72.0041 42.9184 71.8201L43.5904 70.1881C43.9424 70.4281 44.3104 70.6121 44.6944 70.7401C45.0784 70.8601 45.4664 70.9201 45.8584 70.9201C46.2664 70.9201 46.5824 70.8321 46.8064 70.6561C47.0384 70.4801 47.1544 70.2321 47.1544 69.9121C47.1544 69.5921 47.0464 69.3401 46.8304 69.1561C46.6144 68.9721 46.3224 68.8801 45.9544 68.8801C45.6824 68.8801 45.4304 68.9281 45.1984 69.0241C44.9664 69.1121 44.7464 69.2481 44.5384 69.4321H43.1704V64.1401H48.7144V65.9281H45.2344V67.8121H44.7424C44.9344 67.5881 45.1864 67.4201 45.4984 67.3081C45.8104 67.1881 46.1544 67.1281 46.5304 67.1281C47.0744 67.1281 47.5504 67.2441 47.9584 67.4761C48.3664 67.7001 48.6824 68.0161 48.9064 68.4241C49.1384 68.8321 49.2544 69.3081 49.2544 69.8521C49.2544 70.4281 49.1184 70.9361 48.8464 71.3761C48.5744 71.8081 48.1864 72.1441 47.6824 72.3841C47.1864 72.6161 46.5944 72.7321 45.9064 72.7321ZM53.1017 72.7321C52.7257 72.7321 52.3497 72.6921 51.9737 72.6121C51.5977 72.5401 51.2497 72.4361 50.9297 72.3001C50.6097 72.1641 50.3377 72.0041 50.1137 71.8201L50.7857 70.1881C51.1377 70.4281 51.5057 70.6121 51.8897 70.7401C52.2737 70.8601 52.6617 70.9201 53.0537 70.9201C53.4617 70.9201 53.7777 70.8321 54.0017 70.6561C54.2337 70.4801 54.3497 70.2321 54.3497 69.9121C54.3497 69.5921 54.2417 69.3401 54.0257 69.1561C53.8097 68.9721 53.5177 68.8801 53.1497 68.8801C52.8777 68.8801 52.6257 68.9281 52.3937 69.0241C52.1617 69.1121 51.9417 69.2481 51.7337 69.4321H50.3657V64.1401H55.9097V65.9281H52.4297V67.8121H51.9377C52.1297 67.5881 52.3817 67.4201 52.6937 67.3081C53.0057 67.1881 53.3497 67.1281 53.7257 67.1281C54.2697 67.1281 54.7457 67.2441 55.1537 67.4761C55.5617 67.7001 55.8777 68.0161 56.1017 68.4241C56.3337 68.8321 56.4497 69.3081 56.4497 69.8521C56.4497 70.4281 56.3137 70.9361 56.0417 71.3761C55.7697 71.8081 55.3817 72.1441 54.8777 72.3841C54.3817 72.6161 53.7897 72.7321 53.1017 72.7321ZM60.297 72.7321C59.921 72.7321 59.545 72.6921 59.169 72.6121C58.793 72.5401 58.445 72.4361 58.125 72.3001C57.805 72.1641 57.533 72.0041 57.309 71.8201L57.981 70.1881C58.333 70.4281 58.701 70.6121 59.085 70.7401C59.469 70.8601 59.857 70.9201 60.249 70.9201C60.657 70.9201 60.973 70.8321 61.197 70.6561C61.429 70.4801 61.545 70.2321 61.545 69.9121C61.545 69.5921 61.437 69.3401 61.221 69.1561C61.005 68.9721 60.713 68.8801 60.345 68.8801C60.073 68.8801 59.821 68.9281 59.589 69.0241C59.357 69.1121 59.137 69.2481 58.929 69.4321H57.561V64.1401H63.105V65.9281H59.625V67.8121H59.133C59.325 67.5881 59.577 67.4201 59.889 67.3081C60.201 67.1881 60.545 67.1281 60.921 67.1281C61.465 67.1281 61.941 67.2441 62.349 67.4761C62.757 67.7001 63.073 68.0161 63.297 68.4241C63.529 68.8321 63.645 69.3081 63.645 69.8521C63.645 70.4281 63.509 70.9361 63.237 71.3761C62.965 71.8081 62.577 72.1441 62.073 72.3841C61.577 72.6161 60.985 72.7321 60.297 72.7321ZM67.4923 72.7321C67.1163 72.7321 66.7403 72.6921 66.3643 72.6121C65.9883 72.5401 65.6403 72.4361 65.3203 72.3001C65.0003 72.1641 64.7283 72.0041 64.5043 71.8201L65.1763 70.1881C65.5283 70.4281 65.8963 70.6121 66.2803 70.7401C66.6643 70.8601 67.0523 70.9201 67.4443 70.9201C67.8523 70.9201 68.1683 70.8321 68.3923 70.6561C68.6243 70.4801 68.7403 70.2321 68.7403 69.9121C68.7403 69.5921 68.6323 69.3401 68.4163 69.1561C68.2003 68.9721 67.9083 68.8801 67.5403 68.8801C67.2683 68.8801 67.0163 68.9281 66.7843 69.0241C66.5523 69.1121 66.3323 69.2481 66.1243 69.4321H64.7563V64.1401H70.3003V65.9281H66.8203V67.8121H66.3283C66.5203 67.5881 66.7723 67.4201 67.0843 67.3081C67.3963 67.1881 67.7403 67.1281 68.1163 67.1281C68.6603 67.1281 69.1363 67.2441 69.5443 67.4761C69.9523 67.7001 70.2683 68.0161 70.4923 68.4241C70.7243 68.8321 70.8403 69.3081 70.8403 69.8521C70.8403 70.4281 70.7043 70.9361 70.4323 71.3761C70.1603 71.8081 69.7723 72.1441 69.2683 72.3841C68.7723 72.6161 68.1803 72.7321 67.4923 72.7321Z" fill="black"/>
<defs>
<filter id="filter0_bi_452_203" x="-61.0772" y="-61.0772" width="224.154" height="224.154" filterUnits="userSpaceOnUse" color-interpolation-filters="sRGB">
<feFlood flood-opacity="0" result="BackgroundImageFix"/>
<feGaussianBlur in="BackgroundImageFix" stdDeviation="30.5386"/>
<feComposite in2="SourceAlpha" operator="in" result="effect1_backgroundBlur_452_203"/>
<feBlend mode="normal" in="SourceGraphic" in2="effect1_backgroundBlur_452_203" result="shape"/>
<feColorMatrix in="SourceAlpha" type="matrix" values="0 0 0 0 0 0 0 0 0 0 0 0 0 0 0 0 0 0 127 0" result="hardAlpha"/>
<feOffset dx="39.0894" dy="10.9939"/>
<feGaussianBlur stdDeviation="23.2094"/>
<feComposite in2="hardAlpha" operator="arithmetic" k2="-1" k3="1"/>
<feColorMatrix type="matrix" values="0 0 0 0 1 0 0 0 0 1 0 0 0 0 1 0 0 0 0.25 0"/>
<feBlend mode="normal" in2="shape" result="effect2_innerShadow_452_203"/>
</filter>
<radialGradient id="paint0_radial_452_203" cx="0" cy="0" r="1" gradientUnits="userSpaceOnUse" gradientTransform="translate(51 51) rotate(90) scale(48.6279)">
<stop stop-color="#C7DCE8"/>
<stop offset="0.983367" stop-color="#35A4E2"/>
</radialGradient>
<radialGradient id="paint1_radial_452_203" cx="0" cy="0" r="1" gradientUnits="userSpaceOnUse" gradientTransform="translate(51.2799 50.8088) rotate(90) scale(44.8902)">
<stop stop-color="#F7FBFD"/>
<stop offset="0.983367" stop-color="#71A7CD"/>
</radialGradient>
<linearGradient id="paint2_linear_452_203" x1="9.51911" y1="36.2034" x2="71.6434" y2="64.6907" gradientUnits="userSpaceOnUse">
<stop stop-color="#F7FBFD"/>
<stop offset="1" stop-color="#F7FBFD" stop-opacity="0"/>
</linearGradient>
<linearGradient id="paint3_linear_452_203" x1="50.2482" y1="4.50176" x2="57.7493" y2="78.8436" gradientUnits="userSpaceOnUse">
<stop stop-color="#F7FBFD"/>
<stop offset="1" stop-color="#F7FBFD" stop-opacity="0"/>
</linearGradient>
</defs>
</svg>
