<svg width="105" height="105" viewBox="0 0 105 105" fill="none" xmlns="http://www.w3.org/2000/svg">
<g filter="url(#filter0_bi_452_233)">
<circle cx="52.5" cy="52.5" r="52.5" fill="url(#paint0_radial_452_233)" fill-opacity="0.98"/>
</g>
<mask id="mask0_452_233" style="mask-type:alpha" maskUnits="userSpaceOnUse" x="4" y="3" width="98" height="98">
<circle cx="52.7881" cy="52.3031" r="48.4647" fill="url(#paint1_radial_452_233)"/>
</mask>
<g mask="url(#mask0_452_233)">
<path fill-rule="evenodd" clip-rule="evenodd" d="M101.685 65.934C87.4609 91.2001 53.7876 105.177 28.5214 90.9527C3.25535 76.7284 -4.03575 39.6893 10.1886 14.4232C10.7927 13.3501 11.4288 12.3066 12.0952 11.2929C0.347612 35.9925 9.58201 65.9232 33.7753 79.5435C57.9684 93.1637 88.3478 85.5351 103.372 62.6808C102.851 63.7761 102.289 64.8611 101.685 65.934Z" fill="url(#paint2_linear_452_233)" fill-opacity="0.2"/>
<path fill-rule="evenodd" clip-rule="evenodd" d="M47.7933 104.63C75.0794 102.75 96.6305 80.0194 96.6305 52.2557C96.6305 24.4921 75.0794 1.76195 47.7933 -0.11848C49.0034 -0.201875 50.2248 -0.244263 51.4561 -0.244263C80.451 -0.244263 103.956 23.2608 103.956 52.2557C103.956 81.2507 80.451 104.756 51.4561 104.756C50.2248 104.756 49.0034 104.713 47.7933 104.63Z" fill="#F7FBFD" fill-opacity="0.52"/>
</g>
<path fill-rule="evenodd" clip-rule="evenodd" d="M42.9778 104.651C68.9632 101.642 89.1359 79.5608 89.1359 52.7684C89.1359 25.9761 68.9632 3.89531 42.9778 0.886193C44.9702 0.655466 46.9969 0.536865 49.0512 0.536865C77.8979 0.536865 101.283 23.9217 101.283 52.7684C101.283 81.6151 77.8979 105 49.0512 105C46.9969 105 44.9702 104.881 42.9778 104.651Z" fill="url(#paint3_linear_452_233)" fill-opacity="0.2"/>
<path d="M20.7903 43.62C20.1103 43.62 19.4823 43.536 18.9063 43.368C18.3383 43.192 17.8503 42.952 17.4423 42.648L17.9223 41.436C18.1943 41.628 18.4783 41.792 18.7743 41.928C19.0703 42.056 19.3863 42.156 19.7223 42.228C20.0583 42.292 20.4143 42.324 20.7903 42.324C21.4223 42.324 21.8783 42.22 22.1583 42.012C22.4383 41.804 22.5783 41.532 22.5783 41.196C22.5783 40.9 22.4823 40.676 22.2903 40.524C22.0983 40.364 21.7543 40.232 21.2583 40.128L19.9023 39.852C19.1263 39.692 18.5463 39.424 18.1623 39.048C17.7783 38.672 17.5863 38.168 17.5863 37.536C17.5863 37.008 17.7263 36.548 18.0063 36.156C18.2863 35.764 18.6783 35.46 19.1823 35.244C19.6863 35.028 20.2743 34.92 20.9463 34.92C21.5463 34.92 22.1023 35.008 22.6143 35.184C23.1263 35.352 23.5543 35.596 23.8983 35.916L23.4183 37.068C23.0743 36.78 22.6983 36.568 22.2903 36.432C21.8823 36.288 21.4263 36.216 20.9223 36.216C20.3543 36.216 19.9103 36.328 19.5903 36.552C19.2783 36.768 19.1223 37.068 19.1223 37.452C19.1223 37.748 19.2183 37.984 19.4103 38.16C19.6103 38.336 19.9463 38.472 20.4183 38.568L21.7623 38.832C22.5623 38.992 23.1543 39.256 23.5383 39.624C23.9223 39.984 24.1143 40.472 24.1143 41.088C24.1143 41.592 23.9783 42.036 23.7063 42.42C23.4343 42.796 23.0503 43.092 22.5543 43.308C22.0583 43.516 21.4703 43.62 20.7903 43.62ZM25.5727 43.5V35.04H29.3287C30.2567 35.04 30.9647 35.264 31.4527 35.712C31.9407 36.16 32.1847 36.776 32.1847 37.56C32.1847 38.336 31.9407 38.952 31.4527 39.408C30.9647 39.864 30.2567 40.092 29.3287 40.092H27.1207V43.5H25.5727ZM27.1207 38.868H29.1487C29.6607 38.868 30.0447 38.756 30.3007 38.532C30.5567 38.3 30.6847 37.976 30.6847 37.56C30.6847 37.144 30.5567 36.824 30.3007 36.6C30.0447 36.368 29.6607 36.252 29.1487 36.252H27.1207V38.868ZM33.2303 39.264C33.2303 38.376 33.3903 37.608 33.7103 36.96C34.0383 36.312 34.5063 35.812 35.1143 35.46C35.7223 35.1 36.4463 34.92 37.2863 34.92C38.1183 34.92 38.8383 35.1 39.4463 35.46C40.0543 35.812 40.5223 36.312 40.8503 36.96C41.1863 37.608 41.3543 38.372 41.3543 39.252C41.3543 40.14 41.1863 40.912 40.8503 41.568C40.5223 42.216 40.0543 42.72 39.4463 43.08C38.8383 43.44 38.1183 43.62 37.2863 43.62C36.4463 43.62 35.7223 43.44 35.1143 43.08C34.5143 42.72 34.0503 42.216 33.7223 41.568C33.3943 40.912 33.2303 40.144 33.2303 39.264ZM34.8503 39.264C34.8503 40.216 35.0543 40.96 35.4623 41.496C35.8703 42.032 36.4783 42.3 37.2863 42.3C38.0703 42.3 38.6743 42.032 39.0983 41.496C39.5223 40.96 39.7343 40.216 39.7343 39.264C39.7343 38.304 39.5223 37.56 39.0983 37.032C38.6823 36.504 38.0783 36.24 37.2863 36.24C36.4783 36.24 35.8703 36.504 35.4623 37.032C35.0543 37.56 34.8503 38.304 34.8503 39.264ZM42.9516 43.5V35.04H44.1156L49.0236 41.388H48.7116V35.04H50.1516V43.5H48.9876L44.0916 37.152H44.3916V43.5H42.9516ZM54.9622 43.62C54.2822 43.62 53.6542 43.536 53.0782 43.368C52.5102 43.192 52.0222 42.952 51.6142 42.648L52.0942 41.436C52.3662 41.628 52.6502 41.792 52.9462 41.928C53.2422 42.056 53.5582 42.156 53.8942 42.228C54.2302 42.292 54.5862 42.324 54.9622 42.324C55.5942 42.324 56.0502 42.22 56.3302 42.012C56.6102 41.804 56.7502 41.532 56.7502 41.196C56.7502 40.9 56.6542 40.676 56.4622 40.524C56.2702 40.364 55.9262 40.232 55.4302 40.128L54.0742 39.852C53.2982 39.692 52.7182 39.424 52.3342 39.048C51.9502 38.672 51.7582 38.168 51.7582 37.536C51.7582 37.008 51.8982 36.548 52.1782 36.156C52.4582 35.764 52.8502 35.46 53.3542 35.244C53.8582 35.028 54.4462 34.92 55.1182 34.92C55.7182 34.92 56.2742 35.008 56.7862 35.184C57.2982 35.352 57.7262 35.596 58.0702 35.916L57.5902 37.068C57.2462 36.78 56.8702 36.568 56.4622 36.432C56.0542 36.288 55.5982 36.216 55.0942 36.216C54.5262 36.216 54.0822 36.328 53.7622 36.552C53.4502 36.768 53.2942 37.068 53.2942 37.452C53.2942 37.748 53.3902 37.984 53.5822 38.16C53.7822 38.336 54.1182 38.472 54.5902 38.568L55.9342 38.832C56.7342 38.992 57.3262 39.256 57.7102 39.624C58.0942 39.984 58.2862 40.472 58.2862 41.088C58.2862 41.592 58.1502 42.036 57.8782 42.42C57.6062 42.796 57.2222 43.092 56.7262 43.308C56.2302 43.516 55.6422 43.62 54.9622 43.62ZM59.4686 39.264C59.4686 38.376 59.6286 37.608 59.9486 36.96C60.2766 36.312 60.7446 35.812 61.3526 35.46C61.9606 35.1 62.6846 34.92 63.5246 34.92C64.3566 34.92 65.0766 35.1 65.6846 35.46C66.2926 35.812 66.7606 36.312 67.0886 36.96C67.4246 37.608 67.5926 38.372 67.5926 39.252C67.5926 40.14 67.4246 40.912 67.0886 41.568C66.7606 42.216 66.2926 42.72 65.6846 43.08C65.0766 43.44 64.3566 43.62 63.5246 43.62C62.6846 43.62 61.9606 43.44 61.3526 43.08C60.7526 42.72 60.2886 42.216 59.9606 41.568C59.6326 40.912 59.4686 40.144 59.4686 39.264ZM61.0886 39.264C61.0886 40.216 61.2926 40.96 61.7006 41.496C62.1086 42.032 62.7166 42.3 63.5246 42.3C64.3086 42.3 64.9126 42.032 65.3366 41.496C65.7606 40.96 65.9726 40.216 65.9726 39.264C65.9726 38.304 65.7606 37.56 65.3366 37.032C64.9206 36.504 64.3166 36.24 63.5246 36.24C62.7166 36.24 62.1086 36.504 61.7006 37.032C61.2926 37.56 61.0886 38.304 61.0886 39.264ZM69.1899 43.5V35.04H72.8859C73.8139 35.04 74.5299 35.26 75.0339 35.7C75.5459 36.14 75.8019 36.752 75.8019 37.536C75.8019 38.056 75.6859 38.5 75.4539 38.868C75.2299 39.236 74.9059 39.52 74.4819 39.72C74.0579 39.912 73.5579 40.008 72.9819 40.008L73.1499 39.78H73.5579C73.8939 39.78 74.1939 39.868 74.4579 40.044C74.7219 40.22 74.9379 40.488 75.1059 40.848L76.3419 43.5H74.6379L73.3899 40.752C73.2779 40.472 73.1059 40.288 72.8739 40.2C72.6499 40.112 72.3779 40.068 72.0579 40.068H70.7379V43.5H69.1899ZM70.7379 38.928H72.6339C73.1779 38.928 73.5899 38.816 73.8699 38.592C74.1579 38.36 74.3019 38.024 74.3019 37.584C74.3019 37.144 74.1579 36.812 73.8699 36.588C73.5899 36.364 73.1779 36.252 72.6339 36.252H70.7379V38.928ZM79.9727 43.5L83.8007 35.04H85.0967L88.9727 43.5H87.4007L86.3687 41.124L86.9927 41.544H81.9167L82.5647 41.124L81.5327 43.5H79.9727ZM84.4367 36.696L82.7447 40.704L82.4327 40.332H86.4647L86.2127 40.704L84.4847 36.696H84.4367ZM35.7094 58.5V50.04H39.4174C40.3374 50.04 41.0454 50.236 41.5414 50.628C42.0374 51.012 42.2854 51.548 42.2854 52.236C42.2854 52.748 42.1334 53.18 41.8294 53.532C41.5254 53.884 41.1054 54.12 40.5694 54.24V54.06C41.1854 54.148 41.6614 54.372 41.9974 54.732C42.3414 55.084 42.5134 55.552 42.5134 56.136C42.5134 56.888 42.2534 57.472 41.7334 57.888C41.2134 58.296 40.4894 58.5 39.5614 58.5H35.7094ZM37.1974 57.324H39.3814C39.9014 57.324 40.3054 57.228 40.5934 57.036C40.8814 56.836 41.0254 56.512 41.0254 56.064C41.0254 55.608 40.8814 55.284 40.5934 55.092C40.3054 54.892 39.9014 54.792 39.3814 54.792H37.1974V57.324ZM37.1974 53.628H39.1534C39.7054 53.628 40.1134 53.528 40.3774 53.328C40.6494 53.12 40.7854 52.816 40.7854 52.416C40.7854 52.016 40.6494 51.716 40.3774 51.516C40.1134 51.308 39.7054 51.204 39.1534 51.204H37.1974V53.628ZM43.9946 58.5V50.04H47.6906C48.6186 50.04 49.3346 50.26 49.8386 50.7C50.3506 51.14 50.6066 51.752 50.6066 52.536C50.6066 53.056 50.4906 53.5 50.2586 53.868C50.0346 54.236 49.7106 54.52 49.2866 54.72C48.8626 54.912 48.3626 55.008 47.7866 55.008L47.9546 54.78H48.3626C48.6986 54.78 48.9986 54.868 49.2626 55.044C49.5266 55.22 49.7426 55.488 49.9106 55.848L51.1466 58.5H49.4426L48.1946 55.752C48.0826 55.472 47.9106 55.288 47.6786 55.2C47.4546 55.112 47.1826 55.068 46.8626 55.068H45.5426V58.5H43.9946ZM45.5426 53.928H47.4386C47.9826 53.928 48.3946 53.816 48.6746 53.592C48.9626 53.36 49.1066 53.024 49.1066 52.584C49.1066 52.144 48.9626 51.812 48.6746 51.588C48.3946 51.364 47.9826 51.252 47.4386 51.252H45.5426V53.928ZM52.4204 58.5V50.04H53.9684V58.5H52.4204ZM59.7665 58.62C58.8865 58.62 58.1305 58.444 57.4985 58.092C56.8745 57.732 56.3945 57.228 56.0585 56.58C55.7225 55.924 55.5545 55.152 55.5545 54.264C55.5545 53.376 55.7225 52.608 56.0585 51.96C56.3945 51.312 56.8745 50.812 57.4985 50.46C58.1305 50.1 58.8865 49.92 59.7665 49.92C60.3585 49.92 60.8905 50.004 61.3625 50.172C61.8425 50.34 62.2545 50.588 62.5985 50.916L62.0945 52.14C61.7185 51.836 61.3545 51.62 61.0025 51.492C60.6585 51.356 60.2625 51.288 59.8145 51.288C58.9585 51.288 58.3025 51.548 57.8465 52.068C57.3985 52.58 57.1745 53.312 57.1745 54.264C57.1745 55.216 57.3985 55.952 57.8465 56.472C58.3025 56.992 58.9585 57.252 59.8145 57.252C60.2625 57.252 60.6585 57.188 61.0025 57.06C61.3545 56.924 61.7185 56.7 62.0945 56.388L62.5985 57.612C62.2545 57.932 61.8425 58.18 61.3625 58.356C60.8905 58.532 60.3585 58.62 59.7665 58.62ZM64.0454 58.5V50.04H65.5934V53.784H65.6174L69.3014 50.04H71.1734L66.7574 54.444L66.7694 53.772L71.4614 58.5H69.5294L65.6174 54.588H65.5934V58.5H64.0454ZM37.7388 73.5L35.9508 70.824C35.8868 70.72 35.8148 70.636 35.7348 70.572C35.6548 70.5 35.5668 70.448 35.4708 70.416C35.3748 70.376 35.2668 70.356 35.1468 70.356H33.4668V68.928H35.6988C36.1148 68.928 36.4308 68.848 36.6468 68.688C36.8708 68.52 37.0428 68.292 37.1628 68.004L37.4148 68.136H33.4668V66.96H37.4148L37.1388 67.14C37.0668 66.844 36.9228 66.616 36.7068 66.456C36.4908 66.296 36.1628 66.216 35.7228 66.216H33.4668V65.04H40.1868V66.216H38.4468L38.6028 66.024C38.8028 66.152 38.9548 66.324 39.0588 66.54C39.1628 66.748 39.2268 66.984 39.2508 67.248L38.8908 66.96H40.1868V68.136H38.9268L39.2748 67.764C39.2588 68.268 39.1308 68.712 38.8908 69.096C38.6508 69.472 38.3148 69.764 37.8828 69.972C37.4588 70.172 36.9548 70.272 36.3708 70.272V70.128H36.8748C37.2988 70.128 37.6508 70.2 37.9308 70.344C38.2108 70.48 38.4668 70.712 38.6988 71.04L40.4028 73.5H37.7388ZM44.9709 73.5V71.7H46.8669V66.876H47.8749L45.1749 68.412V66.372L47.5029 65.04H49.0749V71.7H50.8389V73.5H44.9709ZM54.6142 73.632C54.2382 73.632 53.8622 73.592 53.4862 73.512C53.1102 73.44 52.7622 73.336 52.4422 73.2C52.1222 73.064 51.8502 72.904 51.6262 72.72L52.2982 71.088C52.6502 71.328 53.0182 71.512 53.4022 71.64C53.7862 71.76 54.1742 71.82 54.5662 71.82C54.9742 71.82 55.2902 71.732 55.5142 71.556C55.7462 71.38 55.8622 71.132 55.8622 70.812C55.8622 70.492 55.7542 70.24 55.5382 70.056C55.3222 69.872 55.0302 69.78 54.6622 69.78C54.3902 69.78 54.1382 69.828 53.9062 69.924C53.6742 70.012 53.4542 70.148 53.2462 70.332H51.8782V65.04H57.4222V66.828H53.9422V68.712H53.4502C53.6422 68.488 53.8942 68.32 54.2062 68.208C54.5182 68.088 54.8622 68.028 55.2382 68.028C55.7822 68.028 56.2582 68.144 56.6662 68.376C57.0742 68.6 57.3902 68.916 57.6142 69.324C57.8462 69.732 57.9622 70.208 57.9622 70.752C57.9622 71.328 57.8262 71.836 57.5542 72.276C57.2822 72.708 56.8942 73.044 56.3902 73.284C55.8942 73.516 55.3022 73.632 54.6142 73.632ZM61.8695 73.632C60.8295 73.632 60.0295 73.252 59.4695 72.492C58.9175 71.724 58.6415 70.64 58.6415 69.24C58.6415 67.824 58.9175 66.748 59.4695 66.012C60.0295 65.276 60.8295 64.908 61.8695 64.908C62.9175 64.908 63.7175 65.276 64.2695 66.012C64.8215 66.748 65.0975 67.82 65.0975 69.228C65.0975 70.636 64.8175 71.724 64.2575 72.492C63.7055 73.252 62.9095 73.632 61.8695 73.632ZM61.8695 71.868C62.2535 71.868 62.5375 71.66 62.7215 71.244C62.9135 70.828 63.0095 70.16 63.0095 69.24C63.0095 68.312 62.9135 67.652 62.7215 67.26C62.5375 66.86 62.2535 66.66 61.8695 66.66C61.4855 66.66 61.1975 66.86 61.0055 67.26C60.8215 67.652 60.7295 68.308 60.7295 69.228C60.7295 70.156 60.8215 70.828 61.0055 71.244C61.1975 71.66 61.4855 71.868 61.8695 71.868ZM69.0648 73.632C68.0248 73.632 67.2248 73.252 66.6648 72.492C66.1128 71.724 65.8368 70.64 65.8368 69.24C65.8368 67.824 66.1128 66.748 66.6648 66.012C67.2248 65.276 68.0248 64.908 69.0648 64.908C70.1128 64.908 70.9128 65.276 71.4648 66.012C72.0168 66.748 72.2928 67.82 72.2928 69.228C72.2928 70.636 72.0128 71.724 71.4528 72.492C70.9008 73.252 70.1048 73.632 69.0648 73.632ZM69.0648 71.868C69.4488 71.868 69.7328 71.66 69.9168 71.244C70.1088 70.828 70.2048 70.16 70.2048 69.24C70.2048 68.312 70.1088 67.652 69.9168 67.26C69.7328 66.86 69.4488 66.66 69.0648 66.66C68.6808 66.66 68.3928 66.86 68.2008 67.26C68.0168 67.652 67.9248 68.308 67.9248 69.228C67.9248 70.156 68.0168 70.828 68.2008 71.244C68.3928 71.66 68.6808 71.868 69.0648 71.868Z" fill="black"/>
<defs>
<filter id="filter0_bi_452_233" x="-61.0772" y="-61.0772" width="227.154" height="227.154" filterUnits="userSpaceOnUse" color-interpolation-filters="sRGB">
<feFlood flood-opacity="0" result="BackgroundImageFix"/>
<feGaussianBlur in="BackgroundImageFix" stdDeviation="30.5386"/>
<feComposite in2="SourceAlpha" operator="in" result="effect1_backgroundBlur_452_233"/>
<feBlend mode="normal" in="SourceGraphic" in2="effect1_backgroundBlur_452_233" result="shape"/>
<feColorMatrix in="SourceAlpha" type="matrix" values="0 0 0 0 0 0 0 0 0 0 0 0 0 0 0 0 0 0 127 0" result="hardAlpha"/>
<feOffset dx="39.0894" dy="10.9939"/>
<feGaussianBlur stdDeviation="23.2094"/>
<feComposite in2="hardAlpha" operator="arithmetic" k2="-1" k3="1"/>
<feColorMatrix type="matrix" values="0 0 0 0 1 0 0 0 0 1 0 0 0 0 1 0 0 0 0.25 0"/>
<feBlend mode="normal" in2="shape" result="effect2_innerShadow_452_233"/>
</filter>
<radialGradient id="paint0_radial_452_233" cx="0" cy="0" r="1" gradientUnits="userSpaceOnUse" gradientTransform="translate(52.5 52.5) rotate(90) scale(50.0581)">
<stop stop-color="#C7DCE8"/>
<stop offset="0.983367" stop-color="#35A4E2"/>
</radialGradient>
<radialGradient id="paint1_radial_452_233" cx="0" cy="0" r="1" gradientUnits="userSpaceOnUse" gradientTransform="translate(52.7881 52.3031) rotate(90) scale(46.2106)">
<stop stop-color="#F7FBFD"/>
<stop offset="0.983367" stop-color="#71A7CD"/>
</radialGradient>
<linearGradient id="paint2_linear_452_233" x1="9.79908" y1="37.2682" x2="73.7506" y2="66.5933" gradientUnits="userSpaceOnUse">
<stop stop-color="#F7FBFD"/>
<stop offset="1" stop-color="#F7FBFD" stop-opacity="0"/>
</linearGradient>
<linearGradient id="paint3_linear_452_233" x1="51.7261" y1="4.63421" x2="59.4478" y2="81.1626" gradientUnits="userSpaceOnUse">
<stop stop-color="#F7FBFD"/>
<stop offset="1" stop-color="#F7FBFD" stop-opacity="0"/>
</linearGradient>
</defs>
</svg>
