<svg width="252" height="209" viewBox="0 0 252 209" fill="none" xmlns="http://www.w3.org/2000/svg">
<g clip-path="url(#clip0)">
<path opacity="0.1" d="M245.872 121.154C245.872 121.313 245.872 121.472 245.872 121.628C245.845 124.366 245.685 127.097 245.393 129.821C245.394 129.838 245.394 129.854 245.393 129.871C245.37 130.097 245.344 130.321 245.318 130.547C245.275 130.93 245.229 131.31 245.177 131.692C244.58 136.349 243.591 140.946 242.221 145.432V145.432C240.387 151.493 237.793 157.291 234.504 162.682C233.492 164.33 232.415 165.926 231.271 167.468C230.661 168.286 230.038 169.085 229.394 169.871C228.943 170.421 228.483 170.962 228.015 171.495L227.723 171.823C225.258 174.569 222.602 177.132 219.775 179.49C215.16 183.373 210.191 186.751 205.143 189.885C204.855 190.065 204.566 190.242 204.276 190.406C204.256 190.42 204.234 190.433 204.212 190.445C197.351 194.656 190.236 198.455 182.906 201.498C174.881 204.837 166.595 207.265 158.093 208.327C146.243 209.806 134.249 208.603 122.471 206.537C112.675 204.828 102.998 202.481 93.499 199.51L91.9351 199.012C91.1249 198.75 90.3155 198.483 89.5071 198.211C84.6238 196.571 79.7951 194.749 75.0212 192.745C63.0313 187.732 51.5771 181.489 40.8372 174.113C39.4698 173.179 38.122 172.225 36.7939 171.25C34.9377 169.893 33.1037 168.496 31.2919 167.06L30.174 166.18C25.4325 162.411 20.9902 158.27 16.8881 153.794C11.3706 147.699 6.65568 140.823 3.55596 132.973C3.06712 131.739 2.61929 130.482 2.21249 129.202L2.17404 129.074C1.96893 128.424 1.7792 127.773 1.60486 127.096C1.34847 126.128 1.1237 125.148 0.93056 124.155C0.889538 123.965 0.853644 123.775 0.820314 123.583C0.20752 120.243 -0.0631281 116.847 0.0126948 113.451C0.0768185 110.475 0.42022 107.511 1.03824 104.602V104.602C1.6708 101.585 2.64559 98.6532 3.9431 95.8645V95.8645C5.11567 93.3569 6.60967 91.0177 8.38629 88.9076V88.9076C9.6347 87.4324 11.0387 86.1006 12.5731 84.936C15.3549 82.8331 18.4392 81.3678 21.6364 80.2096C23.1388 79.6631 24.6617 79.1842 26.1924 78.7391C27.2769 78.4216 28.3665 78.1197 29.451 77.823L32.6507 76.9459C34.7018 76.3785 36.7529 75.7955 38.7732 75.1657C44.2804 73.4584 49.6774 71.3919 54.6692 68.3103C55.4589 67.8236 56.264 67.2901 57.069 66.7175C58.0946 65.994 59.1047 65.208 60.1046 64.3595C61.1148 63.5006 62.1044 62.5819 63.0479 61.6085C63.1941 61.4576 63.3377 61.3066 63.4812 61.1531C64.2504 60.3306 64.9965 59.4691 65.6887 58.5738C66.0272 58.1366 66.3553 57.6915 66.6681 57.2387C67.1014 56.6114 67.5116 55.9738 67.8911 55.3179C69.7935 52.0386 70.9677 48.4209 70.8293 44.6081C70.8091 43.9798 70.7534 43.3533 70.6626 42.7315C70.3293 40.4334 70.0089 38.1899 69.773 35.9959C68.7833 26.9205 69.2012 18.6909 75.9109 10.9585C84.2537 1.34693 97.3474 -0.612861 109.267 0.154918C143.728 2.36716 175.099 22.3398 202.669 46.1176C205.053 48.1719 207.408 50.2541 209.735 52.3639C210.321 52.8949 210.908 53.4293 211.496 53.9672C215.854 57.9518 220.146 62.0848 224.143 66.5119C224.466 66.8711 224.79 67.2302 225.107 67.592C225.302 67.8158 225.5 68.0371 225.692 68.2635C226.938 69.6949 228.147 71.1611 229.32 72.6619C232.461 76.6464 235.235 80.9153 237.606 85.4149C241.238 92.4764 243.696 100.098 244.883 107.972V107.972C245.329 110.831 245.622 113.713 245.762 116.605C245.806 117.456 245.834 118.31 245.849 119.161C245.849 119.434 245.849 119.705 245.849 119.978C245.875 120.374 245.875 120.759 245.872 121.154Z" fill="#135EAD"/>
<path d="M101.011 116.791L96.9091 190.912L101.011 190.966L104.344 115.75L101.011 116.791Z" fill="#3F3D56"/>
<path d="M85.8844 154.344H35.1199V165.536H85.8844V154.344Z" fill="#135EAD"/>
<path d="M89.2175 164.232V171.259H36.7787C34.9224 169.902 33.0884 168.505 31.2766 167.069V164.232H89.2175Z" fill="#3F3D56"/>
<path d="M99.6883 148.239C99.5447 148.913 99.3576 149.579 99.1601 150.243C98.5782 152.161 97.8782 154.053 97.7423 156.047C97.5603 158.681 98.2551 161.744 96.4604 163.657C95.9989 164.151 95.3964 164.521 94.9836 165.049C94.92 165.132 94.8618 165.219 94.8093 165.309C94.4401 165.929 94.3965 166.684 94.3913 167.392C94.3957 168.901 94.4924 170.41 94.6811 171.907C95.2887 177.06 96.4886 182.224 94.9118 187.088C94.6261 187.932 94.2931 188.758 93.9145 189.563C93.1453 191.281 92.3069 192.976 92.0557 194.836C91.8711 196.216 91.9275 197.637 91.9172 199.04C91.107 198.778 90.2977 198.511 89.4892 198.238C84.6059 196.598 79.7773 194.777 75.0034 192.773C75.0162 192.702 75.029 192.629 75.0393 192.559C75.4059 190.243 74.9034 187.874 74.2932 185.615C73.0113 180.829 71.196 176.09 70.1218 171.27C69.6892 169.387 69.4054 167.472 69.2731 165.544C69.2424 165.112 69.2244 164.677 69.2219 164.242C69.209 163.675 69.2219 163.108 69.2449 162.535C69.2988 161.392 69.3475 160.036 68.4476 159.342C67.9527 158.964 67.299 158.899 66.7221 158.67C65.6094 158.23 64.8479 157.21 63.9659 156.393C63.5452 155.978 63.0315 155.674 62.4692 155.507C61.9068 155.339 61.3127 155.312 60.738 155.43C54.9745 156.77 50.7389 161.733 45.3753 164.242C45.1677 164.341 44.96 164.435 44.7497 164.523C44.0559 164.781 43.3956 165.124 42.7833 165.544C42.353 165.847 42.0409 166.294 41.9013 166.806C41.7654 167.358 41.8833 167.936 41.95 168.503C42.0579 169.425 42.019 170.36 41.8346 171.27C41.7651 171.622 41.6735 171.97 41.5603 172.311C41.3552 172.927 41.0809 173.531 40.8193 174.132C39.4519 173.199 38.1042 172.245 36.7761 171.27C34.9199 169.913 33.0859 168.516 31.2741 167.079L30.1742 166.181C25.4327 162.412 20.9903 158.271 16.8882 153.795C17.4343 152.234 18.224 150.781 18.6034 149.181C18.8188 148.262 18.8983 147.307 19.1957 146.414C19.5387 145.489 20.0156 144.62 20.6109 143.838C22.7911 140.751 25.4533 138.047 28.4923 135.832C31.6689 133.521 35.3378 131.668 38.1965 129.044C39.3566 128.013 40.3567 126.81 41.1629 125.476C41.2116 125.395 41.2578 125.309 41.2988 125.216C41.5219 124.745 41.6765 124.243 41.7577 123.727C41.9628 122.561 41.9321 121.281 42.0346 120.161C45.5171 120.773 49.0673 120.882 52.5798 120.484C56.6692 120.018 60.6688 118.865 64.7582 118.418C65.0658 118.381 65.3761 118.353 65.6863 118.327C66.9964 118.22 68.3091 118.196 69.6244 118.212C70.7243 118.212 71.8242 118.261 72.9241 118.298L85.0332 118.714C86.3741 118.761 87.7432 118.813 88.9918 119.31C90.4738 119.901 91.6608 121.078 92.612 122.371C92.7325 122.538 92.853 122.704 92.9658 122.876C93.7485 124.035 94.3762 125.294 94.8323 126.621C94.8811 126.756 94.9272 126.881 94.9708 127.03C95.0862 127.392 95.1861 127.756 95.2759 128.125C95.3451 128.414 95.4067 128.703 95.4631 128.995C95.7451 130.437 95.9117 131.91 96.3578 133.302C96.3886 133.404 96.4219 133.505 96.4578 133.604C96.9937 135.129 97.8833 136.496 98.5551 137.961C99.0394 139.022 99.409 140.132 99.6575 141.274C100.16 143.566 100.17 145.942 99.6883 148.239V148.239Z" fill="#35323E"/>
<path d="M62.8814 55.0979C61.7995 54.2234 60.2304 54.8637 58.9638 55.4284C57.9019 55.9046 56.8088 56.3055 55.6923 56.6283C55.4638 56.7175 55.2161 56.7436 54.9745 56.7037C54.4617 56.5788 54.2463 55.962 53.8643 55.5872C53.2003 54.9392 52.1132 55.0927 51.2568 55.4441C50.4005 55.7954 49.5544 56.3029 48.6366 56.2249C47.6572 56.1468 46.806 55.4128 45.8163 55.3894C44.0729 55.3478 42.6089 57.5288 40.9603 56.951C39.9553 56.5996 39.1656 55.2723 38.176 55.6497C37.4068 55.9464 37.3376 57.0265 36.8735 57.7318C36.3274 58.5542 35.2634 58.7859 34.3533 59.1502C31.4843 60.3006 29.5845 63.5461 29.9588 66.6536C30.1665 68.3688 30.9843 69.9408 31.5253 71.5779C33.1303 76.3381 32.5791 81.7073 34.602 86.2984C34.8583 86.0538 35.0019 85.9627 35.2506 85.7206C34.611 87.0672 34.4876 88.6072 34.9045 90.041C35.1173 90.7619 35.4634 91.4334 35.7249 92.1387C35.9966 92.9298 36.2159 93.7384 36.3813 94.5592L38.6118 104.548C39.4836 108.452 40.3578 112.356 40.5091 116.354C40.6033 118.953 40.4072 121.555 39.9245 124.11C43.9652 123.43 47.6623 121.611 51.7568 121.635C53.2592 121.635 54.7488 121.895 56.2384 122.103C60.5814 122.72 64.9622 123.022 69.3475 123.006C70.0295 123.045 70.7125 122.948 71.3576 122.72C71.9216 122.475 72.3831 122.041 72.9164 121.726C73.9599 121.101 75.2239 120.945 76.4263 120.945C81.9105 120.843 87.1946 122.881 92.6428 123.599C94.7939 119.016 94.9221 113.525 93.2709 108.733C92.7812 107.31 92.1223 105.922 91.9275 104.426C91.8492 103.506 91.8287 102.582 91.8659 101.659C91.8574 99.2973 91.4382 96.9554 90.6276 94.7414C90.3097 93.8747 89.9277 92.9924 89.961 92.0685C89.9943 91.1445 90.443 90.283 90.884 89.4658C91.7788 87.8001 92.6787 86.1188 93.9427 84.7134C95.2374 83.2611 96.8578 82.155 98.4602 81.0697L102.416 78.3734C101.875 74.904 101.178 71.2499 99.7293 68.0591C98.2807 64.8682 96.1143 61.9351 93.1838 60.069C92.1958 59.4656 91.1618 58.9434 90.0918 58.5074C88.5945 57.8671 87.0356 57.3024 85.4127 57.2061C83.5667 57.0993 81.7489 57.6017 79.926 57.914C74.1881 58.8952 67.4349 58.7754 62.8814 55.0979Z" fill="#135EAD"/>
<path d="M106.139 115.302L104.257 117.715L100.709 122.262L96.6065 127.516L95.4605 128.984H93.2376L38.1939 129.049L3.72273 129.088H2.18441C1.9793 128.438 1.78957 127.787 1.61523 127.11C1.35884 126.142 1.13408 125.162 0.940935 124.169C0.899913 123.979 0.864019 123.789 0.830688 123.597L13.3372 115.297L18.0394 115.271L32.4227 115.188L40.4553 115.141H41.9218H42.8422L48.1956 115.112L88.997 114.875L91.084 114.862H91.989L94.3862 114.849L103.306 114.797L105.019 114.136L105.144 114.272L106.139 115.302Z" fill="#3F3D56"/>
<path d="M105.37 114.001L105.157 114.261L103.757 115.935L100.875 119.388L94.8323 126.621L41.2988 125.234L0.930682 124.193C0.88966 124.003 0.853766 123.813 0.820436 123.62C0.207642 120.28 -0.063006 116.885 0.0128169 113.488L4.48933 111.161L5.51488 110.625L13.4962 106.461L20.5007 102.817L38.7708 105.227L42.8166 105.761L44.6472 106L47.3264 106.354L47.552 106.386L89.5662 111.916L94.2093 112.528L96.9347 112.887L105.334 113.996L105.37 114.001Z" fill="#504F60"/>
<path d="M96.6527 126.494L96.6091 127.516L96.3527 133.292L94.9734 165.044L94.6811 171.907L93.9119 189.563L93.4786 199.537L91.9147 199.04C91.1045 198.778 90.2951 198.51 89.4867 198.238L93.2376 129.008L93.3171 127.556L94.9682 127.035L96.6527 126.494Z" fill="#3F3D56"/>
<path d="M3.84067 126.418L3.7253 129.091L3.55608 132.995C3.06724 131.761 2.61942 130.504 2.21262 129.224L2.17416 129.096C1.96905 128.446 1.77932 127.795 1.60498 127.118L3.84067 126.418Z" fill="#3F3D56"/>
<path d="M70.8858 87.0662C77.3993 87.0662 82.6796 79.8417 82.6796 70.9298C82.6796 62.0179 77.3993 54.7934 70.8858 54.7934C64.3723 54.7934 59.092 62.0179 59.092 70.9298C59.092 79.8417 64.3723 87.0662 70.8858 87.0662Z" fill="#A1616A"/>
<path opacity="0.1" d="M70.8858 87.0662C77.3993 87.0662 82.6796 79.8417 82.6796 70.9298C82.6796 62.0179 77.3993 54.7934 70.8858 54.7934C64.3723 54.7934 59.092 62.0179 59.092 70.9298C59.092 79.8417 64.3723 87.0662 70.8858 87.0662Z" fill="black"/>
<path d="M72.5523 77.8268C81.6146 77.8268 88.9611 70.3692 88.9611 61.1699C88.9611 51.9705 81.6146 44.513 72.5523 44.513C63.49 44.513 56.1436 51.9705 56.1436 61.1699C56.1436 70.3692 63.49 77.8268 72.5523 77.8268Z" fill="#A1616A"/>
<path d="M72.8779 35.4975C71.8761 35.5785 70.8814 35.7325 69.9013 35.9581C67.3067 36.5984 65.0633 38.0194 62.8789 39.4144C61.8995 40.0417 60.8919 40.6949 60.2842 41.6163C59.192 43.2689 59.6151 45.3719 59.0023 47.2067C58.6844 48.1489 58.0998 48.9948 57.605 49.8719C56.2436 52.2767 55.5308 54.9184 54.8309 57.534C54.6873 58.0754 54.6463 58.8093 55.2283 59.0175C55.5634 59.0882 55.912 59.0481 56.2231 58.903C58.0614 58.2862 60.397 58.1092 61.761 59.3611C63.125 60.613 63.0096 62.833 64.6325 63.7856C66.4914 64.8865 69.3937 63.5565 71.0807 64.8553C71.8037 65.4122 72.0652 66.3049 72.6575 66.9764C74.0368 68.538 76.6904 68.4625 78.8979 68.1476C80.1645 67.9654 81.7182 67.8431 82.4873 68.7462C82.8565 69.173 82.9616 69.7586 83.3898 70.1438C84.159 70.8413 85.5665 70.4874 86.3177 69.7717C87.069 69.0559 87.4279 68.0877 88.0535 67.2835C89.2713 65.7219 91.4121 64.8709 92.6684 63.3275C93.7196 62.0262 94.0375 60.3969 94.3247 58.8249L95.3938 52.9976C95.8271 50.6344 96.222 48.0526 94.9118 45.9705C94.4452 45.2209 93.776 44.5755 93.3735 43.7999C93.1043 43.2794 92.953 42.7302 92.6402 42.2383C92.2693 41.7259 91.8262 41.2716 91.325 40.8901L88.7944 38.7638C87.9292 37.995 87.0041 37.2987 86.028 36.6817C82.4155 34.5449 77.0058 35.1071 72.8779 35.4975Z" fill="#464353"/>
<path d="M18.8316 78.4046C18.224 79.0605 17.6625 79.7684 17.0113 80.3826C16.4384 80.8998 15.8393 81.3863 15.2166 81.8401C14.2115 82.6035 13.2287 83.3939 12.2681 84.2111C11.2659 85.0154 10.3591 85.9351 9.5658 86.9517C8.19669 88.8178 7.54803 91.1393 6.2661 93.0679C5.13287 94.7778 3.53558 96.1286 2.3844 97.8255C1.87938 98.539 1.50426 99.3385 1.27681 100.186C1.10703 101.007 1.03047 101.844 1.04863 102.682C1.02555 104.056 1.00504 105.446 1.28194 106.792C1.55884 108.137 2.16647 109.459 3.2074 110.342C4.17398 111.161 5.42259 111.539 6.64555 111.851C7.27626 112.01 7.95825 112.158 8.55819 111.906C8.9972 111.681 9.37826 111.355 9.67092 110.953L12.7911 107.31C14.8781 104.863 17.0472 102.365 19.911 100.933C20.8084 100.488 21.7544 100.152 22.6543 99.7203C26.4694 97.8542 29.1666 94.0335 30.2126 89.8693C30.469 88.8516 30.6331 87.8132 30.7997 86.7747L31.251 83.9274C31.2856 83.7847 31.2856 83.6355 31.251 83.4928C31.1803 83.3323 31.0666 83.1952 30.9228 83.0972C28.7495 81.3154 26.7146 79.3664 24.8362 77.2672C24.3901 76.7675 23.9722 76.083 23.4568 75.664C22.8107 75.1435 22.8595 75.1825 22.0826 75.664C20.8876 76.4321 19.7949 77.3532 18.8316 78.4046V78.4046Z" fill="#A1616A"/>
<path d="M40.1758 97.3518C40.1499 97.2914 40.1122 97.2369 40.0649 97.1916C40.0177 97.1463 39.962 97.1112 39.9011 97.0883C39.8401 97.0655 39.7753 97.0553 39.7104 97.0586C39.6455 97.0618 39.5819 97.0783 39.5235 97.1071C39.4651 97.1358 39.413 97.1763 39.3703 97.2261C39.3277 97.2758 39.2954 97.3338 39.2754 97.3965C39.2553 97.4592 39.248 97.5254 39.2538 97.5911C39.2597 97.6568 39.2785 97.7206 39.3092 97.7787L39.0528 97.9062L46.6983 113.814L48.0802 113.129L40.4348 97.2113L40.1758 97.3518Z" fill="#3F3D56"/>
<path opacity="0.04" d="M18.8316 78.4046C18.224 79.0605 17.6625 79.7684 17.0113 80.3826C16.4384 80.8998 15.8393 81.3863 15.2166 81.8401C14.2115 82.6035 13.2287 83.3939 12.2681 84.2111C11.2659 85.0154 10.3591 85.9351 9.5658 86.9517C8.19669 88.8178 7.54803 91.1393 6.2661 93.0679C5.13287 94.7778 3.53558 96.1286 2.3844 97.8255C1.87938 98.539 1.50426 99.3385 1.27681 100.186C1.10703 101.007 1.03047 101.844 1.04863 102.682C1.02555 104.056 1.00504 105.446 1.28194 106.792C1.55884 108.137 2.16647 109.459 3.2074 110.342C4.17398 111.161 5.42259 111.539 6.64555 111.851C7.27626 112.01 7.95825 112.158 8.55819 111.906C8.9972 111.681 9.37826 111.355 9.67092 110.953L12.7911 107.31C14.8781 104.863 17.0472 102.365 19.911 100.933C20.8084 100.488 21.7544 100.152 22.6543 99.7203C26.4694 97.8542 29.1666 94.0335 30.2126 89.8693C30.469 88.8516 30.6331 87.8132 30.7997 86.7747L31.251 83.9274C31.2856 83.7847 31.2856 83.6355 31.251 83.4928C31.1803 83.3323 31.0666 83.1952 30.9228 83.0972C28.7495 81.3154 26.7146 79.3664 24.8362 77.2672C24.3901 76.7675 23.9722 76.083 23.4568 75.664C22.8107 75.1435 22.8595 75.1825 22.0826 75.664C20.8876 76.4321 19.7949 77.3532 18.8316 78.4046V78.4046Z" fill="black"/>
<path d="M107.218 107.721C107.193 109.381 107.129 111.091 106.449 112.606C106.157 113.262 105.703 113.907 105.024 114.123C104.613 114.22 104.187 114.236 103.77 114.17C98.7399 113.721 93.6714 114.13 88.7739 115.378C90.0815 112.723 89.3303 109.54 89.6918 106.594C89.7918 105.79 89.9738 104.998 90.043 104.192C90.2994 101.329 89.0918 98.5491 88.5381 95.7226C88.0573 93.2759 88.0573 90.7569 88.5381 88.3103C88.6324 87.6805 88.8456 87.0751 89.1662 86.5275C89.5417 85.9946 90.0353 85.5587 90.6071 85.2548C92.6838 84.055 95.1323 83.917 97.4654 84.0758C99.0371 84.1825 102.188 84.0315 103.498 85.0127C104.931 86.0876 105.385 89.6975 105.772 91.3658C106.352 93.9244 106.746 96.5227 106.952 99.1399C107.203 101.992 107.257 104.858 107.218 107.721Z" fill="#A1616A"/>
<path d="M15.3781 113.483L24.608 119.729L66.1427 118.168L38.7093 113.483H15.3781Z" fill="white"/>
<path d="M27.5488 63.8533C26.0335 65.2092 24.749 66.8073 23.3133 68.2517C21.3442 70.2349 19.1059 71.9214 16.8779 73.6002C17.6768 73.8268 18.4039 74.2602 18.9882 74.8579C19.5725 75.4555 19.9938 76.197 20.211 77.0096C20.3084 77.3922 20.3571 77.7904 20.4674 78.1652C20.7237 79.0527 21.2878 79.8179 21.8929 80.5076C24.4926 83.4824 28.1308 85.6842 29.664 89.3565C29.714 89.5352 29.8225 89.6913 29.9716 89.799C30.0964 89.8551 30.2349 89.8714 30.369 89.8458C31.7561 89.6975 32.8175 88.5627 33.702 87.4592C35.548 85.1168 37.1505 82.5298 38.0606 79.6721C38.9708 76.8144 39.1169 73.6548 38.1247 70.8231C37.6299 69.4125 36.8659 68.1164 36.107 66.8333C35.4421 65.7107 34.7789 64.5898 34.1174 63.4707C33.7713 62.8799 33.3303 61.6801 32.6509 61.3886C31.1843 60.7483 28.4897 62.8981 27.5488 63.8533Z" fill="#135EAD"/>
<path d="M103.065 80.6741L105.247 85.8794C102.872 85.0369 100.333 84.7804 97.8408 85.1312C95.3487 85.4819 92.9746 86.4298 90.9147 87.8964C89.6713 88.7995 88.5304 89.9343 87.9689 91.3761C87.6917 91.4296 87.4054 91.4025 87.1427 91.298C86.8801 91.1935 86.6519 91.0158 86.4844 90.7853C86.1562 90.3181 85.9659 89.7656 85.9357 89.1925C85.7332 87.1937 86.4793 85.2339 87.2177 83.3652C87.5612 82.4907 87.915 81.598 88.5252 80.8875C89.1354 80.177 89.9456 79.7085 90.7558 79.2661C93.3405 77.815 96.0476 76.6008 98.8448 75.638C100.024 75.2502 101.26 75.258 101.921 76.3771C102.688 77.7123 102.465 79.253 103.065 80.6741Z" fill="#135EAD"/>
<path d="M15.4319 96.2926C15.978 96.735 16.4575 97.2582 17.019 97.6798C17.6128 98.0984 18.2446 98.4583 18.906 98.7547L21.4339 99.9884C22.2173 100.402 23.037 100.74 23.8824 100.998C24.9644 101.292 26.1002 101.321 27.1873 101.594C28.5589 101.938 29.8127 102.653 31.1638 103.067C32.515 103.481 34.0969 103.549 35.225 102.687C35.93 102.149 36.4633 101.258 37.3376 101.126C37.9017 101.05 38.4452 101.326 38.9477 101.594L45.5266 105.105C46.4137 105.579 47.3521 106.105 47.8161 107.008C48.2802 107.911 47.9674 109.282 46.9906 109.517C46.6501 109.556 46.3077 109.576 45.965 109.576C45.6266 109.618 45.2574 109.821 45.2113 110.167C45.2095 110.382 45.2654 110.594 45.3728 110.779C45.6676 111.466 45.7548 112.288 45.4112 112.955C45.0677 113.621 44.2242 114.035 43.5499 113.736C43.6652 114.743 42.5858 115.448 41.6244 115.716C39.199 116.39 36.6274 115.976 34.1482 115.55C33.1739 115.383 32.1842 115.211 31.2971 114.769C30.8715 114.558 30.4767 114.287 30.046 114.092C28.864 113.559 27.5206 113.629 26.2284 113.652C20.252 113.759 14.3269 112.635 8.45051 111.515C7.36087 111.307 6.24046 111.086 5.30977 110.474C3.51507 109.288 2.84846 106.852 3.14331 104.697C3.43815 102.542 4.51497 100.59 5.57385 98.6948L6.94552 96.2405C7.12483 95.8646 7.3758 95.5284 7.68392 95.2515C9.70168 93.6874 13.7039 94.882 15.4319 96.2926Z" fill="#A1616A"/>
<path opacity="0.04" d="M15.4319 96.2926C15.978 96.735 16.4575 97.2582 17.019 97.6798C17.6128 98.0984 18.2446 98.4583 18.906 98.7547L21.4339 99.9884C22.2173 100.402 23.037 100.74 23.8824 100.998C24.9644 101.292 26.1002 101.321 27.1873 101.594C28.5589 101.938 29.8127 102.653 31.1638 103.067C32.515 103.481 34.0969 103.549 35.225 102.687C35.93 102.149 36.4633 101.258 37.3376 101.126C37.9017 101.05 38.4452 101.326 38.9477 101.594L45.5266 105.105C46.4137 105.579 47.3521 106.105 47.8161 107.008C48.2802 107.911 47.9674 109.282 46.9906 109.517C46.6501 109.556 46.3077 109.576 45.965 109.576C45.6266 109.618 45.2574 109.821 45.2113 110.167C45.2095 110.382 45.2654 110.594 45.3728 110.779C45.6676 111.466 45.7548 112.288 45.4112 112.955C45.0677 113.621 44.2242 114.035 43.5499 113.736C43.6652 114.743 42.5858 115.448 41.6244 115.716C39.199 116.39 36.6274 115.976 34.1482 115.55C33.1739 115.383 32.1842 115.211 31.2971 114.769C30.8715 114.558 30.4767 114.287 30.046 114.092C28.864 113.559 27.5206 113.629 26.2284 113.652C20.252 113.759 14.3269 112.635 8.45051 111.515C7.36087 111.307 6.24046 111.086 5.30977 110.474C3.51507 109.288 2.84846 106.852 3.14331 104.697C3.43815 102.542 4.51497 100.59 5.57385 98.6948L6.94552 96.2405C7.12483 95.8646 7.3758 95.5284 7.68392 95.2515C9.70168 93.6874 13.7039 94.882 15.4319 96.2926Z" fill="black"/>
<path d="M93.6966 100.79C92.3608 101.43 90.8276 101.493 89.4328 101.985C88.0381 102.476 86.8536 103.361 85.5742 104.082C82.2412 105.972 78.3954 106.685 74.6188 107.364C72.3293 107.781 70.0038 108.197 67.6964 108.098C64.5736 107.963 61.5739 106.906 58.5485 106.11C55.5231 105.313 52.2952 104.777 49.2981 105.672C47.733 106.156 46.3022 107.008 45.1217 108.157C43.9413 109.307 43.0444 110.724 42.5038 112.291C41.8757 114.162 41.7885 116.179 41.909 118.152C42.5397 118.623 43.4217 117.97 43.7652 117.254C44.1088 116.539 44.296 115.661 44.9626 115.245C46.1189 115.643 46.4009 117.207 47.3546 117.98C47.9495 118.464 48.7443 118.592 49.5006 118.701L53.3977 119.263C54.3361 119.399 55.4257 119.49 56.1051 118.818C56.4359 118.493 56.6179 118.038 56.9204 117.689C57.5409 116.991 58.5767 116.872 59.4997 116.965C62.3815 117.257 65.0838 119.154 67.9451 118.704C68.9296 118.55 69.8449 118.124 70.7833 117.788C76.3443 115.794 82.5232 117.007 88.3099 115.864C90.5174 115.43 92.6428 114.659 94.7426 113.847C95.8835 113.408 97.0373 112.947 98.0115 112.203C98.9346 111.482 99.6624 110.536 100.127 109.452C100.592 108.368 100.778 107.182 100.668 106.006C100.453 104.212 99.5717 102.57 98.2038 101.415C97.7526 101.024 97.1603 100.277 96.6194 100.033C95.5861 99.5719 94.5734 100.371 93.6966 100.79Z" fill="#A1616A"/>
<g opacity="0.1">
<path opacity="0.1" d="M86.2049 67.5412C85.7768 67.156 85.6717 66.5704 85.3025 66.1436C84.5333 65.2405 82.9796 65.3628 81.713 65.545C79.5056 65.8599 76.8417 65.9328 75.4726 64.3738C74.8803 63.7023 74.6188 62.8122 73.8958 62.2526C72.2088 60.9513 69.3065 62.2839 67.4477 61.1829C65.8247 60.2226 65.9299 57.9947 64.5761 56.7584C63.2224 55.5222 60.8765 55.6835 59.0382 56.3004C58.7272 56.4454 58.3785 56.4856 58.0434 56.4149C57.4614 56.2067 57.5024 55.4727 57.646 54.9314C58.3459 52.3157 59.0587 49.674 60.4201 47.2692C60.9149 46.3921 61.4995 45.5463 61.8174 44.6041C62.3738 42.954 62.0892 41.0879 62.8199 39.5263C62.0354 40.0469 61.2816 40.6142 60.797 41.3482C59.7048 43.0009 60.1278 45.1038 59.5151 46.9387C59.1971 47.8808 58.6126 48.7267 58.1178 49.6038C56.7563 52.0086 56.0436 54.6503 55.3437 57.266C55.2001 57.8073 55.1591 58.5413 55.741 58.7495C56.0762 58.8201 56.4248 58.78 56.7358 58.6349C58.5741 58.0181 60.9098 57.8411 62.2738 59.093C63.6378 60.3449 63.5224 62.5649 65.1453 63.5175C67.0041 64.6184 69.9064 63.2885 71.5935 64.5872C72.3165 65.1442 72.578 66.0369 73.1702 66.7083C74.5496 68.2699 77.2032 68.1945 79.4107 67.8795C80.6772 67.6974 82.2309 67.575 83.0001 68.4781C83.3693 68.905 83.4744 69.4906 83.9026 69.8758C84.6717 70.5733 86.0793 70.2193 86.8305 69.5036C87.3122 68.9944 87.7244 68.4219 88.0561 67.8015C87.3895 68.0071 86.6793 67.9758 86.2049 67.5412Z" fill="black"/>
<path opacity="0.1" d="M90.8763 64.6783C90.7112 64.8942 90.5579 65.1192 90.4174 65.3524C91.4019 64.6392 92.4454 63.973 93.1812 63.0646C93.3722 62.8296 93.5437 62.5789 93.694 62.3151C92.671 63.0594 91.6044 63.7439 90.8763 64.6783Z" fill="black"/>
</g>
<path d="M142.674 116.216L143.443 190.912L147.033 190.391L146.264 116.216H142.674Z" fill="#3F3D56"/>
<path d="M164.211 129.75L164.98 204.445L168.569 203.925L167.8 129.75H164.211Z" fill="#3F3D56"/>
<path d="M231.263 167.483L231.248 166.049V165.195L231.112 152.057L230.899 131.517L230.863 129.744H227.274L227.292 131.452L227.405 142.453L227.454 147.216L227.495 151.073L227.561 157.741L227.602 161.674V162.09L227.656 167.259L227.702 171.816L227.994 171.488C228.465 170.955 228.924 170.414 229.374 169.864L231.263 167.483Z" fill="#3F3D56"/>
<path d="M160.237 141.852L158.186 144.965L160.237 159.146L177.671 163.99H205.873L222.795 165.028L230.856 159.427L229.461 149.808L223.308 141.852H160.237Z" fill="#135EAD"/>
<path d="M158.186 144.965L157.16 153.611C157.16 153.611 151.776 170.562 195.105 169.523C238.435 168.485 230.999 165.026 230.999 165.026L230.743 154.995C230.743 154.995 232.253 159.742 210.232 159.1C188.211 158.457 167.672 156.38 167.672 156.38C167.672 156.38 159.98 157.762 158.186 144.965Z" fill="#3F3D56"/>
<path d="M194.285 67.4683C191.813 68.6109 189.942 70.8257 188.688 73.2748C187.434 75.7239 186.729 78.4124 186.034 81.0827C185.301 83.8988 184.565 86.7227 184.186 89.609C183.509 94.7414 184.016 100.137 186.339 104.746C188.662 109.355 192.954 113.074 197.979 113.962C199.92 114.308 201.915 114.238 203.876 114.032C207.421 113.651 210.914 112.87 214.288 111.703C217.813 110.493 221.482 108.629 223.051 105.196C223.962 103.205 224.038 100.936 223.995 98.7443C223.874 92.7715 222.985 86.8402 221.352 81.101C220.877 79.4353 220.326 77.7566 219.321 76.3537C218.316 74.9509 216.942 73.9229 215.539 72.9703C209.542 68.8711 201.661 64.0641 194.285 67.4683Z" fill="#FBBEBE"/>
<path opacity="0.05" d="M194.285 67.4683C191.813 68.6109 189.942 70.8257 188.688 73.2748C187.434 75.7239 186.729 78.4124 186.034 81.0827C185.301 83.8988 184.565 86.7227 184.186 89.609C183.509 94.7414 184.016 100.137 186.339 104.746C188.662 109.355 192.954 113.074 197.979 113.962C199.92 114.308 201.915 114.238 203.876 114.032C207.421 113.651 210.914 112.87 214.288 111.703C217.813 110.493 221.482 108.629 223.051 105.196C223.962 103.205 224.038 100.936 223.995 98.7443C223.874 92.7715 222.985 86.8402 221.352 81.101C220.877 79.4353 220.326 77.7566 219.321 76.3537C218.316 74.9509 216.942 73.9229 215.539 72.9703C209.542 68.8711 201.661 64.0641 194.285 67.4683Z" fill="black"/>
<path d="M191.508 100.228C192.224 101.226 193.089 102.104 194.072 102.83C196.513 104.543 199.646 104.775 202.61 104.868C204.989 104.941 207.717 104.803 209.209 102.919C209.881 102.07 210.183 100.988 210.455 99.9337C212.132 93.4611 213.324 86.8688 214.019 80.2134L220.808 80.2369C223.746 93.008 223.505 106.284 223.249 119.399L222.877 138.523L218.503 138.052C208.117 136.935 197.715 135.819 187.273 135.626C181.154 135.512 175.034 135.717 168.936 136.241L178.461 107.492C179.696 103.754 180.945 99.9675 181.235 96.0401C181.653 90.3429 180.078 84.3282 182.26 79.0579C182.435 78.6336 182.655 78.1938 183.052 77.9726C183.45 77.7513 183.952 77.806 184.409 77.8659C185.27 77.983 187.903 77.8659 188.529 78.4254C189.452 79.2374 188.842 79.3598 188.516 80.6689C187.934 83.0113 187.383 85.1793 187.391 87.6206C187.398 92.0529 188.752 96.7324 191.508 100.228Z" fill="#135EAD"/>
<path d="M231.263 167.483C232.407 165.942 233.485 164.346 234.496 162.696C233.984 161.582 233.42 160.495 232.971 159.357C232.284 157.613 231.889 155.766 231.499 153.931C231.366 153.306 231.234 152.681 231.102 152.057C229.666 145.261 228.318 138.369 228.038 131.48C228.012 130.908 227.996 130.335 227.989 129.763C227.989 129.679 227.989 129.599 227.989 129.502C227.989 128.875 227.989 128.248 227.989 127.623C228.02 126.062 228.118 124.487 228.294 122.92C228.328 122.613 228.366 122.306 228.407 121.999C228.407 121.931 228.423 121.866 228.433 121.798L245.867 121.153L247.334 121.098C248.341 121.062 249.408 121.005 250.239 120.424C251.636 119.451 251.8 117.455 251.777 115.74C251.692 111.404 251.208 107.087 250.331 102.843C249.669 99.6526 248.726 96.3915 246.608 93.9398C244.87 91.9253 242.352 90.46 241.447 87.9537C241.111 87.022 241.027 85.9991 240.591 85.109C240.155 84.2189 239.434 83.5656 238.755 82.8785C236.364 80.4733 234.38 77.684 232.884 74.623C231.845 72.4992 230.72 70.1568 229.364 68.6889C229.297 68.6135 229.23 68.5432 229.161 68.4755C228.007 67.3173 226.687 66.8098 225.123 67.5984C224.842 67.7417 224.574 67.9107 224.323 68.1033V68.1033C223.766 68.5357 223.256 69.0278 222.803 69.5712C221.223 71.4152 219.837 73.4214 218.667 75.5573C217.845 77.0611 217.138 78.6274 216.555 80.2421C216.094 81.5177 215.713 82.8216 215.414 84.146C215.193 85.1272 215.019 86.1188 214.88 87.1131C214.368 90.8504 214.368 94.6607 214.439 98.445C214.516 101.922 214.668 105.407 214.978 108.871C215.055 109.709 215.14 110.546 215.234 111.383C215.422 113.036 215.655 114.685 215.932 116.328C216.042 116.955 216.155 117.582 216.28 118.207C216.311 118.373 216.344 118.54 216.378 118.704L216.393 118.774C216.732 120.226 216.994 121.695 217.18 123.175C217.201 123.361 217.216 123.546 217.226 123.73C217.269 124.58 217.263 125.433 217.206 126.283C217.147 127.287 217.055 128.289 217.008 129.294C217.008 129.471 217.008 129.645 216.99 129.815C216.978 130.322 216.99 130.83 216.99 131.337C217.042 132.551 217.185 133.76 217.416 134.952C217.848 137.17 218.595 139.313 219.634 141.313C219.731 141.5 219.831 141.685 219.931 141.867C221.231 144.225 222.872 146.388 224.074 148.801C225.112 150.972 225.886 153.262 226.382 155.622C226.553 156.401 226.715 157.182 226.869 157.965C227.107 159.214 227.32 160.474 227.538 161.733C227.559 161.858 227.582 161.994 227.605 162.108C227.895 163.779 228.2 165.442 228.592 167.074C228.82 168.024 229.076 168.961 229.376 169.882L231.263 167.483Z" fill="#464353"/>
<path d="M227.838 146.969C227.838 147.203 227.823 147.437 227.812 147.674C227.767 148.816 227.663 149.955 227.502 151.086C227.29 152.63 226.918 154.147 226.392 155.612C226.044 156.575 225.6 157.5 225.069 158.373C224.598 159.149 224.046 159.87 223.423 160.526C221.885 162.15 219.67 162.668 217.526 163.352C216.54 163.642 215.587 164.037 214.683 164.531C214.521 164.622 214.362 164.721 214.209 164.825L211.527 166.629C210.691 167.189 209.837 167.769 209.263 168.599C209.169 168.74 209.083 168.887 209.006 169.039C208.644 169.803 208.378 170.611 208.217 171.444C206.822 177.341 205.425 183.244 204.468 189.23C204.404 189.626 204.343 190.024 204.276 190.422L204.253 190.547C204.242 190.518 204.228 190.489 204.212 190.461C197.351 194.672 190.236 198.472 182.906 201.515L181.314 187.981C181.148 186.881 181.093 185.766 181.15 184.655C181.301 182.903 182.004 181.243 182.194 179.496C182.373 177.787 182.055 176.061 181.278 174.533C180.976 173.94 180.596 173.357 180.527 172.693C180.458 172.029 180.835 171.423 181.491 171.355C182.004 170.778 182.045 169.989 181.894 169.208C181.813 168.801 181.693 168.402 181.535 168.019C181.099 166.931 180.548 165.747 180.922 164.635C181.021 164.434 181.065 164.209 181.05 163.985C181.053 163.971 181.053 163.957 181.05 163.943C180.963 163.652 180.622 163.524 180.445 163.277C180.112 162.816 180.445 162.189 180.65 161.658C180.85 161.087 180.965 160.49 180.994 159.886C181.022 159.55 181.042 159.211 181.078 158.878C181.128 158.428 181.208 157.981 181.317 157.541C181.94 155.047 183.437 152.871 185.529 151.419C186.527 150.737 187.637 150.24 188.655 149.597C189.697 148.884 190.692 148.101 191.634 147.255C193.892 145.346 196.239 143.547 198.677 141.857C201.298 140.04 204.012 138.367 206.809 136.844C207.407 136.516 208.006 136.197 208.604 135.887C209.255 135.54 209.911 135.211 210.57 134.9C212.683 133.877 215.08 134.26 217.416 134.942C218.395 135.226 219.362 135.564 220.295 135.871C221.207 136.172 222.083 136.571 222.91 137.063C224.979 138.297 226.689 140.118 227.4 142.419C227.401 142.434 227.401 142.449 227.4 142.463C227.851 143.905 227.879 145.451 227.838 146.969Z" fill="#B9AA29"/>
<path opacity="0.1" d="M227.838 146.969C227.838 147.203 227.823 147.437 227.812 147.674C227.767 148.816 227.663 149.955 227.502 151.086C227.29 152.63 226.918 154.147 226.392 155.612C226.044 156.575 225.6 157.5 225.069 158.373C224.598 159.149 224.046 159.87 223.423 160.526C221.885 162.15 219.67 162.668 217.526 163.352C216.54 163.642 215.587 164.037 214.683 164.531C214.521 164.622 214.362 164.721 214.209 164.825L211.527 166.629C210.691 167.189 209.837 167.769 209.263 168.599C209.169 168.74 209.083 168.887 209.006 169.039C208.644 169.803 208.378 170.611 208.217 171.444C206.822 177.341 205.425 183.244 204.468 189.23C204.404 189.626 204.343 190.024 204.276 190.422L204.253 190.547C204.242 190.518 204.228 190.489 204.212 190.461C197.351 194.672 190.236 198.472 182.906 201.515L181.314 187.981C181.148 186.881 181.093 185.766 181.15 184.655C181.301 182.903 182.004 181.243 182.194 179.496C182.373 177.787 182.055 176.061 181.278 174.533C180.976 173.94 180.596 173.357 180.527 172.693C180.458 172.029 180.835 171.423 181.491 171.355C182.004 170.778 182.045 169.989 181.894 169.208C181.813 168.801 181.693 168.402 181.535 168.019C181.099 166.931 180.548 165.747 180.922 164.635C181.021 164.434 181.065 164.209 181.05 163.985C181.053 163.971 181.053 163.957 181.05 163.943C180.963 163.652 180.622 163.524 180.445 163.277C180.112 162.816 180.445 162.189 180.65 161.658C180.85 161.087 180.965 160.49 180.994 159.886C181.022 159.55 181.042 159.211 181.078 158.878C181.128 158.428 181.208 157.981 181.317 157.541C181.94 155.047 183.437 152.871 185.529 151.419C186.527 150.737 187.637 150.24 188.655 149.597C189.697 148.884 190.692 148.101 191.634 147.255C193.892 145.346 196.239 143.547 198.677 141.857C201.298 140.04 204.012 138.367 206.809 136.844C207.407 136.516 208.006 136.197 208.604 135.887C209.255 135.54 209.911 135.211 210.57 134.9C212.683 133.877 215.08 134.26 217.416 134.942C218.395 135.226 219.362 135.564 220.295 135.871C221.207 136.172 222.083 136.571 222.91 137.063C224.979 138.297 226.689 140.118 227.4 142.419C227.401 142.434 227.401 142.449 227.4 142.463C227.851 143.905 227.879 145.451 227.838 146.969Z" fill="#DDCC37"/>
<path d="M203.494 103.859C203.468 103.798 203.431 103.744 203.383 103.698C203.336 103.653 203.28 103.618 203.219 103.595C203.159 103.572 203.094 103.562 203.029 103.565C202.964 103.568 202.9 103.585 202.842 103.614C202.783 103.643 202.731 103.683 202.689 103.733C202.646 103.782 202.614 103.84 202.594 103.903C202.574 103.966 202.566 104.032 202.572 104.098C202.578 104.163 202.597 104.227 202.628 104.285L202.371 104.413L210.017 120.32L211.399 119.636L203.753 103.718L203.494 103.859Z" fill="#3F3D56"/>
<path d="M213.052 87.1963C222.115 87.1963 229.461 79.7388 229.461 70.5394C229.461 61.34 222.115 53.8825 213.052 53.8825C203.99 53.8825 196.644 61.34 196.644 70.5394C196.644 79.7388 203.99 87.1963 213.052 87.1963Z" fill="#FBBEBE"/>
<path d="M234.709 60.2277C234.632 58.9036 234.439 57.5892 234.13 56.3003C233.166 52.0919 231.404 47.9485 228.371 44.9268C228.184 44.188 227.961 43.4592 227.702 42.7432C227.697 42.7254 227.691 42.7081 227.684 42.6911C226.78 40.1686 225.472 37.8147 223.813 35.7239C222.851 34.511 221.605 33.3138 220.072 33.267C219.641 33.2513 219.185 33.3268 218.79 33.1264C218.5 32.9358 218.255 32.6815 218.075 32.3821C217.316 31.4081 216.309 30.6632 215.163 30.2279C214.017 29.7926 212.776 29.6834 211.573 29.9122L211.414 29.946C211.324 29.9642 211.234 29.985 211.158 30.0085C211.081 30.0319 210.942 30.0709 210.835 30.1048C210.952 30.3026 211.068 30.503 211.181 30.706C211.485 31.256 211.767 31.8182 212.027 32.3925C212.242 32.8714 212.441 33.3581 212.624 33.8526C209.999 34.1571 207.86 36.0492 205.907 37.8502L201.307 42.0873C201.299 42.0945 201.291 42.1023 201.284 42.1107L201.151 42.2409C201.117 42.2747 201.084 42.3085 201.053 42.345C201.041 42.3558 201.03 42.3681 201.02 42.3814C200.982 42.4231 200.946 42.4673 200.91 42.5115C200.846 42.5935 200.788 42.6805 200.738 42.7718C200.713 42.8109 200.691 42.8518 200.671 42.8941C200.664 42.9066 200.658 42.9197 200.653 42.9332C200.637 42.9687 200.622 43.0052 200.61 43.0425C200.609 43.0476 200.609 43.053 200.61 43.0581C200.603 43.0794 200.597 43.1012 200.592 43.1232C200.54 43.3063 200.555 43.5026 200.635 43.6749L203.669 43.7088H204.025C204.04 44.12 204.053 44.5338 204.068 44.945C203.587 45.3107 203.125 45.7016 202.684 46.1162C202.203 46.5681 201.752 47.0515 201.333 47.5633C198.597 50.9181 197.169 55.2515 197.026 59.6135C197.026 59.7488 197.026 59.8738 197.026 60.0143C197.026 60.4125 197.026 60.8107 197.026 61.2063C197.026 61.4666 197.049 61.7269 197.069 61.9871C197.07 62.3261 197.159 62.6589 197.326 62.9527C197.347 62.9855 197.371 63.0168 197.397 63.0464C197.551 63.2159 197.736 63.3537 197.941 63.4524L198.161 63.5617C198.272 63.6164 198.377 63.6684 198.479 63.7283C199.446 64.2827 200.018 65.3523 200.897 66.0394C200.948 66.0785 201 66.1175 201.051 66.1514L201.166 66.2294L201.238 66.2763L201.335 66.3335C201.399 66.3727 201.465 66.4083 201.533 66.4402V66.4402L201.656 66.5027H201.676C201.779 66.5496 201.882 66.5938 201.987 66.6328L202.133 66.6849L202.176 66.7005C202.217 66.7135 202.261 66.7291 202.305 66.7396C202.392 66.7656 202.477 66.789 202.561 66.8098L202.817 66.8671C202.917 66.8853 203.02 66.9035 203.122 66.9165L203.274 66.9373L203.428 66.953C203.672 66.9755 203.918 66.9885 204.166 66.992C204.944 66.9871 205.72 66.9324 206.491 66.828L213.034 66.0472C214.519 65.8729 216.034 65.6985 217.498 66.0056C218.739 66.2659 219.882 66.8645 221.087 67.2887C221.359 67.385 221.631 67.4735 221.905 67.549C222.005 67.5776 222.108 67.6088 222.21 67.6349L222.351 67.6713L222.68 67.752C222.798 67.7806 222.915 67.8092 223.033 67.8327C223.2 67.8691 223.364 67.9003 223.531 67.9316C223.644 67.955 223.759 67.9732 223.874 67.994H223.897L224.226 68.0461H224.305L224.549 68.0799C224.667 68.0981 224.785 68.1137 224.905 68.1268C225.167 68.1597 225.428 68.1883 225.69 68.2126C226.113 68.2543 226.538 68.2855 226.972 68.3115L227.397 68.3376L227.823 68.3584L229.105 68.4156H229.161H229.341C229.873 68.4534 230.409 68.4254 230.935 68.3324C231.028 68.3141 231.117 68.2933 231.207 68.2673C231.297 68.2413 231.371 68.2152 231.463 68.184C232.425 67.8092 233.127 66.9478 233.614 66.0264C233.717 65.8312 233.812 65.636 233.899 65.4356C233.986 65.2352 234.066 65.0322 234.138 64.8292C234.227 64.5689 234.304 64.3217 234.371 64.0614C234.391 63.9912 234.409 63.9209 234.425 63.848C234.44 63.7751 234.476 63.632 234.496 63.5227C234.561 63.2234 234.609 62.9215 234.645 62.617C234.645 62.5207 234.668 62.4218 234.679 62.3255C234.702 62.0652 234.72 61.8232 234.73 61.5681C234.73 61.3755 234.73 61.1803 234.73 60.9851C234.727 60.7743 234.709 60.4958 234.709 60.2277ZM228.136 44.69C227.928 44.4922 227.715 44.3022 227.5 44.1226C227.739 44.2761 227.953 44.4677 228.133 44.69H228.136Z" fill="#464353"/>
<path d="M181.56 69.6233C179.63 69.3812 177.714 68.5224 175.81 68.944C174.617 69.2043 173.592 69.9564 172.638 70.7294C169.089 73.6172 166.071 77.1197 163.723 81.0749C163.325 81.6663 163.046 82.3313 162.9 83.0321C162.777 83.8441 162.995 84.6692 163.254 85.4473C165.008 90.7073 168.759 95.1005 170.466 100.376C172.261 105.925 171.638 111.989 170.315 117.673C168.675 124.69 166.01 131.419 162.408 137.636C161.919 138.56 161.307 139.411 160.588 140.165C159.655 141.076 158.401 141.727 157.847 142.919C157.591 143.439 157.516 144.033 157.334 144.59C156.822 146.151 155.581 147.489 155.46 149.137C155.37 150.394 155.958 151.583 156.314 152.78C156.915 154.837 156.851 157.035 156.132 159.053C154.832 162.67 151.432 165.96 152.419 169.679C154.622 169.036 157.063 168.201 158.101 166.127C158.468 165.393 158.65 164.518 159.267 163.982C160.501 162.918 162.6 163.881 163.911 162.902C164.9 162.158 164.936 160.632 164.495 159.461C164.054 158.29 163.295 157.259 162.957 156.054C162.367 153.881 163.311 151.583 163.136 149.337C163.054 148.296 162.739 147.299 162.716 146.263C162.672 144.251 163.77 142.359 165.228 140.993C166.687 139.627 168.49 138.721 170.264 137.828L176.971 134.445C179.404 133.221 182.07 131.73 182.868 129.096C183.17 128.11 183.173 127.058 183.188 126.028C183.417 110.279 187.303 94.8481 191.167 79.594C191.767 77.2308 192.377 74.8572 193.269 72.5877C194.162 70.3182 195.908 68.4963 196.797 66.3882C191.636 65.774 186.921 70.3052 181.56 69.6233Z" fill="#464353"/>
<path d="M218.534 168.422C219.126 172.066 219.488 175.788 219.77 179.491C215.155 183.374 210.186 186.753 205.138 189.886C204.85 190.066 204.561 190.243 204.271 190.407L204.248 190.532C204.236 190.502 204.223 190.473 204.207 190.446C203.815 189.587 203.13 188.901 202.279 188.515C200.387 184.48 198.496 180.446 196.608 176.412C195.582 174.234 194.557 172.035 194.044 169.684C194.044 169.635 194.021 169.583 194.013 169.534C193.623 167.712 193.534 165.82 193.275 163.974C193.143 162.917 192.909 161.876 192.575 160.867C192.267 159.969 191.844 159.097 191.47 158.22C191.008 157.137 190.621 156.041 190.603 154.873C190.603 154.501 190.626 154.092 190.447 153.78C190.255 153.511 190.018 153.278 189.747 153.093C189.408 152.788 189.152 152.401 189.001 151.968C188.85 151.535 188.811 151.07 188.885 150.618C187.347 150.698 186.48 152.377 185.862 153.801C185.301 155.193 184.563 156.505 183.668 157.705C183.015 158.561 182.186 159.262 181.237 159.758C181.153 159.8 181.068 159.841 180.981 159.878C178.84 160.835 176.34 160.497 174.02 160.065C171.992 159.688 169.895 159.219 168.264 157.939L168.09 157.798C167.607 157.391 167.176 156.924 166.808 156.408C165.441 154.514 164.836 152.018 164.5 149.642C164.47 149.418 164.439 149.194 164.411 148.97C164.177 147.291 164.113 145.592 164.218 143.9C164.249 143.484 164.293 143.067 164.346 142.653C164.382 142.393 164.421 142.112 164.464 141.841C164.463 141.834 164.463 141.826 164.464 141.818C164.531 141.389 164.603 140.957 164.675 140.517C164.931 139.041 165.187 137.526 165.957 136.256C166.463 135.466 167.101 134.772 167.844 134.205C168.121 133.984 168.405 133.773 168.692 133.57C169.159 133.242 169.638 132.93 170.125 132.636C171.351 131.891 172.638 131.256 173.971 130.736C174.289 130.611 174.612 130.494 174.935 130.382C176.191 129.929 177.542 129.82 178.853 130.067C180.014 130.238 181.187 130.307 182.36 130.275C185.368 130.215 188.388 129.632 191.39 129.255C195.559 128.735 200.038 128.672 203.674 130.817C203.848 130.918 204.017 131.025 204.186 131.137C205.981 132.329 207.427 134 208.594 135.866C208.85 136.259 209.073 136.662 209.294 137.071C209.802 138.009 210.261 138.973 210.67 139.96C210.913 140.444 211.043 140.978 211.052 141.521C211.047 141.625 211.033 141.727 211.011 141.828C210.942 142.198 210.804 142.557 210.755 142.932C210.594 144.35 211.781 145.535 212.224 146.885C212.511 147.765 212.481 148.707 212.642 149.634C212.875 150.935 213.504 152.106 214.068 153.277C214.959 155.163 215.721 157.108 216.349 159.1C216.796 160.487 217.178 161.895 217.513 163.316C217.623 163.772 217.726 164.229 217.824 164.687C218.103 165.947 218.331 167.181 218.534 168.422Z" fill="#E2D135"/>
<path d="M245.87 129.88V131.702L245.539 131.696L245.17 131.691L241.047 131.639L230.889 131.504L228.038 131.467L227.3 131.457L223.021 131.402L216.99 131.322L204.197 131.152L181.996 130.861L173.984 130.757L170.769 130.715L167.81 130.676L165.967 130.65L164.221 130.627L151.276 130.457L147.686 130.411L146.904 130.4L146.397 129.07L142.707 119.412L142.033 117.647L142.546 115.565L144.853 117.127L146.274 117.306L169.659 120.258L174.048 120.812L183.355 121.988L192.472 123.139L196.046 123.589L217.195 126.259L223.105 127.006L227.997 127.623L245.39 129.82L245.87 129.88Z" fill="#3F3D56"/>
<path d="M142.546 115.565L147.161 127.798L245.87 129.88V116.606L142.546 115.565Z" fill="#504F60"/>
<path d="M147.674 129.099L148.443 203.795L152.032 203.274L151.263 129.099H147.674Z" fill="#3F3D56"/>
<path d="M245.539 131.694H245.17C244.572 136.351 243.583 140.947 242.214 145.433L241.047 131.639L240.998 131.051L245.311 130.546L245.454 130.53L245.539 131.694Z" fill="#3F3D56"/>
<path d="M231.512 122.852L193.951 123.633L182.286 119.729L213.565 117.907L231.512 122.852Z" fill="white"/>
<path d="M184.396 107.674C183.998 107.829 183.645 108.084 183.37 108.416C183.156 108.775 183.025 109.179 182.988 109.597L182.358 113.415C182.261 113.765 182.279 114.136 182.406 114.475C182.57 114.795 183.047 114.961 183.286 114.696C183.255 115.443 183.319 116.239 183.747 116.848C184.175 117.457 185.073 117.777 185.678 117.353C185.773 117.51 185.9 117.644 186.051 117.746C186.202 117.848 186.373 117.916 186.552 117.944C186.732 117.972 186.915 117.961 187.089 117.91C187.264 117.859 187.425 117.77 187.562 117.65C187.198 117.775 187.173 118.34 187.432 118.626C187.722 118.886 188.091 119.036 188.478 119.05C192.983 119.695 197.576 119.108 201.784 117.351C202.181 117.184 201.135 112.21 201.03 111.7C200.774 110.5 200.646 109.035 199.648 108.228C197.264 106.297 193.028 105.917 190.124 106.146C188.139 106.299 186.198 106.816 184.396 107.674V107.674Z" fill="#FBBEBE"/>
<path opacity="0.1" d="M222.613 108.252C213.339 108.431 203.874 108.585 195.023 105.766C195.869 109.092 195.81 112.588 194.854 115.883L238.214 119.526C240.052 119.68 247.675 120.554 249.467 120.115C251.259 119.675 234.43 114.048 235.109 112.307C236.978 107.51 243.239 104.699 238.729 104.52C233.038 104.29 228.348 108.142 222.613 108.252Z" fill="black"/>
<path d="M222.869 108.772C213.596 108.952 204.13 109.105 195.28 106.287C196.125 109.612 196.066 113.109 195.11 116.403L238.47 120.047C240.309 120.2 247.931 121.088 249.723 120.635C251.515 120.182 251.095 117.952 251.774 116.211C253.643 111.414 243.496 105.22 238.986 105.04C233.294 104.811 228.605 108.663 222.869 108.772Z" fill="#464353"/>
<path d="M208.124 109.496C208.523 109.651 208.876 109.906 209.15 110.238C209.364 110.597 209.496 111.001 209.535 111.419L210.165 115.237C210.26 115.587 210.243 115.958 210.117 116.297C209.953 116.617 209.473 116.783 209.237 116.518C209.265 117.265 209.204 118.061 208.776 118.67C208.348 119.279 207.45 119.599 206.843 119.175C206.748 119.332 206.62 119.466 206.469 119.568C206.318 119.67 206.147 119.738 205.968 119.766C205.789 119.794 205.606 119.782 205.431 119.732C205.257 119.681 205.095 119.592 204.958 119.472C205.322 119.597 205.35 120.161 205.091 120.448C204.8 120.708 204.43 120.857 204.043 120.872C199.538 121.517 194.946 120.93 190.739 119.172C190.342 119.006 191.385 114.032 191.493 113.522C191.749 112.322 191.877 110.857 192.875 110.05C195.256 108.119 199.495 107.739 202.399 107.968C204.383 108.121 206.323 108.638 208.124 109.496V109.496Z" fill="#FBBEBE"/>
<path d="M146.848 101.206C145.997 102.32 145.143 103.458 144.594 104.756C143.546 107.234 143.7 110.04 143.874 112.731C143.923 113.512 143.984 114.308 144.387 114.956C144.735 115.446 145.194 115.843 145.725 116.114C147.945 117.395 150.545 117.777 153.083 118.064C156.97 118.501 160.871 118.767 164.785 118.863C174.481 119.102 184.327 118.298 193.772 120.528C192.603 118.725 192.605 116.338 193.259 114.282C193.913 112.226 195.172 110.435 196.405 108.673C192.082 107.284 187.447 109.454 182.919 109.238C178.271 109.017 173.969 106.289 169.315 106.292C168.315 106.292 167.298 106.419 166.326 106.175C165.354 105.93 164.413 105.186 164.323 104.173C165.564 104.457 166.741 103.38 167.254 102.198C167.767 101.016 167.859 99.6812 168.356 98.4918C169.595 95.5326 172.941 94.161 175.022 91.7249C175.351 91.3397 175.661 90.8843 175.651 90.3741C175.602 89.942 175.423 89.5358 175.138 89.2108C173.407 86.8684 170.8 85.5671 168.633 83.7452C167.88 83.1102 166.359 80.7157 165.513 80.4945C163.944 80.0859 162.613 82.3866 161.593 83.5084C156.441 89.1908 151.526 95.0901 146.848 101.206Z" fill="#464353"/>
<path opacity="0.07" d="M198.402 100.545C199.052 101.035 199.63 101.616 200.118 102.271C200.361 102.6 200.534 102.977 200.626 103.377C200.718 103.778 200.728 104.193 200.653 104.598C200.574 103.843 200.739 103.083 201.125 102.433C201.511 101.783 202.095 101.279 202.789 100.998L198.402 100.545Z" fill="black"/>
<g opacity="0.1">
<path opacity="0.1" d="M212.622 32.2936C212.32 31.4801 211.972 30.685 211.581 29.9122C211.327 29.9616 211.077 30.0268 210.832 30.1074C211.272 30.8491 211.668 31.6164 212.019 32.4055C212.216 32.3535 212.416 32.317 212.622 32.2936Z" fill="black"/>
<path opacity="0.1" d="M227.497 42.5558C227.566 42.6128 227.632 42.6775 227.699 42.7371C227.694 42.7203 227.688 42.7038 227.681 42.6879C227.623 42.6447 227.562 42.6007 227.497 42.5558Z" fill="black"/>
<path opacity="0.1" d="M203.663 43.701C203.797 43.5943 203.92 43.4824 204.063 43.3783L204.022 42.142L201.284 42.1134C200.841 42.5272 200.369 43.1206 200.63 43.675L203.663 43.701Z" fill="black"/>
<path opacity="0.1" d="M233.599 64.5117C233.112 65.4331 232.409 66.2971 231.448 66.6693C230.707 66.9556 229.892 66.9296 229.1 66.8932C226.397 66.7812 223.649 66.6589 221.095 65.7506C219.9 65.3238 218.757 64.7278 217.506 64.4649C216.042 64.1578 214.526 64.3322 213.042 64.5091L206.499 65.2899C204.568 65.519 202.417 65.6907 200.876 64.4883C199.994 63.8012 199.425 62.7315 198.459 62.1798C198.051 61.9455 197.567 61.7946 197.302 61.399C197.136 61.1052 197.047 60.7724 197.046 60.4334C197.026 60.1601 197.013 59.8868 197.002 59.6136C196.975 60.4076 196.989 61.2025 197.046 61.995C197.047 62.334 197.136 62.6668 197.302 62.9606C197.559 63.3536 198.051 63.5045 198.459 63.7413C199.425 64.2931 199.997 65.3628 200.876 66.0499C202.415 67.2523 204.568 67.091 206.499 66.8515L213.042 66.0707C214.526 65.8937 216.042 65.7194 217.506 66.0265C218.747 66.2867 219.89 66.8853 221.095 67.3122C223.659 68.2205 226.397 68.3532 229.1 68.4547C229.892 68.4886 230.707 68.5172 231.448 68.2309C232.409 67.8587 233.112 66.9947 233.599 66.0733C234.543 64.2905 234.807 62.2683 234.707 60.2304C234.652 61.7228 234.274 63.1845 233.599 64.5117V64.5117Z" fill="black"/>
</g>
<path opacity="0.1" d="M212.547 33.9671L216.137 37.3505C216.137 37.3505 213.06 36.0492 212.547 33.9671Z" fill="black"/>
</g>
<defs>
<clipPath id="clip0">
<rect width="252" height="209" fill="white"/>
</clipPath>
</defs>
</svg>
