<svg width="465" height="351" viewBox="0 0 465 351" fill="none" xmlns="http://www.w3.org/2000/svg">
<g clip-path="url(#clip0_434_60)">
<path d="M218.518 294.657C218.518 294.657 224.436 284.958 232.034 290.693C239.633 296.427 253.704 306.102 253.704 306.102C253.704 306.102 256.586 312.291 249.127 309.966C241.667 307.642 217.316 303.901 217.316 303.901L218.518 294.657Z" fill="#FEB8B8"/>
<path d="M53.1243 233.063C55.0103 217.915 64.409 202.99 78.8722 198.06C73.1683 213.652 73.1696 230.756 78.8757 246.347C81.0982 252.352 84.196 258.8 82.1055 264.851C80.8048 268.617 77.6229 271.498 74.0661 273.3C70.5091 275.101 66.5616 275.96 62.6635 276.801L61.8963 277.435C55.7081 263.477 51.2383 248.211 53.1243 233.063Z" fill="#2C7D42"/>
<path d="M79.0157 198.347C70.593 207.773 65.3581 219.611 64.0544 232.179C63.7257 234.879 63.8252 237.615 64.3492 240.284C64.9438 242.868 66.2204 245.246 68.0462 247.171C69.7125 249 71.6289 250.677 72.8212 252.879C73.4147 254.015 73.7612 255.263 73.8378 256.542C73.9144 257.821 73.7195 259.102 73.2658 260.3C72.2132 263.316 70.1385 265.774 68.026 268.108C65.6805 270.698 63.2031 273.352 62.2061 276.787C62.0853 277.203 61.4459 276.991 61.5665 276.576C63.3012 270.6 69.1086 267.206 71.8781 261.824C73.1704 259.312 73.7129 256.397 72.5014 253.746C71.4419 251.427 69.4672 249.695 67.764 247.858C65.9553 246.007 64.628 243.741 63.898 241.259C63.2395 238.625 63.0347 235.898 63.2923 233.195C63.7749 227.101 65.2139 221.12 67.5566 215.472C70.1944 209.011 73.9193 203.048 78.5701 197.842C78.8581 197.52 79.3019 198.027 79.0157 198.347V198.347Z" fill="white"/>
<path d="M64.2357 228.107C62.1545 227.603 60.3205 226.375 59.0615 224.645C57.8025 222.914 57.2004 220.793 57.3626 218.66C57.397 218.228 58.0699 218.261 58.0355 218.693C57.8807 220.679 58.4418 222.655 59.6175 224.265C60.7932 225.874 62.5061 227.01 64.4469 227.469C64.8686 227.569 64.655 228.207 64.2357 228.107Z" fill="white"/>
<path d="M67.0791 246.355C70.8381 244.113 73.6131 240.538 74.8507 236.343C74.973 235.928 75.6124 236.139 75.4903 236.554C74.1943 240.917 71.2989 244.631 67.382 246.956C67.0085 247.177 66.7076 246.575 67.0791 246.355V246.355Z" fill="white"/>
<path d="M70.8193 209.648C71.5839 210.011 72.4267 210.179 73.2721 210.136C74.1175 210.093 74.939 209.841 75.6628 209.403C76.0333 209.177 76.3338 209.779 75.9658 210.004C75.1638 210.484 74.2562 210.761 73.3222 210.811C72.3883 210.86 71.4565 210.68 70.6081 210.287C70.525 210.257 70.4567 210.196 70.4169 210.117C70.3771 210.038 70.3689 209.947 70.3939 209.862C70.4223 209.778 70.4829 209.708 70.5626 209.668C70.6422 209.628 70.7345 209.621 70.8193 209.648V209.648Z" fill="white"/>
<path d="M122.958 225.117C122.731 225.264 122.504 225.412 122.276 225.565C119.23 227.566 116.352 229.81 113.67 232.277C113.459 232.464 113.249 232.657 113.044 232.85C106.646 238.861 101.421 246.006 97.6335 253.922C96.1294 257.073 94.8676 260.334 93.8588 263.677C92.466 268.293 91.3235 273.409 88.5665 277.185C88.2833 277.582 87.9757 277.961 87.6455 278.32H62.7298C62.6732 278.292 62.6163 278.269 62.5594 278.241L61.5646 278.286C61.6046 278.11 61.6498 277.929 61.6898 277.753C61.7125 277.65 61.7409 277.548 61.7636 277.446C61.7806 277.378 61.7978 277.31 61.8091 277.247C61.8147 277.225 61.8205 277.202 61.8261 277.185C61.8374 277.122 61.8547 277.066 61.866 277.009C62.1161 275.992 62.3738 274.976 62.6391 273.96C62.6391 273.954 62.6391 273.954 62.6446 273.948C64.6856 266.209 67.3913 258.572 71.1715 251.588C71.2853 251.378 71.3988 251.162 71.524 250.952C73.2455 247.813 75.2208 244.821 77.4304 242.003C78.6453 240.465 79.9373 238.988 81.3016 237.58C84.8338 233.948 88.9159 230.894 93.3983 228.529C102.335 223.816 112.68 222.011 122.231 224.89C122.475 224.963 122.714 225.037 122.958 225.117Z" fill="#1E592E"/>
<path d="M122.902 225.433C110.495 227.894 99.18 234.198 90.5639 243.448C88.6737 245.407 87.1043 247.651 85.9136 250.097C84.8308 252.518 84.4167 255.184 84.7145 257.819C84.9427 260.281 85.4616 262.773 85.0866 265.248C84.8758 266.512 84.3999 267.717 83.6902 268.784C82.9804 269.852 82.0528 270.757 80.9682 271.441C78.31 273.216 75.1718 273.931 72.0787 274.524C68.6443 275.182 65.0667 275.811 62.2004 277.953C61.8531 278.213 61.4701 277.66 61.8168 277.4C66.8037 273.672 73.4865 274.455 78.942 271.823C81.4876 270.595 83.6782 268.593 84.3088 265.748C84.8602 263.26 84.3274 260.689 84.0748 258.198C83.7466 255.632 84.0524 253.025 84.9656 250.604C86.0277 248.105 87.5079 245.804 89.3428 243.801C93.4017 239.225 98.1556 235.315 103.43 232.215C109.431 228.642 115.999 226.122 122.851 224.762C123.275 224.678 123.324 225.349 122.902 225.433H122.902Z" fill="white"/>
<path d="M93.1627 240.306C91.8052 238.652 91.0806 236.569 91.1185 234.43C91.1564 232.291 91.9543 230.235 93.3697 228.629C93.6571 228.306 94.1746 228.737 93.8867 229.061C92.566 230.554 91.8229 232.469 91.7917 234.461C91.7605 236.453 92.4431 238.39 93.7164 239.923C93.9927 240.257 93.4375 240.638 93.1627 240.306H93.1627Z" fill="white"/>
<path d="M84.4342 256.586C88.7869 257.056 93.1573 255.871 96.6739 253.266C97.0221 253.007 97.4052 253.561 97.0575 253.819C93.3929 256.523 88.8424 257.747 84.3139 257.248C83.8823 257.2 84.0049 256.538 84.4342 256.586V256.586Z" fill="white"/>
<path d="M109.546 229.527C109.937 230.277 110.509 230.917 111.21 231.391C111.911 231.866 112.719 232.158 113.561 232.244C113.993 232.286 113.87 232.948 113.441 232.906C112.511 232.807 111.619 232.483 110.844 231.96C110.068 231.438 109.432 230.734 108.992 229.91C108.944 229.836 108.926 229.746 108.942 229.659C108.958 229.572 109.006 229.495 109.077 229.442C109.151 229.392 109.241 229.372 109.329 229.388C109.417 229.404 109.495 229.454 109.546 229.527V229.527Z" fill="white"/>
<path d="M254.07 333.461C254.801 327.59 258.444 321.805 264.049 319.895C261.839 325.938 261.839 332.566 264.05 338.609C264.912 340.936 266.112 343.435 265.302 345.78C264.722 347.23 263.607 348.402 262.186 349.054C260.777 349.693 259.292 350.149 257.767 350.411L257.47 350.657C255.072 345.248 253.339 339.331 254.07 333.461Z" fill="#2C7D42"/>
<path d="M264.105 320.006C260.84 323.659 258.812 328.247 258.306 333.118C258.179 334.164 258.218 335.224 258.421 336.259C258.651 337.261 259.146 338.182 259.853 338.928C260.558 339.588 261.179 340.331 261.704 341.14C261.934 341.58 262.068 342.064 262.098 342.56C262.128 343.055 262.052 343.552 261.876 344.016C261.409 345.151 260.719 346.179 259.846 347.042C258.937 348.046 257.977 349.075 257.59 350.406C257.543 350.567 257.296 350.485 257.342 350.324C258.015 348.008 260.265 346.693 261.339 344.607C261.615 344.138 261.781 343.612 261.823 343.069C261.864 342.527 261.782 341.982 261.58 341.476C261.093 340.623 260.474 339.853 259.744 339.194C259.043 338.477 258.529 337.599 258.246 336.637C257.991 335.616 257.911 334.559 258.011 333.512C258.198 331.15 258.756 328.832 259.664 326.643C260.686 324.139 262.13 321.828 263.932 319.81C264.044 319.686 264.216 319.882 264.105 320.006H264.105Z" fill="white"/>
<path d="M258.377 331.54C257.57 331.344 256.859 330.869 256.371 330.198C255.883 329.527 255.65 328.705 255.713 327.878C255.726 327.711 255.987 327.724 255.974 327.891C255.914 328.661 256.131 329.427 256.587 330.051C257.043 330.674 257.706 331.115 258.459 331.292C258.622 331.331 258.539 331.578 258.377 331.54H258.377Z" fill="white"/>
<path d="M259.479 338.612C260.935 337.743 262.011 336.357 262.491 334.732C262.538 334.571 262.786 334.652 262.738 334.813C262.236 336.504 261.114 337.944 259.596 338.845C259.451 338.93 259.335 338.697 259.479 338.612V338.612Z" fill="white"/>
<path d="M260.928 324.386C261.224 324.527 261.551 324.592 261.879 324.575C262.206 324.558 262.525 324.461 262.805 324.291C262.949 324.203 263.065 324.437 262.923 324.524C262.612 324.71 262.26 324.817 261.898 324.836C261.536 324.856 261.175 324.786 260.846 324.633C260.814 324.622 260.788 324.598 260.772 324.568C260.757 324.537 260.754 324.502 260.763 324.469C260.774 324.436 260.798 324.409 260.829 324.394C260.86 324.378 260.895 324.375 260.928 324.386L260.928 324.386Z" fill="white"/>
<path d="M281.135 330.381C281.047 330.438 280.959 330.495 280.87 330.555C279.69 331.33 278.574 332.2 277.535 333.156C277.453 333.228 277.372 333.303 277.293 333.378C274.813 335.707 272.788 338.476 271.32 341.544C270.737 342.765 270.248 344.029 269.857 345.325C269.317 347.114 268.875 349.096 267.806 350.56C267.696 350.714 267.577 350.861 267.449 351H257.793C257.771 350.989 257.749 350.98 257.727 350.969L257.341 350.987C257.357 350.919 257.374 350.848 257.39 350.78C257.399 350.74 257.41 350.701 257.419 350.661C257.425 350.635 257.432 350.608 257.436 350.584C257.438 350.575 257.441 350.566 257.443 350.56C257.447 350.536 257.454 350.514 257.458 350.492C257.555 350.098 257.655 349.704 257.758 349.31L257.76 349.305C258.515 346.297 259.624 343.388 261.065 340.64C261.109 340.558 261.153 340.475 261.201 340.393C261.868 339.177 262.634 338.017 263.49 336.925C263.961 336.329 264.462 335.757 264.991 335.211C266.359 333.803 267.942 332.62 269.679 331.703C273.142 329.877 277.151 329.177 280.853 330.293C280.947 330.321 281.04 330.35 281.135 330.381Z" fill="#1E592E"/>
<path d="M281.113 330.503C276.305 331.457 271.919 333.9 268.58 337.485C267.848 338.244 267.239 339.114 266.778 340.062C266.358 341 266.198 342.034 266.313 343.055C266.478 344.005 266.526 344.972 266.457 345.934C266.376 346.424 266.191 346.891 265.916 347.304C265.641 347.718 265.282 348.069 264.861 348.334C263.805 348.959 262.633 349.365 261.416 349.529C260.085 349.784 258.699 350.027 257.588 350.858C257.453 350.958 257.305 350.744 257.439 350.643C259.372 349.199 261.962 349.502 264.076 348.482C264.58 348.274 265.029 347.954 265.389 347.545C265.75 347.137 266.012 346.652 266.156 346.127C266.282 345.154 266.251 344.166 266.065 343.202C265.938 342.207 266.057 341.197 266.411 340.259C266.822 339.29 267.396 338.398 268.107 337.622C269.68 335.849 271.522 334.333 273.567 333.132C275.892 331.747 278.438 330.77 281.093 330.243C281.257 330.211 281.276 330.471 281.113 330.503H281.113Z" fill="white"/>
<path d="M269.587 336.268C269.061 335.626 268.781 334.819 268.795 333.99C268.81 333.161 269.119 332.364 269.668 331.742C269.779 331.617 269.98 331.784 269.868 331.909C269.356 332.488 269.068 333.23 269.056 334.002C269.044 334.774 269.309 335.525 269.802 336.119C269.909 336.248 269.694 336.396 269.587 336.268Z" fill="white"/>
<path d="M266.205 342.577C267.892 342.759 269.585 342.3 270.948 341.29C271.083 341.19 271.232 341.404 271.097 341.504C269.677 342.552 267.913 343.027 266.158 342.833C265.991 342.815 266.038 342.558 266.205 342.577H266.205Z" fill="white"/>
<path d="M275.937 332.09C276.089 332.38 276.31 332.629 276.582 332.812C276.853 332.996 277.166 333.11 277.493 333.143C277.66 333.159 277.613 333.416 277.446 333.399C277.086 333.361 276.74 333.235 276.44 333.033C276.139 332.831 275.893 332.558 275.722 332.238C275.704 332.21 275.697 332.175 275.703 332.141C275.709 332.108 275.728 332.077 275.755 332.057C275.784 332.037 275.819 332.03 275.853 332.036C275.887 332.042 275.917 332.062 275.937 332.09V332.09Z" fill="white"/>
<path d="M419.971 208.758C417.072 185.475 402.626 162.534 380.396 154.957C389.163 178.922 389.161 205.212 380.39 229.176C376.974 238.406 372.213 248.316 375.426 257.618C377.425 263.406 382.316 267.834 387.783 270.603C393.25 273.372 399.318 274.692 405.309 275.985L406.488 276.959C416 255.506 422.87 232.041 419.971 208.758Z" fill="#2C7D42"/>
<path d="M380.175 155.397C393.121 169.886 401.167 188.082 403.171 207.399C403.575 211.54 403.624 215.775 402.718 219.857C401.804 223.829 399.842 227.484 397.036 230.442C394.475 233.253 391.529 235.832 389.696 239.215C387.765 242.782 387.69 246.834 389.013 250.623C390.631 255.258 393.82 259.036 397.067 262.623C400.672 266.605 404.48 270.684 406.012 275.963C406.198 276.603 407.181 276.277 406.995 275.639C404.329 266.454 395.403 261.237 391.146 252.964C389.159 249.104 388.326 244.622 390.188 240.548C391.816 236.984 394.852 234.322 397.469 231.499C400.218 228.534 402.326 225.281 403.412 221.356C404.522 217.34 404.639 213.094 404.343 208.961C403.601 199.593 401.389 190.4 397.788 181.719C393.734 171.788 388.008 162.624 380.86 154.622C380.417 154.127 379.735 154.905 380.175 155.397L380.175 155.397Z" fill="white"/>
<path d="M402.893 201.141C406.092 200.365 408.91 198.479 410.846 195.818C412.781 193.158 413.706 189.898 413.457 186.619C413.404 185.956 412.37 186.007 412.423 186.671C412.66 189.723 411.798 192.761 409.991 195.234C408.184 197.707 405.551 199.454 402.568 200.159C401.92 200.313 402.248 201.294 402.893 201.141H402.893Z" fill="white"/>
<path d="M398.522 229.188C392.744 225.742 388.479 220.247 386.577 213.8C386.389 213.161 385.406 213.486 385.594 214.124C387.586 220.83 392.036 226.539 398.057 230.111C398.631 230.452 399.093 229.526 398.522 229.188V229.188Z" fill="white"/>
<path d="M392.773 172.768C391.598 173.326 390.303 173.583 389.003 173.517C387.704 173.452 386.441 173.064 385.329 172.391C384.759 172.043 384.297 172.969 384.863 173.314C386.096 174.053 387.491 174.479 388.926 174.555C390.362 174.631 391.794 174.354 393.098 173.75C393.226 173.703 393.331 173.61 393.392 173.489C393.453 173.367 393.466 173.227 393.427 173.097C393.383 172.967 393.29 172.86 393.168 172.798C393.045 172.737 392.904 172.726 392.773 172.768V172.768Z" fill="white"/>
<path d="M312.633 196.544C312.983 196.771 313.332 196.998 313.682 197.233C318.364 200.308 322.788 203.758 326.91 207.549C327.234 207.837 327.557 208.134 327.871 208.431C337.706 217.669 345.738 228.651 351.559 240.818C353.87 245.662 355.81 250.675 357.36 255.812C359.501 262.908 361.257 270.771 365.495 276.575C365.93 277.185 366.403 277.768 366.911 278.32H405.207C405.294 278.277 405.382 278.242 405.469 278.198L406.998 278.268C406.937 277.998 406.867 277.718 406.806 277.448C406.771 277.291 406.727 277.134 406.692 276.976C406.666 276.872 406.64 276.767 406.622 276.671C406.614 276.636 406.605 276.601 406.596 276.575C406.579 276.479 406.552 276.392 406.535 276.304C406.15 274.742 405.754 273.18 405.347 271.618C405.347 271.609 405.347 271.609 405.338 271.6C402.201 259.705 398.042 247.966 392.232 237.231C392.057 236.908 391.883 236.577 391.69 236.254C389.044 231.43 386.008 226.83 382.612 222.499C380.744 220.134 378.758 217.865 376.661 215.701C371.232 210.118 364.958 205.424 358.068 201.789C344.333 194.545 328.431 191.77 313.752 196.195C313.376 196.308 313.009 196.422 312.633 196.544Z" fill="#1E592E"/>
<path d="M312.719 197.029C331.79 200.813 349.182 210.502 362.425 224.72C365.244 227.783 367.836 231.136 369.573 234.94C371.237 238.661 371.873 242.759 371.416 246.809C371.065 250.593 370.267 254.424 370.844 258.228C371.451 262.237 373.835 265.517 377.174 267.747C381.26 270.475 386.083 271.574 390.838 272.484C396.116 273.496 401.615 274.463 406.021 277.756C406.555 278.155 407.144 277.305 406.611 276.906C398.945 271.176 388.674 272.379 380.288 268.333C376.376 266.446 373.009 263.369 372.039 258.996C371.192 255.171 372.011 251.22 372.399 247.392C372.807 243.371 372.529 239.507 371.03 235.719C369.496 231.845 367.03 228.385 364.302 225.263C358.063 218.229 350.756 212.22 342.648 207.454C333.425 201.963 323.33 198.088 312.799 195.998C312.147 195.869 312.072 196.901 312.719 197.029V197.029Z" fill="white"/>
<path d="M358.43 219.891C360.517 217.348 361.631 214.146 361.572 210.859C361.514 207.571 360.288 204.411 358.112 201.943C357.67 201.445 356.875 202.108 357.318 202.606C359.348 204.901 360.49 207.844 360.538 210.906C360.586 213.968 359.536 216.945 357.579 219.302C357.155 219.815 358.008 220.401 358.43 219.891L358.43 219.891Z" fill="white"/>
<path d="M371.847 244.913C365.156 245.637 358.439 243.815 353.034 239.81C352.498 239.413 351.909 240.264 352.444 240.66C358.077 244.817 365.071 246.699 372.032 245.931C372.695 245.857 372.506 244.84 371.847 244.913V244.913Z" fill="white"/>
<path d="M333.249 203.323C332.647 204.475 331.768 205.459 330.69 206.188C329.613 206.917 328.372 207.367 327.077 207.498C326.413 207.564 326.602 208.581 327.262 208.516C328.692 208.364 330.062 207.865 331.254 207.063C332.446 206.26 333.423 205.178 334.1 203.911C334.174 203.797 334.201 203.659 334.177 203.526C334.153 203.392 334.078 203.273 333.969 203.192C333.856 203.115 333.717 203.085 333.582 203.109C333.447 203.134 333.328 203.21 333.249 203.323V203.323Z" fill="white"/>
<path d="M464.617 278.888H0.56846C0.417695 278.888 0.273104 278.828 0.166498 278.722C0.0598907 278.615 0 278.471 0 278.32C0 278.17 0.0598907 278.025 0.166498 277.919C0.273104 277.812 0.417695 277.753 0.56846 277.753H464.432C464.582 277.753 464.727 277.812 464.833 277.919C464.94 278.025 465 278.17 465 278.32C465 278.634 464.931 278.888 464.617 278.888Z" fill="#CACACA"/>
<path d="M162.765 328.855H60.2567C60.106 328.855 59.9614 328.796 59.8548 328.689C59.7482 328.583 59.6883 328.438 59.6883 328.288C59.6883 328.137 59.7482 327.993 59.8548 327.886C59.9614 327.78 60.106 327.72 60.2567 327.72H162.579C162.73 327.72 162.875 327.78 162.981 327.886C163.088 327.993 163.148 328.137 163.148 328.288C163.148 328.601 163.079 328.855 162.765 328.855Z" fill="#CACACA"/>
<path d="M323.639 351H221.131C220.98 351 220.835 350.94 220.729 350.834C220.622 350.727 220.562 350.583 220.562 350.432C220.562 350.282 220.622 350.137 220.729 350.031C220.835 349.924 220.98 349.864 221.131 349.864H323.454C323.604 349.864 323.749 349.924 323.855 350.031C323.962 350.137 324.022 350.282 324.022 350.432C324.022 350.746 323.953 351 323.639 351Z" fill="#CACACA"/>
<path d="M420.277 328.288H317.769C317.618 328.288 317.474 328.228 317.367 328.121C317.26 328.015 317.201 327.87 317.201 327.72C317.201 327.569 317.26 327.425 317.367 327.318C317.474 327.212 317.618 327.152 317.769 327.152H420.092C420.242 327.152 420.387 327.212 420.494 327.318C420.6 327.425 420.66 327.569 420.66 327.72C420.66 328.033 420.591 328.288 420.277 328.288Z" fill="#CACACA"/>
<path d="M189.444 306.711C183.076 306.711 177.246 306.101 172.615 304.661C167.109 302.948 163.652 300.179 162.339 296.424C161.722 294.83 161.537 293.101 161.805 291.413C162.072 289.724 162.781 288.136 163.861 286.81C172.005 276.209 200.268 273.22 204.061 272.866L211.754 258.315C212.246 254.843 209.917 252.215 213.941 252.149L261.541 251.503C265.493 251.42 264.371 253.865 265.048 257.25L272.3 270.181L241.088 283.339L245.807 294.825L245.499 295.004C236.364 300.296 210.094 306.71 189.444 306.711Z" fill="#2F2E41"/>
<path d="M267.979 270.733C267.979 270.733 311.569 265.75 308.726 285.681C305.883 305.612 272.717 319.729 222.494 285.681L228.18 275.716C228.18 275.716 246.895 274.786 258.266 269.803L267.979 270.733Z" fill="#2F2E41"/>
<path d="M206.268 180.44C206.268 180.44 197.983 178.936 195.723 191.725C193.464 204.514 189.845 234.808 189.845 234.808L178.607 273.722C177.281 274.425 176.183 275.49 175.441 276.793C174.699 278.095 174.343 279.582 174.416 281.079C174.488 282.577 174.985 284.022 175.849 285.248C176.713 286.473 177.909 287.428 179.296 288C180.683 288.572 182.204 288.738 183.682 288.479C185.16 288.22 186.534 287.546 187.643 286.536C188.752 285.526 189.55 284.222 189.945 282.776C190.339 281.33 190.314 279.801 189.871 278.369L204.908 237.068L207.774 201.508V182.875C207.774 182.369 207.633 181.874 207.367 181.444C207.101 181.014 206.72 180.666 206.268 180.44V180.44Z" fill="#FEB8B8"/>
<path d="M264.583 180.44C264.583 180.44 272.867 178.936 275.127 191.725C277.386 204.514 281.006 234.808 281.006 234.808L292.244 273.722C293.569 274.425 294.667 275.49 295.409 276.793C296.151 278.095 296.507 279.582 296.435 281.079C296.362 282.577 295.865 284.022 295.001 285.248C294.137 286.473 292.941 287.428 291.554 288C290.167 288.572 288.646 288.738 287.168 288.479C285.69 288.22 284.316 287.546 283.208 286.536C282.099 285.526 281.3 284.222 280.906 282.776C280.511 281.33 280.537 279.801 280.979 278.369L265.943 237.068L263.076 201.508V182.875C263.076 182.369 263.217 181.874 263.483 181.444C263.749 181.014 264.13 180.666 264.583 180.44V180.44Z" fill="#FEB8B8"/>
<path d="M263.951 169.869L248.28 164.014L217.906 163.623L204.831 169.869L208.503 190.949C208.503 190.949 201.089 203.489 209.252 216.031L211.084 260.718C211.084 260.718 240.369 277.681 265.088 257.311L259.501 215.763C259.501 215.763 268.846 196.486 261.603 189.324L263.951 169.869Z" fill="#1E592E"/>
<path d="M257.568 176.42L263.951 169.869C263.951 169.869 277.881 177.188 277.594 201.666L260.022 196.257L257.568 176.42Z" fill="#1E592E"/>
<path d="M211.922 176.42L205.141 169.646C205.141 169.646 193.175 178.891 193.462 203.37L209.468 196.257L211.922 176.42Z" fill="#1E592E"/>
<path d="M256.127 289.814C256.127 289.814 251.246 279.556 243.094 284.473C234.943 289.391 219.944 297.559 219.944 297.559C219.944 297.559 216.436 303.416 224.096 301.876C231.756 300.335 256.365 299.133 256.365 299.133L256.127 289.814Z" fill="#FEB8B8"/>
<path d="M242.566 106.435C242.635 106.369 242.708 106.31 242.776 106.242C247.137 101.885 248.022 95.7037 244.75 92.436C241.658 89.3478 235.964 89.9711 231.666 93.7257C227.98 90.221 223.039 89.244 219.84 91.6634C216.152 94.4532 216.18 100.697 219.904 105.609C220.159 105.946 220.427 106.264 220.702 106.57C215.746 108.382 211.467 111.67 208.444 115.991C205.421 120.312 203.8 125.456 203.8 130.728V155.212C203.8 155.93 203.941 156.641 204.216 157.304C204.491 157.967 204.895 158.57 205.403 159.078C205.911 159.585 206.514 159.988 207.178 160.263C207.843 160.537 208.554 160.679 209.273 160.679H254.577C255.98 160.679 257.325 160.122 258.317 159.131C259.309 158.14 259.867 156.797 259.867 155.395V130.728C259.866 125.385 258.2 120.176 255.099 115.823C251.999 111.469 247.619 108.188 242.566 106.435Z" fill="#2F2E41"/>
<path d="M247.75 151.947C256.145 143.561 256.145 129.965 247.75 121.579C239.355 113.193 225.743 113.193 217.347 121.579C208.952 129.965 208.952 143.561 217.347 151.947C225.743 160.333 239.355 160.333 247.75 151.947Z" fill="#FFB6B6"/>
<path d="M209.959 123.256C214.872 126.638 220.703 128.438 226.669 128.414C224.541 129.888 222.118 130.884 219.567 131.333C227.5 133.032 235.699 133.078 243.65 131.468C245.417 131.185 247.123 130.6 248.691 129.738C249.473 129.302 250.154 128.707 250.69 127.991C251.226 127.274 251.606 126.454 251.803 125.581C252.332 122.566 249.98 119.827 247.535 117.981C243.793 115.198 239.478 113.28 234.903 112.367C230.327 111.454 225.606 111.568 221.08 112.701C218.125 113.464 215.165 114.753 213.245 117.123C211.326 119.494 210.757 123.149 212.586 125.59L209.959 123.256Z" fill="#2F2E41"/>
<path d="M94.9723 80.4055L95.6498 79.4932L113.698 92.8651C112.717 89.8793 109.245 80.4138 103.554 76.637C96.7554 72.1251 91.972 73.5286 89.3659 77.4466C86.7599 81.3646 87.3179 86.3131 94.1168 90.8252C99.88 94.65 110.147 94.1181 113.142 93.8674L94.9723 80.4055Z" fill="#2C7D42"/>
<path d="M366.524 7.19533L367.362 7.96327L352.17 24.5021C355.245 23.8382 365.031 21.3739 369.384 16.113C374.584 9.82802 373.684 4.93001 370.053 1.93353C366.423 -1.06294 361.438 -1.02326 356.238 5.26175C351.83 10.5893 351.292 20.8439 351.23 23.8457L366.524 7.19533Z" fill="#2C7D42"/>
<path d="M121.518 183.784L122.356 184.552L107.164 201.091C110.239 200.427 120.025 197.963 124.378 192.702C129.578 186.417 128.678 181.519 125.047 178.522C121.417 175.526 116.432 175.565 111.232 181.85C106.824 187.178 106.286 197.433 106.224 200.434L121.518 183.784Z" fill="#2C7D42"/>
<path d="M249.977 26.1476L250.961 26.7166L239.707 46.1441C242.566 44.8321 251.587 40.3134 254.699 34.2372C258.415 26.9783 256.477 22.3903 252.284 20.2483C248.091 18.1063 243.233 19.2213 239.515 26.4803C236.365 32.6335 238.058 42.762 238.647 45.7061L249.977 26.1476Z" fill="#2C7D42"/>
<path d="M355.142 147.659L356.126 148.228L344.872 167.655C347.731 166.343 356.752 161.825 359.864 155.748C363.58 148.489 361.642 143.902 357.449 141.76C353.257 139.617 348.398 140.732 344.681 147.992C341.53 154.145 343.223 164.273 343.812 167.217L355.142 147.659Z" fill="#2C7D42"/>
</g>
<defs>
<clipPath id="clip0_434_60">
<rect width="465" height="351" fill="white"/>
</clipPath>
</defs>
</svg>

