<svg width="288" height="215" viewBox="0 0 288 215" fill="none" xmlns="http://www.w3.org/2000/svg">
<g clip-path="url(#clip0)">
<path d="M45.7349 0.763412L26.6912 34.7579H30.5355V62.4791H11.1615L0 82.4028L138.299 147.296L184.034 65.6562L45.7349 0.763412Z" fill="#F2F2F2"/>
<path d="M253.744 22.8772H41.714V120.231H253.744V22.8772Z" fill="#3F3D56"/>
<path opacity="0.3" d="M227.961 57.8588H71.4631V58.2073H227.961V57.8588Z" fill="#E5E5E5"/>
<path opacity="0.3" d="M228.141 66.1092H71.6434V66.4576H228.141V66.1092Z" fill="#E5E5E5"/>
<path opacity="0.3" d="M228.141 82.6098H71.6434V82.9583H228.141V82.6098Z" fill="#E5E5E5"/>
<path opacity="0.3" d="M228.141 89.8702H71.6434V90.2186H228.141V89.8702Z" fill="#E5E5E5"/>
<path opacity="0.3" d="M228.141 74.3595H71.6434V74.708H228.141V74.3595Z" fill="#E5E5E5"/>
<path d="M204.342 214.286C241.384 214.286 271.413 211.774 271.413 208.675C271.413 205.577 241.384 203.065 204.342 203.065C167.3 203.065 137.272 205.577 137.272 208.675C137.272 211.774 167.3 214.286 204.342 214.286Z" fill="#3F3D56"/>
<path d="M75.9852 90.1093L75.4875 89.6314L98.7823 69.3114L119.317 82.8295L135.922 65.9802L143.204 71.6446L163.011 60.768L185.012 74.3016L219.543 56.326L219.9 56.8996L184.981 75.0774L162.989 61.5498L143.131 72.4542L135.989 66.898L119.42 83.7103L98.8465 70.1671L75.9852 90.1093Z" fill="#E2D135"/>
<path d="M143.068 197.401C144.763 203.135 150.568 206.686 150.568 206.686C150.568 206.686 153.625 200.941 151.93 195.207C150.236 189.474 144.431 185.923 144.431 185.923C144.431 185.923 141.373 191.668 143.068 197.401Z" fill="#3F3D56"/>
<path d="M145.559 196.169C150.209 200.312 150.777 206.681 150.777 206.681C150.777 206.681 143.805 206.333 139.155 202.19C134.504 198.047 133.936 191.678 133.936 191.678C133.936 191.678 140.908 192.026 145.559 196.169Z" fill="#E2D135"/>
<path opacity="0.4" d="M275.92 29.4775C282.592 29.4775 288 24.5278 288 18.422C288 12.3163 282.592 7.36655 275.92 7.36655C269.249 7.36655 263.84 12.3163 263.84 18.422C263.84 24.5278 269.249 29.4775 275.92 29.4775Z" fill="#E2D135"/>
<path opacity="0.4" d="M253.563 31.4576C258.243 31.4576 262.037 27.9854 262.037 23.7023C262.037 19.4191 258.243 15.9469 253.563 15.9469C248.883 15.9469 245.089 19.4191 245.089 23.7023C245.089 27.9854 248.883 31.4576 253.563 31.4576Z" fill="#E2D135"/>
<path opacity="0.4" d="M243.106 170.064C245.595 170.064 247.613 168.217 247.613 165.939C247.613 163.66 245.595 161.813 243.106 161.813C240.617 161.813 238.599 163.66 238.599 165.939C238.599 168.217 240.617 170.064 243.106 170.064Z" fill="#E2D135"/>
<path opacity="0.4" d="M166.299 190.525C168.191 190.525 169.725 189.121 169.725 187.39C169.725 185.658 168.191 184.254 166.299 184.254C164.407 184.254 162.874 185.658 162.874 187.39C162.874 189.121 164.407 190.525 166.299 190.525Z" fill="#E2D135"/>
<path opacity="0.4" d="M154.76 149.933C157.25 149.933 159.268 148.086 159.268 145.808C159.268 143.529 157.25 141.682 154.76 141.682C152.271 141.682 150.253 143.529 150.253 145.808C150.253 148.086 152.271 149.933 154.76 149.933Z" fill="#E2D135"/>
<path d="M219.307 62.314C221.896 62.314 223.994 60.3932 223.994 58.0238C223.994 55.6544 221.896 53.7336 219.307 53.7336C216.718 53.7336 214.619 55.6544 214.619 58.0238C214.619 60.3932 216.718 62.314 219.307 62.314Z" fill="#E2D135"/>
<path d="M188.848 135.731L184.874 136.135C184.874 136.135 183.108 143.409 184.874 153.107C186.641 162.806 188.848 172.504 188.848 172.504C188.848 172.504 190.614 204.024 191.498 204.428C192.381 204.832 200.329 207.257 200.77 204.832C201.212 202.408 201.212 147.046 201.212 147.046L207.393 173.717C207.393 173.717 208.276 207.257 210.043 207.257C211.809 207.257 217.549 206.853 217.549 204.024C217.549 201.196 218.874 164.018 218.874 164.018C218.874 164.018 218.432 136.539 216.666 135.731C214.9 134.923 188.848 135.731 188.848 135.731Z" fill="#2F2E41"/>
<path d="M192.381 203.216C192.381 203.216 188.407 202.812 187.524 203.216C186.641 203.62 185.316 206.449 187.524 208.065C189.731 209.682 195.471 212.106 197.238 212.106C198.462 212.057 199.664 211.782 200.77 211.298L199.887 204.428L192.381 203.216Z" fill="#2F2E41"/>
<path d="M210.043 205.237L210.484 210.894C210.484 210.894 216.224 211.702 216.666 210.894C217.107 210.086 221.523 208.065 221.964 207.661C222.406 207.257 222.847 202.812 220.198 202.408C217.549 202.004 216.666 203.216 216.666 203.216L210.043 205.237Z" fill="#2F2E41"/>
<path d="M172.953 101.786C172.953 101.786 162.355 111.081 163.68 115.93C165.005 120.779 175.602 134.923 175.602 134.923C175.602 134.923 185.757 139.772 187.082 134.923C188.407 130.073 180.017 131.286 180.017 131.286L173.394 116.738L180.9 107.04L172.953 101.786Z" fill="#FFB8B8"/>
<path d="M220.304 87.646C220.304 87.646 229.957 81.9646 229.734 78.0614C229.51 74.1582 223.691 61.8511 223.691 61.8511C223.691 61.8511 219.138 53.1885 217.328 56.7287C215.518 60.269 219.707 64.0375 219.707 64.0375L222.41 76.1102L215.063 82.5252L220.304 87.646Z" fill="#FFB8B8"/>
<path d="M196.355 79.5606C200.744 79.5606 204.302 76.304 204.302 72.2867C204.302 68.2695 200.744 65.0128 196.355 65.0128C191.965 65.0128 188.407 68.2695 188.407 72.2867C188.407 76.304 191.965 79.5606 196.355 79.5606Z" fill="#FFB8B8"/>
<path d="M192.381 76.7319L193.705 84.4098L203.419 82.7934C203.419 82.7934 202.978 75.1155 202.978 74.3072C202.978 73.499 192.381 76.7319 192.381 76.7319Z" fill="#FFB8B8"/>
<path d="M191.939 84.4098C191.939 84.4098 202.978 81.9852 204.302 82.7934C205.627 83.6016 212.25 84.4098 212.25 84.4098L219.757 94.9165L217.549 108.252C217.549 108.252 217.107 129.669 217.99 133.306C218.874 136.943 223.731 137.347 213.575 138.156C203.419 138.964 201.653 137.751 194.588 139.368C187.524 140.984 181.784 138.56 183.55 136.943C185.316 135.327 188.407 109.464 184.874 107.04C181.342 104.615 180.017 92.0878 180.017 92.0878C180.017 92.0878 191.939 86.4303 191.939 84.4098Z" fill="#D0CDE1"/>
<path d="M210.926 85.6221L212.25 84.4098L214.9 81.9852C214.9 81.9852 223.51 85.4201 223.068 86.6324C222.627 87.8447 219.757 94.9165 219.757 94.9165L215.783 96.1288L210.926 85.6221Z" fill="#D0CDE1"/>
<path d="M185.316 92.896L180.017 92.0878C180.017 92.0878 176.043 96.1288 174.719 97.7452C173.394 99.3617 170.745 103.403 170.745 103.403L180.017 109.464L187.082 102.594L185.316 92.896Z" fill="#D0CDE1"/>
<path d="M199.128 63.4744L199.047 62.8917C198.507 62.8888 197.969 62.9661 197.456 63.1204C197.404 62.769 197.437 62.4114 197.554 62.0733C197.033 62.196 196.536 62.3938 196.082 62.6591L195.761 61.5957L191.347 63.5866C189.762 64.3013 188.092 65.0866 187.186 66.4746C186.176 68.0219 186.352 70.0106 187.042 71.6985C187.733 73.3865 188.88 74.8803 189.799 76.4742C190.148 77.1595 190.568 77.813 191.052 78.4257C192.718 80.3265 195.961 80.7106 198.31 79.5633C199.204 79.1691 199.917 78.4981 200.322 77.669C200.493 77.1547 200.627 76.6307 200.724 76.1004C201.014 75.0141 201.351 72.7718 202.316 72.0847C202.74 71.7823 203.581 72.7847 203.932 72.4123C204.836 71.4554 204.646 69.9796 204.085 68.8239C203.547 67.6632 202.917 66.5395 202.202 65.4618C201.898 65.0285 199.118 63.4045 199.128 63.4744Z" fill="#2F2E41"/>
<path d="M27.6508 38.7179H4.5728V59.8389H27.6508V38.7179Z" fill="#3F3D56"/>
</g>
<defs>
<clipPath id="clip0">
<rect width="288" height="213.522" fill="white" transform="translate(0 0.763412)"/>
</clipPath>
</defs>
</svg>
